<svg xmlns="http://www.w3.org/2000/svg" xmlns:xlink="http://www.w3.org/1999/xlink" viewBox="0 0 27.44 27.42"><defs><style>.cls-1{fill:url(#linear-gradient);}</style><linearGradient id="linear-gradient" y1="13.71" x2="27.44" y2="13.71" gradientUnits="userSpaceOnUse"><stop offset="0" stop-color="#2d9ac0"/><stop offset="1" stop-color="#6ce8ab"/></linearGradient></defs><title>Asset 17</title><g id="Layer_2" data-name="Layer 2"><g id="Layer_1-2" data-name="Layer 1"><path class="cls-1" d="M27.43,21.64A1.34,1.34,0,0,1,27,22.8l-3.86,3.84a2.25,2.25,0,0,1-.69.49,2.69,2.69,0,0,1-.82.26l-.18,0h-.38a12.89,12.89,0,0,1-4.8-1.12,24.9,24.9,0,0,1-4.06-2.22A30.31,30.31,0,0,1,7.41,20,31.76,31.76,0,0,1,4,16.18,28.84,28.84,0,0,1,1.89,12.8,18.63,18.63,0,0,1,.67,10,15.42,15.42,0,0,1,.12,7.8,7.77,7.77,0,0,1,0,6.36C0,6,0,5.82,0,5.78A2.77,2.77,0,0,1,.3,5a2.09,2.09,0,0,1,.49-.68L4.65.41A1.28,1.28,0,0,1,5.58,0a1.06,1.06,0,0,1,.67.22,1.82,1.82,0,0,1,.49.54L9.85,6.65a1.38,1.38,0,0,1,.15,1,1.77,1.77,0,0,1-.5.93L8.08,10a.48.48,0,0,0-.1.19.69.69,0,0,0,0,.22,4.93,4.93,0,0,0,.52,1.39,12.66,12.66,0,0,0,1.07,1.7,18.5,18.5,0,0,0,2.07,2.31,19.63,19.63,0,0,0,2.32,2.08A13.4,13.4,0,0,0,15.62,19a4.62,4.62,0,0,0,1,.42l.37.07a.63.63,0,0,0,.19,0,.57.57,0,0,0,.18-.1l1.66-1.69a1.78,1.78,0,0,1,1.22-.46,1.52,1.52,0,0,1,.79.17h0l5.61,3.31A1.46,1.46,0,0,1,27.43,21.64Z"/></g></g></svg>