<svg id="Layer_1" data-name="Layer 1" xmlns="http://www.w3.org/2000/svg" xmlns:xlink="http://www.w3.org/1999/xlink" viewBox="0 0 400 400"><defs><style>.cls-1{isolation:isolate;}.cls-2{fill:url(#linear-gradient);}.cls-3{fill:url(#linear-gradient-2);}.cls-4{fill:url(#linear-gradient-3);}.cls-5{fill:url(#linear-gradient-4);}.cls-6{fill:url(#linear-gradient-5);}.cls-7{fill:url(#linear-gradient-6);}</style><linearGradient id="linear-gradient" x1="-18.78" y1="346.52" x2="409.76" y2="-0.82" gradientUnits="userSpaceOnUse"><stop offset="0" stop-color="#2d9bc0"/><stop offset="1" stop-color="#82caa2"/></linearGradient><linearGradient id="linear-gradient-2" x1="28.65" y1="405.03" x2="457.18" y2="57.7" xlink:href="#linear-gradient"/><linearGradient id="linear-gradient-3" x1="-46.08" y1="312.83" x2="382.45" y2="-34.5" xlink:href="#linear-gradient"/><linearGradient id="linear-gradient-4" x1="-29.85" y1="332.86" x2="398.68" y2="-14.47" xlink:href="#linear-gradient"/><linearGradient id="linear-gradient-5" x1="-13.21" y1="353.39" x2="415.32" y2="6.05" xlink:href="#linear-gradient"/><linearGradient id="linear-gradient-6" x1="31.96" y1="409.12" x2="460.5" y2="61.79" xlink:href="#linear-gradient"/></defs><title>12</title><g class="cls-1"><path class="cls-2" d="M384.82,13.93H15.18A15.2,15.2,0,0,0,0,29.11V309.28a15.2,15.2,0,0,0,15.18,15.19H154.59v48.84H94.39a6.38,6.38,0,1,0,0,12.76H305.61a6.38,6.38,0,0,0,0-12.76h-60.2V324.47H384.82A15.2,15.2,0,0,0,400,309.28V29.11A15.2,15.2,0,0,0,384.82,13.93ZM232.64,373.31H167.36V324.47h65.28Zm154.59-64a2.45,2.45,0,0,1-2.41,2.42H15.18a2.45,2.45,0,0,1-2.41-2.42V29.11a2.45,2.45,0,0,1,2.41-2.42H384.82a2.45,2.45,0,0,1,2.41,2.42Z"/><path class="cls-3" d="M367.21,259.77H32.79a6.38,6.38,0,1,0,0,12.76H367.21a6.38,6.38,0,1,0,0-12.76Z"/><path class="cls-4" d="M93.62,238.49h34a6.38,6.38,0,0,0,6.38-6.38v-92.6a6.39,6.39,0,0,0-6.38-6.39h-34a6.39,6.39,0,0,0-6.39,6.39v92.6A6.39,6.39,0,0,0,93.62,238.49Zm6.38-92.6h21.28v79.83H100Z"/><path class="cls-5" d="M153.19,238.49h34a6.39,6.39,0,0,0,6.39-6.38V109.31a6.39,6.39,0,0,0-6.39-6.39h-34a6.39,6.39,0,0,0-6.38,6.39v122.8A6.38,6.38,0,0,0,153.19,238.49Zm6.38-122.8h21.28v110H159.57Z"/><path class="cls-6" d="M212.77,238.49h34a6.38,6.38,0,0,0,6.38-6.38V80.75a6.38,6.38,0,0,0-6.38-6.38h-34a6.39,6.39,0,0,0-6.39,6.38V232.11A6.39,6.39,0,0,0,212.77,238.49Zm6.38-151.35h21.28V225.72H219.15Z"/><path class="cls-7" d="M272.34,238.49h34a6.39,6.39,0,0,0,6.39-6.38V168.88a6.39,6.39,0,0,0-6.39-6.38h-34a6.38,6.38,0,0,0-6.38,6.38v63.23A6.38,6.38,0,0,0,272.34,238.49Zm6.38-63.23H300v50.46H278.72Z"/></g></svg>