<svg xmlns="http://www.w3.org/2000/svg" xmlns:xlink="http://www.w3.org/1999/xlink" viewBox="0 0 206.61 212.87"><defs><style>.cls-1{fill:url(#linear-gradient);}.cls-2{fill:url(#linear-gradient-2);}.cls-3{fill:url(#linear-gradient-3);}.cls-4{fill:url(#linear-gradient-4);}.cls-5{fill:url(#linear-gradient-5);}.cls-6{fill:url(#linear-gradient-6);}.cls-7{fill:url(#linear-gradient-7);}.cls-8{fill:url(#linear-gradient-8);}.cls-9{fill:url(#linear-gradient-9);}.cls-10{fill:url(#linear-gradient-10);}.cls-11{fill:url(#linear-gradient-11);}.cls-12{fill:url(#linear-gradient-12);}.cls-13{fill:url(#linear-gradient-13);}.cls-14{fill:url(#linear-gradient-14);}.cls-15{fill:url(#linear-gradient-15);}.cls-16{fill:url(#linear-gradient-16);}.cls-17{fill:url(#linear-gradient-17);}.cls-18{fill:url(#linear-gradient-18);}.cls-19{fill:url(#linear-gradient-19);}.cls-20{opacity:0.8;isolation:isolate;}.cls-21{fill:url(#linear-gradient-20);}.cls-22{fill:url(#linear-gradient-21);}.cls-23{fill:url(#linear-gradient-22);}.cls-24{fill:url(#linear-gradient-23);}.cls-25{fill:url(#linear-gradient-24);}.cls-26{fill:url(#linear-gradient-25);}.cls-27{fill:url(#linear-gradient-26);}.cls-28{fill:url(#linear-gradient-27);}</style><linearGradient id="linear-gradient" x1="168.51" y1="-12.81" x2="-45.53" y2="111.93" gradientUnits="userSpaceOnUse"><stop offset="0" stop-color="#6ce8ab"/><stop offset="1" stop-color="#2d9ac0"/></linearGradient><linearGradient id="linear-gradient-2" x1="174.67" y1="-2.26" x2="-39.38" y2="122.49" xlink:href="#linear-gradient"/><linearGradient id="linear-gradient-3" x1="173.4" y1="-4.44" x2="-40.65" y2="120.31" xlink:href="#linear-gradient"/><linearGradient id="linear-gradient-4" x1="169.79" y1="-10.63" x2="-44.26" y2="114.11" xlink:href="#linear-gradient"/><linearGradient id="linear-gradient-5" x1="243.94" y1="116.61" x2="29.9" y2="241.36" xlink:href="#linear-gradient"/><linearGradient id="linear-gradient-6" x1="250.1" y1="127.17" x2="36.05" y2="251.91" xlink:href="#linear-gradient"/><linearGradient id="linear-gradient-7" x1="248.82" y1="124.99" x2="34.78" y2="249.73" xlink:href="#linear-gradient"/><linearGradient id="linear-gradient-8" x1="245.21" y1="118.79" x2="31.17" y2="243.54" xlink:href="#linear-gradient"/><linearGradient id="linear-gradient-9" x1="238.72" y1="107.64" x2="24.67" y2="232.39" xlink:href="#linear-gradient"/><linearGradient id="linear-gradient-10" x1="244.87" y1="118.2" x2="30.83" y2="242.95" xlink:href="#linear-gradient"/><linearGradient id="linear-gradient-11" x1="243.6" y1="116.02" x2="29.55" y2="240.77" xlink:href="#linear-gradient"/><linearGradient id="linear-gradient-12" x1="239.99" y1="109.82" x2="25.94" y2="234.57" xlink:href="#linear-gradient"/><linearGradient id="linear-gradient-13" x1="214.65" y1="66.35" x2="0.61" y2="191.1" xlink:href="#linear-gradient"/><linearGradient id="linear-gradient-14" x1="181.5" y1="9.46" x2="-32.55" y2="134.21" xlink:href="#linear-gradient"/><linearGradient id="linear-gradient-15" x1="203.89" y1="47.89" x2="-10.15" y2="172.63" xlink:href="#linear-gradient"/><linearGradient id="linear-gradient-16" x1="207.34" y1="53.81" x2="-6.7" y2="178.55" xlink:href="#linear-gradient"/><linearGradient id="linear-gradient-17" x1="173.81" y1="-3.72" x2="-40.23" y2="121.02" xlink:href="#linear-gradient"/><linearGradient id="linear-gradient-18" x1="173.77" y1="-3.79" x2="-40.27" y2="120.95" xlink:href="#linear-gradient"/><linearGradient id="linear-gradient-19" x1="225.4" y1="84.79" x2="11.36" y2="209.54" xlink:href="#linear-gradient"/><linearGradient id="linear-gradient-20" x1="17" y1="169.44" x2="99.24" y2="169.44" gradientUnits="userSpaceOnUse"><stop offset="0" stop-color="#2d9ac0"/><stop offset="1" stop-color="#6ce8ab"/></linearGradient><linearGradient id="linear-gradient-21" x1="116.01" y1="45.3" x2="206.61" y2="45.3" xlink:href="#linear-gradient-20"/><linearGradient id="linear-gradient-22" x1="84.26" y1="109.5" x2="109.96" y2="109.5" xlink:href="#linear-gradient-20"/><linearGradient id="linear-gradient-23" x1="169.39" y1="152.48" x2="175.68" y2="152.48" xlink:href="#linear-gradient-20"/><linearGradient id="linear-gradient-24" x1="0" y1="184.99" x2="6.29" y2="184.99" xlink:href="#linear-gradient-20"/><linearGradient id="linear-gradient-25" x1="159.44" y1="135.66" x2="165.73" y2="135.66" xlink:href="#linear-gradient-20"/><linearGradient id="linear-gradient-26" x1="158.17" y1="154.53" x2="164.46" y2="154.53" xlink:href="#linear-gradient-20"/><linearGradient id="linear-gradient-27" x1="8.76" y1="109.65" x2="15.05" y2="109.65" xlink:href="#linear-gradient-20"/></defs><title>Asset 13</title><g id="Layer_2" data-name="Layer 2"><g id="Layer_1-2" data-name="Layer 1"><path class="cls-1" d="M19.78,77.68h0a3.12,3.12,0,0,1-3.1-3.13v-1.4a3.13,3.13,0,0,1,3.12-3.1h0a3.12,3.12,0,0,1,3.1,3.13v1.4A3.12,3.12,0,0,1,19.78,77.68Z"/><path class="cls-2" d="M19.74,91.85h0a3.12,3.12,0,0,1-3.11-3.14V87.32a3.12,3.12,0,0,1,3.12-3.1h0a3.12,3.12,0,0,1,3.11,3.13v1.4A3.12,3.12,0,0,1,19.74,91.85Z"/><path class="cls-3" d="M27.55,84.09H26.14a3.12,3.12,0,0,1,0-6.24h1.41a3.12,3.12,0,0,1,0,6.23Z"/><path class="cls-4" d="M13.38,84.05H12a3.12,3.12,0,0,1,0-6.23h1.4a3.12,3.12,0,0,1,0,6.24Z"/><path class="cls-5" d="M109.63,198.7h0a3.12,3.12,0,0,1-3.1-3.13v-1.39a3.11,3.11,0,0,1,3.11-3.11h0a3.12,3.12,0,0,1,3.1,3.14v1.39A3.11,3.11,0,0,1,109.63,198.7Z"/><path class="cls-6" d="M109.58,212.87h0a3.12,3.12,0,0,1-3.1-3.13v-1.4a3.12,3.12,0,0,1,3.12-3.1h0a3.12,3.12,0,0,1,3.1,3.13v1.4A3.12,3.12,0,0,1,109.58,212.87Z"/><path class="cls-7" d="M117.39,205.11H116a3.12,3.12,0,0,1,0-6.24h1.4a3.12,3.12,0,1,1,0,6.23Z"/><path class="cls-8" d="M103.22,205.07h-1.41a3.12,3.12,0,0,1,0-6.23h1.41a3.12,3.12,0,0,1,0,6.24Z"/><path class="cls-9" d="M130.31,174.63h0a3.12,3.12,0,0,1-3.11-3.13v-1.39a3.11,3.11,0,0,1,3.12-3.1h0a3.11,3.11,0,0,1,3.1,3.13v1.39A3.11,3.11,0,0,1,130.31,174.63Z"/><path class="cls-10" d="M130.27,188.8h0a3.12,3.12,0,0,1-3.1-3.13v-1.39a3.12,3.12,0,0,1,3.11-3.11h0a3.12,3.12,0,0,1,3.1,3.14v1.39A3.11,3.11,0,0,1,130.27,188.8Z"/><path class="cls-11" d="M138.07,181.05h-1.4a3.12,3.12,0,0,1,0-6.24h1.41a3.12,3.12,0,0,1,0,6.24Z"/><path class="cls-12" d="M123.91,181H122.5a3.12,3.12,0,0,1,0-6.24h1.41a3.12,3.12,0,1,1,0,6.23Z"/><path class="cls-13" d="M79.29,166.13a5.1,5.1,0,0,0-1.46,4.52L82.17,196a5.11,5.11,0,0,1-7.42,5.39L52,189.42a5.08,5.08,0,0,0-4.76,0l-22.74,12A5.11,5.11,0,0,1,17.08,196l.64-3.72,3.7-21.61A5.08,5.08,0,0,0,20,166.13L1.55,148.19a5.11,5.11,0,0,1,2.84-8.72l25.43-3.7A5.12,5.12,0,0,0,33.67,133l11.37-23a5.11,5.11,0,0,1,9.17,0l11.37,23a5.1,5.1,0,0,0,3.85,2.79l7.86,1.15,17.57,2.55a5.11,5.11,0,0,1,2.83,8.72Z"/><path class="cls-14" d="M65.32,97.08a3.12,3.12,0,0,1-2.21-5.32l80.5-80.5A3.12,3.12,0,0,1,148,15.67l-80.5,80.5A3.1,3.1,0,0,1,65.32,97.08Z"/><path class="cls-15" d="M114.1,117.14a3.12,3.12,0,0,1-2.21-5.32L178,45.67a3.12,3.12,0,1,1,4.41,4.41L116.3,116.22A3.12,3.12,0,0,1,114.1,117.14Z"/><path class="cls-16" d="M183.63,71.64a3.12,3.12,0,0,1-2.21-5.32L185.73,62a3.12,3.12,0,1,1,4.41,4.41l-4.31,4.31A3.1,3.1,0,0,1,183.63,71.64Z"/><path class="cls-17" d="M64.09,64.24a3.12,3.12,0,0,1-2.21-5.32l4.32-4.31A3.12,3.12,0,1,1,70.61,59l-4.32,4.31A3.09,3.09,0,0,1,64.09,64.24Z"/><path class="cls-18" d="M87.38,50.57a3.12,3.12,0,0,1-2.2-5.32l4.31-4.32a3.12,3.12,0,0,1,4.41,4.42l-4.31,4.31A3.11,3.11,0,0,1,87.38,50.57Z"/><path class="cls-19" d="M103.41,168.79a3.12,3.12,0,0,1-2.21-5.32l46.9-46.9a3.12,3.12,0,1,1,4.41,4.41l-46.9,46.9A3.09,3.09,0,0,1,103.41,168.79Z"/><g class="cls-20"><path class="cls-21" d="M79.29,166.13a5.1,5.1,0,0,0-1.46,4.52L82.17,196a5.11,5.11,0,0,1-7.42,5.39L52,189.42a5.08,5.08,0,0,0-4.76,0l-22.74,12A5.11,5.11,0,0,1,17.08,196l.64-3.72c39.86-17,54.72-38.27,59.57-55.34l17.57,2.55a5.11,5.11,0,0,1,2.83,8.72Z"/><path class="cls-22" d="M119.13,90.59a3.12,3.12,0,0,1-2.2-5.32L201.28.91a3.12,3.12,0,1,1,4.41,4.41L121.34,89.68A3.11,3.11,0,0,1,119.13,90.59Z"/><path class="cls-23" d="M87.38,122.34a3.12,3.12,0,0,1-2.2-5.32l19.45-19.45A3.11,3.11,0,1,1,109,102L89.59,121.43A3.11,3.11,0,0,1,87.38,122.34Z"/><path class="cls-24" d="M172.57,155.6h-.07a3.12,3.12,0,0,1,0-6.24h.07a3.12,3.12,0,0,1,0,6.24Z"/><path class="cls-25" d="M3.17,188.11H3.11a3.12,3.12,0,0,1,0-6.24h.07a3.12,3.12,0,0,1,0,6.24Z"/><path class="cls-26" d="M162.61,138.78h-.07a3.12,3.12,0,0,1,0-6.23h.06a3.12,3.12,0,1,1,0,6.23Z"/><path class="cls-27" d="M161.34,157.65h-.07a3.12,3.12,0,0,1,0-6.24h.07a3.12,3.12,0,0,1,0,6.24Z"/><path class="cls-28" d="M11.87,112.77a3.12,3.12,0,0,1-.22-6.23h0a3.12,3.12,0,1,1,.45,6.22h-.28Z"/></g></g></g></svg>