<svg xmlns="http://www.w3.org/2000/svg" xmlns:xlink="http://www.w3.org/1999/xlink" viewBox="0 0 67.37 55.8"><defs><style>.cls-1{isolation:isolate;}.cls-2{fill:url(#linear-gradient);}.cls-3{fill:url(#linear-gradient-2);}.cls-4{fill:url(#linear-gradient-3);}.cls-5{fill:url(#linear-gradient-4);}</style><linearGradient id="linear-gradient" x1="5.95" y1="52.78" x2="60.62" y2="8.78" gradientUnits="userSpaceOnUse"><stop offset="0" stop-color="#2d9ac0"/><stop offset="1" stop-color="#6ce8ab"/></linearGradient><linearGradient id="linear-gradient-2" x1="8.96" y1="56.52" x2="63.63" y2="12.52" xlink:href="#linear-gradient"/><linearGradient id="linear-gradient-3" x1="5.16" y1="51.79" x2="59.82" y2="7.79" xlink:href="#linear-gradient"/><linearGradient id="linear-gradient-4" x1="-5.46" y1="38.6" x2="49.2" y2="-5.4" xlink:href="#linear-gradient"/></defs><title>Asset 1</title><g id="Layer_2" data-name="Layer 2"><g id="Layer_1-2" data-name="Layer 1"><g class="cls-1"><path class="cls-2" d="M26.77,48.61a3.26,3.26,0,0,1,1.56-2.15c2.39,1.92,4.81,3.83,7.17,5.81a2.51,2.51,0,0,0,2.67.6C45.67,50,53.16,47,60.84,44c1.7-8.37,2.39-16.87,4-25.45L44.66,2.32,20.84,11.58A4.31,4.31,0,0,0,20.47,14c1.47.61,3.07,0,4.54.38.59.66.49,1.38.27,2.32H5.88A2.33,2.33,0,0,1,6,14.31H17c1.1-1.17.74-2.48,1.13-3.41,1.16-2.25,3.48-2.42,5.31-3.18C29.62,5.16,36,2.9,42.22.44a5,5,0,0,1,5.53.94c5.83,4.77,11.74,9.44,17.64,14.13a4.69,4.69,0,0,1,1.87,4.88C65.83,27.6,65,34.9,64,42.17a6,6,0,0,1-4.32,5.25C52.82,50,46,52.73,39.2,55.35a4.5,4.5,0,0,1-5-.68C31.82,52.6,29.3,50.66,26.77,48.61Z"/><path class="cls-3" d="M56.3,38.87,54.81,41l-15.17-12L24.5,34.52c-.94-.5-1.08-1.21-1.25-2.28l15.46-5.69,3-17.81A3.23,3.23,0,0,1,44.27,9c-1,5.9-1.92,11.79-2.92,18Z"/><path class="cls-4" d="M31,41.7a3.41,3.41,0,0,1,.17,2.52H7.43c-.66-.64-.24-1.36-.27-2.38H17.59c-1.41-2-3.65-3.06-3.42-5.36.21-2.06.68-4.08,1-6.09a2.87,2.87,0,0,1,2.52.1c-.31,2.09-.63,4.19-.91,6C20.25,42.11,25.49,42.31,31,41.7Z"/><path class="cls-5" d="M15.58,24.51c.89-1.7.81-3.16,1.17-4.46a3.73,3.73,0,0,1,2.25.32c.62,1.24-.5,2.45-.09,3.57.57.77,1.53.33,2.09.94a2.18,2.18,0,0,1-.31,2.19c-6.67,0-13.53.21-20.44-.33-.33-.92-.33-.92,0-2.23Z"/></g></g></g></svg>