<svg xmlns="http://www.w3.org/2000/svg" xmlns:xlink="http://www.w3.org/1999/xlink" viewBox="0 0 41.5 41.44"><defs><style>.cls-1{fill:url(#linear-gradient);}.cls-2{fill:url(#linear-gradient-2);}.cls-3{fill:url(#linear-gradient-3);}.cls-4{fill:url(#linear-gradient-4);}.cls-5{fill:url(#linear-gradient-5);}.cls-6{fill:url(#linear-gradient-6);}.cls-7{fill:url(#linear-gradient-7);}.cls-8{fill:url(#linear-gradient-8);}.cls-9{fill:url(#linear-gradient-9);}.cls-10{fill:url(#linear-gradient-10);}.cls-11{fill:url(#linear-gradient-11);}.cls-12{fill:url(#linear-gradient-12);}.cls-13{fill:url(#linear-gradient-13);}.cls-14{fill:url(#linear-gradient-14);}.cls-15{fill:url(#linear-gradient-15);}</style><linearGradient id="linear-gradient" x1="7.67" y1="-9.02" x2="51.67" y2="30.98" gradientUnits="userSpaceOnUse"><stop offset="0" stop-color="#2d9ac0"/><stop offset="1" stop-color="#6ce8ab"/></linearGradient><linearGradient id="linear-gradient-2" x1="17.04" y1="-19.32" x2="61.04" y2="20.68" xlink:href="#linear-gradient"/><linearGradient id="linear-gradient-3" x1="4.93" y1="-6" x2="48.93" y2="34" xlink:href="#linear-gradient"/><linearGradient id="linear-gradient-4" x1="3.8" y1="-4.76" x2="47.8" y2="35.24" xlink:href="#linear-gradient"/><linearGradient id="linear-gradient-5" x1="8.5" y1="-9.92" x2="52.5" y2="30.08" xlink:href="#linear-gradient"/><linearGradient id="linear-gradient-6" x1="13.89" y1="-15.85" x2="57.89" y2="24.15" xlink:href="#linear-gradient"/><linearGradient id="linear-gradient-7" x1="10.74" y1="-12.39" x2="54.74" y2="27.61" xlink:href="#linear-gradient"/><linearGradient id="linear-gradient-8" x1="-2.01" y1="1.63" x2="41.99" y2="41.63" xlink:href="#linear-gradient"/><linearGradient id="linear-gradient-9" x1="14.25" y1="-16.25" x2="58.25" y2="23.75" xlink:href="#linear-gradient"/><linearGradient id="linear-gradient-10" x1="7.59" y1="-8.93" x2="51.59" y2="31.07" xlink:href="#linear-gradient"/><linearGradient id="linear-gradient-11" x1="1.14" y1="-1.83" x2="45.14" y2="38.17" xlink:href="#linear-gradient"/><linearGradient id="linear-gradient-12" x1="11.38" y1="-13.1" x2="55.38" y2="26.9" xlink:href="#linear-gradient"/><linearGradient id="linear-gradient-13" x1="0.24" y1="-0.84" x2="44.24" y2="39.16" xlink:href="#linear-gradient"/><linearGradient id="linear-gradient-14" x1="-2.63" y1="2.31" x2="41.37" y2="42.31" xlink:href="#linear-gradient"/><linearGradient id="linear-gradient-15" x1="-10.71" y1="11.21" x2="33.29" y2="51.21" xlink:href="#linear-gradient"/></defs><title>Asset 8</title><g id="Layer_2" data-name="Layer 2"><g id="Layer_1-2" data-name="Layer 1"><path class="cls-1" d="M35.22,8.28l-4,4Q28.54,15,25.81,17.69a.72.72,0,0,1-1.12,0,.73.73,0,0,1,.06-1.13L34,7.42a2.85,2.85,0,0,1,.2-.22H32a.68.68,0,0,1-.76-.74A.69.69,0,0,1,32,5.71h3.93a.73.73,0,0,1,.79.79c0,1.22,0,2.45,0,3.67A.7.7,0,0,1,36,11c-.52,0-.77-.29-.79-.78S35.22,9,35.22,8.28Z"/><path class="cls-2" d="M40,1.54c-.71,0-1.36,0-2,0A.73.73,0,0,1,37.12.8.72.72,0,0,1,37.9,0c.93,0,1.86,0,2.8,0a.75.75,0,0,1,.78.82v2.7a.73.73,0,0,1-.76.84C40.2,4.38,40,4,40,3.54,39.93,2.89,40,2.24,40,1.54Z"/><path class="cls-3" d="M13.25,1.54c0,.78,0,1.52,0,2.26a.65.65,0,0,1-.81.57.71.71,0,0,1-.66-.75c0-1,0-1.92,0-2.88A.71.71,0,0,1,12.58,0h2.7a.75.75,0,0,1,.84.77c0,.51-.34.76-.86.76Z"/><path class="cls-4" d="M40,28.17c0-.79,0-1.55,0-2.29a.63.63,0,0,1,.79-.55.7.7,0,0,1,.66.71c0,1,0,1.94,0,2.92a.61.61,0,0,1-.51.66c-1.12,0-2.25,0-3.37,0-.38,0-.53-.43-.46-.81a.71.71,0,0,1,.72-.62C38.53,28.16,39.21,28.17,40,28.17Z"/><path class="cls-5" d="M20.26,1.54c-.46,0-.92,0-1.38,0A.72.72,0,0,1,18.1.81.71.71,0,0,1,18.84,0q1.43,0,2.85,0a.71.71,0,0,1,.75.79.72.72,0,0,1-.8.73C21.18,1.55,20.72,1.54,20.26,1.54Z"/><path class="cls-6" d="M41.49,8.54c0,.49,0,1,0,1.46a.71.71,0,0,1-.69.7.63.63,0,0,1-.77-.51C40,9.1,40,8,40,6.9a.62.62,0,0,1,.77-.54.7.7,0,0,1,.68.72c0,.49,0,1,0,1.46Z"/><path class="cls-7" d="M41.48,14.87c0,.44,0,.88,0,1.32a.75.75,0,0,1-.7.84A.66.66,0,0,1,40,16.4q-.06-1.59,0-3.18a.63.63,0,0,1,.77-.54.71.71,0,0,1,.68.71C41.5,13.88,41.48,14.38,41.48,14.87Z"/><path class="cls-8" d="M11.71,14.85a17.17,17.17,0,0,1,.16-1.76.61.61,0,0,1,.71-.41c.33,0,.63.2.64.54,0,1.08,0,2.16,0,3.23a.64.64,0,0,1-.77.58.73.73,0,0,1-.7-.78c0-.46,0-.93,0-1.4Z"/><path class="cls-9" d="M33,1.54c-.46,0-.91,0-1.36,0A.72.72,0,0,1,30.8.82a.72.72,0,0,1,.74-.8c1,0,1.91,0,2.87,0a.7.7,0,0,1,.73.8.72.72,0,0,1-.79.72C33.88,1.55,33.41,1.54,33,1.54Z"/><path class="cls-10" d="M41.48,21.35c-.08.44.17,1.06-.12,1.64a.67.67,0,0,1-.73.36c-.32-.05-.61-.22-.62-.55,0-1.08,0-2.16,0-3.23a.64.64,0,0,1,.8-.56.72.72,0,0,1,.67.74C41.49,20.23,41.48,20.71,41.48,21.35Z"/><path class="cls-11" d="M11.71,8.51a17.19,17.19,0,0,1,.17-1.76.6.6,0,0,1,.7-.4c.32,0,.63.2.64.54,0,1.07.06,2.15,0,3.23a.64.64,0,0,1-.79.58.73.73,0,0,1-.69-.79c0-.46,0-.93,0-1.4Z"/><path class="cls-12" d="M26.64,1.54c-.31,0-.62,0-.93,0-.59,0-1.22,0-1.22-.77S25.16,0,25.73,0H28c.49,0,.84.25.83.79s-.35.74-.85.74Z"/><path class="cls-13" d="M33,29.64a13.14,13.14,0,0,1-1.66,0,.63.63,0,0,1-.51-.72c0-.36.21-.68.54-.69,1.11,0,2.21,0,3.32,0,.41,0,.54.41.48.8a.71.71,0,0,1-.71.63c-.49,0-1,0-1.46,0Z"/><path class="cls-14" d="M26.66,28.14a11.94,11.94,0,0,1,1.7.12c.39.07.52.44.44.82a.67.67,0,0,1-.69.59c-1,0-1.95,0-2.93,0a.69.69,0,0,1-.71-.75.71.71,0,0,1,.73-.74c.48,0,1,0,1.46,0Z"/><rect class="cls-15" y="19.97" width="21.46" height="21.46" rx="2.35" ry="2.35"/></g></g></svg>