<svg xmlns="http://www.w3.org/2000/svg" xmlns:xlink="http://www.w3.org/1999/xlink" viewBox="0 0 44.04 55"><defs><style>.cls-1,.cls-2,.cls-3{opacity:0.8;isolation:isolate;}.cls-1{fill:url(#linear-gradient);}.cls-2{fill:url(#linear-gradient-2);}.cls-3{fill:url(#linear-gradient-3);}</style><linearGradient id="linear-gradient" x1="15.38" y1="36.98" x2="31.17" y2="17.57" gradientUnits="userSpaceOnUse"><stop offset="0" stop-color="#2d9ac0"/><stop offset="1" stop-color="#6ce8ab"/></linearGradient><linearGradient id="linear-gradient-2" x1="6.78" y1="40.01" x2="48.96" y2="27.85" xlink:href="#linear-gradient"/><linearGradient id="linear-gradient-3" x1="-1.08" y1="17.9" x2="47.31" y2="4.71" xlink:href="#linear-gradient"/></defs><title>Asset 14</title><g id="Layer_2" data-name="Layer 2"><g id="Layer_1-2" data-name="Layer 1"><path class="cls-1" d="M13.63,34.69a2.62,2.62,0,0,0,2.78,2.46h11.3a1.85,1.85,0,0,0,.47,0h0a2.64,2.64,0,0,0,2.4-2.86h0V26.22a2.6,2.6,0,0,0-2.67-2.51c-.52,0-.64-.18-.64-.65v-3a4.81,4.81,0,0,0-2.39-4.56,7.11,7.11,0,0,0-3.7-.52A4.44,4.44,0,0,0,17,18.77,29.6,29.6,0,0,0,16.92,23c0,.49-.14.69-.65.64a2.29,2.29,0,0,0-1.41.41,2.94,2.94,0,0,0-1.23,2.88v7.46A1.71,1.71,0,0,0,13.63,34.69Zm9.89-4.14c.11.69.19,1.4.31,2.09.08.51,0,.8-.59.74a7.23,7.23,0,0,0-1.14,0l0,0c-1.87,0-1.89,0-1.62-1.87a2.94,2.94,0,0,0-.34-2.35,2.13,2.13,0,0,1,.65-2.87,2.29,2.29,0,0,1,2.87.23,2.22,2.22,0,0,1,.11,3,1.22,1.22,0,0,0-.29,1.05ZM19.36,19.32a3,3,0,0,1,.37-.82A2.91,2.91,0,0,1,25,20.25c.06.95,0,1.91,0,2.87,0,.37-.11.52-.5.52H19.62c-.57,0-.55-.28-.48-.66A11.83,11.83,0,0,1,19.36,19.32Z"/><polygon class="cls-2" points="44.04 22.55 40.25 22.55 40.25 40.13 22.09 50.61 3.88 40.09 3.88 22.55 0.08 22.55 0.08 42.25 0.14 42.25 0.11 42.3 22.06 54.98 22.07 55 44.04 42.32 44 42.25 44.04 42.25 44.04 22.55"/><polygon class="cls-3" points="3.79 11.13 11.03 11.13 11.03 11.14 14.83 11.14 14.83 3.79 29.3 3.79 29.3 11.14 33.09 11.14 33.09 11.13 40.17 11.13 40.17 20.22 43.96 20.22 43.96 7.36 42.19 7.36 42.19 7.34 33.09 7.34 33.09 3.79 33.09 3.79 33.09 0 11.04 0 11.04 2.03 11.03 2.03 11.03 7.34 1.9 7.34 1.9 7.36 0 7.36 0 20.22 3.79 20.22 3.79 11.13"/></g></g></svg>