<svg xmlns="http://www.w3.org/2000/svg" xmlns:xlink="http://www.w3.org/1999/xlink" viewBox="0 0 198.18 206"><defs><style>.cls-1,.cls-10,.cls-11,.cls-12,.cls-13,.cls-14,.cls-15,.cls-16,.cls-17,.cls-18,.cls-19,.cls-2,.cls-26,.cls-27,.cls-28,.cls-29,.cls-3,.cls-30,.cls-31,.cls-32,.cls-33,.cls-4,.cls-5,.cls-6,.cls-7,.cls-8,.cls-9{opacity:0.8;isolation:isolate;}.cls-1{fill:url(#linear-gradient);}.cls-2{fill:url(#linear-gradient-2);}.cls-3{fill:url(#linear-gradient-3);}.cls-4{fill:url(#linear-gradient-4);}.cls-5{fill:url(#linear-gradient-5);}.cls-6{fill:url(#linear-gradient-6);}.cls-7{fill:url(#linear-gradient-7);}.cls-8{fill:url(#linear-gradient-8);}.cls-9{fill:url(#linear-gradient-9);}.cls-10{fill:url(#linear-gradient-10);}.cls-11{fill:url(#linear-gradient-11);}.cls-12{fill:url(#linear-gradient-12);}.cls-13{fill:url(#linear-gradient-13);}.cls-14{fill:url(#linear-gradient-14);}.cls-15{fill:url(#linear-gradient-15);}.cls-16{fill:url(#linear-gradient-16);}.cls-17{fill:url(#linear-gradient-17);}.cls-18{fill:url(#linear-gradient-18);}.cls-20{fill:url(#linear-gradient-19);}.cls-21{fill:url(#linear-gradient-20);}.cls-22{fill:url(#linear-gradient-21);}.cls-23{fill:url(#linear-gradient-22);}.cls-24{fill:url(#linear-gradient-23);}.cls-25{fill:url(#linear-gradient-24);}.cls-26{fill:url(#linear-gradient-25);}.cls-27{fill:url(#linear-gradient-26);}.cls-28{fill:url(#linear-gradient-27);}.cls-29{fill:url(#linear-gradient-28);}.cls-30{fill:url(#linear-gradient-29);}.cls-31{fill:url(#linear-gradient-30);}.cls-32{fill:url(#linear-gradient-31);}.cls-33{fill:url(#linear-gradient-32);}</style><linearGradient id="linear-gradient" x1="3.06" y1="166.48" x2="68.78" y2="166.48" gradientUnits="userSpaceOnUse"><stop offset="0" stop-color="#2d9ac0"/><stop offset="1" stop-color="#6ce8ab"/></linearGradient><linearGradient id="linear-gradient-2" x1="14.32" y1="176.36" x2="68.78" y2="176.36" xlink:href="#linear-gradient"/><linearGradient id="linear-gradient-3" x1="8.33" y1="80.34" x2="59.69" y2="80.34" xlink:href="#linear-gradient"/><linearGradient id="linear-gradient-4" x1="17.13" y1="88.06" x2="59.69" y2="88.06" xlink:href="#linear-gradient"/><linearGradient id="linear-gradient-5" x1="81.13" y1="187.14" x2="120.59" y2="187.14" xlink:href="#linear-gradient"/><linearGradient id="linear-gradient-6" x1="87.89" y1="193.07" x2="120.59" y2="193.07" xlink:href="#linear-gradient"/><linearGradient id="linear-gradient-7" x1="143.61" y1="25.5" x2="194.6" y2="25.5" xlink:href="#linear-gradient"/><linearGradient id="linear-gradient-8" x1="54.93" y1="114.58" x2="105.13" y2="114.58" xlink:href="#linear-gradient"/><linearGradient id="linear-gradient-9" x1="71.43" y1="129.64" x2="97.56" y2="129.64" xlink:href="#linear-gradient"/><linearGradient id="linear-gradient-10" x1="135.1" y1="96.26" x2="198.18" y2="96.26" xlink:href="#linear-gradient"/><linearGradient id="linear-gradient-11" x1="110.14" y1="142.39" x2="130.89" y2="142.39" xlink:href="#linear-gradient"/><linearGradient id="linear-gradient-12" x1="65.1" y1="81.15" x2="80.9" y2="81.15" xlink:href="#linear-gradient"/><linearGradient id="linear-gradient-13" x1="104.82" y1="20.61" x2="124.58" y2="20.61" xlink:href="#linear-gradient"/><linearGradient id="linear-gradient-14" x1="65.1" y1="51.93" x2="101.65" y2="51.93" xlink:href="#linear-gradient"/><linearGradient id="linear-gradient-15" x1="56.63" y1="42.06" x2="76.97" y2="42.06" xlink:href="#linear-gradient"/><linearGradient id="linear-gradient-16" x1="104.51" y1="65.72" x2="139.13" y2="65.72" xlink:href="#linear-gradient"/><linearGradient id="linear-gradient-17" x1="110.44" y1="70.92" x2="139.13" y2="70.92" xlink:href="#linear-gradient"/><linearGradient id="linear-gradient-18" x1="121.68" y1="155.46" x2="145.34" y2="155.46" xlink:href="#linear-gradient"/><linearGradient id="linear-gradient-19" x1="128.09" y1="108.1" x2="141.23" y2="108.1" xlink:href="#linear-gradient"/><linearGradient id="linear-gradient-20" x1="170.36" y1="30.75" x2="184.88" y2="30.75" xlink:href="#linear-gradient"/><linearGradient id="linear-gradient-21" x1="38.79" y1="25.31" x2="44.92" y2="25.31" xlink:href="#linear-gradient"/><linearGradient id="linear-gradient-22" x1="38.76" y1="36.19" x2="44.89" y2="36.19" xlink:href="#linear-gradient"/><linearGradient id="linear-gradient-23" x1="43.68" y1="30.77" x2="50.88" y2="30.77" xlink:href="#linear-gradient"/><linearGradient id="linear-gradient-24" x1="32.81" y1="30.73" x2="40" y2="30.73" xlink:href="#linear-gradient"/><linearGradient id="linear-gradient-25" x1="5.99" y1="120.44" x2="12.12" y2="120.44" xlink:href="#linear-gradient"/><linearGradient id="linear-gradient-26" x1="5.95" y1="131.32" x2="12.08" y2="131.32" xlink:href="#linear-gradient"/><linearGradient id="linear-gradient-27" x1="10.88" y1="125.89" x2="18.07" y2="125.89" xlink:href="#linear-gradient"/><linearGradient id="linear-gradient-28" x1="0" y1="125.86" x2="7.19" y2="125.86" xlink:href="#linear-gradient"/><linearGradient id="linear-gradient-29" x1="159.39" y1="157.11" x2="165.52" y2="157.11" xlink:href="#linear-gradient"/><linearGradient id="linear-gradient-30" x1="159.35" y1="167.98" x2="165.49" y2="167.98" xlink:href="#linear-gradient"/><linearGradient id="linear-gradient-31" x1="164.28" y1="162.56" x2="171.47" y2="162.56" xlink:href="#linear-gradient"/><linearGradient id="linear-gradient-32" x1="153.4" y1="162.53" x2="160.6" y2="162.53" xlink:href="#linear-gradient"/></defs><title>Asset 16</title><g id="Layer_2" data-name="Layer 2"><g id="Layer_1-2" data-name="Layer 1"><path class="cls-1" d="M55.57,174.17a3.37,3.37,0,0,0-1,3l2.88,16.78a3.38,3.38,0,0,1-4.91,3.56L37.5,189.59a3.32,3.32,0,0,0-3.15,0L19.29,197.5a3.39,3.39,0,0,1-4.92-3.56l.43-2.47,2.45-14.31a3.37,3.37,0,0,0-1-3L4.09,162.29A3.39,3.39,0,0,1,6,156.51l16.83-2.44a3.36,3.36,0,0,0,2.55-1.85L32.89,137A3.38,3.38,0,0,1,39,137l7.53,15.26A3.36,3.36,0,0,0,49,154.07l5.2.75,11.63,1.69a3.39,3.39,0,0,1,1.88,5.78Z"/><path class="cls-2" d="M55.57,174.17a3.37,3.37,0,0,0-1,3l2.88,16.78a3.38,3.38,0,0,1-4.91,3.56L37.5,189.59a3.32,3.32,0,0,0-3.15,0L19.29,197.5a3.39,3.39,0,0,1-4.92-3.56l.43-2.47C41.19,180.21,51,166.13,54.24,154.82l11.63,1.69a3.39,3.39,0,0,1,1.88,5.78Z"/><path class="cls-3" d="M49.37,86.34a2.62,2.62,0,0,0-.76,2.34l2.24,13.11A2.65,2.65,0,0,1,47,104.58L35.24,98.39a2.61,2.61,0,0,0-2.46,0L21,104.58a2.65,2.65,0,0,1-3.84-2.79l.33-1.93,1.92-11.18a2.64,2.64,0,0,0-.76-2.34L9.13,77.06a2.65,2.65,0,0,1,1.47-4.52l13.16-1.91a2.63,2.63,0,0,0,2-1.45l5.89-11.92a2.64,2.64,0,0,1,4.74,0l5.89,11.92a2.63,2.63,0,0,0,2,1.45l4.07.59,9.09,1.32a2.65,2.65,0,0,1,1.47,4.52Z"/><path class="cls-4" d="M49.37,86.34a2.62,2.62,0,0,0-.76,2.34l2.24,13.11A2.65,2.65,0,0,1,47,104.58L35.24,98.39a2.61,2.61,0,0,0-2.46,0L21,104.58a2.65,2.65,0,0,1-3.84-2.79l.33-1.93c20.63-8.8,28.32-19.8,30.83-28.64l9.09,1.32a2.65,2.65,0,0,1,1.47,4.52Z"/><path class="cls-5" d="M112.66,191.75a2,2,0,0,0-.59,1.8l1.73,10.07a2,2,0,0,1-3,2.14l-9-4.75a2.06,2.06,0,0,0-1.9,0l-9,4.75a2,2,0,0,1-3-2.14l.26-1.48,1.47-8.59a2,2,0,0,0-.59-1.8l-7.31-7.13a2,2,0,0,1,1.13-3.47L93,179.68a2,2,0,0,0,1.53-1.11L99,169.41a2,2,0,0,1,3.64,0l4.53,9.16a2,2,0,0,0,1.53,1.11l3.12.46,7,1a2,2,0,0,1,1.13,3.47Z"/><path class="cls-6" d="M112.66,191.75a2,2,0,0,0-.59,1.8l1.73,10.07a2,2,0,0,1-3,2.14l-9-4.75a2.06,2.06,0,0,0-1.9,0l-9,4.75a2,2,0,0,1-3-2.14l.26-1.48c15.84-6.76,21.75-15.21,23.68-22l7,1a2,2,0,0,1,1.13,3.47Z"/><path class="cls-7" d="M146.67,51a3.06,3.06,0,0,1-2.17-5.22L189.38.9a3.06,3.06,0,1,1,4.33,4.33L148.84,50.1A3.06,3.06,0,0,1,146.67,51Z"/><path class="cls-8" d="M58,139.68a3.07,3.07,0,0,1-2.17-5.23L99.9,90.37a3.07,3.07,0,0,1,4.33,4.34L60.15,138.78A3,3,0,0,1,58,139.68Z"/><path class="cls-9" d="M74.49,142.7a3.07,3.07,0,0,1-2.16-5.23l20-20a3.06,3.06,0,1,1,4.33,4.33l-20,20A3.05,3.05,0,0,1,74.49,142.7Z"/><path class="cls-10" d="M138.16,127.8a3.07,3.07,0,0,1-2.16-5.23L193,65.62A3.06,3.06,0,1,1,197.28,70l-56.95,57A3.05,3.05,0,0,1,138.16,127.8Z"/><path class="cls-11" d="M113.2,152.76a3.06,3.06,0,0,1-2.17-5.22l14.63-14.64a3.07,3.07,0,1,1,4.34,4.34l-14.63,14.63A3.1,3.1,0,0,1,113.2,152.76Z"/><path class="cls-12" d="M68.16,89.05A3.07,3.07,0,0,1,66,83.82l9.67-9.67A3.06,3.06,0,1,1,80,78.48l-9.67,9.67A3.05,3.05,0,0,1,68.16,89.05Z"/><path class="cls-13" d="M107.88,30.49a3.07,3.07,0,0,1-2.16-5.23l13.63-13.63A3.06,3.06,0,0,1,123.68,16L110.05,29.59A3.05,3.05,0,0,1,107.88,30.49Z"/><path class="cls-14" d="M68.16,70.21A3.07,3.07,0,0,1,66,65L96.42,34.56a3.06,3.06,0,1,1,4.33,4.33L70.33,69.31A3.05,3.05,0,0,1,68.16,70.21Z"/><path class="cls-15" d="M59.69,52.23A3.06,3.06,0,0,1,57.53,47L71.75,32.78a3.07,3.07,0,0,1,4.33,4.34L61.86,51.34A3.08,3.08,0,0,1,59.69,52.23Z"/><path class="cls-16" d="M132.17,69.77a1.78,1.78,0,0,0-.51,1.58l1.51,8.83a1.78,1.78,0,0,1-2.59,1.88l-7.93-4.17a1.8,1.8,0,0,0-1.66,0l-7.93,4.17a1.78,1.78,0,0,1-2.59-1.88l.22-1.3L112,71.35a1.78,1.78,0,0,0-.51-1.58l-6.42-6.26a1.78,1.78,0,0,1,1-3l8.87-1.29a1.77,1.77,0,0,0,1.34-1l4-8a1.79,1.79,0,0,1,3.2,0l4,8a1.77,1.77,0,0,0,1.34,1l2.74.4,6.13.89a1.78,1.78,0,0,1,1,3Z"/><path class="cls-17" d="M132.17,69.77a1.78,1.78,0,0,0-.51,1.58l1.51,8.83a1.78,1.78,0,0,1-2.59,1.88l-7.93-4.17a1.8,1.8,0,0,0-1.66,0l-7.93,4.17a1.78,1.78,0,0,1-2.59-1.88l.22-1.3c13.91-5.93,19.09-13.35,20.78-19.3l6.13.89a1.78,1.78,0,0,1,1,3Z"/><path class="cls-18" d="M124.74,167.29a3.06,3.06,0,0,1-2.17-5.22l17.54-17.54a3.06,3.06,0,1,1,4.33,4.33L126.9,166.4A3,3,0,0,1,124.74,167.29Z"/><g class="cls-19"><path class="cls-20" d="M131.15,114.67a3.07,3.07,0,0,1-2.17-5.23l7-7a3.06,3.06,0,1,1,4.33,4.33l-7,7A3,3,0,0,1,131.15,114.67Z"/><path class="cls-21" d="M173.42,38a3.06,3.06,0,0,1-2.17-5.23l8.41-8.4A3.06,3.06,0,0,1,184,28.71l-8.4,8.41A3.1,3.1,0,0,1,173.42,38Z"/><path class="cls-22" d="M41.86,28.91h0a3.08,3.08,0,0,1-3.05-3.08V24.76a3.06,3.06,0,0,1,6.12,0v1.07A3.06,3.06,0,0,1,41.86,28.91Z"/><path class="cls-23" d="M41.82,39.78h0a3.05,3.05,0,0,1-3.05-3.07V35.64a3.05,3.05,0,0,1,3.06-3h0a3.06,3.06,0,0,1,3,3.08v1.07A3.06,3.06,0,0,1,41.82,39.78Z"/><path class="cls-24" d="M47.82,33.83H46.73a3.07,3.07,0,0,1,0-6.13h1.08a3.06,3.06,0,0,1,0,6.12Z"/><path class="cls-25" d="M36.94,33.8H35.86a3.06,3.06,0,0,1,0-6.12H37a3.07,3.07,0,0,1,0,6.13Z"/></g><path class="cls-26" d="M9.05,124H9A3.06,3.06,0,0,1,6,121v-1.07a3.07,3.07,0,1,1,6.13,0V121A3.07,3.07,0,0,1,9.05,124Z"/><path class="cls-27" d="M9,134.91H9a3.06,3.06,0,0,1-3-3.07v-1.07a3.06,3.06,0,1,1,6.12,0v1.06A3.06,3.06,0,0,1,9,134.91Z"/><path class="cls-28" d="M15,129H13.92a3.07,3.07,0,0,1,0-6.13H15A3.06,3.06,0,0,1,15,129Z"/><path class="cls-29" d="M4.13,128.93H3.05a3.06,3.06,0,1,1,0-6.12H4.15a3.07,3.07,0,0,1,0,6.13Z"/><path class="cls-30" d="M162.45,160.7h0a3.05,3.05,0,0,1-3.05-3.07v-1.07a3.07,3.07,0,0,1,3.07-3.05h0a3.07,3.07,0,0,1,3.05,3.08v1.07A3,3,0,0,1,162.45,160.7Z"/><path class="cls-31" d="M162.42,171.58h0a3.07,3.07,0,0,1-3.05-3.08v-1.07a3.06,3.06,0,0,1,3.06-3h0a3.07,3.07,0,0,1,3.05,3.08v1.06A3.06,3.06,0,0,1,162.42,171.58Z"/><path class="cls-32" d="M168.41,165.63h-1.08a3.06,3.06,0,0,1,0-6.12h1.08a3.07,3.07,0,0,1,0,6.13Z"/><path class="cls-33" d="M157.53,165.59h-1.08a3.07,3.07,0,0,1,0-6.13h1.09a3.06,3.06,0,1,1,0,6.12Z"/></g></g></svg>