<svg xmlns="http://www.w3.org/2000/svg" xmlns:xlink="http://www.w3.org/1999/xlink" viewBox="0 0 55.71 43"><defs><style>.cls-1{fill:url(#linear-gradient);}.cls-2{fill:url(#linear-gradient-2);}.cls-3{fill:url(#linear-gradient-3);}.cls-4{fill:url(#linear-gradient-4);}.cls-5{fill:url(#linear-gradient-5);}.cls-6{fill:url(#linear-gradient-6);}</style><linearGradient id="linear-gradient" x1="4.22" y1="-2.87" x2="63.36" y2="40.84" gradientUnits="userSpaceOnUse"><stop offset="0" stop-color="#2d9ac0"/><stop offset="1" stop-color="#6ce8ab"/></linearGradient><linearGradient id="linear-gradient-2" x1="2.25" y1="-0.2" x2="61.39" y2="43.51" xlink:href="#linear-gradient"/><linearGradient id="linear-gradient-3" x1="-9.9" y1="16.23" x2="49.24" y2="59.94" xlink:href="#linear-gradient"/><linearGradient id="linear-gradient-4" x1="4.71" y1="-3.52" x2="63.84" y2="40.19" xlink:href="#linear-gradient"/><linearGradient id="linear-gradient-5" x1="-2.11" y1="5.7" x2="57.02" y2="49.41" xlink:href="#linear-gradient"/><linearGradient id="linear-gradient-6" x1="12.98" y1="-14.72" x2="72.12" y2="28.99" xlink:href="#linear-gradient"/></defs><title>Asset 6</title><g id="Layer_2" data-name="Layer 2"><g id="Layer_1-2" data-name="Layer 1"><path class="cls-1" d="M42.1,30C35.57,34.43,27.71,33,23.46,27.35A13.41,13.41,0,0,1,42.36,8.64c5.11,3.9,7.22,11.56,2.69,18.45A7.87,7.87,0,0,0,46.86,29c2.28,2.08,4.24,4.49,6.52,6.57.54.51,1.06,1,1.57,1.58A2,2,0,1,1,52.11,40c-2.79-2.76-5.54-5.53-8.31-8.3C43.25,31.15,42.68,30.62,42.1,30ZM34.23,8.79A10.48,10.48,0,0,0,23.72,19.2,10.72,10.72,0,0,0,34.08,29.65,10.6,10.6,0,0,0,44.59,19.22,10.42,10.42,0,0,0,34.23,8.79Z"/><path class="cls-2" d="M49.37.26a1.53,1.53,0,0,1,.44,1.16c0,4.57,0,9.15-.15,13.76a15.93,15.93,0,0,0-1.08-2.66,7.19,7.19,0,0,1-.93-4.25c.06-2.06,0-4.12,0-6.15C46.71,1.82,3.7,1.74,2,2V28.19H20.9A24,24,0,0,0,26.05,33c-.91.3-23.37.38-25.29.1-.92-.6-.75-1.64-.74-2.54,0-1.56.06-3.11,0-4.67,0-.7.08-1.4.08-2.09Q.11,13,.1,2.33c0-.33,0-.66,0-1A1.21,1.21,0,0,1,1.41,0c.2,0,.41,0,.62,0H48A2.34,2.34,0,0,1,49.37.26Z"/><path class="cls-3" d="M21.77,34.74h6.44A2.65,2.65,0,0,1,28.74,36a6.85,6.85,0,0,0,6.58,4.91c.57,0,1.15,0,1.73,0,.77.06,1.25.52,1.2,1.13s-.47.89-1.24,1h-.13C28.93,43,21,43,13,43c-1.15,0-1.37-.35-1.16-1.58a1.63,1.63,0,0,1,1.45-.5,14.15,14.15,0,0,0,2.34-.15,6.61,6.61,0,0,0,5.43-4.49l.3-.81A1.2,1.2,0,0,1,21.77,34.74Z"/><path class="cls-4" d="M25.35,18.64a8.78,8.78,0,0,1,8.46-8.24,3.18,3.18,0,0,1,.62,0,1.06,1.06,0,0,1,.94,1,1.11,1.11,0,0,1-.81,1.23,4.53,4.53,0,0,1-1,.11,6.62,6.62,0,0,0-5.87,5.77c0,.21,0,.41,0,.62-.13.92-.59,1.37-1.33,1.29s-1-.53-1-1.44C25.33,18.88,25.34,18.76,25.35,18.64Z"/><path class="cls-5" d="M8,17.07c.14-1,.29-2,.44-3a4.16,4.16,0,0,1,.2-.79c.17-.44.41-.64.73-.63s.55.31.67.63a8.23,8.23,0,0,1,.33,1.55,33.82,33.82,0,0,0,.6,3.34,1.08,1.08,0,0,0,.22.49.59.59,0,0,0,.18-.41,28.45,28.45,0,0,0,.44-3.19,23.53,23.53,0,0,1,.34-2.64,2.32,2.32,0,0,1,.27-.72.67.67,0,0,1,1.12-.08,2,2,0,0,1,.37.82A18.54,18.54,0,0,1,14.19,15c0,.3.07.59.12.94.17-.2.28-.42.52-.5a2.29,2.29,0,0,1,.69,0,13.31,13.31,0,0,1,1.4,0,3.21,3.21,0,0,1-.42.85c-.41.08-.83,0-1.22.06-.16.09-.17.24-.24.36a1.21,1.21,0,0,1-.37.47.69.69,0,0,1-1.1-.31,5.12,5.12,0,0,1-.26-1.35c-.09-.82-.14-1.65-.3-2.57a3.35,3.35,0,0,0-.17.9c-.16,1.31-.25,2.63-.45,3.93a6.14,6.14,0,0,1-.32,1.33,1.55,1.55,0,0,1-.24.46.77.77,0,0,1-1.28,0,2.2,2.2,0,0,1-.43-.83,19.36,19.36,0,0,1-.59-2.9c-.07-.42-.13-.84-.22-1.27a9.53,9.53,0,0,0-.26,1.6c-.08.52-.15,1.05-.28,1.56a2.15,2.15,0,0,1-.18.48.69.69,0,0,1-1.23.09A2.37,2.37,0,0,1,7,17.48a6.57,6.57,0,0,0-.31-1.15c-.59-.18-1.24.05-1.83-.12a1.14,1.14,0,0,1-.08-.66c.13-.23.31-.2.48-.2h1.5a.75.75,0,0,1,.77.5,7,7,0,0,1,.29,1C7.86,16.92,7.83,17,8,17.07Z"/><polyline class="cls-6" points="49.66 15.18 47.65 11.13 47.65 8.11 49.69 12.85"/></g></g></svg>