<svg xmlns="http://www.w3.org/2000/svg" xmlns:xlink="http://www.w3.org/1999/xlink" viewBox="0 0 144 90.32"><defs><style>.cls-1{font-size:80px;fill:#1c3170;font-family:Muli-ExtraLight, Muli;}.cls-2{fill:url(#linear-gradient);}</style><linearGradient id="linear-gradient" x1="4.32" y1="40" x2="139.2" y2="40" gradientUnits="userSpaceOnUse"><stop offset="0" stop-color="#6ce8ab"/><stop offset="1" stop-color="#2d9ac0"/></linearGradient></defs><title>Asset 19</title><g id="Layer_2" data-name="Layer 2"><g id="Layer_1-2" data-name="Layer 1"><text class="cls-1" transform="translate(0 68.48)">$20</text><path class="cls-2" d="M38.56,64.2A20,20,0,0,1,26.48,69v8.72H23.12V69.12a28.3,28.3,0,0,1-10.32-2.2A26.61,26.61,0,0,1,4.32,61.2L6,58.32a31.48,31.48,0,0,0,8.12,5.48,24.71,24.71,0,0,0,8.92,2V42.16a59.57,59.57,0,0,1-9-2.92,15.4,15.4,0,0,1-6-4.56,12.36,12.36,0,0,1-2.4-8A14.62,14.62,0,0,1,7.8,18.8,15.62,15.62,0,0,1,14,13.2a21.71,21.71,0,0,1,9.12-2.32V2.24h3.36V11a27.33,27.33,0,0,1,9,2.32,22.7,22.7,0,0,1,7.36,5.28l-1.68,2.8a21.72,21.72,0,0,0-14.64-7.12V39.52a58.59,58.59,0,0,1,8.72,2.72A14.28,14.28,0,0,1,41,46.44a11.14,11.14,0,0,1,2.24,7.24A13.61,13.61,0,0,1,38.56,64.2ZM10.88,32.68a12.34,12.34,0,0,0,4.8,3.56A50.57,50.57,0,0,0,23,38.64V14.16q-6.55.4-10.28,3.72A11.36,11.36,0,0,0,9,26.8,9,9,0,0,0,10.88,32.68ZM36.2,62.08a11,11,0,0,0,3.48-8.48,7.53,7.53,0,0,0-3.36-6.72A32.05,32.05,0,0,0,26.56,43V65.76Q32.73,65.28,36.2,62.08Z"/><path class="cls-2" d="M90.72,65.44v3H55.44V65.92L75.92,42.8a44.33,44.33,0,0,0,6.64-9.24,18.18,18.18,0,0,0,2-8.12q0-5.45-3.12-8.4t-8.88-3A21.43,21.43,0,0,0,64,15.84a31,31,0,0,0-8.16,5.36l-1.68-2.8a24.47,24.47,0,0,1,8.32-5.48,25.9,25.9,0,0,1,9.92-2q7.27,0,11.48,3.88t4.2,10.6A21.66,21.66,0,0,1,85.76,35a49.1,49.1,0,0,1-7.52,10.56L60.16,65.44Z"/><path class="cls-2" d="M105.68,61.72Q100.79,54.33,100.8,40t4.88-21.72q4.88-7.4,14.32-7.4t14.36,7.32q4.83,7.32,4.84,21.72t-4.88,21.76q-4.89,7.44-14.32,7.44T105.68,61.72Zm26.08-2.24q3.84-6.36,3.84-19.56t-3.8-19.48Q128,14.16,120,14.16t-11.76,6.32q-3.84,6.32-3.84,19.44t3.84,19.52q3.84,6.41,11.76,6.4T131.76,59.48Z"/></g></g></svg>