<svg xmlns="http://www.w3.org/2000/svg" xmlns:xlink="http://www.w3.org/1999/xlink" viewBox="0 0 45.57 42"><defs><style>.cls-1{fill:url(#linear-gradient);}.cls-2{fill:url(#linear-gradient-2);}</style><linearGradient id="linear-gradient" x1="4.84" y1="37.78" x2="35.76" y2="5.67" gradientUnits="userSpaceOnUse"><stop offset="0" stop-color="#2d9ac0"/><stop offset="1" stop-color="#6ce8ab"/></linearGradient><linearGradient id="linear-gradient-2" x1="5.69" y1="38.59" x2="36.6" y2="6.49" xlink:href="#linear-gradient"/></defs><title>Asset 7</title><g id="Layer_2" data-name="Layer 2"><g id="Layer_1-2" data-name="Layer 1"><path class="cls-1" d="M36.11,17.21H37.4c.17,0,.22,0,.18-.21a13.7,13.7,0,0,0-.5-1.69,17.54,17.54,0,0,0-2-4,17.07,17.07,0,0,0-3.84-4A16.55,16.55,0,0,0,26.75,5,16.94,16.94,0,0,0,19.25,4a15.78,15.78,0,0,0-2.79.53,16.64,16.64,0,0,0-3.73,1.53A16.83,16.83,0,0,0,8.14,9.81a17.33,17.33,0,0,0-3,4.91,15.75,15.75,0,0,0-.91,3.17A16.7,16.7,0,0,0,4,21.76c0,.2.07.42-.1.6a.06.06,0,0,0,0,.07,3.41,3.41,0,0,1,.3,1.37A17.21,17.21,0,0,0,4.68,26a16.56,16.56,0,0,0,1.13,2.8,17.76,17.76,0,0,0,2.53,3.67,17,17,0,0,0,5.23,3.92,15.85,15.85,0,0,0,3.12,1.17,17.11,17.11,0,0,0,5.43.5,16,16,0,0,0,2.5-.34,17.27,17.27,0,0,0,9.08-5.29,16.2,16.2,0,0,0,2.08-2.86,1.94,1.94,0,0,1,1.93-1,1.9,1.9,0,0,1,1.65,1.26,2.14,2.14,0,0,1-.3,2,21.17,21.17,0,0,1-8.79,8.09A21.78,21.78,0,0,1,27,41.13a22.64,22.64,0,0,1-3.25.69,21.41,21.41,0,0,1-3.1.18,22.23,22.23,0,0,1-3.36-.33A20.88,20.88,0,0,1,8,37.48a21.39,21.39,0,0,1-6.1-7.78A21.85,21.85,0,0,1,.58,25.93,21.94,21.94,0,0,1,.07,22.7a20.87,20.87,0,0,1,.3-5.61,22.24,22.24,0,0,1,.8-3,21.09,21.09,0,0,1,4.13-7,21.23,21.23,0,0,1,2.76-2.6,21.8,21.8,0,0,1,4.47-2.68A21.32,21.32,0,0,1,15.85.64,20.62,20.62,0,0,1,21.32,0a20.14,20.14,0,0,1,3.37.33,22.47,22.47,0,0,1,3.13.81,20.66,20.66,0,0,1,3.67,1.69,20.87,20.87,0,0,1,6,5.18A20.16,20.16,0,0,1,40,12a20.51,20.51,0,0,1,1.3,3.48c.14.53.27,1.06.37,1.59,0,.19.15.19.3.19h2.63a1,1,0,0,1,1,1.07,1.06,1.06,0,0,1-.3.65l-2.76,3.14c-.68.77-1.35,1.55-2,2.32a1,1,0,0,1-1.56,0L34.16,19a1,1,0,0,1,0-1.53,1,1,0,0,1,.69-.25Z"/><path class="cls-2" d="M17.7,22.33A3.26,3.26,0,0,1,19,19.69a.42.42,0,0,0,.19-.37c0-3.75,0-7.49,0-11.23a1.75,1.75,0,0,1,1-1.65,1.67,1.67,0,0,1,1.9.14,1.61,1.61,0,0,1,.71,1.32c.06,3.82,0,7.65,0,11.47a.37.37,0,0,0,.15.3,3.14,3.14,0,0,1,1.3,2.15.64.64,0,0,0,.36.52c1.81,1,3.6,2.08,5.4,3.12l1.16.66a1.78,1.78,0,0,1,.63,2.58,1.82,1.82,0,0,1-2.42.54L23.68,26c-.3-.17-.6-.33-.89-.52a.53.53,0,0,0-.54-.06,3,3,0,0,1-2.17.13A3.25,3.25,0,0,1,18,23.72a3.4,3.4,0,0,1-.25-.74A2,2,0,0,1,17.7,22.33Zm1.82,0A1.46,1.46,0,0,0,21,23.82a1.51,1.51,0,0,0,1.49-1.75A1.55,1.55,0,0,0,21,20.83,1.48,1.48,0,0,0,19.52,22.33Z"/></g></g></svg>