<svg xmlns="http://www.w3.org/2000/svg" xmlns:xlink="http://www.w3.org/1999/xlink" viewBox="0 0 43 43"><defs><style>.cls-1{fill:url(#linear-gradient);}.cls-2{fill:url(#linear-gradient-2);}.cls-3{fill:url(#linear-gradient-3);}.cls-4{fill:url(#linear-gradient-4);}.cls-5{fill:url(#linear-gradient-5);}.cls-6{fill:url(#linear-gradient-6);}</style><linearGradient id="linear-gradient" x1="0.02" y1="39.93" x2="43.02" y2="3.93" gradientUnits="userSpaceOnUse"><stop offset="0" stop-color="#2d9ac0"/><stop offset="1" stop-color="#6ce8ab"/></linearGradient><linearGradient id="linear-gradient-2" x1="8.12" y1="49.6" x2="51.12" y2="13.6" xlink:href="#linear-gradient"/><linearGradient id="linear-gradient-3" x1="-7.46" y1="31" x2="35.54" y2="-5" xlink:href="#linear-gradient"/><linearGradient id="linear-gradient-4" x1="-1.54" y1="38.06" x2="41.46" y2="2.06" xlink:href="#linear-gradient"/><linearGradient id="linear-gradient-5" x1="-1.75" y1="37.82" x2="41.25" y2="1.82" xlink:href="#linear-gradient"/><linearGradient id="linear-gradient-6" x1="1.09" y1="41.21" x2="44.09" y2="5.21" xlink:href="#linear-gradient"/></defs><title>Asset 8</title><g id="Layer_2" data-name="Layer 2"><g id="Layer_1-2" data-name="Layer 1"><path class="cls-1" d="M42.16,17.53H36.79a.84.84,0,0,0-.84.84v4.24a.84.84,0,1,0,1.68,0v-3.4h3.69V41.32H37.63V28.91a.84.84,0,0,0-1.68,0V41.32H34.27V23.94a.84.84,0,0,0-.84-.84H28.05a.84.84,0,0,0-.84.84V41.32H25.53V29.81a.84.84,0,0,0-.84-.84H19.32a.84.84,0,0,0-.84.84V41.32H16.8V34.63a.85.85,0,0,0-.84-.84H10.58a.85.85,0,0,0-.84.84v6.69H2.52a.85.85,0,0,1-.84-.84v-38a.85.85,0,0,1,.84-.84H24.19V7.22A2.52,2.52,0,0,0,26.7,9.74h5.55V20.07a.84.84,0,0,0,1.68,0V8.9a.83.83,0,0,0-.25-.59L25.62.25A.83.83,0,0,0,25,0H2.52A2.52,2.52,0,0,0,0,2.52v38A2.52,2.52,0,0,0,2.52,43H42.16a.85.85,0,0,0,.84-.84V18.37A.85.85,0,0,0,42.16,17.53ZM25.87,2.87l5.19,5.19H26.7a.83.83,0,0,1-.83-.84ZM15.12,41.32h-3.7V35.47h3.7Zm8.73,0H20.16V30.65h3.69Zm8.74,0h-3.7V24.78h3.7Z"/><path class="cls-2" d="M37.38,25a.86.86,0,0,0-1.19,0,.89.89,0,0,0-.24.6.87.87,0,0,0,.24.59.85.85,0,0,0,1.44-.59A.86.86,0,0,0,37.38,25Z"/><path class="cls-3" d="M12.23,4.6a.83.83,0,0,0-.84.84V7a7.72,7.72,0,1,0,8.52,8.52h1.51a.85.85,0,0,0,.84-.84A10,10,0,0,0,12.23,4.6Zm0,16.07a6,6,0,0,1-.84-12v6a.84.84,0,0,0,.84.84h6A6.06,6.06,0,0,1,12.23,20.67Zm.84-6.88h0V6.32a8.35,8.35,0,0,1,7.46,7.47Z"/><path class="cls-4" d="M21.42,24.71h-16a.84.84,0,1,0,0,1.68h16a.84.84,0,1,0,0-1.68Z"/><path class="cls-5" d="M10.75,28.76H5.38a.84.84,0,0,0,0,1.68h5.37a.84.84,0,0,0,0-1.68Z"/><path class="cls-6" d="M15.55,29a.83.83,0,0,0-1.19,0,.84.84,0,0,0,1.19,1.19.83.83,0,0,0,0-1.19Z"/></g></g></svg>