<svg xmlns="http://www.w3.org/2000/svg" xmlns:xlink="http://www.w3.org/1999/xlink" viewBox="0 0 26.25 42"><defs><style>.cls-1{fill:url(#linear-gradient);}.cls-2{fill:url(#linear-gradient-2);}.cls-3{fill:url(#linear-gradient-3);}.cls-4{fill:url(#linear-gradient-4);}.cls-5{fill:url(#linear-gradient-5);}.cls-6{fill:url(#linear-gradient-6);}</style><linearGradient id="linear-gradient" x1="-9.95" y1="45.16" x2="28.05" y2="-3.84" gradientUnits="userSpaceOnUse"><stop offset="0" stop-color="#2d9ac0"/><stop offset="1" stop-color="#6ce8ab"/></linearGradient><linearGradient id="linear-gradient-2" x1="5.3" y1="56.99" x2="43.3" y2="7.99" xlink:href="#linear-gradient"/><linearGradient id="linear-gradient-3" x1="-2.33" y1="51.08" x2="35.67" y2="2.08" xlink:href="#linear-gradient"/><linearGradient id="linear-gradient-4" x1="-19.79" y1="37.54" x2="18.21" y2="-11.46" xlink:href="#linear-gradient"/><linearGradient id="linear-gradient-5" x1="-4.53" y1="49.37" x2="33.47" y2="0.37" xlink:href="#linear-gradient"/><linearGradient id="linear-gradient-6" x1="-12.16" y1="43.45" x2="25.84" y2="-5.55" xlink:href="#linear-gradient"/></defs><title>Asset 5</title><g id="Layer_2" data-name="Layer 2"><g id="Layer_1-2" data-name="Layer 1"><path class="cls-1" d="M26.25,5.25A5.25,5.25,0,1,1,21,0,5.25,5.25,0,0,1,26.25,5.25Z"/><path class="cls-2" d="M26.25,36.75A5.25,5.25,0,1,1,21,31.5,5.25,5.25,0,0,1,26.25,36.75Z"/><path class="cls-3" d="M26.25,21A5.25,5.25,0,1,1,21,15.75,5.25,5.25,0,0,1,26.25,21Z"/><path class="cls-4" d="M10.5,5.25A5.25,5.25,0,1,1,5.25,0,5.25,5.25,0,0,1,10.5,5.25Z"/><path class="cls-5" d="M10.5,36.75A5.25,5.25,0,1,1,5.25,31.5,5.25,5.25,0,0,1,10.5,36.75Z"/><path class="cls-6" d="M10.5,21a5.25,5.25,0,1,1-5.25-5.25A5.25,5.25,0,0,1,10.5,21Z"/></g></g></svg>