<svg xmlns="http://www.w3.org/2000/svg" xmlns:xlink="http://www.w3.org/1999/xlink" viewBox="0 0 49.43 40"><defs><style>.cls-1{fill:url(#linear-gradient);}.cls-2{fill:url(#linear-gradient-2);}.cls-3{fill:url(#linear-gradient-3);}.cls-4{fill:url(#linear-gradient-4);}.cls-5{fill:url(#linear-gradient-5);}.cls-6{fill:url(#linear-gradient-6);}.cls-7{fill:url(#linear-gradient-7);}.cls-8{fill:url(#linear-gradient-8);}.cls-9{fill:url(#linear-gradient-9);}.cls-10{fill:url(#linear-gradient-10);}.cls-11{fill:url(#linear-gradient-11);}</style><linearGradient id="linear-gradient" x1="-5.9" y1="30.11" x2="49.6" y2="-2.88" gradientUnits="userSpaceOnUse"><stop offset="0" stop-color="#2d9ac0"/><stop offset="1" stop-color="#6ce8ab"/></linearGradient><linearGradient id="linear-gradient-2" x1="3.29" y1="45.58" x2="58.79" y2="12.58" xlink:href="#linear-gradient"/><linearGradient id="linear-gradient-3" x1="-0.8" y1="38.69" x2="54.7" y2="5.69" xlink:href="#linear-gradient"/><linearGradient id="linear-gradient-4" x1="0.86" y1="41.49" x2="56.36" y2="8.49" xlink:href="#linear-gradient"/><linearGradient id="linear-gradient-5" x1="2.58" y1="44.37" x2="58.07" y2="11.37" xlink:href="#linear-gradient"/><linearGradient id="linear-gradient-6" x1="4.17" y1="47.06" x2="59.67" y2="14.06" xlink:href="#linear-gradient"/><linearGradient id="linear-gradient-7" x1="-1.89" y1="36.86" x2="53.61" y2="3.86" xlink:href="#linear-gradient"/><linearGradient id="linear-gradient-8" x1="-0.22" y1="39.66" x2="55.27" y2="6.66" xlink:href="#linear-gradient"/><linearGradient id="linear-gradient-9" x1="3.08" y1="45.22" x2="58.58" y2="12.23" xlink:href="#linear-gradient"/><linearGradient id="linear-gradient-10" x1="1.49" y1="42.54" x2="56.99" y2="9.55" xlink:href="#linear-gradient"/><linearGradient id="linear-gradient-11" x1="-3.12" y1="34.8" x2="52.38" y2="1.8" xlink:href="#linear-gradient"/></defs><title>Asset 10</title><g id="Layer_2" data-name="Layer 2"><g id="Layer_1-2" data-name="Layer 1"><path class="cls-1" d="M5.79,36.41h10.7c.78,0,.79,0,.79-.79V28.89h0l-.06-7.11v0c0-.1,0-.22,0-.31l-.05-7.48a2.4,2.4,0,0,0,.06-.58V4.43c0-.89,0-.89-.87-.89H5.89c-.89,0-.9,0-.9.88V35.57C5,36.41,5,36.41,5.79,36.41Z"/><path class="cls-2" d="M49.43,36.28c0-.45-.15-.66-.62-.63s-.87,0-1.3,0c-.93,0-.93,0-.93-.94V9.54c0-.83,0-.83-.82-.83h-12c-.9,0-.9,0-.9.9q0,13.86,0,27.72c0,.83,0,.83-.84.83H.45c-.12,0-.27,0-.31.12a2.32,2.32,0,0,0-.05,1.45c.08.4.49.24.76.24H33.59c1.21,0,1.09.11,1.09-1.07q0-13.83,0-27.67c0-.5.09-.73.68-.72,2.87,0,5.75,0,8.62,0,.5,0,.65.18.64.65,0,1.26,0,2.52,0,3.78q0,10.58,0,21.16c0,.28,0,.55,0,.83s.17.55.57.55c1,0,2,0,3.07,0C49.46,37.48,49.45,37.48,49.43,36.28Z"/><path class="cls-3" d="M41.74,12.05c-1.61,0-1.4-.12-1.41,1.37s0,1.39,1.41,1.39,1.44,0,1.43-1.3C43.16,11.88,43.37,12.06,41.74,12.05Z"/><path class="cls-4" d="M41.75,18.56c1.63,0,1.41.2,1.43-1.4s.18-1.34-1.34-1.36h-.17c-1.51,0-1.34-.22-1.34,1.36S40.14,18.56,41.75,18.56Z"/><path class="cls-5" d="M41.9,22.46c1.44,0,1.27.13,1.27-1.31s0-1.45-1.41-1.45c-1.57,0-1.42-.22-1.43,1.21S40.33,22.46,41.9,22.46Z"/><path class="cls-6" d="M41.72,23.39c-1.59,0-1.39-.18-1.38,1.37s-.19,1.36,1.36,1.38,1.48,0,1.47-1.33C43.16,23.19,43.39,23.39,41.72,23.39Z"/><path class="cls-7" d="M37.6,12.06c-1.56,0-1.39-.17-1.39,1.38s-.16,1.34,1.38,1.37c1.37,0,1.37,0,1.37-1.36v-.06C38.94,11.91,39.19,12.06,37.6,12.06Z"/><path class="cls-8" d="M37.56,18.56c1.4,0,1.4,0,1.4-1.38s0-1.38-1.35-1.38-1.41,0-1.41,1.4S36.07,18.55,37.56,18.56Z"/><path class="cls-9" d="M37.58,23.39c-1.56,0-1.37-.21-1.37,1.39S36,26.12,37.6,26.14c1.36,0,1.36,0,1.36-1.38C38.94,23.22,39.2,23.39,37.58,23.39Z"/><path class="cls-10" d="M37.57,19.7h-.06c-1.45,0-1.3-.23-1.3,1.33s-.18,1.42,1.4,1.42,1.32.17,1.35-1.35S39,19.7,37.57,19.7Z"/><path class="cls-11" d="M18.48,27.86v7.82c0,.72,0,.75.78.75H30c1,0,1,0,1-1V.88c0-.52-.06-.88-.72-.88h-11c-.49,0-.72.19-.72.7q0,5.72,0,11.42l-.11,15.71Z"/></g></g></svg>