<svg xmlns="http://www.w3.org/2000/svg" xmlns:xlink="http://www.w3.org/1999/xlink" viewBox="0 0 49.87 55"><defs><style>.cls-1{fill:url(#linear-gradient);}.cls-2{fill:url(#linear-gradient-2);}.cls-3{fill:url(#linear-gradient-3);}.cls-4{fill:url(#linear-gradient-4);}.cls-5{fill:url(#linear-gradient-5);}.cls-6{fill:url(#linear-gradient-6);}</style><linearGradient id="linear-gradient" x1="-10.1" y1="50.1" x2="52.57" y2="-3.9" gradientUnits="userSpaceOnUse"><stop offset="0" stop-color="#2d9ac0"/><stop offset="1" stop-color="#6ce8ab"/></linearGradient><linearGradient id="linear-gradient-2" x1="5.96" y1="68.74" x2="68.63" y2="14.74" xlink:href="#linear-gradient"/><linearGradient id="linear-gradient-3" x1="-12.9" y1="46.86" x2="49.77" y2="-7.14" xlink:href="#linear-gradient"/><linearGradient id="linear-gradient-4" x1="-6.6" y1="54.16" x2="56.06" y2="0.16" xlink:href="#linear-gradient"/><linearGradient id="linear-gradient-5" x1="23.26" y1="30.48" x2="24.84" y2="29.12" xlink:href="#linear-gradient"/><linearGradient id="linear-gradient-6" x1="5.84" y1="68.6" x2="68.5" y2="14.6" xlink:href="#linear-gradient"/></defs><title>Asset 4</title><g id="Layer_2" data-name="Layer 2"><g id="Layer_1-2" data-name="Layer 1"><path class="cls-1" d="M44.94,28.93l-2.43-1.17V22.21c0-3.08,0-6.15,0-9.23a34.65,34.65,0,0,0-.1-4.67A4.29,4.29,0,0,0,39,4.93c-3.15-.45-6.29-.94-9.43-1.41-2.22-.33-4.44-.71-6.68-1a13.78,13.78,0,0,0-3.48.4c-3,.41-5.91.85-8.87,1.28C9,4.47,7.41,4.7,5.83,5A4.29,4.29,0,0,0,2.59,9c0,2.58,0,5.16,0,7.73,0,3.72.05,7.43,0,11.14A14.41,14.41,0,0,0,7,38.8C11.11,42.85,15.11,47,19.14,51a4.79,4.79,0,0,0,6.61.17L26,51l1.76,1.76a6,6,0,0,1-2.58,1.76,7.27,7.27,0,0,1-8.2-2C12.9,48.29,8.76,44.15,4.67,40A15.85,15.85,0,0,1,.36,31.69,24.81,24.81,0,0,1,0,26.9C0,21.07,0,15.24,0,9.41A6.86,6.86,0,0,1,4.07,2.9a8.48,8.48,0,0,1,2.58-.63l6.27-.92,5.6-.81L21.63.07A15.93,15.93,0,0,1,26,.44c1.59.2,3.17.46,4.76.7,3,.45,6.06.82,9.06,1.4a6.39,6.39,0,0,1,4.76,4.24A10.79,10.79,0,0,1,45.06,11c0,4.42,0,8.83,0,13.24,0,1.46,0,2.92,0,4.37A.39.39,0,0,1,44.94,28.93Z"/><path class="cls-2" d="M37.47,29.21A12.4,12.4,0,1,1,25.05,41.55,12.4,12.4,0,0,1,37.47,29.21Zm9.84,12.42a9.86,9.86,0,1,0-9.88,9.83A9.82,9.82,0,0,0,47.31,41.63Z"/><path class="cls-3" d="M22.56,7.37a8.95,8.95,0,1,1-9,8.94A9,9,0,0,1,22.56,7.37Zm0,15.34a6.39,6.39,0,1,0-6.35-6.45A6.36,6.36,0,0,0,22.53,22.71Z"/><path class="cls-4" d="M24.05,29.8c-.32-.16-.59.1-.9.1a15.47,15.47,0,0,1-7.69-1.82,1.35,1.35,0,0,0-2.06.51,14.86,14.86,0,0,0-1.89,4.74.48.48,0,0,0,.17.5,15.86,15.86,0,0,0,11,4.24l.52,0-.37,2.54c-.3,0-.56,0-.81,0a18.57,18.57,0,0,1-13.15-6.1.43.43,0,0,1-.16-.43,22.18,22.18,0,0,1,2.54-6.77,3.9,3.9,0,0,1,5.58-1.42A12.52,12.52,0,0,0,25,27.08a18.23,18.23,0,0,0,4.21-1.56,3.86,3.86,0,0,1,4.58,1.6,1.3,1.3,0,0,1,.07.23,20.14,20.14,0,0,0-2.39.86c-.72-.65-1.39-.35-2.14,0a14,14,0,0,1-5.26,1.55Z"/><path class="cls-5" d="M24.05,29.8Z"/><path class="cls-6" d="M36.28,46.9,33.17,44l-.94-.88a1.23,1.23,0,0,1-.07-1.8,1.21,1.21,0,0,1,1.8-.05c.69.62,1.36,1.26,2,1.89.09.09.2.17.29.25.29-.06.42-.27.59-.43,1.63-1.52,3.24-3,4.87-4.55a1.24,1.24,0,0,1,2,.31,1.14,1.14,0,0,1-.2,1.45c-2.37,2.24-4.75,4.45-7.13,6.68Z"/></g></g></svg>