<svg xmlns="http://www.w3.org/2000/svg" xmlns:xlink="http://www.w3.org/1999/xlink" viewBox="0 0 42.31 46"><defs><style>.cls-1{fill:url(#linear-gradient);}.cls-2{fill:url(#linear-gradient-2);}.cls-3{fill:url(#linear-gradient-3);}.cls-4{fill:url(#linear-gradient-4);}.cls-5{fill:url(#linear-gradient-5);}.cls-6{fill:url(#linear-gradient-6);}.cls-7{fill:url(#linear-gradient-7);}</style><linearGradient id="linear-gradient" x1="-7.67" y1="43.87" x2="34.99" y2="-3.46" gradientUnits="userSpaceOnUse"><stop offset="0" stop-color="#2d9ac0"/><stop offset="1" stop-color="#6ce8ab"/></linearGradient><linearGradient id="linear-gradient-2" x1="11.09" y1="60.78" x2="53.75" y2="13.45" xlink:href="#linear-gradient"/><linearGradient id="linear-gradient-3" x1="-10.16" y1="41.63" x2="32.51" y2="-5.7" xlink:href="#linear-gradient"/><linearGradient id="linear-gradient-4" x1="-6.81" y1="44.65" x2="35.86" y2="-2.68" xlink:href="#linear-gradient"/><linearGradient id="linear-gradient-5" x1="-3.47" y1="47.66" x2="39.2" y2="0.33" xlink:href="#linear-gradient"/><linearGradient id="linear-gradient-6" x1="-1.47" y1="49.46" x2="41.2" y2="2.13" xlink:href="#linear-gradient"/><linearGradient id="linear-gradient-7" x1="11.24" y1="60.92" x2="53.91" y2="13.59" xlink:href="#linear-gradient"/></defs><title>Asset 8</title><g id="Layer_2" data-name="Layer 2"><g id="Layer_1-2" data-name="Layer 1"><path class="cls-1" d="M19.42,1.6c-4.07,0-8.14,0-12.21,0-.54,0-1.08-.06-1.62,0-1.27.07-2.53,0-3.79,0-.14,0-.2,0-.19.19a2.26,2.26,0,0,1,0,.26V20.24c0,.38-.08.76-.05,1.12.09.85,0,1.7.05,2.54,0,3.64,0,7.28,0,10.92v6.85c0,.34,0,.34.35.34H22.69a.54.54,0,0,1,.56.32A7,7,0,0,0,24,43.4c.1.13.08.18-.07.19H1a1.2,1.2,0,0,1-.42,0A.82.82,0,0,1,0,42.76c0-1.6,0-3.2,0-4.8,0-.66,0-1.31,0-2q0-6.18,0-12.36a1.78,1.78,0,0,1,.07-.79c.05-.1-.09-.24-.07-.39.07-.72,0-1.45,0-2.17s0-1.47,0-2.2V1A.88.88,0,0,1,.57,0,.93.93,0,0,1,.9,0H32.81a.83.83,0,0,1,.9.89V21.48c0,1.21,0,2.41,0,3.61,0,.22-.07.3-.3.29a8.85,8.85,0,0,0-1,0c-.23,0-.29-.08-.29-.3,0-1.48,0-3,0-4.44V9.41c0-2.5,0-5,0-7.5,0-.24-.05-.31-.3-.31C27.67,1.61,23.54,1.6,19.42,1.6Z"/><path class="cls-2" d="M23.49,36.58A9.41,9.41,0,1,1,32.91,46,9.41,9.41,0,0,1,23.49,36.58Zm9.39,7.83a7.83,7.83,0,1,0-7.81-8.11A7.82,7.82,0,0,0,32.88,44.41Z"/><path class="cls-3" d="M16.88,10.86h9.83a.87.87,0,0,1,.85.48.81.81,0,0,1-.73,1.13H7.06a.85.85,0,0,1-.91-.53.78.78,0,0,1,.67-1.07H16.88Z"/><path class="cls-4" d="M16.84,19.2H7.06a.84.84,0,0,1-.92-.55.8.8,0,0,1,.68-1.06H26.71a.82.82,0,0,1,.86.53A.78.78,0,0,1,27,19.17a2.07,2.07,0,0,1-.43,0Z"/><path class="cls-5" d="M16.88,24.35c3.29,0,6.57,0,9.85,0,.5,0,.72.14.87.57a.79.79,0,0,1-.63,1H7a.78.78,0,0,1-.24-1.55c.11,0,.23,0,.35,0Z"/><path class="cls-6" d="M14.52,32.65H7a.86.86,0,0,1-.85-.48A.8.8,0,0,1,7,31H22.59c.52,0,.52,0,.28.47-.13.27-.26.56-.37.85a.4.4,0,0,1-.43.29Z"/><path class="cls-7" d="M29,31.61a.8.8,0,0,1,.62.28L33,35.23c.24.24.24.24.48,0l3.35-3.34a.86.86,0,0,1,1-.2.78.78,0,0,1,.42.79.84.84,0,0,1-.28.52c-.59.58-1.18,1.17-1.76,1.76l-1.6,1.6c-.24.25-.24.25,0,.49l2,2,1.35,1.36a.78.78,0,0,1-.36,1.39.75.75,0,0,1-.74-.27c-.45-.43-.89-.87-1.33-1.31l-2.12-2.16c-.1-.1-.15-.1-.26,0-.45.42-.87.87-1.3,1.3l-2.15,2.15a.88.88,0,0,1-1,.21.83.83,0,0,1-.38-.84,1.29,1.29,0,0,1,.42-.61c1.07-1.08,2.14-2.15,3.23-3.22.18-.18.16-.27,0-.44-1.13-1.11-2.24-2.23-3.36-3.35a.8.8,0,0,1,0-1.27A.88.88,0,0,1,29,31.61Z"/></g></g></svg>