<svg xmlns="http://www.w3.org/2000/svg" xmlns:xlink="http://www.w3.org/1999/xlink" viewBox="0 0 32.3 25.38"><defs><style>.cls-1{fill:url(#linear-gradient);}.cls-2{fill:url(#linear-gradient-2);}</style><linearGradient id="linear-gradient" y1="8.08" x2="32.3" y2="8.08" gradientUnits="userSpaceOnUse"><stop offset="0" stop-color="#2d9ac0"/><stop offset="1" stop-color="#6ce8ab"/></linearGradient><linearGradient id="linear-gradient-2" y1="16.78" x2="32.3" y2="16.78" xlink:href="#linear-gradient"/></defs><title>Asset 18</title><g id="Layer_2" data-name="Layer 2"><g id="Layer_1-2" data-name="Layer 1"><path class="cls-1" d="M3.1,7.82q.61.43,3.7,2.57c2.05,1.43,3.63,2.52,4.72,3.29l.76.55,1,.69c.26.17.57.37.94.58a5.28,5.28,0,0,0,1,.49,2.85,2.85,0,0,0,.9.16h0a2.76,2.76,0,0,0,.9-.16,5.34,5.34,0,0,0,1-.49c.36-.21.68-.41.94-.58l1-.69.77-.55,8.43-5.86a8.56,8.56,0,0,0,2.2-2.21,4.79,4.79,0,0,0,.88-2.73,2.74,2.74,0,0,0-.85-2,2.77,2.77,0,0,0-2-.85H2.88A2.56,2.56,0,0,0,.75.94,3.61,3.61,0,0,0,0,3.28,4.2,4.2,0,0,0,1,5.74,9,9,0,0,0,3.1,7.82Z"/><path class="cls-2" d="M30.5,9.75q-5.91,4-9,6.22c-.68.51-1.24.9-1.66,1.18a11.15,11.15,0,0,1-1.71.87,5.28,5.28,0,0,1-2,.44h0a5.28,5.28,0,0,1-2-.44,10.54,10.54,0,0,1-1.7-.87c-.43-.28-1-.67-1.67-1.18q-2.43-1.79-9-6.22A9.48,9.48,0,0,1,0,8.18V22.5a2.74,2.74,0,0,0,.85,2,2.74,2.74,0,0,0,2,.85H29.42A2.89,2.89,0,0,0,32.3,22.5V8.18A9.48,9.48,0,0,1,30.5,9.75Z"/></g></g></svg>