<svg xmlns="http://www.w3.org/2000/svg" xmlns:xlink="http://www.w3.org/1999/xlink" viewBox="0 0 51.93 43"><defs><style>.cls-1{isolation:isolate;}.cls-2{fill:url(#linear-gradient);}</style><linearGradient id="linear-gradient" x1="5.17" y1="45.21" x2="48.44" y2="-0.13" gradientUnits="userSpaceOnUse"><stop offset="0" stop-color="#2d9ac0"/><stop offset="1" stop-color="#6ce8ab"/></linearGradient></defs><title>Asset 4</title><g id="Layer_2" data-name="Layer 2"><g id="Layer_1-2" data-name="Layer 1"><g class="cls-1"><path class="cls-2" d="M0,26.69c6.67-.68,13.38-1.17,20-1.44.61.62.39,1.21.42,1.74s0,1,0,1.54c2,.31,2.18-2,1.48-3.23-.32-.58-1.17-.71-1.23-1.69H5.75V0h40.5V23.63H31.36c-.2,1-1,1.21-1.37,1.86-.76,1.47-.13,3,1.39,3.12.37-1-.1-2.12.39-3.35,6.69.2,13.4.79,20.16,1.4V40.82a83.16,83.16,0,0,1-10.35-.4c-.39.81.08,1.71-.3,2.58H10.68c-.42-.79.21-1.7-.31-2.59A86.68,86.68,0,0,1,0,40.84Zm44.67-25H7.43V22h13c0-.68,0-1.26,0-1.84-.07-3.83,2.38-6.51,6.42-6.12a5.23,5.23,0,0,1,4.76,4.61c.17,1.13-.27,2.26.12,3.37h13Zm-43,37.73c3-.51,6-.46,8.94-.75.11-1.06.44-2,.46-3a3.92,3.92,0,0,1,2.86-4c1.68-.58,3.28-1.42,4.92-2.15a12.56,12.56,0,0,0-.09-2.67L1.65,28.17Zm48.55,0V28.16L33.35,26.9a12.13,12.13,0,0,0,0,2.76c1.21.51,2.4,1.12,3.66,1.53,2.5.83,4.1,2.28,4.09,5.11a22.38,22.38,0,0,0,.25,2.38C44.32,38.93,47.25,39,50.2,39.4Z"/></g></g></g></svg>