<svg xmlns="http://www.w3.org/2000/svg" xmlns:xlink="http://www.w3.org/1999/xlink" viewBox="0 0 55 53.35"><defs><style>.cls-1{fill:url(#linear-gradient);}</style><linearGradient id="linear-gradient" x1="-2.84" y1="4.2" x2="54.23" y2="46.38" gradientUnits="userSpaceOnUse"><stop offset="0" stop-color="#2d9ac0"/><stop offset="1" stop-color="#6ce8ab"/></linearGradient></defs><title>Asset 3</title><g id="Layer_2" data-name="Layer 2"><g id="Layer_1-2" data-name="Layer 1"><path class="cls-1" d="M45.6,32,55,26.63l-9.67-5.49L55,15.62,27.5,0,0,15.62l9.66,5.52L0,26.63l9.66,5.52L0,37.63,27.5,53.35,55,37.63l-9.66-5.48.07,0A1.18,1.18,0,0,0,45.6,32ZM27.5,2.3,51,15.62,43.31,20h0L27.5,29,4,15.62ZM11.14,22.6a1,1,0,0,0,.89.57,1,1,0,0,0,.69-.28L15,24.18a1,1,0,1,0,1,1,1,1,0,0,0-.13-.47l10.34,5.91a.94.94,0,0,0-.2.57,1,1,0,0,0,2,0c0-.05,0-.1,0-.15l10.06-5.74a1,1,0,0,0,1,.88,1,1,0,0,0,1-1,1,1,0,0,0-.4-.78l2.2-1.26a1.3,1.3,0,0,0,.21,0,1,1,0,0,0,.93-.7l.33-.18L51,26.63l-2,1.13a1,1,0,0,0-1.91.41.94.94,0,0,0,.2.57L43.31,31h0l-6.39,3.65a1,1,0,0,0,.13-.47,1,1,0,1,0-1,1l-2.27,1.29a1,1,0,0,0-1.69.72,1.85,1.85,0,0,0,0,.23L27.5,40,22,36.88a1,1,0,0,0-.94-.7,1.55,1.55,0,0,0-.21,0L18.63,35a1,1,0,0,0,.41-.78,1,1,0,0,0-1-1,1,1,0,0,0-1,.89L7,28.32c0-.05,0-.1,0-.15a1,1,0,0,0-1-1,1,1,0,0,0-.63.24L4,26.63ZM51,37.64,27.5,51,4,37.64l7.64-4.34,15.82,9,15.82-9Z"/></g></g></svg>