<svg xmlns="http://www.w3.org/2000/svg" xmlns:xlink="http://www.w3.org/1999/xlink" viewBox="0 0 48.58 55"><defs><style>.cls-1{opacity:0.8;isolation:isolate;}.cls-2{fill:url(#linear-gradient);}.cls-3{fill:url(#linear-gradient-2);}.cls-4{fill:url(#linear-gradient-3);}.cls-5{fill:url(#linear-gradient-4);}.cls-6{fill:url(#linear-gradient-5);}.cls-7{fill:url(#linear-gradient-6);}.cls-8{fill:url(#linear-gradient-7);}.cls-9{fill:url(#linear-gradient-8);}.cls-10{fill:url(#linear-gradient-9);}</style><linearGradient id="linear-gradient" x1="-12.63" y1="43.73" x2="30.85" y2="-4.4" gradientUnits="userSpaceOnUse"><stop offset="0" stop-color="#2d9ac0"/><stop offset="1" stop-color="#6ce8ab"/></linearGradient><linearGradient id="linear-gradient-2" x1="-3.05" y1="52.38" x2="40.43" y2="4.26" xlink:href="#linear-gradient"/><linearGradient id="linear-gradient-3" x1="-1.01" y1="54.23" x2="42.47" y2="6.11" xlink:href="#linear-gradient"/><linearGradient id="linear-gradient-4" x1="5.3" y1="59.93" x2="48.78" y2="11.8" xlink:href="#linear-gradient"/><linearGradient id="linear-gradient-5" x1="4" y1="58.75" x2="47.48" y2="10.63" xlink:href="#linear-gradient"/><linearGradient id="linear-gradient-6" x1="8.83" y1="63.12" x2="52.32" y2="15" xlink:href="#linear-gradient"/><linearGradient id="linear-gradient-7" x1="-0.77" y1="54.44" x2="42.71" y2="6.32" xlink:href="#linear-gradient"/><linearGradient id="linear-gradient-8" x1="2.95" y1="57.8" x2="46.43" y2="9.68" xlink:href="#linear-gradient"/><linearGradient id="linear-gradient-9" x1="10.27" y1="64.42" x2="53.75" y2="16.29" xlink:href="#linear-gradient"/></defs><title>Asset 2</title><g id="Layer_2" data-name="Layer 2"><g id="Layer_2-2" data-name="Layer 2"><g class="cls-1"><path class="cls-2" d="M21.08,3.67a2.75,2.75,0,1,0,2.75,2.75A2.75,2.75,0,0,0,21.08,3.67Zm0,3.66A.92.92,0,1,1,22,6.42.91.91,0,0,1,21.08,7.33Z"/></g><g class="cls-1"><path class="cls-3" d="M35.75,14.67H6.42a.92.92,0,0,0-.92.91V35.75a.92.92,0,0,0,.92.92H35.75a.92.92,0,0,0,.92-.92V15.58A.92.92,0,0,0,35.75,14.67ZM25.67,34.83H16.5V30.16a2.66,2.66,0,0,1,2.66-2.66H23a2.67,2.67,0,0,1,2.66,2.66v4.67ZM18.33,22.92a2.75,2.75,0,1,1,2.75,2.75A2.75,2.75,0,0,1,18.33,22.92Zm16.5,11.91H27.5V30.16a4.5,4.5,0,0,0-3-4.22,4.58,4.58,0,1,0-6.83,0,4.47,4.47,0,0,0-3,4.22v4.67H7.33V16.5h27.5Z"/></g><g class="cls-1"><rect class="cls-4" x="5.5" y="38.5" width="13.75" height="1.83"/></g><g class="cls-1"><rect class="cls-5" x="21.08" y="38.5" width="5.5" height="1.83"/></g><g class="cls-1"><rect class="cls-6" x="5.5" y="44" width="22" height="1.83"/></g><g class="cls-1"><rect class="cls-7" x="28.42" y="38.5" width="3.67" height="1.83"/></g><g class="cls-1"><path class="cls-8" d="M48.31,37.85,45.56,35.1a.91.91,0,0,0-1.29,0l-.07.08-2,2.54V6.42a.92.92,0,0,0-.92-.92H27.61l.79-4.42A.92.92,0,0,0,27.66,0h-13a.92.92,0,0,0-.92.92.86.86,0,0,0,0,.16l.8,4.42H.92A.92.92,0,0,0,0,6.42V54.08A.92.92,0,0,0,.92,55H41.25a.92.92,0,0,0,.92-.92V46.42l6.2-7.33A.92.92,0,0,0,48.31,37.85ZM26.4,1.83,24.76,11H17.41L15.76,1.83ZM40.33,53.17H1.83V7.33H14.89l.85,4.75a.91.91,0,0,0,.9.75h8.89a.91.91,0,0,0,.9-.75l.85-4.75h13V40l-2.82,3.53-2-2a.91.91,0,0,0-1.29,0h0l-2.75,2.75a.91.91,0,0,0,0,1.29h0l5.5,5.5a.87.87,0,0,0,.64.27h0a.91.91,0,0,0,.66-.32l2-2.42v4.58Zm-2.8-4.11-4.15-4.14,1.45-1.46,2.11,2.1a.89.89,0,0,0,.69.27.92.92,0,0,0,.67-.34L45,37.12l1.43,1.43Z"/></g><g class="cls-1"><rect class="cls-9" x="5.5" y="49.5" width="8.25" height="1.83"/></g><g class="cls-1"><rect class="cls-10" x="15.58" y="49.5" width="14.67" height="1.83"/></g></g></g></svg>