<svg xmlns="http://www.w3.org/2000/svg" xmlns:xlink="http://www.w3.org/1999/xlink" viewBox="0 0 184.9 172.02"><defs><style>.cls-1{fill:url(#linear-gradient);}.cls-2{fill:url(#linear-gradient-2);}.cls-3{fill:url(#linear-gradient-3);}.cls-4{fill:url(#linear-gradient-4);}.cls-5{fill:url(#linear-gradient-5);}.cls-6{fill:url(#linear-gradient-6);}.cls-7{fill:url(#linear-gradient-7);}.cls-8{fill:url(#linear-gradient-8);}.cls-9{fill:url(#linear-gradient-9);}.cls-10{fill:url(#linear-gradient-10);}.cls-11{fill:url(#linear-gradient-11);}.cls-12{fill:url(#linear-gradient-12);}.cls-13{fill:url(#linear-gradient-13);}.cls-14{fill:url(#linear-gradient-14);}.cls-15{fill:url(#linear-gradient-15);}</style><linearGradient id="linear-gradient" x1="-13.82" y1="143.53" x2="193.78" y2="18.21" gradientUnits="userSpaceOnUse"><stop offset="0" stop-color="#2d9ac0"/><stop offset="1" stop-color="#6ce8ab"/></linearGradient><linearGradient id="linear-gradient-2" x1="19.37" y1="198.5" x2="226.97" y2="73.19" xlink:href="#linear-gradient"/><linearGradient id="linear-gradient-3" x1="-39.83" y1="100.44" x2="167.77" y2="-24.88" xlink:href="#linear-gradient"/><linearGradient id="linear-gradient-4" x1="5.51" y1="175.54" x2="213.11" y2="50.23" xlink:href="#linear-gradient"/><linearGradient id="linear-gradient-5" x1="-33.63" y1="110.71" x2="173.97" y2="-14.61" xlink:href="#linear-gradient"/><linearGradient id="linear-gradient-6" x1="4.98" y1="174.67" x2="212.58" y2="49.35" xlink:href="#linear-gradient"/><linearGradient id="linear-gradient-7" x1="-50.3" y1="83.1" x2="157.3" y2="-42.21" xlink:href="#linear-gradient"/><linearGradient id="linear-gradient-8" x1="-32.33" y1="112.87" x2="175.27" y2="-12.45" xlink:href="#linear-gradient"/><linearGradient id="linear-gradient-9" x1="-23.9" y1="126.84" x2="183.7" y2="1.52" xlink:href="#linear-gradient"/><linearGradient id="linear-gradient-10" x1="-5" y1="158.13" x2="202.59" y2="32.81" xlink:href="#linear-gradient"/><linearGradient id="linear-gradient-11" x1="-13.33" y1="144.34" x2="194.27" y2="19.02" xlink:href="#linear-gradient"/><linearGradient id="linear-gradient-12" x1="-9.18" y1="151.22" x2="198.42" y2="25.9" xlink:href="#linear-gradient"/><linearGradient id="linear-gradient-13" x1="-22.06" y1="129.88" x2="185.54" y2="4.56" xlink:href="#linear-gradient"/><linearGradient id="linear-gradient-14" x1="-18.73" y1="135.4" x2="188.87" y2="10.08" xlink:href="#linear-gradient"/><linearGradient id="linear-gradient-15" x1="-15.39" y1="140.93" x2="192.21" y2="15.62" xlink:href="#linear-gradient"/></defs><title>Asset 6</title><g id="Layer_2" data-name="Layer 2"><g id="Layer_1-2" data-name="Layer 1"><path class="cls-1" d="M92.36,126.32q-27.58,0-55.18,0A9.07,9.07,0,0,1,32,125a8.77,8.77,0,0,1-3.63-4.81,10.21,10.21,0,0,1-.33-3.1c0-9.25,0-18.49,0-27.74,0-1,.17-2.09.14-3.09S28,84.22,28,83.18C28,68.92,28,54.66,28,40.4a7.8,7.8,0,0,1,4.13-6.79A9.17,9.17,0,0,1,37,32.38H147.86a9.68,9.68,0,0,1,5.28,1.54,8.13,8.13,0,0,1,3.38,4.65,11.19,11.19,0,0,1,.33,3.3q0,38,0,76a8.6,8.6,0,0,1-6.79,8.32,12.62,12.62,0,0,1-2.53.12Zm-.08-88.66H36.8a3.47,3.47,0,0,0-3.29,2,4.09,4.09,0,0,0-.22,1.89c0,4.67,0,9.35,0,14s0,9.28,0,13.92-.06,9.28,0,13.93q.09,16.86,0,33.73c0,2.76,1.41,3.93,3.9,3.92,27.3-.06,54.6,0,81.9,0,1,0,2.1.39,3.17,0,.32-.12.62.4.94.19a2.63,2.63,0,0,1,1.67-.2c7.59,0,15.17,0,22.76,0,.41,0,.81,0,1.22,0a2.65,2.65,0,0,0,2.28-1.43,4,4,0,0,0,.47-2.14q0-38,0-76c0-.27,0-.55,0-.82a2.76,2.76,0,0,0-1.21-2.22,4.88,4.88,0,0,0-3-.74c-2.41,0-4.81,0-7.21,0Q116.2,37.68,92.28,37.66Z"/><path class="cls-2" d="M80.2,139.47c2.74,0,5.48,0,8.23,0a2.31,2.31,0,0,0,2-.94,22.45,22.45,0,0,1,9.42-6.91,19.8,19.8,0,0,1,11-.85,20.64,20.64,0,0,1,10.85,6.13,21.57,21.57,0,0,1,2.79,3.46c1,1.61.83,2.58-.58,3.79a2.78,2.78,0,0,1-1.94.41H106.58a.7.7,0,0,0-.69.49,15.3,15.3,0,0,0-1.15,8,12.87,12.87,0,0,0,1,3.69,1.39,1.39,0,0,0,1.45,1c3,0,6,0,8.94,0h5.59a7.06,7.06,0,0,1,1.52.15,2.35,2.35,0,0,1,1.64,3.13,14.45,14.45,0,0,1-3.26,4.34,21.55,21.55,0,0,1-9.17,5.74,18.24,18.24,0,0,1-8.92.61A21.47,21.47,0,0,1,90.6,164a2.79,2.79,0,0,0-2.47-1.16c-5.55,0-11.11.07-16.66,0a11.4,11.4,0,0,1-9.65-5.22,10.8,10.8,0,0,1-2-6.55,11.54,11.54,0,0,1,3.69-8.38A11.81,11.81,0,0,1,72,139.47Zm36.87.16a2.25,2.25,0,0,0-.24-.41,15.12,15.12,0,0,0-9.86-3.86,14.75,14.75,0,0,0-6.65,1.46,17.56,17.56,0,0,0-7,6.11,3.37,3.37,0,0,1-3.08,1.59c-6.8,0-13.61,0-20.42,0a2.19,2.19,0,0,0-.89.12,7.18,7.18,0,0,0-4.46,6.14,6.38,6.38,0,0,0,1.31,4.48,5.91,5.91,0,0,0,5,2.72c6.6-.06,13.2,0,19.81,0a2.85,2.85,0,0,1,2.62,1.37,18.62,18.62,0,0,0,5.12,5.12,14.52,14.52,0,0,0,8.48,2.61,14.75,14.75,0,0,0,8.27-2.63,6.15,6.15,0,0,0,1.74-1.45,2.62,2.62,0,0,0-1.18-.12H105.58a3.3,3.3,0,0,1-3.11-1.52,18,18,0,0,1-2.52-6.77,20.32,20.32,0,0,1,.31-8.14,20,20,0,0,1,2.19-5.31,2.82,2.82,0,0,1,2.7-1.46c1.59.07,3.18,0,4.78,0Z"/><path class="cls-3" d="M106.35,24.85c-3.52,0-7,.08-10.56,0a12.18,12.18,0,0,1-9.41-4.78,11.39,11.39,0,0,1-2.31-4.67c-.15-.59-.5-.71-1-.71h-6.6a5,5,0,0,1-1.5-.16,2.17,2.17,0,0,1-1.53-2.35,2,2,0,0,1,1.78-1.9,16.51,16.51,0,0,1,2.63-.07h4.88c1.12,0,1.08,0,1.43-1.1A12.36,12.36,0,0,1,92.69.55,13.24,13.24,0,0,1,96.48,0c6.67,0,13.34,0,20,0a12.32,12.32,0,0,1,11.67,7.29,11.07,11.07,0,0,1,1,5.92,12,12,0,0,1-6.89,10.25,12.1,12.1,0,0,1-5.37,1.29c-3.52.07-7,0-10.56,0Zm.1-4.67c3.52,0,7,0,10.56,0a7,7,0,0,0,2-.15,7.93,7.93,0,0,0,5.76-7.48,7.82,7.82,0,0,0-1-4,8.06,8.06,0,0,0-7.53-4.09c-6.57,0-13.13,0-19.7,0A10.78,10.78,0,0,0,94,4.8a7.77,7.77,0,0,0-5.47,9.87c1.26,3.73,3.83,5.51,7.77,5.51C99.68,20.19,103.06,20.18,106.45,20.18Z"/><path class="cls-4" d="M160.32,97.35v-.71c0-1.62.05-1.67,1.67-1.85.54-.06,1.08-.11,1.62-.14a2.39,2.39,0,0,1,2,.85c.52.58,1,1.17,1.5,1.78a.73.73,0,0,0,1,.22c.22-.1.41-.24.63-.33,1.87-.76,1.43-.62,1.21-2.39,0-.3-.11-.6-.15-.9A3.11,3.11,0,0,1,171,90.74a11.12,11.12,0,0,0,2.69-3.39,3,3,0,0,1,3-1.73c.51,0,1,0,1.52,0a.8.8,0,0,0,1-.79c0-.2.08-.39.12-.59.38-1.72.42-1.79-1.23-2.46a3.62,3.62,0,0,1-2.42-3.7,11.42,11.42,0,0,0-1-4.2,2.75,2.75,0,0,1,.39-3c.42-.52.8-1.08,1.21-1.62a.6.6,0,0,0,0-.87c-.37-.49-.82-.91-1.13-1.42a.78.78,0,0,0-1.2-.3c-.55.34-1.17.52-1.74.81a2.58,2.58,0,0,1-2.78-.16,16,16,0,0,0-4.53-2.19,2.8,2.8,0,0,1-2.14-2.32,7.05,7.05,0,0,0-.15-.8c-.27-.78-.29-1.79-1.58-1.61-.41.06-.57-.32-.57-.69q0-1.73,0-3.45c0-.51.3-.72.78-.72,1,0,2,0,2.95,0a2.37,2.37,0,0,1,2.19,1.8,22.15,22.15,0,0,1,.65,2.55,1.41,1.41,0,0,0,1,1.16,11.83,11.83,0,0,1,2.09,1,1.91,1.91,0,0,0,2.11.08c.55-.33,1.16-.53,1.73-.81a2.53,2.53,0,0,1,3.5.76c1.37,1.67,2.73,3.34,4.08,5a2.3,2.3,0,0,1,.08,3.15,15.24,15.24,0,0,1-1.42,1.84,1.77,1.77,0,0,0-.29,2.06,6.71,6.71,0,0,1,.5,2.37,1.55,1.55,0,0,0,1,1.49c.82.4,1.64.8,2.42,1.26a2.45,2.45,0,0,1,1.14,2.61c-.37,1.5-.76,3-1.08,4.51-.15.73-.36,1.45-.54,2.16a2.23,2.23,0,0,1-1.94,1.81c-1.11.17-2.24,0-3.34.26a1.52,1.52,0,0,0-1,.6,26.88,26.88,0,0,1-1.78,2.21,1.26,1.26,0,0,0-.26,1.38,9.89,9.89,0,0,1,.49,3.19,2.13,2.13,0,0,1-1.29,2c-1.95.94-3.88,1.88-5.83,2.8a2.74,2.74,0,0,1-3.62-.79c-.15-.19-.26-.4-.41-.58-.8-1-1.56-2-3.07-1.65-.57.12-.89-.22-.88-.82s0-1.09,0-1.63Z"/><path class="cls-5" d="M24.53,58c0,.51,0,1,0,1.52s-.26,1-.91.91-.82.15-1,.73-.31,1.18-.43,1.76a2.67,2.67,0,0,1-2,2.18,15.44,15.44,0,0,0-4.62,2.23,2.65,2.65,0,0,1-2.79.15l-1-.47c-1.4-.6-1.4-.6-2.44.6a5.58,5.58,0,0,1-.39.46c-.56.53-.44,1,0,1.55s.85,1.13,1.27,1.7a2.22,2.22,0,0,1,.26,2.23A14.77,14.77,0,0,0,9.23,78.6a3.12,3.12,0,0,1-2.12,3c-.44.16-.82.48-1.26.62-.62.21-.63.62-.51,1.12a4.62,4.62,0,0,0,.19.47c.2.56,0,1.33.6,1.65a3.3,3.3,0,0,0,1.8.1,3.34,3.34,0,0,1,3.42,2A10.81,10.81,0,0,0,14,90.89a2.85,2.85,0,0,1,1,2.61c-.07.81-.26,1.6-.38,2.4a.6.6,0,0,0,.35.74c.61.29,1.21.61,1.81.91a.64.64,0,0,0,.88-.23c.51-.63,1-1.24,1.58-1.83a2.33,2.33,0,0,1,2.36-.81c.66.15,1.35.1,2,.25s.88.38.86,1c0,1,0,2,0,2.94,0,.64-.26,1-.9.92a2.68,2.68,0,0,0-2.85,1.43c-.12.17-.24.32-.37.48-1.25,1.61-2.32,1.84-4.15,1s-3.57-1.75-5.37-2.57a2.28,2.28,0,0,1-1.46-2.32,8.37,8.37,0,0,1,.43-2.69,1.6,1.6,0,0,0-.42-1.91,5.3,5.3,0,0,1-1.09-1.33,2.69,2.69,0,0,0-2.69-1.38,16.73,16.73,0,0,1-2.12-.11A2.21,2.21,0,0,1,1.6,88.54c-.45-1.94-1-3.86-1.33-5.82-.15-.82-.5-1.55,0-2.43A3.54,3.54,0,0,1,1.77,78.9c.59-.33,1.21-.6,1.82-.9a1.46,1.46,0,0,0,1-1.4,7.28,7.28,0,0,1,.52-2.47,1.76,1.76,0,0,0-.32-2A14.72,14.72,0,0,1,3.4,70.32,2.4,2.4,0,0,1,3.53,67c1.33-1.65,2.68-3.3,4-4.94a2.49,2.49,0,0,1,3.32-.8,17.92,17.92,0,0,1,1.83.86,1.93,1.93,0,0,0,2.11,0,12.2,12.2,0,0,1,2.09-1A1.52,1.52,0,0,0,18,59.74a14.85,14.85,0,0,1,.69-2.64,2.22,2.22,0,0,1,2.06-1.56c1-.07,2,0,3.05,0,.5,0,.76.22.76.73s0,1.15,0,1.73Z"/><path class="cls-6" d="M160.27,89.08v-.71c0-1.51,0-1.46,1.48-1.85a7.1,7.1,0,0,0,5.55-5.44A6.81,6.81,0,0,0,164,73.82a5.48,5.48,0,0,0-2.78-.84c-.63,0-.92-.29-.91-.93,0-1,0-1.89,0-2.84s.12-.95,1-.91a10.86,10.86,0,0,1,6.48,2.58,11.57,11.57,0,0,1,3.85,5.92,11.76,11.76,0,0,1-4.57,12.39,16.2,16.2,0,0,1-5,2.09,4.1,4.1,0,0,1-1.11,0,.63.63,0,0,1-.68-.71V89.08Z"/><path class="cls-7" d="M71.65,12.53c0,1.11,0,2.23,0,3.35a2.37,2.37,0,0,1-3.55,2.36c-2.09-.64-4.15-1.4-6.22-2.11-1.5-.52-3-1-4.49-1.53a2.2,2.2,0,0,1-1.63-2.74A1.86,1.86,0,0,1,57,10.38c1.74-.64,3.5-1.23,5.25-1.84,2-.69,3.95-1.35,5.91-2.09a2.32,2.32,0,0,1,3.43,1.92,4,4,0,0,1,.07.5v3.66Z"/><path class="cls-8" d="M24.53,70.67c0,.44,0,.88,0,1.32,0,.68-.27,1-1,1a5.53,5.53,0,0,0-3.26,1.2,6.84,6.84,0,0,0-1.47,9.76,6.42,6.42,0,0,0,4.8,2.65c.65,0,.91.34.88,1s.14,1.16-.17,1.69c-.17.29,0,.51.09.76.21.76-.14,1.22-.93,1.26a2.07,2.07,0,0,1-.5,0,12.58,12.58,0,0,1-6.88-3.46A11.76,11.76,0,0,1,13,81.44a10.93,10.93,0,0,1,2.53-9,11.31,11.31,0,0,1,6.93-4,4.29,4.29,0,0,1,.71-.08c1.25-.09,1.32,0,1.33,1.23Z"/><path class="cls-9" d="M92.31,59.22H42.12c-1.69,0-2.31-.41-2.88-1.85a2.51,2.51,0,0,1,1.34-3.1,4.72,4.72,0,0,1,1.87-.36h99.77a3.41,3.41,0,0,1,2.71.84,2.35,2.35,0,0,1,.62,2.84,2.53,2.53,0,0,1-2.44,1.63H92.31Z"/><path class="cls-10" d="M108.17,71.89a2.48,2.48,0,0,1,2,.94l5.9,5.4,9.85,9,.6.55c1.49,1.44,1.31,2.89-.09,4.19-2.92,2.7-5.86,5.39-8.79,8.08L110,107.13a2.69,2.69,0,0,1-3.09.57,2.78,2.78,0,0,1-1.46-2.69,3.29,3.29,0,0,1,1.23-2q2.82-2.55,5.61-5.11c2.72-2.48,5.41-5,8.14-7.45.53-.47.46-.76,0-1.15-2.81-2.42-5.48-5-8.23-7.49-2-1.82-4-3.65-6-5.5a2.52,2.52,0,0,1-.66-2.78A2.65,2.65,0,0,1,108.17,71.89Z"/><path class="cls-11" d="M63.86,89.88,71.65,97c2.21,2,4.44,4,6.65,6.07a2.68,2.68,0,0,1,1,3.06,2.59,2.59,0,0,1-4.36,1c-.78-.7-1.52-1.44-2.29-2.14L59.87,93.34c-.54-.5-1.1-1-1.61-1.52-1.24-1.29-1.36-2.6,0-3.89,1.82-1.76,3.72-3.44,5.58-5.15l10-9.17c.45-.41.91-.8,1.39-1.18a2.61,2.61,0,0,1,3.86.66,2.48,2.48,0,0,1-.46,3.22C76.27,78.6,73.8,80.75,71.39,83Z"/><path class="cls-12" d="M99.56,74.73c-.19.69-.43,1.64-.69,2.58-.59,2.1-1.33,4.16-1.77,6.31A20.32,20.32,0,0,1,96,87.27c-.48,1.14-.63,2.34-1,3.49-.62,1.89-1.21,3.79-1.73,5.7-.43,1.59-.93,3.17-1.38,4.75s-.9,3.25-1.41,4.86A2.59,2.59,0,0,1,87,107.79a2.76,2.76,0,0,1-1.6-3.48c.55-1.7,1-3.43,1.51-5.14s1.15-3.59,1.62-5.42S89.73,90,90.19,88a49,49,0,0,1,1.5-5c.52-1.46.89-3,1.32-4.46s.88-3.18,1.37-4.75a2.64,2.64,0,0,1,5.18.94Z"/><path class="cls-13" d="M116.46,48.86a2.65,2.65,0,0,1-2.67-2.49,2.65,2.65,0,1,1,5.29-.12A2.52,2.52,0,0,1,116.46,48.86Z"/><path class="cls-14" d="M128.91,48.87a2.65,2.65,0,0,1-2.67-2.62A2.86,2.86,0,0,1,129,43.6a2.69,2.69,0,0,1,2.55,2.63A2.53,2.53,0,0,1,128.91,48.87Z"/><path class="cls-15" d="M141.42,48.86a2.6,2.6,0,0,1-2.67-2.56,2.53,2.53,0,0,1,2.69-2.53,2.77,2.77,0,0,1,2.61,2.45A2.67,2.67,0,0,1,141.42,48.86Z"/></g></g></svg>