<svg xmlns="http://www.w3.org/2000/svg" xmlns:xlink="http://www.w3.org/1999/xlink" viewBox="0 0 69.5 71.47"><defs><style>.cls-1{opacity:0.8;isolation:isolate;}.cls-10,.cls-2,.cls-3,.cls-4,.cls-5,.cls-6,.cls-7,.cls-8,.cls-9{stroke-miterlimit:10;stroke-width:0.5px;}.cls-2{fill:url(#New_Gradient_Swatch_1);stroke:url(#New_Gradient_Swatch_1-2);}.cls-3{fill:url(#New_Gradient_Swatch_1-3);stroke:url(#New_Gradient_Swatch_1-4);}.cls-4{fill:url(#New_Gradient_Swatch_1-5);stroke:url(#New_Gradient_Swatch_1-6);}.cls-5{fill:url(#New_Gradient_Swatch_1-7);stroke:url(#New_Gradient_Swatch_1-8);}.cls-6{fill:url(#New_Gradient_Swatch_1-9);stroke:url(#New_Gradient_Swatch_1-10);}.cls-7{fill:url(#New_Gradient_Swatch_1-11);stroke:url(#New_Gradient_Swatch_1-12);}.cls-8{fill:url(#New_Gradient_Swatch_1-13);stroke:url(#New_Gradient_Swatch_1-14);}.cls-9{fill:url(#New_Gradient_Swatch_1-15);stroke:url(#New_Gradient_Swatch_1-16);}.cls-10{fill:url(#New_Gradient_Swatch_1-17);stroke:url(#New_Gradient_Swatch_1-18);}</style><linearGradient id="New_Gradient_Swatch_1" x1="-1.03" y1="62.5" x2="66.47" y2="12" gradientUnits="userSpaceOnUse"><stop offset="0" stop-color="#2d9ac0"/><stop offset="1" stop-color="#6ce8ab"/></linearGradient><linearGradient id="New_Gradient_Swatch_1-2" x1="0" y1="35.73" x2="69.5" y2="35.73" xlink:href="#New_Gradient_Swatch_1"/><linearGradient id="New_Gradient_Swatch_1-3" x1="-1.03" y1="62.5" x2="66.47" y2="12" xlink:href="#New_Gradient_Swatch_1"/><linearGradient id="New_Gradient_Swatch_1-4" x1="13.46" y1="35.73" x2="56.04" y2="35.73" xlink:href="#New_Gradient_Swatch_1"/><linearGradient id="New_Gradient_Swatch_1-5" x1="-0.97" y1="62.59" x2="66.53" y2="12.09" xlink:href="#New_Gradient_Swatch_1"/><linearGradient id="New_Gradient_Swatch_1-6" x1="33.46" y1="35.73" x2="42.71" y2="35.73" xlink:href="#New_Gradient_Swatch_1"/><linearGradient id="New_Gradient_Swatch_1-7" x1="-3.03" y1="59.84" x2="64.47" y2="9.34" xlink:href="#New_Gradient_Swatch_1"/><linearGradient id="New_Gradient_Swatch_1-8" x1="22.35" y1="35.73" x2="32.71" y2="35.73" xlink:href="#New_Gradient_Swatch_1"/><linearGradient id="New_Gradient_Swatch_1-9" x1="2.55" y1="67.3" x2="70.05" y2="16.8" xlink:href="#New_Gradient_Swatch_1"/><linearGradient id="New_Gradient_Swatch_1-10" x1="43.46" y1="35.73" x2="46.04" y2="35.73" xlink:href="#New_Gradient_Swatch_1"/><linearGradient id="New_Gradient_Swatch_1-11" x1="-9.33" y1="51.42" x2="58.17" y2="0.92" xlink:href="#New_Gradient_Swatch_1"/><linearGradient id="New_Gradient_Swatch_1-12" x1="41.23" y1="11.8" x2="46.04" y2="11.8" xlink:href="#New_Gradient_Swatch_1"/><linearGradient id="New_Gradient_Swatch_1-13" x1="-2.45" y1="60.61" x2="65.05" y2="10.11" xlink:href="#New_Gradient_Swatch_1"/><linearGradient id="New_Gradient_Swatch_1-14" x1="11.01" y1="49.07" x2="14.96" y2="49.07" xlink:href="#New_Gradient_Swatch_1"/><linearGradient id="New_Gradient_Swatch_1-15" x1="5.89" y1="71.75" x2="73.39" y2="21.25" xlink:href="#New_Gradient_Swatch_1"/><linearGradient id="New_Gradient_Swatch_1-16" x1="15.68" y1="57.64" x2="33.82" y2="57.64" xlink:href="#New_Gradient_Swatch_1"/><linearGradient id="New_Gradient_Swatch_1-17" x1="-0.69" y1="62.97" x2="66.81" y2="12.47" xlink:href="#New_Gradient_Swatch_1"/><linearGradient id="New_Gradient_Swatch_1-18" x1="47.86" y1="21.84" x2="60.72" y2="21.84" xlink:href="#New_Gradient_Swatch_1"/></defs><title>Asset 7</title><g id="Layer_2" data-name="Layer 2"><g id="Layer_1-2" data-name="Layer 1"><g class="cls-1"><path class="cls-2" d="M67.62,43.24l-2.45-1.41a31.1,31.1,0,0,0,.62-6.1,31.47,31.47,0,0,0-.61-6.1l2.44-1.41a3.26,3.26,0,0,0,1.19-4.46L62.15,12.22A3.28,3.28,0,0,0,57.69,11l-2.44,1.41A31.14,31.14,0,0,0,44.68,6.32V3.51A3.26,3.26,0,0,0,41.42.25H28.08a3.27,3.27,0,0,0-3.26,3.26V6.32a31.2,31.2,0,0,0-10.55,6.12L11.81,11a3.28,3.28,0,0,0-4.46,1.2L.69,23.76a3.26,3.26,0,0,0,1.19,4.46l2.45,1.42a31,31,0,0,0-.62,6.09,31.49,31.49,0,0,0,.61,6.11l-2.44,1.4A3.27,3.27,0,0,0,.69,47.7L7.35,59.25a3.27,3.27,0,0,0,4.46,1.19L14.25,59a31.33,31.33,0,0,0,10.57,6.12V68a3.28,3.28,0,0,0,3.26,3.27H41.42A3.27,3.27,0,0,0,44.68,68v-2.8A31.06,31.06,0,0,0,55.23,59l2.46,1.42a3.27,3.27,0,0,0,4.46-1.19L68.81,47.7A3.27,3.27,0,0,0,67.62,43.24ZM67,46.66,60.34,58.21a1.19,1.19,0,0,1-1.61.43l-3.11-1.8a1,1,0,0,0-1.23.14A29.13,29.13,0,0,1,43.33,63.4a1,1,0,0,0-.73,1V68a1.18,1.18,0,0,1-1.18,1.18H28.08A1.18,1.18,0,0,1,26.9,68V64.39a1,1,0,0,0-.73-1A29.35,29.35,0,0,1,15.09,57a1,1,0,0,0-.7-.28,1.07,1.07,0,0,0-.52.14l-3.1,1.79a1.19,1.19,0,0,1-1.61-.43L2.49,46.66a1.19,1.19,0,0,1,.43-1.61L6,43.26a1,1,0,0,0,.49-1.13,29,29,0,0,1,0-12.79A1,1,0,0,0,6,28.21L2.92,26.42a1.18,1.18,0,0,1-.43-1.61L9.16,13.26a1.18,1.18,0,0,1,.72-.55,1.16,1.16,0,0,1,.89.12l3.11,1.79a1,1,0,0,0,1.23-.13A29.13,29.13,0,0,1,26.17,8.07a1,1,0,0,0,.73-1V3.51a1.18,1.18,0,0,1,1.18-1.18H41.42A1.18,1.18,0,0,1,42.6,3.51V7.08a1,1,0,0,0,.73,1,29.08,29.08,0,0,1,11.08,6.41,1,1,0,0,0,1.22.13l3.1-1.78a1.17,1.17,0,0,1,1.61.43L67,24.81a1.16,1.16,0,0,1,.12.89,1.21,1.21,0,0,1-.55.72l-3.1,1.78A1.06,1.06,0,0,0,63,29.34a28.52,28.52,0,0,1,0,12.78,1,1,0,0,0,.49,1.13l3.11,1.8A1.19,1.19,0,0,1,67,46.66Z"/><path class="cls-3" d="M34.75,14.69a21,21,0,1,0,21,21A21.07,21.07,0,0,0,34.75,14.69Zm0,40a19,19,0,1,1,19-19A19,19,0,0,1,34.75,54.69Z"/><path class="cls-4" d="M38.64,30.25H34.75a1,1,0,0,0-1,1v8.89a1,1,0,1,0,2.08,0V37.89h2.85a3.82,3.82,0,0,0,0-7.64Zm0,5.55H35.79V32.33h2.85a1.74,1.74,0,1,1,0,3.47Z"/><path class="cls-5" d="M29.06,30.92a1,1,0,0,0-1-.67H27a1,1,0,0,0-1,.67l-3.33,8.89a1,1,0,0,0,.6,1.34,1.05,1.05,0,0,0,1.35-.61L25.2,39h4.66l.58,1.54a1.05,1.05,0,0,0,1,.68.92.92,0,0,0,.36-.07,1,1,0,0,0,.61-1.34Zm-3.08,6,1.55-4.14,1.55,4.14Z"/><path class="cls-6" d="M44.75,30.25a1,1,0,0,0-1,1v8.89a1,1,0,1,0,2.08,0V31.29A1,1,0,0,0,44.75,30.25Z"/><path class="cls-7" d="M42.2,12.37c.72.23,1.44.5,2.14.8a1,1,0,0,0,.41.08,1,1,0,0,0,.41-2c-.76-.32-1.54-.61-2.33-.86a1,1,0,0,0-.63,2Z"/><path class="cls-8" d="M13.22,47.45A1,1,0,0,0,11.8,47a1,1,0,0,0-.41,1.41c.43.79.91,1.57,1.42,2.32a1,1,0,0,0,.86.45,1.07,1.07,0,0,0,.59-.18,1.05,1.05,0,0,0,.27-1.45C14.06,48.9,13.62,48.18,13.22,47.45Z"/><path class="cls-9" d="M32.62,60.15A24.55,24.55,0,0,1,17.7,53.34a1,1,0,0,0-1.45,1.5,26.63,26.63,0,0,0,16.19,7.39h.09a1,1,0,0,0,.09-2.08Z"/><path class="cls-10" d="M49.74,13.76a1,1,0,0,0-1.18,1.72,24.57,24.57,0,0,1,9.86,13.86,1,1,0,0,0,1,.77.9.9,0,0,0,.28,0,1,1,0,0,0,.73-1.28A26.66,26.66,0,0,0,49.74,13.76Z"/></g></g></g></svg>