<svg xmlns="http://www.w3.org/2000/svg" xmlns:xlink="http://www.w3.org/1999/xlink" viewBox="0 0 61.29 76"><defs><style>.cls-1{fill:url(#New_Gradient_Swatch_1);}.cls-2{fill:url(#New_Gradient_Swatch_1-2);}.cls-3{fill:url(#New_Gradient_Swatch_1-3);}.cls-4{fill:url(#New_Gradient_Swatch_1-4);}.cls-5{fill:url(#New_Gradient_Swatch_1-5);}</style><linearGradient id="New_Gradient_Swatch_1" x1="-8.23" y1="66.57" x2="77.01" y2="3.92" gradientUnits="userSpaceOnUse"><stop offset="0" stop-color="#2d9ac0"/><stop offset="1" stop-color="#6ce8ab"/></linearGradient><linearGradient id="New_Gradient_Swatch_1-2" x1="-13.15" y1="59.88" x2="72.09" y2="-2.77" xlink:href="#New_Gradient_Swatch_1"/><linearGradient id="New_Gradient_Swatch_1-3" x1="-4" y1="72.32" x2="81.24" y2="9.67" xlink:href="#New_Gradient_Swatch_1"/><linearGradient id="New_Gradient_Swatch_1-4" x1="-1.45" y1="75.8" x2="83.79" y2="13.15" xlink:href="#New_Gradient_Swatch_1"/><linearGradient id="New_Gradient_Swatch_1-5" x1="3.23" y1="82.16" x2="88.47" y2="19.51" xlink:href="#New_Gradient_Swatch_1"/></defs><title>Asset 3</title><g id="Layer_2" data-name="Layer 2"><g id="Layer_1-2" data-name="Layer 1"><path class="cls-1" d="M60.06,0H15.94a1.23,1.23,0,0,0-1.23,1.23V7.35H8.58A1.23,1.23,0,0,0,7.35,8.58v6.13H1.23A1.23,1.23,0,0,0,0,15.94V74.77A1.23,1.23,0,0,0,1.23,76H45.35a1.23,1.23,0,0,0,1.23-1.23V68.65h6.13a1.23,1.23,0,0,0,1.23-1.23V61.29h6.12a1.23,1.23,0,0,0,1.23-1.23V1.23A1.23,1.23,0,0,0,60.06,0ZM44.13,73.55H2.45V17.16H44.13Zm7.35-7.36h-4.9V15.94a1.23,1.23,0,0,0-1.23-1.23H9.81V9.81H51.48Zm7.36-7.35h-4.9V8.58a1.23,1.23,0,0,0-1.23-1.23H17.16V2.45H58.84Z"/><path class="cls-2" d="M23.29,46.58A13.5,13.5,0,0,0,36.77,33.1a1.22,1.22,0,0,0-1.22-1.23h-11v-11a1.23,1.23,0,0,0-1.23-1.23,13.49,13.49,0,0,0,0,27ZM22.06,22.13v11a1.23,1.23,0,0,0,1.23,1.22h11A11,11,0,1,1,22.06,22.13Z"/><path class="cls-3" d="M11,51.48H34.32v2.46H11Z"/><path class="cls-4" d="M9.81,56.39h27v2.45h-27Z"/><path class="cls-5" d="M8.58,71.1H38a1.23,1.23,0,0,0,1.23-1.23V65A1.23,1.23,0,0,0,38,63.74H8.58A1.23,1.23,0,0,0,7.35,65v4.9A1.23,1.23,0,0,0,8.58,71.1Zm1.23-4.91h27v2.46h-27Z"/></g></g></svg>