<svg xmlns="http://www.w3.org/2000/svg" xmlns:xlink="http://www.w3.org/1999/xlink" viewBox="0 0 68.28 66"><defs><style>.cls-1{fill:url(#linear-gradient);}.cls-2{fill:url(#linear-gradient-2);}.cls-3{fill:url(#linear-gradient-3);}.cls-4{fill:url(#linear-gradient-4);}.cls-5{fill:url(#linear-gradient-5);}.cls-6{fill:url(#linear-gradient-6);}.cls-7{fill:url(#linear-gradient-7);}.cls-8{fill:url(#linear-gradient-8);}.cls-9{fill:url(#linear-gradient-9);}.cls-10{fill:url(#linear-gradient-10);}</style><linearGradient id="linear-gradient" x1="-7.92" y1="55.86" x2="70.73" y2="-6.52" gradientUnits="userSpaceOnUse"><stop offset="0" stop-color="#2d9ac0"/><stop offset="1" stop-color="#6ce8ab"/></linearGradient><linearGradient id="linear-gradient-2" x1="3.41" y1="70.14" x2="82.06" y2="7.76" xlink:href="#linear-gradient"/><linearGradient id="linear-gradient-3" x1="3.84" y1="70.69" x2="82.49" y2="8.31" xlink:href="#linear-gradient"/><linearGradient id="linear-gradient-4" x1="-7.24" y1="56.72" x2="71.41" y2="-5.66" xlink:href="#linear-gradient"/><linearGradient id="linear-gradient-5" x1="11.59" y1="80.47" x2="90.25" y2="18.09" xlink:href="#linear-gradient"/><linearGradient id="linear-gradient-6" x1="9.59" y1="77.94" x2="88.24" y2="15.56" xlink:href="#linear-gradient"/><linearGradient id="linear-gradient-7" x1="0.81" y1="66.87" x2="79.46" y2="4.49" xlink:href="#linear-gradient"/><linearGradient id="linear-gradient-8" x1="-13.38" y1="48.97" x2="65.27" y2="-13.41" xlink:href="#linear-gradient"/><linearGradient id="linear-gradient-9" x1="-10.2" y1="52.98" x2="68.45" y2="-9.4" xlink:href="#linear-gradient"/><linearGradient id="linear-gradient-10" x1="-10.43" y1="52.7" x2="68.23" y2="-9.68" xlink:href="#linear-gradient"/></defs><title>Asset 10</title><g id="Layer_2" data-name="Layer 2"><g id="Layer_1-2" data-name="Layer 1"><path class="cls-1" d="M63.72,0H4.55A4.55,4.55,0,0,0,0,4.55V42.1a1.14,1.14,0,0,0,1.14,1.14h66a1.14,1.14,0,0,0,1.14-1.14V4.55A4.56,4.56,0,0,0,63.72,0ZM66,41H2.28V4.55A2.27,2.27,0,0,1,4.55,2.28H63.72A2.28,2.28,0,0,1,66,4.55Z"/><path class="cls-2" d="M67.14,41h-66A1.14,1.14,0,0,0,0,42.1v5.69a4.55,4.55,0,0,0,4.55,4.55H63.72a4.56,4.56,0,0,0,4.56-4.55V42.1A1.14,1.14,0,0,0,67.14,41ZM66,47.79a2.28,2.28,0,0,1-2.28,2.28H4.55a2.28,2.28,0,0,1-2.27-2.28V43.24H66v4.55Z"/><path class="cls-3" d="M37.55,45.52H30.72a1.14,1.14,0,0,0,0,2.27h6.83a1.14,1.14,0,1,0,0-2.27Z"/><path class="cls-4" d="M62.59,4.55H5.69A1.14,1.14,0,0,0,4.55,5.69V42.1a1.14,1.14,0,0,0,1.14,1.14h56.9a1.14,1.14,0,0,0,1.13-1.14V5.69A1.14,1.14,0,0,0,62.59,4.55ZM61.45,41H6.83V6.83H61.45V41Z"/><path class="cls-5" d="M48.93,59.17H19.34a3.42,3.42,0,0,0,0,6.83H48.93a3.42,3.42,0,0,0,0-6.83Zm0,4.55H19.34a1.14,1.14,0,0,1,0-2.27H48.93a1.14,1.14,0,1,1,0,2.27Z"/><path class="cls-6" d="M46.66,59.17c-3.78,0-5.69-2.68-5.69-8a1.14,1.14,0,0,0-1.14-1.14H28.45a1.14,1.14,0,0,0-1.14,1.14c0,5.28-1.91,8-5.69,8a1.14,1.14,0,0,0,0,2.28h25a1.14,1.14,0,0,0,0-2.28Zm-19.5,0a10.92,10.92,0,0,0,2.4-6.83h9.16a10.92,10.92,0,0,0,2.39,6.83Z"/><path class="cls-7" d="M54.37,33.53l-2.74-2.75,1.53-1.53a1.16,1.16,0,0,0,.3-1.08,1.14,1.14,0,0,0-.78-.81L41.3,23.94a1.15,1.15,0,0,0-1.42,1.42L43.3,36.74a1.14,1.14,0,0,0,.81.78,1.16,1.16,0,0,0,1.08-.3l1.61-1.61,2.75,2.75a1.14,1.14,0,0,0,.8.33,1.18,1.18,0,0,0,.81-.33l3.21-3.22A1.13,1.13,0,0,0,54.37,33.53Zm-4,2.41-2.5-2.5a1.5,1.5,0,0,0-2.1,0l-.82.82-2.26-7.53L50.2,29l-.88.88a1.3,1.3,0,0,0-.38.91,1.28,1.28,0,0,0,.38.91L52,34.33Z"/><path class="cls-8" d="M47.79,9.1H15.93a1.14,1.14,0,0,0-1.14,1.14v5.69a1.14,1.14,0,0,0,1.14,1.14H47.79a1.14,1.14,0,0,0,1.14-1.14V10.24A1.14,1.14,0,0,0,47.79,9.1Zm-1.13,5.69H17.07V11.38H46.66Z"/><path class="cls-9" d="M29.59,21.62H20.48a1.14,1.14,0,0,0-1.14,1.14v4.55a1.14,1.14,0,0,0,1.14,1.14h9.11a1.14,1.14,0,0,0,1.13-1.14V22.76A1.14,1.14,0,0,0,29.59,21.62Zm-1.14,4.55H21.62V23.9h6.83Z"/><path class="cls-10" d="M47.79,9.1H15.93a1.14,1.14,0,0,0-1.14,1.14V31.86A1.14,1.14,0,0,0,15.93,33H43a1.12,1.12,0,0,0,.91-.46,1.14,1.14,0,0,0,.18-1l-1.44-4.8,4.8,1.44a1.14,1.14,0,0,0,1.46-1.09V10.24A1.14,1.14,0,0,0,47.79,9.1ZM46.66,25.55,41.3,23.94a1.15,1.15,0,0,0-1.42,1.42l1.61,5.36H17.07V11.38H46.66Z"/></g></g></svg>