<svg xmlns="http://www.w3.org/2000/svg" xmlns:xlink="http://www.w3.org/1999/xlink" viewBox="0 0 65.98 65.98"><defs><style>.cls-1{opacity:0.8;isolation:isolate;}.cls-2{fill:url(#New_Gradient_Swatch_1);}.cls-3{fill:url(#New_Gradient_Swatch_1-2);}.cls-4{fill:url(#New_Gradient_Swatch_1-3);}.cls-5{fill:url(#New_Gradient_Swatch_1-4);}.cls-6{fill:url(#New_Gradient_Swatch_1-5);}</style><linearGradient id="New_Gradient_Swatch_1" x1="10.07" y1="61.52" x2="82.06" y2="4.53" gradientUnits="userSpaceOnUse"><stop offset="0" stop-color="#2d9ac0"/><stop offset="1" stop-color="#6ce8ab"/></linearGradient><linearGradient id="New_Gradient_Swatch_1-2" x1="-3.38" y1="44.54" x2="68.62" y2="-12.46" xlink:href="#New_Gradient_Swatch_1"/><linearGradient id="New_Gradient_Swatch_1-3" x1="0.19" y1="49.05" x2="72.19" y2="-7.95" xlink:href="#New_Gradient_Swatch_1"/><linearGradient id="New_Gradient_Swatch_1-4" x1="-0.55" y1="48.11" x2="71.44" y2="-8.89" xlink:href="#New_Gradient_Swatch_1"/><linearGradient id="New_Gradient_Swatch_1-5" x1="2.63" y1="52.14" x2="74.63" y2="-4.86" xlink:href="#New_Gradient_Swatch_1"/></defs><title>Asset 5</title><g id="Layer_2" data-name="Layer 2"><g id="Layer_1-2" data-name="Layer 1"><g class="cls-1"><path class="cls-2" d="M25.44,39.87H14.22A13.72,13.72,0,0,0,.47,53.35c-.41,2.25-1,6.18.42,7.58C4.68,64.58,13.24,66,19.82,66c6.73,0,15.15-1.4,18.93-5.05,1.4-1.4.85-5.33.42-7.58A13.77,13.77,0,0,0,25.44,39.87ZM37,58.81c-2.67,2.67-9.26,4.35-17,4.35S5.54,61.48,3,59c-.28-.57-1.63-15.8,11.21-16.43,2.93-.15,11.37,0,11.37,0C38.19,42.53,37.23,58.4,37,58.81Z"/><path class="cls-3" d="M19.69,37.34a11.1,11.1,0,0,0,0-22.19A11.2,11.2,0,0,0,8.61,26.24,11,11,0,0,0,19.69,37.34Zm0-19.38a8.28,8.28,0,1,1-8.42,8.28A8.41,8.41,0,0,1,19.69,18Z"/><path class="cls-4" d="M32.6,0V20.36H37v10l10-10H66V0ZM63.31,17.69H45.92l-6.17,6.18V17.69H35.4V2.81H63.31Z"/><path class="cls-5" d="M49,6.73a.77.77,0,0,1,.7-.42,1.46,1.46,0,0,1,.57.14,2.18,2.18,0,0,1,.28.85,1.19,1.19,0,0,1-.28.85L49.16,9.41c-.28.42-.56.7-.7,1a3,3,0,0,0-.13,1.12v1.27h2.53V11.66c0-.28,0-.57.13-.7l.57-.57.85-.84a.67.67,0,0,1,.28-.42c.13-.14.28-.28.28-.42s.14-.13.29-.42c.13-.13.13-.56.13-1a2.87,2.87,0,0,0-1-2.38,4,4,0,0,0-2.67-.85,3.74,3.74,0,0,0-2.67,1,4.09,4.09,0,0,0-1.26,2.67h2.8a5.45,5.45,0,0,1,.4-1Z"/><path class="cls-6" d="M49.71,13.33a1.52,1.52,0,0,0-1.11.42,1.69,1.69,0,0,0,0,2.23,1.34,1.34,0,0,0,1.11.42A1.53,1.53,0,0,0,50.83,16a1.59,1.59,0,0,0,.42-1.12,1.57,1.57,0,0,0-.42-1.11A1.64,1.64,0,0,0,49.71,13.33Z"/></g></g></g></svg>