<svg xmlns="http://www.w3.org/2000/svg" xmlns:xlink="http://www.w3.org/1999/xlink" viewBox="0 0 60 60"><defs><style>.cls-1{fill:url(#New_Gradient_Swatch_1);}.cls-2{fill:url(#New_Gradient_Swatch_1-2);}.cls-3{fill:url(#New_Gradient_Swatch_1-3);}.cls-4{fill:url(#New_Gradient_Swatch_1-4);}.cls-5{fill:url(#New_Gradient_Swatch_1-5);}.cls-6{fill:url(#New_Gradient_Swatch_1-6);}</style><linearGradient id="New_Gradient_Swatch_1" x1="0.03" y1="55.72" x2="60.03" y2="5.48" gradientUnits="userSpaceOnUse"><stop offset="0" stop-color="#2d9ac0"/><stop offset="1" stop-color="#6ce8ab"/></linearGradient><linearGradient id="New_Gradient_Swatch_1-2" x1="11.33" y1="69.21" x2="71.33" y2="18.98" xlink:href="#New_Gradient_Swatch_1"/><linearGradient id="New_Gradient_Swatch_1-3" x1="-10.4" y1="43.25" x2="49.6" y2="-6.98" xlink:href="#New_Gradient_Swatch_1"/><linearGradient id="New_Gradient_Swatch_1-4" x1="-2.15" y1="53.11" x2="57.85" y2="2.87" xlink:href="#New_Gradient_Swatch_1"/><linearGradient id="New_Gradient_Swatch_1-5" x1="-2.44" y1="52.77" x2="57.56" y2="2.53" xlink:href="#New_Gradient_Swatch_1"/><linearGradient id="New_Gradient_Swatch_1-6" x1="1.53" y1="57.5" x2="61.53" y2="7.27" xlink:href="#New_Gradient_Swatch_1"/></defs><title>Asset 6</title><g id="Layer_2" data-name="Layer 2"><g id="Layer_1-2" data-name="Layer 1"><path class="cls-1" d="M58.83,24.46h-7.5a1.17,1.17,0,0,0-1.17,1.17v5.92a1.17,1.17,0,1,0,2.34,0V26.81h5.16V57.66H52.5V40.34a1.17,1.17,0,0,0-2.34,0V57.66H47.81V33.4a1.17,1.17,0,0,0-1.17-1.17h-7.5A1.17,1.17,0,0,0,38,33.4V57.66H35.63V41.6a1.17,1.17,0,0,0-1.18-1.17H27a1.17,1.17,0,0,0-1.17,1.17V57.66H23.44V48.33a1.18,1.18,0,0,0-1.17-1.18h-7.5a1.18,1.18,0,0,0-1.18,1.18v9.33H3.52a1.18,1.18,0,0,1-1.18-1.18v-53A1.18,1.18,0,0,1,3.52,2.34H33.75v7.74a3.51,3.51,0,0,0,3.51,3.51H45V28a1.17,1.17,0,1,0,2.34,0V12.42a1.17,1.17,0,0,0-.34-.83L35.75.34A1.17,1.17,0,0,0,34.92,0H3.52A3.53,3.53,0,0,0,0,3.52v53A3.53,3.53,0,0,0,3.52,60H58.83A1.17,1.17,0,0,0,60,58.83V25.63A1.17,1.17,0,0,0,58.83,24.46ZM36.09,4l7.25,7.25H37.26a1.18,1.18,0,0,1-1.17-1.17Zm-15,53.66H15.94V49.5h5.15Zm12.19,0H28.13V42.77h5.15Zm12.19,0H40.31V34.57h5.16Z"/><path class="cls-2" d="M52.16,34.9a1.17,1.17,0,1,0,0,1.66,1.18,1.18,0,0,0,0-1.66Z"/><path class="cls-3" d="M17.06,6.41a1.17,1.17,0,0,0-1.17,1.18v2.1A10.78,10.78,0,1,0,27.77,21.58h2.11a1.17,1.17,0,0,0,1.17-1.17A14,14,0,0,0,17.06,6.41Zm0,22.43a8.43,8.43,0,0,1-1.17-16.78v8.35a1.17,1.17,0,0,0,1.17,1.17h8.35A8.44,8.44,0,0,1,17.06,28.84Zm1.17-9.6h0V8.82A11.67,11.67,0,0,1,28.65,19.24Z"/><path class="cls-4" d="M29.88,34.48H7.5a1.18,1.18,0,0,0,0,2.35H29.88a1.18,1.18,0,0,0,0-2.35Z"/><path class="cls-5" d="M15,40.14H7.5a1.17,1.17,0,1,0,0,2.34H15a1.17,1.17,0,0,0,0-2.34Z"/><path class="cls-6" d="M21.7,40.48A1.17,1.17,0,0,0,20,42.14a1.22,1.22,0,0,0,.83.34,1.17,1.17,0,0,0,.83-2Z"/></g></g></svg>