<svg xmlns="http://www.w3.org/2000/svg" xmlns:xlink="http://www.w3.org/1999/xlink" viewBox="0 0 55.44 75.65"><defs><style>.cls-1{opacity:0.8;isolation:isolate;}.cls-2{fill:url(#New_Gradient_Swatch_1);}.cls-3{fill:url(#New_Gradient_Swatch_1-2);}</style><linearGradient id="New_Gradient_Swatch_1" x1="14.16" y1="74.06" x2="59.16" y2="6.57" gradientUnits="userSpaceOnUse"><stop offset="0" stop-color="#2d9ac0"/><stop offset="1" stop-color="#6ce8ab"/></linearGradient><linearGradient id="New_Gradient_Swatch_1-2" x1="-3.38" y1="62.37" x2="41.62" y2="-5.13" xlink:href="#New_Gradient_Swatch_1"/></defs><title>Asset 1</title><g id="Layer_2" data-name="Layer 2"><g id="Layer_1-2" data-name="Layer 1"><g class="cls-1"><path class="cls-2" d="M34.94,34.47c.53,5-2.71,9.09-2.46,14.25.74,1.38,2.86.64,4.28,1.53a6.78,6.78,0,0,0,5.15.67V41.38c.76-1.09,1.59-.79,2.6-.72,1.79,3.45.92,7.07.54,11,1.59,2.47,4.78.94,7.2,2.37a24.58,24.58,0,0,0-.92-11.39A1.86,1.86,0,0,1,52,40.14l1.5.56c2.64,5.11,1.9,10.53,1.44,15.92-2.59,6-5.2,12-11.47,15.07-8.11,4-9,4.11-16.28,3.9-2.77-.08-5.3-1.24-7.77-2.23C15.75,71.87,12.85,69.1,10.3,66A24.21,24.21,0,0,1,5,47.37a23.44,23.44,0,0,1,8.88-16.55,4.6,4.6,0,0,1,.92.43c.47.38.76.88.5,2-2.27,2.68-5.49,5.31-6.2,9.62,1.72,2.15,4.44,1.5,6.76,2.39.74-1.44,1.85-2.86,2.19-4.45A3.57,3.57,0,0,1,20.7,38c.92.48,1.49,1.48.8,2.23-1.38,1.49-1,3.5-2,4.86.25,1.3.93,1.81,2,1.79,2.34-.06,4.48.82,6.62,1.41a2.73,2.73,0,0,0,1.32-2c1-3.06,1.44-6.22,2.18-9.32C31.93,35.77,32.3,33.77,34.94,34.47Zm3.29,27c1-2.23,2-4.36,3-6.45-1.6-1.06-3-2.09-4.89-1.81s-3.44-1.43-5.33-.43L29.68,59.2c1.12,1.08,2.87.58,4.08,1.21C35.14,61.13,36.35,61.83,38.23,61.45Zm-20-4.28,8.05,1.34c1.15-2.17.72-4.91,2.36-7-2.37-.6-4.57-.84-6.46-1.74a6.63,6.63,0,0,0-3.95-.52ZM46.36,66a57.86,57.86,0,0,0,5.52-9.13,9.48,9.48,0,0,1-4.21-1.1c-1.25-.69-2.63-.46-4.19-.32.37,3.19-2.63,5-2.73,8.19C42.92,63.43,44.14,65.34,46.36,66ZM7.66,47.08c.46,3.56-1,7.14,1.59,10.14h5.38c.3-2.92-.3-5.8.81-8.44C11.64,46.86,11.64,46.86,7.66,47.08Zm10.79,14c1.73,3.13,2.17,6.69,4.51,9.3.38-.63,1,.43,1.48-.33-.31-2.77.86-5.43,1.12-8.27C23.31,61.34,21.05,60.41,18.45,61.1Zm8,10.51.63.37c1.13-1.67,3.13-2.11,4.52-3.41S35,66.44,35,64.06l-6.07-1.5C28.12,65.54,27.3,68.57,26.48,71.61Zm-16.22-12c-.49.64-.51,1.36-.26,1.48,1.56.77,2.27,2.32,3,3.63.85,1.47,2.27,2.13,3.36,3.22.41.4,1,1.1,1.79.11-1.11-2.42-2.32-4.89-2.27-7.45C14,59.09,12,59.62,10.26,59.61ZM39,65.33c-2,3.18-5.19,4.53-7.23,7.33,2-1.11,4.36.06,6.2-1.32,1.65-1.25,4.25-1,5.39-3.33Zm-20.37,4.1c-.07.06-.21.13-.2.17.08.28.23.29.37,0C18.77,69.61,18.64,69.5,18.58,69.43Z"/><path class="cls-3" d="M19.36,23.9H14.63A19.62,19.62,0,0,1,8,28.54l-1.64-.89V23.5c-1.53-.78-3.08-.19-4.54-.52A5.2,5.2,0,0,1,0,21.18V6.63A1.93,1.93,0,0,1,.93,5.09C11.33,3,21.94,1.53,32.7,0A15.13,15.13,0,0,1,33,4.33c0,1.39,0,2.79,0,4.33a9.92,9.92,0,0,0,5.23,1.17,3.71,3.71,0,0,1,2,.2c2.11,1.37,4.48.9,6.74,1.23s4.69.12,6.11,2.41c.47,10.73.31,14.17-.84,16.33L47,30.24v4.93l-1.87,1.09c-2-1.47-4.48-2.6-6.32-4.77-3.43.22-6.85-.25-10.34.55-2.43.57-5.1.11-7.74.11C18.64,29.82,20.11,26.84,19.36,23.9Zm30.9-8.78c-4.7-1.33-9.24-1.76-13.74-2.42s-9.1-1.9-13.78-1.94c-.56,4.38-.43,16.31.17,18.42l16.42-1.29a22.92,22.92,0,0,0,4.5,3.41c.67-1-.3-2.35.79-3.28a10.22,10.22,0,0,0,5.64-1.49ZM30.67,3c-.52-.08-.78-.2-1-.14A39.34,39.34,0,0,1,17.58,5a4.17,4.17,0,0,0-1.35.24A38.47,38.47,0,0,1,5.12,7a2.39,2.39,0,0,0-2.3,1.17c0,3.33,0,7.22,0,11.09L8,20.51c1.72,1,.72,2.41,1.73,3.34l4.62-3.32a7.85,7.85,0,0,0,4.08.4,2.11,2.11,0,0,0,1.21-2.21c0-2.67.05-5.35,0-8a5.21,5.21,0,0,1,1.15-3.54c1.75-.59,3.27.92,5,.58s3,1.83,4.93,1.07Z"/></g></g></g></svg>