<svg xmlns="http://www.w3.org/2000/svg" xmlns:xlink="http://www.w3.org/1999/xlink" viewBox="0 0 55.26 55"><defs><style>.cls-1{isolation:isolate;}.cls-2{fill:url(#linear-gradient);}.cls-3{fill:url(#linear-gradient-2);}.cls-4{fill:url(#linear-gradient-3);}.cls-5{fill:url(#linear-gradient-4);}</style><linearGradient id="linear-gradient" x1="3.32" y1="52.59" x2="55.99" y2="7.92" gradientUnits="userSpaceOnUse"><stop offset="0" stop-color="#2d9ac0"/><stop offset="1" stop-color="#6ce8ab"/></linearGradient><linearGradient id="linear-gradient-2" x1="-4.56" y1="43.28" x2="48.1" y2="-1.39" xlink:href="#linear-gradient"/><linearGradient id="linear-gradient-3" x1="-0.38" y1="48.21" x2="52.29" y2="3.54" xlink:href="#linear-gradient"/><linearGradient id="linear-gradient-4" x1="7.39" y1="57.37" x2="60.06" y2="12.7" xlink:href="#linear-gradient"/></defs><title>Asset 18</title><g id="Layer_2" data-name="Layer 2"><g id="Layer_1-2" data-name="Layer 1"><g class="cls-1"><path class="cls-2" d="M55.26,46.18a1.86,1.86,0,0,1-.82.75c-1.23.66-2.45,1.36-3.69,2a.77.77,0,0,0-.48.8c0,1.42,0,2.84,0,4.26,0,.92-.56,1.25-1.34.8l-8.69-5.13a.83.83,0,0,1-.38-1.27c.28-.59.55-1.17.85-1.75.15-.3.14-.48-.21-.61-.51-.19-1-.4-1.49-.63a.64.64,0,0,0-.85.17,29.46,29.46,0,0,1-7,5.19c-1,.53-2,1-3,1.42a1.22,1.22,0,0,1-1,0,30.29,30.29,0,0,1-9.87-6.45c-.38-.38-.7-.55-1.21-.25a6.15,6.15,0,0,1-1.18.5c-.49.16-.49.4-.27.8s.54,1.1.8,1.65A.82.82,0,0,1,15,49.66L6.27,54.81C5.52,55.25,5,54.91,5,54c0-1.44,0-2.88,0-4.31A.75.75,0,0,0,4.5,49C3.23,48.28,2,47.58.72,46.88c-.94-.51-1-1.13-.06-1.73Q3,43.53,5.46,41.94c.33-.21.45-.4.21-.76a8.68,8.68,0,0,1-.51-1,1,1,0,0,1,.21-1.39,18.66,18.66,0,0,1,4-2.88c.92-.51.84-.31.44-1.22A50.55,50.55,0,0,1,6.19,21.4a.82.82,0,0,1,.64-1,.78.78,0,0,1,.9.72c.27,1.58.5,3.16.85,4.72a39.92,39.92,0,0,0,5.5,13.56A29.32,29.32,0,0,0,27.2,50.51a1,1,0,0,0,.87,0,29.63,29.63,0,0,0,15.32-15,47,47,0,0,0,4-13.87,65.87,65.87,0,0,0,.61-9C48,11.8,48,11,48,10.22c0-.38-.13-.52-.52-.57a42.79,42.79,0,0,1-9.65-2.42A42.32,42.32,0,0,1,28,2.08a.59.59,0,0,0-.84,0A43.34,43.34,0,0,1,10.4,9.22c-.86.17-1.73.31-2.6.43-.34,0-.5.15-.52.53a57.54,57.54,0,0,0,.09,7,4.75,4.75,0,0,1,0,.65.82.82,0,0,1-.76.93c-.45,0-.77-.34-.81-.9-.06-1.06-.13-2.12-.17-3.18a43.88,43.88,0,0,1,.15-5.5c.06-.65.28-.86.9-.93A41.92,41.92,0,0,0,19.63,4.61,39.79,39.79,0,0,0,26.92.33c.58-.44.81-.44,1.39,0A41.57,41.57,0,0,0,45.59,7.76c1,.18,1.95.3,2.93.44.63.09.85.29.91.92a51.09,51.09,0,0,1,0,8.57A58.76,58.76,0,0,1,48,27a43.81,43.81,0,0,1-2.67,8c-.2.43-.13.64.3.87a17.54,17.54,0,0,1,4,2.83c.71.66.74.87.29,1.73-.65,1.24-.65,1.24.5,2l4,2.69a2.1,2.1,0,0,1,.75.76ZM15.42,43.87l-.15-.2A36.09,36.09,0,0,1,11,37.27c-.14-.26-.27-.27-.51-.14A22.51,22.51,0,0,0,8,38.71c-1.31,1-1.31,1-.56,2.41l.1.19,2.68,5.11c.09.18.15.5.48.24a19,19,0,0,1,4.5-2.53C15.27,44.08,15.43,44.07,15.42,43.87Zm29.29,2.89c.24,0,.26-.2.33-.33,1.09-2.08,2.17-4.17,3.28-6.25a.51.51,0,0,0-.16-.76,21.71,21.71,0,0,0-3.3-2.23c-.35-.2-.5-.16-.69.21A32.74,32.74,0,0,1,40,43.57c-.28.34-.24.46.16.62a17.9,17.9,0,0,1,4.3,2.43ZM12.29,49.31c-.62-.12-1.23-.26-1.84-.32a1.33,1.33,0,0,1-1.15-.84C8.5,46.58,7.67,45,6.87,43.47c-.18-.35-.32-.38-.64-.16-1.16.79-2.32,1.58-3.5,2.33-.44.29-.3.4.06.58,1,.54,2,1.11,3,1.63a1.24,1.24,0,0,1,.77,1.28c0,1,0,2.08,0,3.13,0,.42,0,.56.48.3,1.66-1,3.34-2,5-3C12.11,49.53,12.24,49.49,12.29,49.31Zm30.67,0,0,.13,5.46,3.23c.32.19.31,0,.31-.26,0-1.11,0-2.23,0-3.34a1.14,1.14,0,0,1,.69-1.16c1-.54,2-1.13,3.08-1.67.44-.23.35-.36,0-.59Q50.73,44.51,49,43.32c-.34-.24-.49-.19-.67.17-.82,1.6-1.67,3.18-2.48,4.78a1.2,1.2,0,0,1-1,.7C44.23,49.06,43.6,49.19,43,49.29Z"/><path class="cls-3" d="M12.26,17a41.79,41.79,0,0,0,2.49,13.78,27.09,27.09,0,0,0,3,5.89L18,37c.36.54.33,1-.08,1.27s-.85.15-1.23-.4a31,31,0,0,1-4.34-9.34A44.76,44.76,0,0,1,10.8,13.2c0-.59.28-.83.92-.91a32.47,32.47,0,0,0,14-5.06c.42-.27.82-.58,1.23-.87.6-.43.8-.44,1.4,0A31.68,31.68,0,0,0,37,10.84a32.47,32.47,0,0,0,6.46,1.45c.72.09.92.33,1,1a38.9,38.9,0,0,1,0,5.29c0,.71-.32,1-.85,1s-.77-.44-.72-1.13a35,35,0,0,0,0-4.1c0-.39-.1-.58-.56-.65A33.31,33.31,0,0,1,28,8.06a.49.49,0,0,0-.67,0A33.63,33.63,0,0,1,13.72,13.6l-.21,0c-1.22.18-1.22.18-1.24,1.43,0,.49,0,1,0,1.46Z"/><path class="cls-4" d="M20.87,23.18a2.71,2.71,0,0,1,2,.88c.69.7,1.41,1.38,2.09,2.11.32.35.52.38.88,0,2.19-2.23,4.41-4.44,6.63-6.65a2.81,2.81,0,0,1,4.4,3.5,6.09,6.09,0,0,1-.54.6l-8.63,8.63c-1.52,1.52-3.07,1.52-4.6,0S20.27,29.42,18.88,28a2.8,2.8,0,0,1,.75-4.54A2.7,2.7,0,0,1,20.87,23.18Zm0,1.58a1.22,1.22,0,0,0-1.21.81A1.32,1.32,0,0,0,20.14,27l4.13,4.13c.89.88,1.48.88,2.37,0l8.6-8.59c.1-.1.2-.2.29-.31a1.25,1.25,0,0,0,0-1.71,1.21,1.21,0,0,0-1.75,0,4.51,4.51,0,0,0-.39.37l-7.17,7.18c-.59.59-1,.58-1.56,0L21.92,25.3A1.44,1.44,0,0,0,20.9,24.76Z"/><path class="cls-5" d="M44.13,22.46a39.28,39.28,0,0,1-2.32,9.26A26.24,26.24,0,0,1,35,41.83a23.6,23.6,0,0,1-7,4.35,1,1,0,0,1-.78,0,23.34,23.34,0,0,1-8-5.34c-.44-.45-.47-.87-.12-1.23a.84.84,0,0,1,1.24.13,22.28,22.28,0,0,0,6.85,4.71,1,1,0,0,0,1,0A22.78,22.78,0,0,0,39.63,32.83a35.74,35.74,0,0,0,2.91-10.39c0-.1,0-.21,0-.32.13-.56.46-.83.93-.75S44.17,21.76,44.13,22.46Z"/></g></g></g></svg>