<svg xmlns="http://www.w3.org/2000/svg" xmlns:xlink="http://www.w3.org/1999/xlink" viewBox="0 0 54.99 55"><defs><style>.cls-1{fill:url(#linear-gradient);}.cls-2{fill:url(#linear-gradient-2);}.cls-3{fill:url(#linear-gradient-3);}.cls-4{fill:url(#linear-gradient-4);}.cls-5{fill:url(#linear-gradient-5);}.cls-6{fill:url(#linear-gradient-6);}</style><linearGradient id="linear-gradient" x1="-5.19" y1="48.9" x2="66.31" y2="-9.1" gradientUnits="userSpaceOnUse"><stop offset="0" stop-color="#2d9ac0"/><stop offset="1" stop-color="#6ce8ab"/></linearGradient><linearGradient id="linear-gradient-2" x1="-3.22" y1="51.34" x2="68.28" y2="-6.66" xlink:href="#linear-gradient"/><linearGradient id="linear-gradient-3" x1="-14.07" y1="37.96" x2="57.43" y2="-20.04" xlink:href="#linear-gradient"/><linearGradient id="linear-gradient-4" x1="-8.64" y1="44.65" x2="62.86" y2="-13.35" xlink:href="#linear-gradient"/><linearGradient id="linear-gradient-5" x1="-9.54" y1="43.54" x2="61.96" y2="-14.46" xlink:href="#linear-gradient"/><linearGradient id="linear-gradient-6" x1="-0.44" y1="54.76" x2="71.06" y2="-3.24" xlink:href="#linear-gradient"/></defs><title>Asset 5</title><g id="Layer_2" data-name="Layer 2"><g id="Layer_1-2" data-name="Layer 1"><path class="cls-1" d="M2.58,55A3.92,3.92,0,0,1,.79,54,3.21,3.21,0,0,1,0,51.81q0-9.35,0-18.69A3,3,0,0,1,3.15,29.9c2.22,0,4.44,0,6.66,0,1,0,1.36.18,2.51,1.08,2-1,4.05-2,5.27-4a10.15,10.15,0,0,0,.88-1.89q1.09-3,2.17-6c.39-1.06.79-1.26,1.88-.93a14.71,14.71,0,0,1,2,.69,6,6,0,0,1,2.86,2.87l.22.45h1.5c2.19,0,4.37,0,6.55,0a1.67,1.67,0,0,1,1.29.53c1.08,1.11,2.16,2.2,3.21,3.26.28,0,.37-.2.49-.32,1-1,2-1.94,2.92-2.92a1.7,1.7,0,0,1,1.34-.55c2.17,0,4.33,0,6.5,0,1,0,1.41-.37,1.41-1.43q0-8.56,0-17.13c0-1-.38-1.41-1.43-1.41h-42c-1,0-1.41.37-1.41,1.43V20.72c0,1,.37,1.41,1.43,1.41.48,0,1,0,1.45,0A1.11,1.11,0,0,1,12,23.19a1.09,1.09,0,0,1-1.2,1.09H9.21A3.24,3.24,0,0,1,5.8,20.87c0-3.73,0-7.45,0-11.17V3.52A3.26,3.26,0,0,1,9.32,0Q30.4,0,51.47,0a3.34,3.34,0,0,1,3.44,2.56.35.35,0,0,0,.08.13V21.6c-.1.26-.18.53-.3.79a3.2,3.2,0,0,1-3.06,1.89H45L41.3,28c-.74.75-1.27.75-2,0l-.57-.56-3.1-3.15H28c-.07,2-1,3.69-1.48,5.53a1.53,1.53,0,0,0,.6.05h7.35a9.07,9.07,0,0,1,1.28.09A4,4,0,0,1,39,33.33a4.17,4.17,0,0,1-.44,2.43,4,4,0,0,1,.19,7.58,3.91,3.91,0,0,1,.25,3.4,4.15,4.15,0,0,1-2.46,2.36l.11.25a3.92,3.92,0,0,1-1.19,4.85,5.26,5.26,0,0,1-1.85.8H17.51a12.91,12.91,0,0,0-1.63-.28,22.44,22.44,0,0,1-3.4-1.1A3.47,3.47,0,0,1,10.31,55ZM13,51.49a13.12,13.12,0,0,0,6.16,1.36H32.76a4.73,4.73,0,0,0,.53,0,1.78,1.78,0,0,0,.43-3.46,2.53,2.53,0,0,0-.9-.11H29.65c-.93,0-1.42-.39-1.41-1.09s.49-1.05,1.4-1.05H34.9a4.25,4.25,0,0,0,.8-.06,1.77,1.77,0,0,0,1.39-2.13,1.8,1.8,0,0,0-1.85-1.41c-1.75,0-3.51,0-5.26,0a7.3,7.3,0,0,1-.81,0,1.06,1.06,0,0,1-.79-1.58,1.17,1.17,0,0,1,1.09-.55h2c1.95,0,3.9,0,5.85,0a1.79,1.79,0,1,0,0-3.57H29.73a2.62,2.62,0,0,1-.74-.07,1,1,0,0,1-.75-1,1,1,0,0,1,.83-1,3.34,3.34,0,0,1,.64,0h5.21a1.89,1.89,0,0,0,1.67-.79,1.73,1.73,0,0,0,.14-1.79A1.78,1.78,0,0,0,35,32c-.92,0-1.83,0-2.74,0H25.16A1.07,1.07,0,0,1,24,30.5l.18-.56c.52-1.64,1.21-3.22,1.58-4.9a4,4,0,0,0-3.34-4.64c-.07.18-.15.35-.22.54l-1.82,5a10.45,10.45,0,0,1-3.18,4.57,17.53,17.53,0,0,1-2.86,1.78L13,33.08ZM5.35,32H3.41c-.94,0-1.26.32-1.26,1.26V51.6c0,.94.31,1.25,1.26,1.25H9.48c1.1,0,1.37-.26,1.37-1.35V33.2c0-.71-.27-1.1-.86-1.14-.78-.05-1.57,0-2.33,0a1.24,1.24,0,0,0-.09.67V44.64c0,.16,0,.32,0,.48,0,.76-.44,1.21-1.09,1.2s-1-.44-1.05-1.18c0-.16,0-.32,0-.48q0-6,0-11.91A1.65,1.65,0,0,0,5.35,32Z"/><path class="cls-2" d="M42,9c.22-.44.45-.88.66-1.33a1.84,1.84,0,0,1,1.71-1.32,1.81,1.81,0,0,1,1.73,1.28c.21.46.45.9.69,1.36l1.74.27a1.73,1.73,0,0,1,1.52,1.19,1.71,1.71,0,0,1-.48,1.81c-.41.43-.83.85-1.28,1.31a8.3,8.3,0,0,0,.2,1.32,3.8,3.8,0,0,1,.09,1,1.66,1.66,0,0,1-2.27,1.41c-.65-.26-1.25-.61-1.93-.95-.47.25-1,.5-1.47.78a1.74,1.74,0,0,1-2-.05,1.71,1.71,0,0,1-.65-1.85c.11-.56.18-1.13.26-1.64-.42-.44-.79-.85-1.19-1.24a1.75,1.75,0,0,1,1-3.11C40.88,9.16,41.43,9.07,42,9Zm2.39.08c-.38.56-.51,1.25-1.06,1.68s-1.3.33-2,.55c.4.56,1,.88,1.26,1.54s-.13,1.32-.08,2c.66-.25,1.18-.72,1.88-.71s1.2.5,2,.73a2.66,2.66,0,0,1,1.16-3.58,5.76,5.76,0,0,1-2-.53C44.92,10.35,44.79,9.64,44.4,9.06Z"/><path class="cls-3" d="M19.46,9c.6.09,1.16.18,1.72.25a1.74,1.74,0,0,1,1,3.06L21,13.6c.09.48.17,1,.27,1.53a1.79,1.79,0,0,1-.66,2,1.76,1.76,0,0,1-2,0c-.47-.27-.95-.51-1.46-.78l-1.54.81a1.71,1.71,0,0,1-2-.07,1.75,1.75,0,0,1-.65-1.86c.09-.54.19-1.09.28-1.6L12,12.31a1.82,1.82,0,0,1-.62-1.53,1.71,1.71,0,0,1,1.55-1.53c.58-.1,1.16-.17,1.79-.27.22-.44.46-.9.68-1.37a1.79,1.79,0,0,1,3.44,0C19,8.09,19.24,8.53,19.46,9ZM15.1,14.9c.75-.28,1.27-.75,2-.76s1.23.5,1.89.69a5.5,5.5,0,0,1-.09-2c.21-.65.85-1,1.3-1.64a2.66,2.66,0,0,1-3-2.16c-.45.65-.58,1.34-1.15,1.75s-1.26.3-2,.56A2.68,2.68,0,0,1,15.1,14.9Z"/><path class="cls-4" d="M30.73,16.33l-1.54.82a1.71,1.71,0,0,1-2-.08,1.75,1.75,0,0,1-.63-1.87c.1-.54.18-1.09.28-1.69-.45-.45-.95-.89-1.39-1.37a1.7,1.7,0,0,1,0-2.41,1.8,1.8,0,0,1,1-.49L28.35,9c.24-.5.5-1,.75-1.52a1.71,1.71,0,0,1,1.61-1.13,1.74,1.74,0,0,1,1.66,1.13c.24.5.49,1,.76,1.51.57.09,1.15.19,1.73.27a1.7,1.7,0,0,1,1.53,1.16,1.74,1.74,0,0,1-.49,1.86c-.42.42-.83.85-1.28,1.32l.26,1.51a2,2,0,0,1-.32,1.68,1.69,1.69,0,0,1-2.08.46C31.9,17,31.34,16.64,30.73,16.33Zm-3.06-5a2.91,2.91,0,0,1,1.19,3.61,2.73,2.73,0,0,1,3.76.06c0-.78-.32-1.41-.12-2.08s.84-1,1.32-1.68A2.76,2.76,0,0,1,30.72,9,2.83,2.83,0,0,1,27.67,11.28Z"/><path class="cls-5" d="M16.57,23.23a1.05,1.05,0,1,1-2.1-.05,1.05,1.05,0,1,1,2.1.05Z"/><path class="cls-6" d="M7.55,49.12a1.06,1.06,0,0,1-2.11.06,1.09,1.09,0,0,1,1-1.12A1.07,1.07,0,0,1,7.55,49.12Z"/></g></g></svg>