<svg xmlns="http://www.w3.org/2000/svg" xmlns:xlink="http://www.w3.org/1999/xlink" viewBox="0 0 41.24 55"><defs><style>.cls-1{fill:url(#linear-gradient);}.cls-2{fill:url(#linear-gradient-2);}.cls-3{fill:url(#linear-gradient-3);}</style><linearGradient id="linear-gradient" x1="-2.24" y1="53.86" x2="40.62" y2="4.44" gradientTransform="translate(0.01 -0.01)" gradientUnits="userSpaceOnUse"><stop offset="0" stop-color="#2d9ac0"/><stop offset="1" stop-color="#6ce8ab"/></linearGradient><linearGradient id="linear-gradient-2" x1="-12.16" y1="60.78" x2="41.57" y2="-1.16" gradientTransform="translate(5.73 0.11) rotate(0.78)" xlink:href="#linear-gradient"/><linearGradient id="linear-gradient-3" x1="-12.16" y1="60.78" x2="41.57" y2="-1.16" gradientTransform="translate(5.73 0.11) rotate(0.78)" xlink:href="#linear-gradient"/></defs><title>Asset 3</title><g id="Layer_2" data-name="Layer 2"><g id="Layer_1-2" data-name="Layer 1"><path class="cls-1" d="M41.24,11.13a1.31,1.31,0,0,0-.38-.9L31,.38h0A1.28,1.28,0,0,0,30.1,0H2.71A2.72,2.72,0,0,0,0,2.71V52.29A2.72,2.72,0,0,0,2.71,55H38.53a2.71,2.71,0,0,0,2.71-2.71V11.13ZM31.38,4.4l5.46,5.46H31.52a.14.14,0,0,1-.14-.14V4.4Zm7.29,47.89a.13.13,0,0,1-.14.13H2.71a.13.13,0,0,1-.13-.13V2.71a.13.13,0,0,1,.13-.13h26.1V9.72a2.71,2.71,0,0,0,2.71,2.71h7.15V52.29Z"/><path class="cls-2" d="M8.25,29.33A12.34,12.34,0,1,1,20.44,41.84,12.34,12.34,0,0,1,8.25,29.33ZM20.42,39.76A10.27,10.27,0,1,0,10.33,29,10.24,10.24,0,0,0,20.42,39.76Z"/><path class="cls-3" d="M15.18,22.9a1,1,0,0,1,.81.38l4.31,4.44c.31.32.31.32.64,0l4.44-4.33a1.14,1.14,0,0,1,1.27-.24,1,1,0,0,1,.55,1,1.09,1.09,0,0,1-.38.68c-.78.76-1.57,1.51-2.34,2.27l-2.12,2.08c-.32.31-.33.32,0,.64.85.88,1.71,1.74,2.57,2.62.59.59,1.17,1.19,1.75,1.8a1,1,0,0,1-.5,1.82,1,1,0,0,1-1-.36L23.5,34c-.92-1-1.83-1.91-2.74-2.87-.13-.14-.2-.14-.34,0-.6.54-1.16,1.12-1.73,1.68-1,.93-1.9,1.86-2.86,2.78a1.17,1.17,0,0,1-1.35.26A1.12,1.12,0,0,1,14,34.72a1.63,1.63,0,0,1,.57-.8c1.42-1.39,2.84-2.78,4.28-4.16.24-.23.22-.36,0-.57L14.5,24.74a1.05,1.05,0,0,1,.06-1.67A1.14,1.14,0,0,1,15.18,22.9Z"/></g></g></svg>