<svg xmlns="http://www.w3.org/2000/svg" xmlns:xlink="http://www.w3.org/1999/xlink" viewBox="0 0 55 55"><defs><style>.cls-1{fill:url(#linear-gradient);}.cls-2{fill:url(#linear-gradient-2);}.cls-3{fill:url(#linear-gradient-3);}</style><linearGradient id="linear-gradient" x1="-13.13" y1="56.39" x2="56.98" y2="-0.33" gradientUnits="userSpaceOnUse"><stop offset="0" stop-color="#2d9ac0"/><stop offset="1" stop-color="#6ce8ab"/></linearGradient><linearGradient id="linear-gradient-2" x1="-0.01" y1="72.61" x2="70.1" y2="15.88" xlink:href="#linear-gradient"/><linearGradient id="linear-gradient-3" x1="-12.93" y1="56.63" x2="57.18" y2="-0.09" xlink:href="#linear-gradient"/></defs><title>Asset 6</title><g id="Layer_2" data-name="Layer 2"><g id="Layer_1-2" data-name="Layer 1"><path class="cls-1" d="M29.25,7v3c0,.37,0,.37-.35.37-.94,0-1.87,0-2.8,0-.28,0-.37-.08-.37-.36,0-2,0-4,0-6,0-.37,0-.39-.38-.36-.72.07-1.43.17-2.14.3a24.52,24.52,0,0,0-3.87,1c-.69.25-1.35.55-2,.84-.18.07-.26.15-.12.38.41.66.78,1.35,1.18,2,.12.19.12.32-.1.45-.87.48-1.73,1-2.59,1.48-.22.14-.27,0-.34-.16-.39-.67-.79-1.35-1.17-2-.12-.21-.19-.26-.42-.1a24,24,0,0,0-4.12,3.67c-.65.74-1.25,1.54-1.86,2.32-.11.15-.08.23.08.32l2.06,1.18c.31.18.31.18.14.48L8.68,18.23c-.19.33-.19.32-.51.14l-2.06-1.2c-.13-.08-.19-.06-.26.08a22.66,22.66,0,0,0-.91,2.17,22.14,22.14,0,0,0-.79,2.67,17.12,17.12,0,0,0-.42,2.48,8.43,8.43,0,0,0-.11.86c0,.25.07.32.31.31H9.17c.29,0,.59,0,.88,0s.34.06.33.32q0,1.43,0,2.85c0,.27-.07.35-.34.35H4.12a1.61,1.61,0,0,1-.22,0c-.22,0-.3.07-.28.29q.1,1.09.3,2.19a23.86,23.86,0,0,0,1,3.9c.25.7.56,1.37.84,2,.09.2.18.23.39.1.66-.41,1.35-.78,2-1.18.18-.11.3-.13.42.1.49.87,1,1.74,1.51,2.6.14.23-.07.27-.18.34-.68.4-1.36.8-2.06,1.18-.2.11-.22.19-.08.39a22.31,22.31,0,0,0,1.75,2.23A23.89,23.89,0,0,0,13.7,47.1c.32.22.32.22.52-.12l1.1-1.89c.19-.33.19-.34.51-.15l2.45,1.4c.21.12.24.23.12.44-.41.68-.79,1.38-1.2,2-.12.2-.07.27.1.35.85.38,1.7.74,2.58,1A25.22,25.22,0,0,0,22.8,51c.54.12,1.08.17,1.62.26a24.15,24.15,0,0,0,2.82.2c.2,0,.28.08.28.3,0,1,0,2,0,2.93,0,.21-.06.3-.28.3a30.88,30.88,0,0,1-3.33-.24,23,23,0,0,1-2.61-.47c-.8-.2-1.61-.39-2.39-.66A27.54,27.54,0,0,1,6.62,45.35,27.09,27.09,0,0,1,1,34.62a29.51,29.51,0,0,1-.66-3.24A27.62,27.62,0,0,1,0,27.32a25.51,25.51,0,0,1,.23-3.39A28.1,28.1,0,0,1,1.77,17.8a27.31,27.31,0,0,1,4.15-7.32,26,26,0,0,1,4.15-4.23,27.8,27.8,0,0,1,9.47-5.07A26,26,0,0,1,23.21.34c.63-.09,1.25-.16,1.88-.22C25.9,0,26.71,0,27.52,0A25.61,25.61,0,0,1,31,.23a27,27,0,0,1,6.37,1.61A27.25,27.25,0,0,1,44.65,6a29,29,0,0,1,3.62,3.48,27.86,27.86,0,0,1,3.54,5.15,26.53,26.53,0,0,1,1.74,4.06,23.19,23.19,0,0,1,.93,3.48c.15.94.3,1.88.39,2.84.07.71.06,1.42.13,2.13,0,.26-.06.35-.34.35q-1.42,0-2.85,0c-.26,0-.33-.09-.34-.32,0-.6,0-1.19-.09-1.79s-.17-1.5-.31-2.24a22.67,22.67,0,0,0-1-3.82c-.25-.68-.56-1.35-.84-2-.08-.2-.18-.25-.4-.11-.67.41-1.35.79-2,1.18-.17.1-.28.13-.41-.09-.49-.88-1-1.75-1.52-2.62-.14-.24.08-.27.19-.33.68-.41,1.37-.81,2.06-1.19.19-.11.22-.17.09-.37a19.51,19.51,0,0,0-1.63-2.09,23.41,23.41,0,0,0-2.92-2.8c-.47-.38-1-.75-1.46-1.11-.16-.11-.23-.09-.33.08-.39.7-.8,1.39-1.19,2.09-.12.2-.22.26-.46.11-.81-.49-1.63-1-2.46-1.42-.23-.12-.26-.23-.13-.46.41-.67.78-1.36,1.19-2,.12-.2.08-.28-.11-.36-.7-.31-1.41-.62-2.14-.88a22.74,22.74,0,0,0-2.64-.78,16.27,16.27,0,0,0-2.48-.42,6.7,6.7,0,0,0-.9-.11c-.2,0-.27.06-.27.27C29.26,4.92,29.25,6,29.25,7Z"/><path class="cls-2" d="M39.51,44.62a.57.57,0,0,0,0-.29V28.74c0-.43,0-.43.43-.43h2.69c.42,0,.43,0,.43.43V44.62a.67.67,0,0,0,.28-.2q1.7-1.7,3.38-3.4c.16-.16.26-.18.42,0l1.76,1.8.34.31c.16.13.12.22,0,.35L45,47.71c-1.16,1.16-2.33,2.32-3.48,3.49-.18.19-.28.17-.45,0l-7.48-7.49c-.47-.48-.47-.34,0-.82.61-.63,1.24-1.24,1.84-1.86.16-.16.26-.19.44,0q1.74,1.77,3.5,3.52S39.44,44.63,39.51,44.62Z"/><path class="cls-3" d="M29.25,22.72c0,1.73,0,3.46,0,5.19a.66.66,0,0,1-.21.51Q23,34.48,16.91,40.56c-.15.15-.26.17-.41,0l-2.09-2.09c-.16-.16-.11-.27,0-.41l8.23-8.23c.95-.94,1.89-1.89,2.84-2.82a.71.71,0,0,0,.23-.58V17.58c0-.41,0-.41.4-.41h2.77c.27,0,.35.07.35.34C29.25,19.25,29.25,21,29.25,22.72Z"/></g></g></svg>