<svg id="Layer_1" data-name="Layer 1" xmlns="http://www.w3.org/2000/svg" viewBox="0 0 400 300"><defs><style>.cls-1{fill:#ff5f00;}.cls-2{fill:#eb001b;}.cls-3{fill:#f79e1b;}</style></defs><title>Mastercard</title><rect id="rect887" class="cls-1" x="140.66" y="53.03" width="118.71" height="193.89"/><path id="path889" class="cls-2" d="M152.89,150A123.08,123.08,0,0,1,200,53.07,123.3,123.3,0,1,0,200,247a123.09,123.09,0,0,1-47.09-97Z"/><path id="path891" class="cls-3" d="M387.71,226.41v-4h1.71v-.82h-4.08v.82H387v4Zm7.91,0v-4.79h-1.23L393,225l-1.44-3.42h-1.23v4.79h.89v-3.63l1.33,3.12h.93l1.33-3.12v3.63Z"/><path id="path893" class="cls-3" d="M399.49,150A123.3,123.3,0,0,1,200,246.93,123.28,123.28,0,0,0,200,53a123.31,123.31,0,0,1,199.5,97Z"/></svg>