<svg id="Layer_1" data-name="Layer 1" xmlns="http://www.w3.org/2000/svg" viewBox="0 0 400 300"><defs><style>.cls-1{fill:#eee;}.cls-2{fill:#f7901e;}.cls-3{fill:#656565;}</style></defs><title>visiontek</title><path class="cls-1" d="M71,146.19H69v-8c1.73-.12,2,1,2,2.35C71,142.44,71,144.32,71,146.19Z"/><path class="cls-1" d="M69,112.28h2c0,1.88,0,3.76,0,5.63,0,1.37-.27,2.47-2,2.35Z"/><path class="cls-2" d="M244.78,154.19h-14.6c-6.22-12.14-12.22-24.5-19.3-36.47.08,5.9.18,11.8.22,17.7v18.65a50.26,50.26,0,0,1-8.5.12c-.6-2.61-.74-40.94-.15-45.58,2.44,0,5-.06,7.45-.07s4.81,0,7.26,0c6.47,12.51,12.84,24.82,19.53,37.77,0-3.9-.09-7.12,0-10.33.28-7.37-1-14.69-.68-22.06.07-1.6,0-3.22,0-5,2.91-.7,5.74-.28,8.52-.29C245.19,111.14,245.37,149.15,244.78,154.19Z"/><path class="cls-2" d="M133.52,122.15a52.1,52.1,0,0,1-7.9.19c-.85-2-.77-4.23-2.16-5.87-4.92-1.69-11.51-1.33-15.84,1l-1,3.08c-.08,1.75.92,2.94.67,4.21,1.57,2.21,3.87,2.45,6,2.41,3.93-.08,7.78.55,11.67.85a15.39,15.39,0,0,1,7.9,2.92,20.34,20.34,0,0,1-.85,20.53,15.8,15.8,0,0,1-9.59,2.9c-4-.13-8.08-.11-12.11,0a20.45,20.45,0,0,1-5.76-.86c-3.75-1-6.52-4.61-6.93-8.92-.14-1.47,0-3,0-4.62a44.83,44.83,0,0,1,8.82-.18c.32,2.37-.09,4.88,2.69,6.68a27.33,27.33,0,0,0,14.66-.08c3.16-2.81,2.41-6.16,1.39-9.56a7.54,7.54,0,0,0-6-1.93c-3.81.36-7.52-.68-11.32-.78-3.51-.08-6.34-1.82-8.53-5a19.54,19.54,0,0,1-.12-15.32c2.73-4,6.58-5.47,11.31-5.29,4.38.16,8.77,0,13.15,0,5.31,0,9.56,2.92,10.08,8.68C133.75,118.74,134.75,120.25,133.52,122.15Z"/><path class="cls-2" d="M320.19,146.61a19.73,19.73,0,0,0,.09,6.94c-2.31.9-23.14,1.23-31.73.55-.65-2.35-.87-39.61-.23-45.48,10.38-.2,20.81,0,31.41-.11v7.32c-2.29.73-4.7.26-7.07.34-2.54.08-5.08,0-7.62,0h-7.51c-.91,3.61-.26,7-.41,10a2.81,2.81,0,0,0,2.84,1.08h18.43v7.46c-7,.4-14-.1-21.13.29v11.3c2.37.72,4.9.22,7.38.3,2.65.09,5.31,0,8,0Z"/><path class="cls-2" d="M324.29,108.69H333v17.59c3.3-3,5.42-6.16,7.8-9l7.14-8.55h11.2c-5.88,7.64-12.5,14.38-18.06,22.17,2.38,4.35,6,7.59,8.8,11.48s6.14,7.33,9,11.76c-3.92.4-7.44.07-11,.23l-14.72-19v18.24c-1.58,1.07-3.11.52-4.56.61s-2.74,0-4.07,0C323.88,151.72,323.67,114.45,324.29,108.69Z"/><path class="cls-2" d="M191.17,148.61c-2.17-3.08-4.11-6.34-6.92-9a20.26,20.26,0,0,0,3.21-7c-.25-4.63-2-8.37-5.41-11-6.79-3.66-12.29-2-17,3.69-3.51,7.12-1.27,11.94,3.81,16.2a29.31,29.31,0,0,0,4.65,1.59,32.62,32.62,0,0,0,5.23.06c2.65,2.66,3.68,6.11,5.29,9.2-2.1,1.86-2.1,1.86-5.27,1.88.1-1,1.51-1.55,1.32-2-.73-2.11-2.43-2.15-3.5-3.63l-4.88,5.66a22.42,22.42,0,0,1-19.5-19.09c-1.65-13.95,6.33-23.59,17.21-26.11,10.23-2.37,21,.85,26.72,11.57A23,23,0,0,1,191.17,148.61Zm-1.53-20.86a5.75,5.75,0,0,0,1.61,2.75,4,4,0,0,0,3.36-.22,6.48,6.48,0,0,0,1.2-2.8,3.42,3.42,0,0,0-3.14-2.89,3.57,3.57,0,0,0-3,3.12Zm-12.77-11.88a8,8,0,0,0,.79-2.87c-.35-.4-.7-.84-1.11-1.23s-.88-.71-1.23-1a3.23,3.23,0,0,0-2.12.21c-2.26,3.2-2.23,3.56.42,5.79a3.7,3.7,0,0,0,3.25-.94Zm-17,28.51a4.8,4.8,0,0,0,3.46,2.89,4.58,4.58,0,0,0,2.56-1.62,4.48,4.48,0,0,0,0-2.85,3.71,3.71,0,0,0-1.89-1.58c-2.29-.28-3.62.78-4.16,3.12Zm2-7.41a3.53,3.53,0,0,0-3-2.69c-2.83,1.18-3.8,2.88-2.7,4.77a5.08,5.08,0,0,0,2.4,1.29l2.43-.87Zm-3.58-17.41a4.08,4.08,0,0,0-.32,3.17c2.59,2.61,4.12,2.36,5.94-1-.37-.9-.53-2-1.78-2.69-1.11-.08-2.49-.43-3.89.48Zm9.71-.77,1.48-1.57c.13-1.16.32-2.18-.34-3.11a5.09,5.09,0,0,0-2.39-1.21c-1,.38-2,.62-2.53,1.62a4.72,4.72,0,0,0-.05,2.66,3.1,3.1,0,0,0,3.78,1.57ZM158.8,132c1.88-1.8,2.28-3.15,1.35-4.67a4.77,4.77,0,0,0-2.36-1.26c-.91.4-2,.58-2.57,1.63a4.22,4.22,0,0,0,0,2.89c1.53,1.35,1.53,1.35,3.53,1.37Zm31,5.43a5,5,0,0,0,2.7,1.53c1.65-.5,2.93-1.32,3.06-3.11a4,4,0,0,0-2.72-3,5,5,0,0,0-3,1.68,8.68,8.68,0,0,0-.15,1.26,14.3,14.3,0,0,0,.09,1.6Zm-7.54-25.09c-.65.47-1.53.52-2.12,1.47a6.43,6.43,0,0,0-.2,1.08,11.64,11.64,0,0,0,.07,1.56c2.56,2.61,3.07,2.59,5.41-.06a3.92,3.92,0,0,0-.32-2.87c-.8-1-1.94-.75-2.86-1.22Zm3.93,8.72a4.39,4.39,0,0,0,2,2.08,4.45,4.45,0,0,0,2.8-.36,5,5,0,0,0,1.29-2.38,4.51,4.51,0,0,0-1.61-2.58,4,4,0,0,0-3.35.32,7.31,7.31,0,0,0-1.15,2.88Z"/><path class="cls-2" d="M71.49,108.66h9.34c-1.64,5.15-3.2,10.07-4.78,15-1.64,5.11-3.27,10.22-5,15.32S67.7,149,66,154.1H52.63c-2.78-7.28-4.8-15-7.38-22.56s-4.85-15-7.35-22.74a43.93,43.93,0,0,1,9.1-.1c4.35,12.1,7.75,24.43,11.84,36.43a3.31,3.31,0,0,0,.63,0,.33.33,0,0,0,.27-.16C63.65,132.9,67.54,120.86,71.49,108.66Z"/><path class="cls-2" d="M271.42,116.35v37.58c-2.93.66-5.76.29-8.77.26-.52-3.18-.18-6.27-.24-9.34-.06-3.24,0-6.47,0-9.7V116.29h-12.8c-.75-2.57-.33-4.94-.33-7.26,2.6-.61,31.86-.72,35.76-.14V116C280.68,116.51,276.21,115.94,271.42,116.35Z"/><path class="cls-2" d="M388.26,131.35l-13.6-22.58c3.66-.5,7.08-.07,10.71-.29,2.79,3.47,4.75,7.48,7,11.28s4.66,7.61,7.11,11.61l-13.81,22.79H374.59Z"/><path class="cls-2" d="M20,131.33,6.64,109c1.94-.77,3.77-.34,5.55-.41s3.43,0,5,0c5.32,7.19,8.76,15.27,14,22.5-4.22,7.95-9,15.45-13.63,23h-11C10.65,146.12,15.88,139.25,20,131.33Z"/><path class="cls-2" d="M84.2,108.69h8.9v45a17.88,17.88,0,0,1-8.9,0Z"/><path class="cls-2" d="M148.67,153.85a30.32,30.32,0,0,1-8.82.27c-.31-.48-.65-.77-.65-1v-44.3a46.42,46.42,0,0,1,8.5-.15c.75,1.24.42,2.53.42,3.75v37.05A10.87,10.87,0,0,0,148.67,153.85Z"/><path class="cls-2" d="M.52,109.15c.54-.68,1.08-.66,2.06-.31l13.56,22.41c-4.4,7.83-9.1,15.25-13.43,22.58-.8.44-1.32.6-1.85.2a1.86,1.86,0,0,1-.21-.28c0-.11-.07-.26,0-.34l13.19-22Z"/><path class="cls-2" d="M368.46,108.84c2.08-.75,2.9.7,3.53,1.73,4.16,6.83,8.2,13.74,12.33,20.71-1.82,4.23-4.6,7.91-7,11.8s-4.08,8.12-7.33,11.24c-1.29-.57-1-1.31-.68-1.88,2.6-4.32,5.27-8.59,7.88-12.9,1.65-2.74,3.23-5.53,4.84-8.29Z"/><path class="cls-2" d="M188.25,150.19a1.91,1.91,0,0,1-1.42,1.2,58.32,58.32,0,0,0-5.15-9.36c2,.51,2.92,2.07,4,3.58A25.72,25.72,0,0,1,188.25,150.19Z"/><path class="cls-3" d="M92.58,181a.84.84,0,0,1-.24.67.82.82,0,0,1-.54.2H84.62a6.42,6.42,0,0,0,.18,1.63,3,3,0,0,0,.61,1.25,2.69,2.69,0,0,0,1.11.8,4.46,4.46,0,0,0,1.66.28,7.19,7.19,0,0,0,1.39-.13,8.73,8.73,0,0,0,1-.28c.3-.11.54-.2.73-.29a1.16,1.16,0,0,1,.44-.12.19.19,0,0,1,.15,0,.22.22,0,0,1,.1.13.46.46,0,0,1,.06.23v.37a1.22,1.22,0,0,1,0,.27.74.74,0,0,1,0,.21.52.52,0,0,1-.06.16.76.76,0,0,1-.11.14,1.5,1.5,0,0,1-.39.22,6.61,6.61,0,0,1-.85.3c-.35.09-.75.18-1.2.26a10.14,10.14,0,0,1-1.46.11,6.78,6.78,0,0,1-2.36-.37,4.43,4.43,0,0,1-1.7-1.12,4.77,4.77,0,0,1-1-1.85,8.44,8.44,0,0,1-.36-2.59,8.33,8.33,0,0,1,.37-2.53,5.18,5.18,0,0,1,1-1.9,4.56,4.56,0,0,1,1.65-1.2,5.87,5.87,0,0,1,4.36,0A4.13,4.13,0,0,1,91.42,177a4.29,4.29,0,0,1,.85,1.64,6.76,6.76,0,0,1,.28,2Zm-2-.6a3.63,3.63,0,0,0-.71-2.47,2.63,2.63,0,0,0-2.18-.9,3,3,0,0,0-1.31.28,2.94,2.94,0,0,0-.94.74,3.58,3.58,0,0,0-.58,1.07,4.26,4.26,0,0,0-.23,1.28Z"/><path class="cls-3" d="M105.23,186.92a.22.22,0,0,1,0,.16.33.33,0,0,1-.16.12,1.09,1.09,0,0,1-.3.07h-1a1.09,1.09,0,0,1-.3-.07.33.33,0,0,1-.16-.12.33.33,0,0,1,0-.16v-6.38a6.35,6.35,0,0,0-.15-1.51,3,3,0,0,0-.42-1,1.82,1.82,0,0,0-.72-.63,2.28,2.28,0,0,0-1-.22,2.51,2.51,0,0,0-1.51.54,8,8,0,0,0-1.57,1.56v7.62a.22.22,0,0,1,0,.16.33.33,0,0,1-.16.12,1.09,1.09,0,0,1-.3.07h-1a1.08,1.08,0,0,1-.31-.07.33.33,0,0,1-.16-.12.22.22,0,0,1,0-.16V176a.25.25,0,0,1,0-.17.32.32,0,0,1,.14-.12.89.89,0,0,1,.28-.07h.89a.64.64,0,0,1,.27.07.53.53,0,0,1,.14.12.25.25,0,0,1,0,.17v1.44a6.51,6.51,0,0,1,1.83-1.51,4,4,0,0,1,1.85-.48,4.11,4.11,0,0,1,1.83.37,3.26,3.26,0,0,1,1.21,1,3.68,3.68,0,0,1,.66,1.45,8.93,8.93,0,0,1,.2,2Z"/><path class="cls-3" d="M117.31,186.93a.27.27,0,0,1-.09.22.81.81,0,0,1-.27.11,4.17,4.17,0,0,1-.5,0,4.17,4.17,0,0,1-.5,0,.54.54,0,0,1-.27-.11.27.27,0,0,1-.09-.22v-1.09A5.48,5.48,0,0,1,114,187a4.29,4.29,0,0,1-1.86.42,5.16,5.16,0,0,1-1.56-.22,3.59,3.59,0,0,1-1.18-.65,2.89,2.89,0,0,1-.77-1,3.44,3.44,0,0,1-.27-1.41,3.28,3.28,0,0,1,.38-1.6,3.19,3.19,0,0,1,1.07-1.12,5.31,5.31,0,0,1,1.72-.67,10.35,10.35,0,0,1,2.29-.23h1.51v-.85a4.12,4.12,0,0,0-.14-1.11,2,2,0,0,0-.43-.81,1.83,1.83,0,0,0-.77-.48,3.54,3.54,0,0,0-1.16-.16,4.58,4.58,0,0,0-1.33.17,7.14,7.14,0,0,0-1,.39,5.72,5.72,0,0,0-.73.39,1.23,1.23,0,0,1-.45.17.34.34,0,0,1-.17,0,.53.53,0,0,1-.12-.14.73.73,0,0,1-.08-.25,1.82,1.82,0,0,1,0-.33,1.93,1.93,0,0,1,0-.48.66.66,0,0,1,.2-.34,2.87,2.87,0,0,1,.57-.36,3.91,3.91,0,0,1,.92-.39,6.47,6.47,0,0,1,1.13-.29,6.54,6.54,0,0,1,1.25-.12,6.16,6.16,0,0,1,2,.27,3.32,3.32,0,0,1,1.33.78,3.06,3.06,0,0,1,.74,1.28,6,6,0,0,1,.23,1.78Zm-2-5h-1.69a6.25,6.25,0,0,0-1.43.14,3.11,3.11,0,0,0-1,.41,1.61,1.61,0,0,0-.58.66,1.89,1.89,0,0,0-.19.88,1.76,1.76,0,0,0,.54,1.35,2.18,2.18,0,0,0,1.51.5,2.89,2.89,0,0,0,1.46-.4,6.84,6.84,0,0,0,1.41-1.22Z"/><path class="cls-3" d="M131.24,181.32a9.53,9.53,0,0,1-.31,2.55,5.94,5.94,0,0,1-.91,1.94,4,4,0,0,1-1.47,1.22,4.61,4.61,0,0,1-2,.42,4.19,4.19,0,0,1-1-.1,3.39,3.39,0,0,1-.87-.33,7.08,7.08,0,0,1-.85-.58c-.28-.27-.55-.54-.81-.83v1.33a.25.25,0,0,1,0,.17.31.31,0,0,1-.16.11,1.34,1.34,0,0,1-.27.07,2.94,2.94,0,0,1-.42,0,2.81,2.81,0,0,1-.41,0,.89.89,0,0,1-.28-.07.28.28,0,0,1-.15-.11.48.48,0,0,1,0-.17v-16.2a.25.25,0,0,1,0-.17.33.33,0,0,1,.16-.13,1.08,1.08,0,0,1,.31-.07h1a1.09,1.09,0,0,1,.3.07.4.4,0,0,1,.16.13.25.25,0,0,1,0,.17v6.53a6.27,6.27,0,0,1,.94-.84,4.86,4.86,0,0,1,.89-.55,3.48,3.48,0,0,1,.87-.31,3.56,3.56,0,0,1,.92-.1,4.09,4.09,0,0,1,2,.47,4,4,0,0,1,1.37,1.27,6,6,0,0,1,.77,1.86A10.62,10.62,0,0,1,131.24,181.32Zm-2.07.23a10.84,10.84,0,0,0-.13-1.62,4.2,4.2,0,0,0-.45-1.39,2.62,2.62,0,0,0-.84-1,2.15,2.15,0,0,0-1.3-.37,2.77,2.77,0,0,0-1.54.47,5.08,5.08,0,0,0-.81.66,8.48,8.48,0,0,0-.89,1v4.35a8.53,8.53,0,0,0,1.58,1.54,2.78,2.78,0,0,0,1.57.52,2.3,2.3,0,0,0,1.3-.36,3,3,0,0,0,.87-1A4.74,4.74,0,0,0,129,183,7.08,7.08,0,0,0,129.17,181.55Z"/><path class="cls-3" d="M136.47,186.92a.22.22,0,0,1,0,.16.48.48,0,0,1-.16.12,1.09,1.09,0,0,1-.3.07h-1a1.08,1.08,0,0,1-.31-.07.33.33,0,0,1-.16-.12.22.22,0,0,1,0-.16V170.74a.25.25,0,0,1,0-.17.33.33,0,0,1,.16-.13,1.08,1.08,0,0,1,.31-.07h1a1.09,1.09,0,0,1,.3.07.4.4,0,0,1,.16.13.25.25,0,0,1,0,.17Z"/><path class="cls-3" d="M142.61,172.33a1.38,1.38,0,0,1-.26,1,2.09,2.09,0,0,1-2,0,1.85,1.85,0,0,1,0-1.9,2.12,2.12,0,0,1,2,0A1.24,1.24,0,0,1,142.61,172.33Zm-.23,14.59a.19.19,0,0,1,0,.16.44.44,0,0,1-.15.12,1.08,1.08,0,0,1-.31.07,4.18,4.18,0,0,1-1,0,1.08,1.08,0,0,1-.31-.07.3.3,0,0,1-.15-.12.22.22,0,0,1,0-.16V176a.43.43,0,0,1,0-.16.26.26,0,0,1,.15-.12,1.08,1.08,0,0,1,.31-.07,4.18,4.18,0,0,1,1,0,1.08,1.08,0,0,1,.31.07.29.29,0,0,1,.15.12.22.22,0,0,1,0,.16Z"/><path class="cls-3" d="M155.69,186.92a.22.22,0,0,1,0,.16.33.33,0,0,1-.16.12,1.09,1.09,0,0,1-.3.07h-1a1.09,1.09,0,0,1-.3-.07.33.33,0,0,1-.16-.12.33.33,0,0,1,0-.16v-6.38a6.9,6.9,0,0,0-.14-1.51,3,3,0,0,0-.43-1,1.82,1.82,0,0,0-.72-.63,2.28,2.28,0,0,0-1-.22,2.5,2.5,0,0,0-1.5.54,7.54,7.54,0,0,0-1.58,1.56v7.62a.33.33,0,0,1-.05.16.33.33,0,0,1-.16.12,1.09,1.09,0,0,1-.3.07h-1a1.08,1.08,0,0,1-.31-.07.33.33,0,0,1-.16-.12.22.22,0,0,1,0-.16V176a.25.25,0,0,1,0-.17.32.32,0,0,1,.14-.12.89.89,0,0,1,.28-.07h.89a.64.64,0,0,1,.27.07.32.32,0,0,1,.14.12.34.34,0,0,1,.05.17v1.44a6.51,6.51,0,0,1,1.83-1.51,4,4,0,0,1,1.85-.48,4.11,4.11,0,0,1,1.83.37,3.26,3.26,0,0,1,1.21,1,3.68,3.68,0,0,1,.66,1.45,8.93,8.93,0,0,1,.2,2Z"/><path class="cls-3" d="M168.67,176.51a1.34,1.34,0,0,1-.11.62.35.35,0,0,1-.3.18H166.7a2.42,2.42,0,0,1,.59,1,3.65,3.65,0,0,1,.17,1.09,4.33,4.33,0,0,1-.3,1.67,3.33,3.33,0,0,1-.87,1.23,3.67,3.67,0,0,1-1.34.77,5.57,5.57,0,0,1-1.72.27,4.46,4.46,0,0,1-1.26-.18,2.49,2.49,0,0,1-.93-.44,1.64,1.64,0,0,0-.36.5,1.42,1.42,0,0,0-.14.64.81.81,0,0,0,.4.7,2,2,0,0,0,1,.31l2.85.12a5.77,5.77,0,0,1,1.49.22,4,4,0,0,1,1.18.57,2.71,2.71,0,0,1,.77.91,2.66,2.66,0,0,1,.28,1.25,3.22,3.22,0,0,1-1.32,2.63,5,5,0,0,1-1.65.81,8.68,8.68,0,0,1-2.38.3,9.91,9.91,0,0,1-2.24-.23,4.9,4.9,0,0,1-1.52-.61,2.43,2.43,0,0,1-.87-.93,2.81,2.81,0,0,1-.26-1.17,2.86,2.86,0,0,1,.1-.77,2.65,2.65,0,0,1,.29-.72,4,4,0,0,1,.5-.65,7.8,7.8,0,0,1,.68-.61,2,2,0,0,1-.87-.76,1.79,1.79,0,0,1-.29-1,2.75,2.75,0,0,1,.3-1.32,4.89,4.89,0,0,1,.75-1,3.61,3.61,0,0,1-.59-1,4,4,0,0,1-.22-1.36,4.14,4.14,0,0,1,.32-1.67,3.52,3.52,0,0,1,.87-1.25,3.69,3.69,0,0,1,1.34-.78,4.92,4.92,0,0,1,1.7-.27,5.8,5.8,0,0,1,.93.05,3.43,3.43,0,0,1,.8.15h3.3a.35.35,0,0,1,.31.2A1.41,1.41,0,0,1,168.67,176.51ZM166.55,188a1.21,1.21,0,0,0-.57-1.08,2.94,2.94,0,0,0-1.56-.41l-2.82-.09a4.92,4.92,0,0,0-.64.57,2.53,2.53,0,0,0-.39.52,1.63,1.63,0,0,0-.2.49,2.07,2.07,0,0,0-.06.5,1.3,1.3,0,0,0,.8,1.19,5.17,5.17,0,0,0,2.23.41,5.6,5.6,0,0,0,1.52-.18,3,3,0,0,0,1-.46,1.84,1.84,0,0,0,.54-.67,1.79,1.79,0,0,0,.15-.79Zm-1-8.63a2.36,2.36,0,0,0-.61-1.74,2.3,2.3,0,0,0-1.74-.63,2.32,2.32,0,0,0-1,.2,2,2,0,0,0-.71.53,2.29,2.29,0,0,0-.43.78,3.22,3.22,0,0,0-.14.93,2.14,2.14,0,0,0,2,2.31h.38a2.65,2.65,0,0,0,1-.19,2.08,2.08,0,0,0,.72-.52,2.34,2.34,0,0,0,.43-.77,3.07,3.07,0,0,0,.14-.9Z"/><path class="cls-3" d="M185.13,185.26v.36a1,1,0,0,1,0,.25,1.34,1.34,0,0,1-.07.18,1.43,1.43,0,0,1-.2.23,2.82,2.82,0,0,1-.51.38,6.21,6.21,0,0,1-.82.4,5.7,5.7,0,0,1-1,.28,5.78,5.78,0,0,1-1.1.11,5.48,5.48,0,0,1-2.08-.38,4,4,0,0,1-1.53-1.14,5.37,5.37,0,0,1-.93-1.83,9.22,9.22,0,0,1-.32-2.5,8.37,8.37,0,0,1,.4-2.77,5.29,5.29,0,0,1,1.07-1.89,4.33,4.33,0,0,1,1.61-1.1,5.28,5.28,0,0,1,2-.36,4.78,4.78,0,0,1,1,.1,4.64,4.64,0,0,1,.9.26,3.38,3.38,0,0,1,.74.36,2.24,2.24,0,0,1,.46.35.9.9,0,0,1,.2.23.72.72,0,0,1,.09.2,1.09,1.09,0,0,1,.05.26v.36a1.5,1.5,0,0,1-.1.66.34.34,0,0,1-.27.19.72.72,0,0,1-.42-.2c-.16-.13-.36-.28-.6-.44a4.26,4.26,0,0,0-.88-.44,3.34,3.34,0,0,0-1.21-.2,2.55,2.55,0,0,0-2.22,1.11,5.63,5.63,0,0,0-.77,3.21,7.71,7.71,0,0,0,.2,1.85,4,4,0,0,0,.59,1.33,2.5,2.5,0,0,0,1,.79,3.38,3.38,0,0,0,1.29.26,3.13,3.13,0,0,0,1.21-.22,4.93,4.93,0,0,0,.91-.48c.25-.17.47-.33.64-.47a.71.71,0,0,1,.41-.21.24.24,0,0,1,.14,0,.34.34,0,0,1,.1.16,1.36,1.36,0,0,1,.06.29A3,3,0,0,1,185.13,185.26Z"/><path class="cls-3" d="M197.94,181.35a8.16,8.16,0,0,1-.35,2.45,5.31,5.31,0,0,1-1,1.93,4.67,4.67,0,0,1-1.74,1.27,6.92,6.92,0,0,1-4.77.05,4.24,4.24,0,0,1-1.67-1.16,5,5,0,0,1-1-1.85,8.4,8.4,0,0,1-.39-2.43,8.13,8.13,0,0,1,.35-2.46,5.31,5.31,0,0,1,1-1.93,4.64,4.64,0,0,1,1.74-1.26,6,6,0,0,1,2.43-.45,6.23,6.23,0,0,1,2.34.4,4.31,4.31,0,0,1,1.67,1.16,4.87,4.87,0,0,1,1,1.86A8.28,8.28,0,0,1,197.94,181.35Zm-2.07.13a8.51,8.51,0,0,0-.16-1.67,3.85,3.85,0,0,0-.55-1.38,2.58,2.58,0,0,0-1-.94,3.84,3.84,0,0,0-3.15,0,2.84,2.84,0,0,0-1.06.89,4,4,0,0,0-.62,1.36,7.1,7.1,0,0,0-.2,1.72,8.73,8.73,0,0,0,.17,1.69,3.87,3.87,0,0,0,.55,1.37,2.71,2.71,0,0,0,1,.93,3.57,3.57,0,0,0,1.61.35,3.5,3.5,0,0,0,1.53-.32,2.79,2.79,0,0,0,1-.87,3.65,3.65,0,0,0,.62-1.36,7.11,7.11,0,0,0,.23-1.77Z"/><path class="cls-3" d="M210.5,186.92a.22.22,0,0,1,0,.16.33.33,0,0,1-.16.12,1.09,1.09,0,0,1-.3.07h-1a1.09,1.09,0,0,1-.3-.07.33.33,0,0,1-.16-.12.33.33,0,0,1,0-.16v-6.38a6.9,6.9,0,0,0-.14-1.51,3,3,0,0,0-.43-1,1.82,1.82,0,0,0-.72-.63,2.28,2.28,0,0,0-1-.22,2.5,2.5,0,0,0-1.5.54,7.54,7.54,0,0,0-1.58,1.56v7.62a.33.33,0,0,1-.05.16.33.33,0,0,1-.16.12,1.09,1.09,0,0,1-.3.07h-1a1.08,1.08,0,0,1-.31-.07.33.33,0,0,1-.16-.12.22.22,0,0,1,0-.16V176a.25.25,0,0,1,0-.17.32.32,0,0,1,.14-.12.89.89,0,0,1,.28-.07h.89a.64.64,0,0,1,.27.07.32.32,0,0,1,.14.12.34.34,0,0,1,.05.17v1.44a6.51,6.51,0,0,1,1.83-1.51,4,4,0,0,1,1.85-.48,4.11,4.11,0,0,1,1.83.37,3.26,3.26,0,0,1,1.21,1,3.68,3.68,0,0,1,.66,1.45,8.93,8.93,0,0,1,.2,2Z"/><path class="cls-3" d="M223.76,186.92a.33.33,0,0,1,0,.16.33.33,0,0,1-.16.12,1.09,1.09,0,0,1-.3.07h-1a1.09,1.09,0,0,1-.3-.07.33.33,0,0,1-.16-.12.22.22,0,0,1,0-.16v-6.38a6.35,6.35,0,0,0-.15-1.51,3,3,0,0,0-.42-1,2,2,0,0,0-.72-.63,2.28,2.28,0,0,0-1-.22,2.51,2.51,0,0,0-1.51.54,8,8,0,0,0-1.57,1.56v7.62a.22.22,0,0,1,0,.16.33.33,0,0,1-.16.12,1.09,1.09,0,0,1-.3.07h-1a1.08,1.08,0,0,1-.31-.07.33.33,0,0,1-.16-.12.22.22,0,0,1,0-.16V176a.25.25,0,0,1,0-.17.32.32,0,0,1,.14-.12.89.89,0,0,1,.28-.07h.89a.64.64,0,0,1,.27.07.53.53,0,0,1,.14.12.25.25,0,0,1,0,.17v1.44a6.51,6.51,0,0,1,1.83-1.51,4,4,0,0,1,1.85-.48,4.11,4.11,0,0,1,1.83.37,3.26,3.26,0,0,1,1.21,1,3.68,3.68,0,0,1,.66,1.45,8.93,8.93,0,0,1,.2,2Z"/><path class="cls-3" d="M236.93,181a.88.88,0,0,1-.23.67.85.85,0,0,1-.55.2H229a6.43,6.43,0,0,0,.19,1.63,3.29,3.29,0,0,0,.6,1.25,2.85,2.85,0,0,0,1.11.8,4.51,4.51,0,0,0,1.67.28,7.19,7.19,0,0,0,1.39-.13,9,9,0,0,0,1.05-.28c.3-.11.54-.2.73-.29a1.11,1.11,0,0,1,.43-.12.22.22,0,0,1,.16,0,.32.32,0,0,1,.1.13.86.86,0,0,1,.05.23,2.28,2.28,0,0,1,0,.37,1.22,1.22,0,0,1,0,.27v.21a.52.52,0,0,1-.06.16.76.76,0,0,1-.11.14,1.87,1.87,0,0,1-.39.22,6.61,6.61,0,0,1-.85.3c-.35.09-.75.18-1.21.26a10.14,10.14,0,0,1-1.46.11,7,7,0,0,1-2.35-.37,4.47,4.47,0,0,1-1.71-1.12,4.77,4.77,0,0,1-1-1.85,8.75,8.75,0,0,1-.35-2.59,8,8,0,0,1,.37-2.53,5.26,5.26,0,0,1,1-1.9,4.6,4.6,0,0,1,1.66-1.2,5.41,5.41,0,0,1,2.17-.42,5.25,5.25,0,0,1,2.18.41,4.16,4.16,0,0,1,1.49,1.11,4.59,4.59,0,0,1,.85,1.64,7.48,7.48,0,0,1,.27,2Zm-2-.6a3.59,3.59,0,0,0-.7-2.47A2.65,2.65,0,0,0,232,177a2.8,2.8,0,0,0-2.24,1,3.4,3.4,0,0,0-.59,1.07,5,5,0,0,0-.23,1.28Z"/><path class="cls-3" d="M248,185.26a2.16,2.16,0,0,1,0,.36,1,1,0,0,1,0,.25,1.34,1.34,0,0,1-.07.18,1.43,1.43,0,0,1-.2.23,2.82,2.82,0,0,1-.51.38,6.21,6.21,0,0,1-.82.4,5.7,5.7,0,0,1-1,.28,5.78,5.78,0,0,1-1.1.11,5.48,5.48,0,0,1-2.08-.38,4,4,0,0,1-1.52-1.14,5.31,5.31,0,0,1-.94-1.83,9.22,9.22,0,0,1-.32-2.5,8.37,8.37,0,0,1,.4-2.77,5.09,5.09,0,0,1,1.08-1.89,4.07,4.07,0,0,1,1.61-1.1,5.28,5.28,0,0,1,2-.36,4.78,4.78,0,0,1,1,.1,5.88,5.88,0,0,1,.91.26,3.3,3.3,0,0,1,.73.36,3.19,3.19,0,0,1,.47.35,2.2,2.2,0,0,1,.2.23l.09.2a1.13,1.13,0,0,1,0,.26,2.16,2.16,0,0,1,0,.36,1.38,1.38,0,0,1-.11.66.31.31,0,0,1-.27.19.72.72,0,0,1-.42-.2,5.13,5.13,0,0,0-.6-.44,4,4,0,0,0-.87-.44,3.36,3.36,0,0,0-1.22-.2,2.52,2.52,0,0,0-2.21,1.11,5.53,5.53,0,0,0-.77,3.21,7.24,7.24,0,0,0,.2,1.85,3.87,3.87,0,0,0,.59,1.33,2.36,2.36,0,0,0,1,.79,3.38,3.38,0,0,0,2.5,0,4.85,4.85,0,0,0,.9-.48c.25-.17.47-.33.64-.47a.74.74,0,0,1,.41-.21.24.24,0,0,1,.14,0,.36.36,0,0,1,.11.16,1.36,1.36,0,0,1,.06.29C248,185,248,185.1,248,185.26Z"/><path class="cls-3" d="M260.4,175.7a.6.6,0,0,1,.49.17.71.71,0,0,1,.14.47v10.58a.33.33,0,0,1,0,.16.48.48,0,0,1-.16.12,1.08,1.08,0,0,1-.31.07h-1a1.08,1.08,0,0,1-.31-.07.43.43,0,0,1-.17-.12.22.22,0,0,1,0-.16v-9.56h-5.64v6.08a3.37,3.37,0,0,0,.34,1.71,1.26,1.26,0,0,0,1.19.57,2.73,2.73,0,0,0,.5-.05l.38-.12.29-.11a.43.43,0,0,1,.22-.06h.12a.2.2,0,0,1,.08.12.86.86,0,0,1,.06.23,2.16,2.16,0,0,1,0,.36,2.56,2.56,0,0,1-.05.55.73.73,0,0,1-.14.31,1.41,1.41,0,0,1-.29.18,2.15,2.15,0,0,1-.45.14,4.34,4.34,0,0,1-.52.09h-.56a4.23,4.23,0,0,1-1.45-.23,2.27,2.27,0,0,1-1-.67,2.94,2.94,0,0,1-.56-1.15,6.57,6.57,0,0,1-.18-1.65v-6.37h-1.52a.32.32,0,0,1-.29-.19,1.26,1.26,0,0,1-.11-.63,2.54,2.54,0,0,1,0-.39.79.79,0,0,1,.08-.26.3.3,0,0,1,.12-.15h1.69v-2.56a.43.43,0,0,1,0-.16.31.31,0,0,1,.15-.13,1.08,1.08,0,0,1,.31-.07,4.18,4.18,0,0,1,1,0,1.08,1.08,0,0,1,.31.07.37.37,0,0,1,.15.13.22.22,0,0,1,.05.16v2.59Zm.86-3.37a1.33,1.33,0,0,1-.27,1,2,2,0,0,1-1.94,0,1.28,1.28,0,0,1-.26-.94,1.36,1.36,0,0,1,.26-1,2.13,2.13,0,0,1,2,0A1.25,1.25,0,0,1,261.26,172.33Z"/><path class="cls-3" d="M273.9,176v.22a.28.28,0,0,1,0,.13v.16l-3.72,10.36a.61.61,0,0,1-.13.22.65.65,0,0,1-.23.13,2.57,2.57,0,0,1-.4.07h-1.21a1.76,1.76,0,0,1-.4-.07.65.65,0,0,1-.23-.13.7.7,0,0,1-.14-.21l-3.7-10.36a2.41,2.41,0,0,1-.08-.25V176a.48.48,0,0,1,0-.17.45.45,0,0,1,.17-.11.8.8,0,0,1,.3-.06h1a.75.75,0,0,1,.33.07.33.33,0,0,1,.17.12,1.62,1.62,0,0,1,.1.18l3.08,9v0l3-9a.51.51,0,0,1,.09-.18.33.33,0,0,1,.17-.12.71.71,0,0,1,.32-.07h1a.67.67,0,0,1,.28.06.27.27,0,0,1,.19.28Z"/><path class="cls-3" d="M278.62,172.33a1.33,1.33,0,0,1-.27,1,2,2,0,0,1-1.94,0,1.28,1.28,0,0,1-.26-.94,1.32,1.32,0,0,1,.26-1,2.13,2.13,0,0,1,2,0A1.25,1.25,0,0,1,278.62,172.33Zm-.23,14.59a.33.33,0,0,1-.05.16.48.48,0,0,1-.16.12,1.09,1.09,0,0,1-.3.07h-1a1.08,1.08,0,0,1-.31-.07.33.33,0,0,1-.16-.12.22.22,0,0,1,0-.16V176a.26.26,0,0,1,.2-.28.82.82,0,0,1,.31-.07h1a1.09,1.09,0,0,1,.3.07.31.31,0,0,1,.16.12.28.28,0,0,1,.05.16Z"/><path class="cls-3" d="M288,186.12a2.62,2.62,0,0,1,0,.56.61.61,0,0,1-.15.3.79.79,0,0,1-.29.18,2.25,2.25,0,0,1-.44.14,4.51,4.51,0,0,1-.53.09,5.23,5.23,0,0,1-.56,0,4.23,4.23,0,0,1-1.45-.23,2.27,2.27,0,0,1-1-.67,3,3,0,0,1-.57-1.15,7.06,7.06,0,0,1-.17-1.65v-6.37h-1.53a.32.32,0,0,1-.29-.19,1.38,1.38,0,0,1-.11-.63,2.54,2.54,0,0,1,0-.39,1.12,1.12,0,0,1,.08-.26.24.24,0,0,1,.13-.15h1.69v-2.59a.22.22,0,0,1,0-.16.33.33,0,0,1,.16-.13.82.82,0,0,1,.31-.07h1a1.09,1.09,0,0,1,.3.07.4.4,0,0,1,.16.13.28.28,0,0,1,.05.16v2.59h3a.28.28,0,0,1,.13.15.79.79,0,0,1,.08.26,2.54,2.54,0,0,1,0,.39,1.38,1.38,0,0,1-.11.63.35.35,0,0,1-.29.19h-2.8v6.08a3.61,3.61,0,0,0,.33,1.71,1.26,1.26,0,0,0,1.19.57,2.73,2.73,0,0,0,.5-.05l.39-.12.29-.11a.43.43,0,0,1,.22-.06h.11a.16.16,0,0,1,.09.12,43.6,43.6,0,0,1,.14.66Z"/><path class="cls-3" d="M295.81,187.22l-1.46,4a.56.56,0,0,1-.37.3,3,3,0,0,1-.9.1h-.51a.76.76,0,0,1-.3-.1.31.31,0,0,1-.11-.19.49.49,0,0,1,.06-.29l1.5-3.8a.62.62,0,0,1-.2-.15.79.79,0,0,1-.14-.23l-3.89-10.42a1.44,1.44,0,0,1-.09-.4.28.28,0,0,1,.09-.23.6.6,0,0,1,.32-.12,2.81,2.81,0,0,1,.58,0H291a.75.75,0,0,1,.33.07.29.29,0,0,1,.17.14.9.9,0,0,1,.12.24l3.11,8.75h0l3-8.79a.49.49,0,0,1,.18-.3.67.67,0,0,1,.31-.1,5.53,5.53,0,0,1,1.15,0,.6.6,0,0,1,.32.12.25.25,0,0,1,.1.23,1.15,1.15,0,0,1-.07.36Z"/></svg>