<svg id="Layer_1" data-name="Layer 1" xmlns="http://www.w3.org/2000/svg" xmlns:xlink="http://www.w3.org/1999/xlink" viewBox="0 0 400 400"><defs><style>.cls-1{fill:url(#linear-gradient);}.cls-2{fill:url(#linear-gradient-2);}.cls-3{fill:url(#linear-gradient-3);}.cls-4{fill:url(#linear-gradient-4);}.cls-5{fill:url(#linear-gradient-5);}.cls-6{fill:url(#linear-gradient-6);}</style><linearGradient id="linear-gradient" x1="0.21" y1="371.44" x2="400.21" y2="36.55" gradientUnits="userSpaceOnUse"><stop offset="0" stop-color="#2d9bc0"/><stop offset="1" stop-color="#82caa2"/></linearGradient><linearGradient id="linear-gradient-2" x1="75.55" y1="461.43" x2="475.55" y2="126.54" xlink:href="#linear-gradient"/><linearGradient id="linear-gradient-3" x1="-69.36" y1="288.34" x2="330.64" y2="-46.54" xlink:href="#linear-gradient"/><linearGradient id="linear-gradient-4" x1="-14.36" y1="354.04" x2="385.64" y2="19.16" xlink:href="#linear-gradient"/><linearGradient id="linear-gradient-5" x1="-16.25" y1="351.78" x2="383.75" y2="16.9" xlink:href="#linear-gradient"/><linearGradient id="linear-gradient-6" x1="10.18" y1="383.35" x2="410.18" y2="48.46" xlink:href="#linear-gradient"/></defs><title>11</title><path class="cls-1" d="M392.19,163.09h-50a7.8,7.8,0,0,0-7.81,7.81v39.45a7.81,7.81,0,0,0,15.62,0V178.71h34.38V384.38H350V268.94a7.81,7.81,0,0,0-15.62,0V384.38H318.75V222.66a7.82,7.82,0,0,0-7.81-7.82h-50a7.81,7.81,0,0,0-7.81,7.82V384.38H237.5v-107a7.81,7.81,0,0,0-7.81-7.81h-50a7.81,7.81,0,0,0-7.81,7.81v107H156.25V322.17a7.81,7.81,0,0,0-7.81-7.81h-50a7.8,7.8,0,0,0-7.81,7.81v62.21H23.44a7.82,7.82,0,0,1-7.81-7.82V23.44a7.81,7.81,0,0,1,7.81-7.81H225V67.19a23.47,23.47,0,0,0,23.44,23.44H300v96.09a7.82,7.82,0,0,0,15.63,0V82.81a7.84,7.84,0,0,0-2.29-5.52l-75-75A7.82,7.82,0,0,0,232.79,0H23.44A23.46,23.46,0,0,0,0,23.44V376.56A23.46,23.46,0,0,0,23.44,400H392.19a7.81,7.81,0,0,0,7.81-7.81V170.9A7.81,7.81,0,0,0,392.19,163.09ZM240.61,26.67,288.93,75H248.42a7.81,7.81,0,0,1-7.81-7.81Zm-100,357.71H106.25V330h34.38Zm81.25,0H187.5V285.16h34.38Zm81.25,0H268.75V230.47h34.38Z"/><path class="cls-2" d="M347.71,232.67A7.81,7.81,0,1,0,350,238.2,7.84,7.84,0,0,0,347.71,232.67Z"/><path class="cls-3" d="M113.73,42.76a7.81,7.81,0,0,0-7.81,7.81V64.62a71.86,71.86,0,1,0,79.25,79.25h14.05a7.81,7.81,0,0,0,7.81-7.81A93.4,93.4,0,0,0,113.73,42.76Zm0,149.53a56.23,56.23,0,0,1-7.81-111.92v55.69a7.81,7.81,0,0,0,7.81,7.81h55.69A56.31,56.31,0,0,1,113.73,192.29Zm7.81-64h0V58.77A77.84,77.84,0,0,1,191,128.24Z"/><path class="cls-4" d="M199.22,229.88H50a7.82,7.82,0,0,0,0,15.63H199.22a7.82,7.82,0,0,0,0-15.63Z"/><path class="cls-5" d="M100,267.58H50a7.81,7.81,0,1,0,0,15.62h50a7.81,7.81,0,1,0,0-15.62Z"/><path class="cls-6" d="M144.65,269.87a7.8,7.8,0,1,0,2.29,5.52A7.84,7.84,0,0,0,144.65,269.87Z"/></svg>