<svg id="Layer_1" data-name="Layer 1" xmlns="http://www.w3.org/2000/svg" xmlns:xlink="http://www.w3.org/1999/xlink" viewBox="0 0 400 400"><defs><style>.cls-1{isolation:isolate;}.cls-2{fill:url(#linear-gradient);}</style><linearGradient id="linear-gradient" x1="39.86" y1="382.64" x2="373.08" y2="33.37" gradientUnits="userSpaceOnUse"><stop offset="0" stop-color="#2d9bc0"/><stop offset="1" stop-color="#82caa2"/></linearGradient></defs><title>2</title><g class="cls-1"><path class="cls-2" d="M0,240c51.38-5.22,103.08-9,153.88-11.1,4.68,4.82,3,9.31,3.28,13.41s.05,8,.05,11.85c15.07,2.42,16.83-15.1,11.41-24.86-2.5-4.5-9-5.51-9.51-13H44.26V34.39h312v182H241.52c-1.5,7.73-7.9,9.29-10.52,14.32-5.89,11.33-1,23,10.71,24,2.83-7.77-.79-16.36,3-25.79,51.56,1.56,103.23,6.09,155.3,10.74V348.79c-26.8,1.67-53.09-1.34-79.71-3.08-3,6.23.61,13.22-2.32,19.9H82.26c-3.24-6.08,1.6-13.13-2.4-19.93C53.67,347.47,27.15,350.27,0,349ZM344.05,47.45H57.26v156H157c0-5.17.07-9.65,0-14.13-.53-29.51,18.36-50.14,49.51-47.15,20.28,1.94,33.8,16.73,36.66,35.54,1.32,8.65-2.11,17.36.9,26h100ZM12.75,338c23.3-3.9,46.1-3.57,68.81-5.8.84-8.14,3.38-15.27,3.57-22.91.38-15.07,6.81-25.51,22-30.74,13-4.48,25.26-11,37.91-16.58-.07-7,.86-13.58-.73-20.55l-131.57,9.9Zm373.91-.16V251.27l-129.78-9.66a96.4,96.4,0,0,0-.08,21.21c9.29,4,18.48,8.66,28.17,11.86,19.27,6.35,31.63,17.53,31.54,39.3,0,6,1.21,12,1.9,18.34C341.38,334.24,363.94,334.38,386.66,337.88Z"/></g></svg>