<svg id="Layer_1" data-name="Layer 1" xmlns="http://www.w3.org/2000/svg" xmlns:xlink="http://www.w3.org/1999/xlink" viewBox="0 0 400 400"><defs><style>.cls-1{fill:url(#linear-gradient);}</style><linearGradient id="linear-gradient" x1="-66.74" y1="385.36" x2="450.26" y2="61.37" gradientUnits="userSpaceOnUse"><stop offset="0" stop-color="#2d9bc0"/><stop offset="1" stop-color="#82caa2"/></linearGradient></defs><title>Digital_Affiliation</title><path class="cls-1" d="M388.35,71.1H282V59.38a35.2,35.2,0,0,0-35.16-35.16H153.13A35.2,35.2,0,0,0,118,59.38V71.09H11.72A11.75,11.75,0,0,0,0,82.81V340.62a35.2,35.2,0,0,0,35.16,35.16H364.84A35.2,35.2,0,0,0,400,340.62V83C399.55,75.32,394.82,71.14,388.35,71.1ZM141.41,59.38a11.72,11.72,0,0,1,11.72-11.72h93.74a11.72,11.72,0,0,1,11.72,11.72V71.09H141.41ZM372,94.53,335.63,203.7a11.7,11.7,0,0,1-11.12,8H258.59V200a11.72,11.72,0,0,0-11.72-11.72H153.13A11.72,11.72,0,0,0,141.41,200v11.72H75.49a11.7,11.7,0,0,1-11.12-8L28,94.53ZM235.16,211.72v23.44H164.84V211.72Zm141.4,128.9a11.73,11.73,0,0,1-11.72,11.72H35.16a11.73,11.73,0,0,1-11.72-11.72V155l18.7,56.09a35.1,35.1,0,0,0,33.35,24h65.92v11.71a11.71,11.71,0,0,0,11.72,11.72h93.74a11.71,11.71,0,0,0,11.72-11.72V235.16h65.92a35.1,35.1,0,0,0,33.35-24L376.56,155Z"/></svg>