<svg id="Layer_1" data-name="Layer 1" xmlns="http://www.w3.org/2000/svg" xmlns:xlink="http://www.w3.org/1999/xlink" viewBox="0 0 400 400"><defs><style>.cls-1{fill:url(#linear-gradient);}.cls-2{fill:url(#linear-gradient-2);}.cls-3{fill:url(#linear-gradient-3);}.cls-4{fill:url(#linear-gradient-4);}.cls-5{fill:url(#linear-gradient-5);}.cls-6{fill:url(#linear-gradient-6);}.cls-7{fill:url(#linear-gradient-7);}</style><linearGradient id="linear-gradient" x1="-188.19" y1="214.63" x2="263.55" y2="-188.27" gradientUnits="userSpaceOnUse"><stop offset="0" stop-color="#2d9bc0"/><stop offset="1" stop-color="#82caa2"/></linearGradient><linearGradient id="linear-gradient-2" x1="-32.13" y1="389.61" x2="419.61" y2="-13.29" xlink:href="#linear-gradient"/><linearGradient id="linear-gradient-3" x1="-14.88" y1="408.95" x2="436.86" y2="6.05" xlink:href="#linear-gradient"/><linearGradient id="linear-gradient-4" x1="139.72" y1="582.29" x2="591.46" y2="179.39" xlink:href="#linear-gradient"/><linearGradient id="linear-gradient-5" x1="-23.84" y1="398.9" x2="427.89" y2="-4" xlink:href="#linear-gradient"/><linearGradient id="linear-gradient-6" x1="-66.49" y1="351.09" x2="385.25" y2="-51.81" xlink:href="#linear-gradient"/><linearGradient id="linear-gradient-7" x1="19.69" y1="447.72" x2="471.43" y2="44.82" xlink:href="#linear-gradient"/></defs><title>4</title><path class="cls-1" d="M69.57-.09c4,2.22,7.31,5,8,9.9,1.17,8-4.15,14.39-12.39,14.5-12.09.15-24.19.18-36.28,0-3.43,0-4.5,1-4.44,4.45.17,11.18.05,22.37,0,33.55,0,8.36-2.77,13-8.74,14.81C9.57,79,4.54,76.51.06,69.42c0-22.33,0-44.66-.06-67C0,.28.43-.16,2.59-.15,24.92,0,47.24-.09,69.57-.09Z"/><path class="cls-2" d="M399.93,69.42c-2.26,4.16-5.19,7.51-10.27,8.08-7.94.89-14-4.34-14.13-12.44-.15-12.09-.18-24.19,0-36.29.05-3.43-1-4.5-4.45-4.45-11.19.18-22.37.05-33.56,0-8.35,0-13-2.77-14.82-8.76-1.87-6.18.65-11.29,7.73-15.69,22.26,0,44.52,0,66.78-.07,2.33,0,2.81.47,2.8,2.8C399.89,24.9,399.93,47.16,399.93,69.42Z"/><path class="cls-3" d="M.06,330.27c2.11-3.91,4.84-7.12,9.48-8,8.06-1.49,14.8,4,14.92,12.3.16,11.56.06,23.13.08,34.69,0,6,0,6,5.85,6,11.57,0,23.13-.09,34.69.08,10.14.15,16,10.31,11,18.73A11.42,11.42,0,0,1,65.74,400c-17.93,0-35.86,0-53.79,0-5.84,0-9.27-3.41-11.89-8.08Z"/><path class="cls-4" d="M399.93,392c-3.14,6.17-8.17,8.31-15,8.18-16.78-.31-33.58,0-50.36-.14a12.26,12.26,0,0,1-10.77-18.35c2.55-4.54,6.65-6.34,11.72-6.33,11.84,0,23.69-.12,35.53,0,3.35.05,4.56-.89,4.5-4.39-.18-11.19,0-22.38,0-33.57,0-8.37,2.77-13,8.73-14.84,6.2-1.85,11.24.61,15.72,7.71Z"/><path class="cls-5" d="M279.29,199.19a79.32,79.32,0,1,1-158.63-.5c.2-44,37.45-81.33,83.9-78.8C244.85,122.08,279.47,155.83,279.29,199.19ZM253,172.42c0-5.92-3-9.93-8.43-11.5-5.05-1.48-8.83.63-12.23,4l-42.2,42.19c-4.25,4.25-4.24,4.24-8.35.13-5.06-5.05-10-10.24-15.25-15.08a11.53,11.53,0,0,0-16.3,16.3q13.4,13.89,27.3,27.3c5.28,5.07,11.55,4.9,16.69-.2q27.67-27.48,55.18-55.14C251.66,178.16,253.11,175.47,253,172.42Z"/><path class="cls-6" d="M125.55,127.51q-57.78,73.41,1.85,145.17c-1,.58-2.07-.1-3.14-.45C81.8,258.6,43.55,237.15,8.43,209.9c-6.89-5.35-7.15-14.54-.34-19.8,35.07-27,73.07-48.73,115.41-62.36C124.17,127.52,124.91,126.92,125.55,127.51Z"/><path class="cls-7" d="M274.14,126.94c5.46,1.85,10.61,3.44,15.64,5.31C326.51,146,360,165.37,391,189.32c7.79,6,7.8,15,0,21-35,26.76-72.78,48.23-114.87,61.75a26.14,26.14,0,0,1-2.62.75,2.35,2.35,0,0,1-.93-.16C312.31,224.78,312.94,176.47,274.14,126.94Z"/></svg>