<svg id="Layer_1" data-name="Layer 1" xmlns="http://www.w3.org/2000/svg" xmlns:xlink="http://www.w3.org/1999/xlink" viewBox="0 0 400 400"><defs><style>.cls-1{fill:url(#linear-gradient);}.cls-2{fill:url(#linear-gradient-2);}.cls-3{fill:url(#linear-gradient-3);}.cls-4{fill:url(#linear-gradient-4);}.cls-5{fill:url(#linear-gradient-5);}.cls-6{fill:url(#linear-gradient-6);}.cls-7{fill:url(#linear-gradient-7);}</style><linearGradient id="linear-gradient" x1="-17.72" y1="362.14" x2="405.15" y2="33.8" gradientUnits="userSpaceOnUse"><stop offset="0" stop-color="#2d9bc0"/><stop offset="1" stop-color="#82caa2"/></linearGradient><linearGradient id="linear-gradient-2" x1="30.58" y1="424.35" x2="453.45" y2="96" xlink:href="#linear-gradient"/><linearGradient id="linear-gradient-3" x1="-29.13" y1="347.45" x2="393.74" y2="19.11" xlink:href="#linear-gradient"/><linearGradient id="linear-gradient-4" x1="48.11" y1="446.93" x2="470.98" y2="118.59" xlink:href="#linear-gradient"/><linearGradient id="linear-gradient-5" x1="-11.59" y1="370.04" x2="411.28" y2="41.69" xlink:href="#linear-gradient"/><linearGradient id="linear-gradient-6" x1="65.65" y1="469.52" x2="488.52" y2="141.17" xlink:href="#linear-gradient"/><linearGradient id="linear-gradient-7" x1="5.94" y1="392.62" x2="428.81" y2="64.27" xlink:href="#linear-gradient"/></defs><title>6</title><path class="cls-1" d="M305.79,171.47l0-.22a8.09,8.09,0,0,0-.22-1.09v0a9.75,9.75,0,0,0-.35-1,2.36,2.36,0,0,0-.12-.28c-.1-.24-.22-.47-.34-.7l-.17-.3-.09-.16c-.14-.21-.28-.41-.43-.61A1,1,0,0,0,304,167a8.33,8.33,0,0,0-.73-.83l-.15-.14q-.33-.32-.69-.6l-.19-.15a9.51,9.51,0,0,0-1-.65L167.88,88.83,244.64,40.5l128.69,73.15-54.19,34.13a9,9,0,1,0,9.64,15.31l67-42.18a9,9,0,0,0-.35-15.53L248.88,22.08a9.1,9.1,0,0,0-9.3.21L145.5,81.53l-.05,0-47,29.6-.07,0L4.23,170.49A9,9,0,0,0,4.58,186l146.55,83.3a9.05,9.05,0,0,0,9.29-.21l67-42.18a9.05,9.05,0,0,0-9.64-15.32l-62.41,39.3L26.67,177.75l76.76-48.33,137.26,78V310.77a9,9,0,0,0,13.87,7.65l47.07-29.64a9,9,0,0,0,4.23-7.65V172.53c0-.05,0-.1,0-.16Q305.83,171.92,305.79,171.47Zm-47,122.9v-92.2a9.06,9.06,0,0,0-4.58-7.87l-133.4-75.82,29.69-18.7,128.69,73.15L267.93,180a9.05,9.05,0,0,0,9.64,15.32l10.19-6.42v87.21Z"/><path class="cls-2" d="M386.13,141.79l-67,42.18a9.05,9.05,0,0,0,9.64,15.32l67-42.18a9.05,9.05,0,1,0-9.64-15.32Z"/><path class="cls-3" d="M217.77,247.81,155.36,287.1,13.52,206.48a9.05,9.05,0,0,0-8.94,15.74l146.54,83.3a9.07,9.07,0,0,0,9.3-.21l67-42.19a9,9,0,1,0-9.64-15.31Z"/><path class="cls-4" d="M386.13,178l-67,42.18a9.05,9.05,0,0,0,9.64,15.32l67-42.18A9.05,9.05,0,1,0,386.13,178Z"/><path class="cls-5" d="M217.77,284,155.36,323.3,13.52,242.68a9.05,9.05,0,0,0-8.94,15.74l146.54,83.3a9.07,9.07,0,0,0,9.3-.21l67-42.19A9,9,0,1,0,217.77,284Z"/><path class="cls-6" d="M386.13,214.19l-67,42.18a9.05,9.05,0,0,0,9.64,15.32l67-42.19a9,9,0,1,0-9.64-15.31Z"/><path class="cls-7" d="M217.77,320.21,155.36,359.5,13.52,278.88a9.05,9.05,0,1,0-8.94,15.74l146.54,83.3a9.07,9.07,0,0,0,9.3-.21l67-42.19a9,9,0,1,0-9.64-15.31Z"/></svg>