<svg id="Layer_1" data-name="Layer 1" xmlns="http://www.w3.org/2000/svg" xmlns:xlink="http://www.w3.org/1999/xlink" viewBox="0 0 400 400"><defs><style>.cls-1{opacity:0.8;isolation:isolate;}.cls-2{fill:url(#linear-gradient);}.cls-3{fill:url(#linear-gradient-2);}.cls-4{fill:url(#linear-gradient-3);}.cls-5{fill:url(#linear-gradient-4);}.cls-6{fill:url(#linear-gradient-5);}.cls-7{fill:url(#linear-gradient-6);}.cls-8{fill:url(#linear-gradient-7);}.cls-9{fill:url(#linear-gradient-8);}.cls-10{fill:url(#linear-gradient-9);}</style><linearGradient id="linear-gradient" x1="-68.51" y1="318.01" x2="247.72" y2="-31.97" gradientUnits="userSpaceOnUse"><stop offset="0" stop-color="#2d9bc0"/><stop offset="1" stop-color="#82caa2"/></linearGradient><linearGradient id="linear-gradient-2" x1="1.13" y1="380.94" x2="317.36" y2="30.96" xlink:href="#linear-gradient"/><linearGradient id="linear-gradient-3" x1="16" y1="394.38" x2="332.24" y2="44.4" xlink:href="#linear-gradient"/><linearGradient id="linear-gradient-4" x1="61.88" y1="435.84" x2="378.12" y2="85.85" xlink:href="#linear-gradient"/><linearGradient id="linear-gradient-5" x1="52.42" y1="427.28" x2="368.65" y2="77.3" xlink:href="#linear-gradient"/><linearGradient id="linear-gradient-6" x1="87.57" y1="459.05" x2="403.81" y2="109.07" xlink:href="#linear-gradient"/><linearGradient id="linear-gradient-7" x1="17.71" y1="395.92" x2="333.94" y2="45.94" xlink:href="#linear-gradient"/><linearGradient id="linear-gradient-8" x1="44.79" y1="420.39" x2="361.02" y2="70.41" xlink:href="#linear-gradient"/><linearGradient id="linear-gradient-9" x1="98.01" y1="468.48" x2="414.24" y2="118.5" xlink:href="#linear-gradient"/></defs><title>8</title><g class="cls-1"><path class="cls-2" d="M176.67,26.67a20,20,0,1,0,20,20A20,20,0,0,0,176.67,26.67Zm0,26.66a6.67,6.67,0,1,1,6.66-6.66A6.67,6.67,0,0,1,176.67,53.33Z"/></g><g class="cls-1"><path class="cls-3" d="M283.33,106.67H70a6.67,6.67,0,0,0-6.67,6.66V260A6.67,6.67,0,0,0,70,266.67H283.33A6.67,6.67,0,0,0,290,260V113.33A6.66,6.66,0,0,0,283.33,106.67ZM210,253.33H143.33v-34A19.37,19.37,0,0,1,162.68,200h28A19.37,19.37,0,0,1,210,219.35v34Zm-53.33-86.66a20,20,0,1,1,20,20A20,20,0,0,1,156.67,166.67Zm120,86.66H223.33v-34a32.63,32.63,0,0,0-21.82-30.69,33.33,33.33,0,1,0-49.69,0A32.6,32.6,0,0,0,130,219.35v34H76.67V120h200Z"/></g><g class="cls-1"><rect class="cls-4" x="63.33" y="280" width="100" height="13.33"/></g><g class="cls-1"><rect class="cls-5" x="176.67" y="280" width="40" height="13.33"/></g><g class="cls-1"><rect class="cls-6" x="63.33" y="320" width="160" height="13.33"/></g><g class="cls-1"><rect class="cls-7" x="230" y="280" width="26.67" height="13.33"/></g><g class="cls-1"><path class="cls-8" d="M374.71,275.29l-20-20a6.65,6.65,0,0,0-9.42,0,6.55,6.55,0,0,0-.49.56L330,274.33V46.67A6.67,6.67,0,0,0,323.33,40H224.12L229.9,7.85A6.66,6.66,0,0,0,224.51.11,5.82,5.82,0,0,0,223.33,0H130a6.65,6.65,0,0,0-6.56,7.85L129.21,40H30a6.67,6.67,0,0,0-6.67,6.67V393.33A6.67,6.67,0,0,0,30,400H323.33a6.67,6.67,0,0,0,6.67-6.67V337.59l45.09-53.28A6.67,6.67,0,0,0,374.71,275.29Zm-159.35-262L203.4,80H149.94L138,13.33ZM316.67,386.67h-280V53.33H131.6l6.2,34.52a6.66,6.66,0,0,0,6.56,5.48H209a6.67,6.67,0,0,0,6.57-5.48l6.19-34.52h94.94V291l-20.56,25.69L281.38,302a6.66,6.66,0,0,0-9.42,0h0l-20,20a6.68,6.68,0,0,0,0,9.43h0l40,40a6.68,6.68,0,0,0,4.72,1.95h.27a6.65,6.65,0,0,0,4.81-2.36l14.92-17.62v33.32Zm-20.41-29.84-30.17-30.16,10.58-10.58L292,331.38a6.74,6.74,0,0,0,5.09,1.94,6.63,6.63,0,0,0,4.83-2.49L350.55,270l10.4,10.4Z"/></g><g class="cls-1"><rect class="cls-9" x="63.33" y="360" width="60" height="13.33"/></g><g class="cls-1"><rect class="cls-10" x="136.67" y="360" width="106.67" height="13.33"/></g></svg>