<svg xmlns="http://www.w3.org/2000/svg" xmlns:xlink="http://www.w3.org/1999/xlink" viewBox="0 0 38.56 51.42"><defs><style>.cls-1{fill:url(#linear-gradient);}.cls-2{fill:url(#linear-gradient-2);}.cls-3{fill:url(#linear-gradient-3);}.cls-4{fill:url(#linear-gradient-4);}.cls-5{fill:url(#linear-gradient-5);}</style><linearGradient id="linear-gradient" x1="-2.03" y1="49.53" x2="42.8" y2="-0.57" gradientUnits="userSpaceOnUse"><stop offset="0" stop-color="#2d9ac0"/><stop offset="1" stop-color="#6ce8ab"/></linearGradient><linearGradient id="linear-gradient-2" x1="-6.02" y1="45.96" x2="38.8" y2="-4.15" xlink:href="#linear-gradient"/><linearGradient id="linear-gradient-3" x1="-2.41" y1="49.19" x2="42.41" y2="-0.92" xlink:href="#linear-gradient"/><linearGradient id="linear-gradient-4" x1="1.2" y1="52.42" x2="46.02" y2="2.31" xlink:href="#linear-gradient"/><linearGradient id="linear-gradient-5" x1="1.85" y1="53" x2="46.68" y2="2.9" xlink:href="#linear-gradient"/></defs><title>Asset 3</title><g id="Layer_2" data-name="Layer 2"><g id="Layer_1-2" data-name="Layer 1"><path class="cls-1" d="M38.56,10.41a1.27,1.27,0,0,0-.35-.84L29,.35h0A1.19,1.19,0,0,0,28.14,0H2.53A2.54,2.54,0,0,0,0,2.53V48.89a2.54,2.54,0,0,0,2.53,2.53H36a2.54,2.54,0,0,0,2.54-2.53V10.42Zm-9.22-6.3,5.11,5.11h-5a.13.13,0,0,1-.13-.13v-5Zm6.81,44.78A.12.12,0,0,1,36,49H2.53a.12.12,0,0,1-.12-.12V2.53a.12.12,0,0,1,.12-.12h24.4V9.09a2.54,2.54,0,0,0,2.54,2.53h6.68V48.89Z"/><path class="cls-2" d="M29.93,16.47H8.62a1.21,1.21,0,0,0,0,2.41H29.93a1.21,1.21,0,1,0,0-2.41Z"/><path class="cls-3" d="M29.93,23.74H8.62a1.21,1.21,0,0,0,0,2.41H29.93a1.21,1.21,0,1,0,0-2.41Z"/><path class="cls-4" d="M29.93,31H8.62a1.21,1.21,0,0,0,0,2.41H29.93a1.21,1.21,0,1,0,0-2.41Z"/><path class="cls-5" d="M19.28,38.27H8.62a1.21,1.21,0,0,0,0,2.41H19.28a1.21,1.21,0,0,0,0-2.41Z"/></g></g></svg>