<svg xmlns="http://www.w3.org/2000/svg" xmlns:xlink="http://www.w3.org/1999/xlink" viewBox="0 0 61.42 55"><defs><style>.cls-1{fill:url(#linear-gradient);}.cls-2{fill:url(#linear-gradient-2);}.cls-3{fill:url(#linear-gradient-3);}.cls-4{fill:url(#linear-gradient-4);}.cls-5{fill:url(#linear-gradient-5);}.cls-6{fill:url(#linear-gradient-6);}.cls-7{fill:url(#linear-gradient-7);}</style><linearGradient id="linear-gradient" x1="-2.72" y1="52.4" x2="62.21" y2="1.98" gradientUnits="userSpaceOnUse"><stop offset="0" stop-color="#2d9ac0"/><stop offset="1" stop-color="#6ce8ab"/></linearGradient><linearGradient id="linear-gradient-2" x1="4.7" y1="61.95" x2="69.63" y2="11.53" xlink:href="#linear-gradient"/><linearGradient id="linear-gradient-3" x1="-4.47" y1="50.14" x2="60.46" y2="-0.28" xlink:href="#linear-gradient"/><linearGradient id="linear-gradient-4" x1="7.39" y1="65.42" x2="72.32" y2="15" xlink:href="#linear-gradient"/><linearGradient id="linear-gradient-5" x1="-1.78" y1="53.61" x2="63.15" y2="3.19" xlink:href="#linear-gradient"/><linearGradient id="linear-gradient-6" x1="10.08" y1="68.88" x2="75.01" y2="18.47" xlink:href="#linear-gradient"/><linearGradient id="linear-gradient-7" x1="0.91" y1="57.08" x2="65.84" y2="6.66" xlink:href="#linear-gradient"/></defs><title>Asset 3</title><g id="Layer_2" data-name="Layer 2"><g id="Layer_1-2" data-name="Layer 1"><path class="cls-1" d="M47,23.12v0a.85.85,0,0,0,0-.17h0a.75.75,0,0,0,0-.16l0,0a.54.54,0,0,0-.05-.11l0,0v0l-.07-.09v0l-.11-.13,0,0-.11-.09,0,0-.15-.1L25.78,10.43,37.56,3,57.32,14.24,49,19.48a1.39,1.39,0,0,0,1.48,2.35l10.29-6.47A1.4,1.4,0,0,0,60.72,13L38.21.18a1.39,1.39,0,0,0-1.42,0L22.34,9.31h0l-7.22,4.54h0L.65,23A1.4,1.4,0,0,0,0,24.18a1.38,1.38,0,0,0,.7,1.17L23.2,38.14a1.43,1.43,0,0,0,.69.19,1.39,1.39,0,0,0,.74-.22l10.29-6.48a1.39,1.39,0,0,0-1.48-2.35l-9.59,6L4.09,24.08l11.79-7.42L37,28.64V44.51a1.4,1.4,0,0,0,1.39,1.39,1.36,1.36,0,0,0,.74-.22l7.22-4.55A1.37,1.37,0,0,0,47,40V23.26A.66.66,0,0,0,47,23.12ZM39.74,42V27.83a1.36,1.36,0,0,0-.71-1.2L18.55,15l4.56-2.87L42.87,23.34l-1.73,1.09A1.39,1.39,0,0,0,41.88,27a1.36,1.36,0,0,0,.74-.22l1.56-1V39.19Z"/><path class="cls-2" d="M59.29,18.56,49,25A1.39,1.39,0,0,0,48.57,27a1.36,1.36,0,0,0,1.17.64,1.32,1.32,0,0,0,.74-.21l10.29-6.48a1.39,1.39,0,1,0-1.48-2.35Z"/><path class="cls-3" d="M33.44,34.84l-9.59,6L2.08,28.5A1.39,1.39,0,1,0,.7,30.91L23.2,43.7a1.42,1.42,0,0,0,.69.18,1.38,1.38,0,0,0,.74-.21l10.29-6.48a1.39,1.39,0,0,0-1.48-2.35Z"/><path class="cls-4" d="M59.29,24.12,49,30.6a1.39,1.39,0,0,0,.74,2.56,1.41,1.41,0,0,0,.74-.21l10.29-6.48a1.39,1.39,0,1,0-1.48-2.35Z"/><path class="cls-5" d="M33.44,40.4l-9.59,6L2.08,34.05A1.39,1.39,0,0,0,.7,36.47L23.2,49.26a1.42,1.42,0,0,0,.69.18,1.38,1.38,0,0,0,.74-.21l10.29-6.48a1.39,1.39,0,0,0-1.48-2.35Z"/><path class="cls-6" d="M59.29,29.68,49,36.16a1.39,1.39,0,0,0,.74,2.56,1.41,1.41,0,0,0,.74-.21L60.77,32a1.39,1.39,0,1,0-1.48-2.35Z"/><path class="cls-7" d="M33.44,46l-9.59,6L2.08,39.61A1.39,1.39,0,1,0,.7,42L23.2,54.82a1.42,1.42,0,0,0,.69.18,1.38,1.38,0,0,0,.74-.21l10.29-6.48A1.39,1.39,0,0,0,33.44,46Z"/></g></g></svg>