<svg xmlns="http://www.w3.org/2000/svg" xmlns:xlink="http://www.w3.org/1999/xlink" viewBox="0 0 74.15 60"><defs><style>.cls-1{fill:url(#linear-gradient);}.cls-2{fill:url(#linear-gradient-2);}.cls-3{fill:url(#linear-gradient-3);}.cls-4{fill:url(#linear-gradient-4);}.cls-5{fill:url(#linear-gradient-5);}.cls-6{fill:url(#linear-gradient-6);}.cls-7{fill:url(#linear-gradient-7);}.cls-8{fill:url(#linear-gradient-8);}.cls-9{fill:url(#linear-gradient-9);}.cls-10{fill:url(#linear-gradient-10);}.cls-11{fill:url(#linear-gradient-11);}</style><linearGradient id="linear-gradient" x1="-8.85" y1="45.17" x2="74.39" y2="-4.33" gradientUnits="userSpaceOnUse"><stop offset="0" stop-color="#2d9ac0"/><stop offset="1" stop-color="#6ce8ab"/></linearGradient><linearGradient id="linear-gradient-2" x1="4.94" y1="68.37" x2="88.19" y2="18.87" xlink:href="#linear-gradient"/><linearGradient id="linear-gradient-3" x1="-1.2" y1="58.04" x2="82.04" y2="8.54" xlink:href="#linear-gradient"/><linearGradient id="linear-gradient-4" x1="1.3" y1="62.24" x2="84.54" y2="12.74" xlink:href="#linear-gradient"/><linearGradient id="linear-gradient-5" x1="3.86" y1="66.55" x2="87.11" y2="17.06" xlink:href="#linear-gradient"/><linearGradient id="linear-gradient-6" x1="6.26" y1="70.58" x2="89.5" y2="21.09" xlink:href="#linear-gradient"/><linearGradient id="linear-gradient-7" x1="-2.84" y1="55.29" x2="80.41" y2="5.79" xlink:href="#linear-gradient"/><linearGradient id="linear-gradient-8" x1="-0.34" y1="59.49" x2="82.91" y2="9.99" xlink:href="#linear-gradient"/><linearGradient id="linear-gradient-9" x1="4.63" y1="67.84" x2="87.87" y2="18.34" xlink:href="#linear-gradient"/><linearGradient id="linear-gradient-10" x1="2.23" y1="63.82" x2="85.48" y2="14.32" xlink:href="#linear-gradient"/><linearGradient id="linear-gradient-11" x1="-4.68" y1="52.19" x2="78.57" y2="2.7" xlink:href="#linear-gradient"/></defs><title>Asset 2</title><g id="Layer_2" data-name="Layer 2"><g id="Layer_1-2" data-name="Layer 1"><path class="cls-1" d="M8.69,54.62h16c1.17,0,1.18,0,1.18-1.2V43.33H26l-.08-10.66v-.07a1.48,1.48,0,0,0,0-.47L25.83,20.9a3.49,3.49,0,0,0,.09-.86V6.65c0-1.34,0-1.34-1.31-1.34H8.83c-1.33,0-1.35,0-1.35,1.32V53.36C7.48,54.61,7.48,54.62,8.69,54.62Z"/><path class="cls-2" d="M74.14,54.42c0-.67-.22-1-.93-.94s-1.3,0-1.95,0c-1.39,0-1.39,0-1.39-1.41V14.3c0-1.23,0-1.24-1.23-1.24h-18c-1.36,0-1.36,0-1.36,1.33V56c0,1.25,0,1.25-1.26,1.25H.68c-.18,0-.4,0-.48.18a3.66,3.66,0,0,0-.07,2.17c.13.6.74.36,1.14.36q12.41,0,24.82,0h24.3c1.81,0,1.63.17,1.63-1.6q0-20.74,0-41.49c0-.76.13-1.1,1-1.09,4.31,0,8.63,0,12.94,0,.75,0,1,.27,1,1,0,1.89,0,3.78,0,5.67V54.17c0,.41,0,.82,0,1.24,0,.61.26.83.86.82,1.54,0,3.07,0,4.61,0C74.19,56.23,74.17,56.23,74.14,54.42Z"/><path class="cls-3" d="M62.6,18.08c-2.41,0-2.09-.18-2.1,2.06,0,2.08,0,2.08,2.11,2.08s2.16,0,2.15-1.95C64.75,17.81,65.05,18.09,62.6,18.08Z"/><path class="cls-4" d="M62.63,27.83c2.43,0,2.1.31,2.13-2.09s.28-2-2-2H62.5c-2.26,0-2-.32-2,2S60.2,27.83,62.63,27.83Z"/><path class="cls-5" d="M62.84,33.69c2.18,0,1.91.2,1.92-2s0-2.17-2.13-2.17c-2.35,0-2.12-.34-2.13,1.81C60.49,33.69,60.5,33.7,62.84,33.69Z"/><path class="cls-6" d="M62.58,35.08c-2.38,0-2.08-.26-2.08,2.06s-.28,2,2,2.07,2.23,0,2.22-2C64.74,34.78,65.09,35.09,62.58,35.08Z"/><path class="cls-7" d="M56.4,18.08c-2.35,0-2.09-.25-2.09,2.08s-.24,2,2.08,2.06c2,0,2,0,2-2v-.09C58.41,17.86,58.78,18.08,56.4,18.08Z"/><path class="cls-8" d="M56.34,27.84c2.1,0,2.1,0,2.1-2.07s0-2.07-2-2.07-2.11,0-2.1,2.1C54.31,28.09,54.11,27.83,56.34,27.84Z"/><path class="cls-9" d="M56.37,35.08c-2.34,0-2.06-.31-2.06,2.08s-.25,2,2.08,2.05c2,0,2,0,2-2.06C58.4,34.83,58.8,35.08,56.37,35.08Z"/><path class="cls-10" d="M56.35,29.56h-.09c-2.17,0-1.95-.34-1.95,2s-.26,2.14,2.11,2.14,2,.26,2-2C58.44,29.56,58.44,29.56,56.35,29.56Z"/><path class="cls-11" d="M27.73,41.78V53.51c0,1.09,0,1.13,1.17,1.13h16c1.51,0,1.51,0,1.51-1.54V27.38q0-13,0-26.07c0-.77-.1-1.31-1.08-1.31Q37.09,0,28.8,0c-.74,0-1.08.28-1.08,1.05q0,8.57,0,17.14l-.17,23.55Z"/></g></g></svg>