<svg xmlns="http://www.w3.org/2000/svg" xmlns:xlink="http://www.w3.org/1999/xlink" viewBox="0 0 66.42 55"><defs><style>.cls-1{fill:url(#linear-gradient);}</style><linearGradient id="linear-gradient" x1="1.34" y1="3.59" x2="72.28" y2="60.18" gradientUnits="userSpaceOnUse"><stop offset="0" stop-color="#2d9ac0"/><stop offset="1" stop-color="#6ce8ab"/></linearGradient></defs><title>Asset 5</title><g id="Layer_2" data-name="Layer 2"><g id="Layer_1-2" data-name="Layer 1"><path class="cls-1" d="M0,34.14c8.53-.87,17.12-1.5,25.55-1.84.78.8.5,1.54.55,2.22s0,1.33,0,2c2.5.4,2.79-2.51,1.89-4.13-.41-.75-1.5-.91-1.58-2.16H7.35V0H59.16V30.22h-19c-.25,1.29-1.32,1.55-1.75,2.38-1,1.88-.17,3.83,1.78,4,.47-1.29-.13-2.71.49-4.28,8.57.26,17.15,1,25.79,1.79V52.21a104.31,104.31,0,0,1-13.23-.51c-.51,1,.1,2.19-.39,3.3H13.66c-.54-1,.27-2.18-.4-3.31A111.68,111.68,0,0,1,0,52.23Zm57.13-32H9.51v25.9H26.06c0-.86,0-1.6,0-2.35-.09-4.9,3.05-8.32,8.22-7.83a6.71,6.71,0,0,1,6.09,5.91c.22,1.43-.35,2.88.15,4.31H57.13Zm-55,48.25c3.87-.65,7.65-.59,11.42-1,.14-1.35.57-2.54.6-3.81a5,5,0,0,1,3.65-5.1c2.16-.74,4.2-1.82,6.3-2.75A16.3,16.3,0,0,0,24,34.38L2.12,36Zm62.09,0V36l-21.55-1.6a15.93,15.93,0,0,0,0,3.52c1.55.66,3.07,1.44,4.68,2,3.2,1.06,5.25,2.91,5.24,6.53a27,27,0,0,0,.31,3C56.69,49.79,60.44,49.81,64.21,50.4Z"/></g></g></svg>