<svg xmlns="http://www.w3.org/2000/svg" xmlns:xlink="http://www.w3.org/1999/xlink" viewBox="0 0 55 55"><defs><style>.cls-1{fill:url(#linear-gradient);}.cls-2{fill:url(#linear-gradient-2);}.cls-3{fill:url(#linear-gradient-3);}</style><linearGradient id="linear-gradient" x1="-10.48" y1="33.85" x2="55.51" y2="3.85" gradientUnits="userSpaceOnUse"><stop offset="0" stop-color="#2d9ac0"/><stop offset="1" stop-color="#6ce8ab"/></linearGradient><linearGradient id="linear-gradient-2" x1="-4.59" y1="46.81" x2="61.41" y2="16.81" xlink:href="#linear-gradient"/><linearGradient id="linear-gradient-3" x1="-6.37" y1="42.9" x2="59.63" y2="12.9" xlink:href="#linear-gradient"/></defs><title>Asset 3</title><g id="Layer_2" data-name="Layer 2"><g id="Layer_1-2" data-name="Layer 1"><path class="cls-1" d="M24.38,18a5.45,5.45,0,0,0,.3.55c.11.15.26.3.36.45a4.54,4.54,0,0,0,.5.46,1.68,1.68,0,0,0,.6.3,2.44,2.44,0,0,0,.66.2,3.08,3.08,0,0,0,.65.05,2.85,2.85,0,0,0,.65-.05,1.85,1.85,0,0,0,.56-.2h.05a3.73,3.73,0,0,0,.6-.35,3.34,3.34,0,0,0,.45-.41l0-.05a2.75,2.75,0,0,0,.35-.45,1.4,1.4,0,0,0,.26-.5c0-.05,0-.05,0-.1a3.32,3.32,0,0,0,.2-.66,2.85,2.85,0,0,0,0-.65,2.85,2.85,0,0,0,0-.65,4.74,4.74,0,0,0-.2-.66,2.86,2.86,0,0,0-.61-.9l-.1-.1a4.37,4.37,0,0,0-.5-.4c-.2-.11-.35-.21-.55-.31a2.9,2.9,0,0,0-.61-.2,3.08,3.08,0,0,0-.65-.05,2.85,2.85,0,0,0-.65.05,2.9,2.9,0,0,0-.61.2h-.05a4,4,0,0,0-.55.31,4.37,4.37,0,0,0-.5.4,4.18,4.18,0,0,0-.41.45,5.45,5.45,0,0,0-.3.55,2.9,2.9,0,0,0-.2.61,3.08,3.08,0,0,0-.05.65,2.85,2.85,0,0,0,.05.65A4.46,4.46,0,0,0,24.38,18Z"/><path class="cls-2" d="M31.37,36.35H30.21V24a1.3,1.3,0,0,0-1.3-1.31H23.63A1.31,1.31,0,0,0,22.32,24v2.72a1.29,1.29,0,0,0,1.31,1.3h1.05V36.4H23.63a1.3,1.3,0,0,0-1.31,1.31v2.71a1.3,1.3,0,0,0,1.31,1.31h7.74a1.31,1.31,0,0,0,1.31-1.31V37.71A1.35,1.35,0,0,0,31.37,36.35Z"/><path class="cls-3" d="M27.5,0A27.5,27.5,0,1,0,55,27.5,27.51,27.51,0,0,0,27.5,0Zm0,51.38A23.88,23.88,0,1,1,51.38,27.5,23.9,23.9,0,0,1,27.5,51.38Z"/></g></g></svg>