<svg xmlns="http://www.w3.org/2000/svg" xmlns:xlink="http://www.w3.org/1999/xlink" viewBox="0 0 55 55"><defs><style>.cls-1{fill:url(#linear-gradient);}.cls-2{fill:url(#linear-gradient-2);}.cls-3{fill:url(#linear-gradient-3);}.cls-4{fill:url(#linear-gradient-4);}.cls-5{fill:url(#linear-gradient-5);}.cls-6{fill:url(#linear-gradient-6);}</style><linearGradient id="linear-gradient" x1="0.03" y1="51.07" x2="55.03" y2="5.03" gradientUnits="userSpaceOnUse"><stop offset="0" stop-color="#2d9ac0"/><stop offset="1" stop-color="#6ce8ab"/></linearGradient><linearGradient id="linear-gradient-2" x1="10.39" y1="63.45" x2="65.39" y2="17.4" xlink:href="#linear-gradient"/><linearGradient id="linear-gradient-3" x1="-9.54" y1="39.65" x2="45.46" y2="-6.4" xlink:href="#linear-gradient"/><linearGradient id="linear-gradient-4" x1="-1.97" y1="48.68" x2="53.03" y2="2.63" xlink:href="#linear-gradient"/><linearGradient id="linear-gradient-5" x1="-2.23" y1="48.37" x2="52.77" y2="2.32" xlink:href="#linear-gradient"/><linearGradient id="linear-gradient-6" x1="1.4" y1="52.71" x2="56.4" y2="6.66" xlink:href="#linear-gradient"/></defs><title>Asset 4</title><g id="Layer_2" data-name="Layer 2"><g id="Layer_1-2" data-name="Layer 1"><path class="cls-1" d="M53.93,22.42H47.05A1.08,1.08,0,0,0,46,23.5v5.42a1.08,1.08,0,1,0,2.15,0V24.57h4.72V52.85H48.13V37A1.08,1.08,0,0,0,46,37V52.85H43.83V30.62a1.08,1.08,0,0,0-1.08-1.08H35.88a1.08,1.08,0,0,0-1.08,1.08V52.85H32.66V38.13a1.07,1.07,0,0,0-1.08-1.07H24.71a1.07,1.07,0,0,0-1.08,1.07V52.85H21.48V44.3a1.07,1.07,0,0,0-1.07-1.08H13.54a1.08,1.08,0,0,0-1.08,1.08v8.55H3.22a1.07,1.07,0,0,1-1.07-1.07V3.22A1.07,1.07,0,0,1,3.22,2.15H30.93V9.24a3.23,3.23,0,0,0,3.23,3.22h7.09V25.67a1.08,1.08,0,1,0,2.15,0V11.39a1.07,1.07,0,0,0-.32-.76L32.77.31A1.08,1.08,0,0,0,32,0H3.22A3.23,3.23,0,0,0,0,3.22V51.78A3.23,3.23,0,0,0,3.22,55H53.93A1.07,1.07,0,0,0,55,53.93V23.5A1.08,1.08,0,0,0,53.93,22.42ZM33.08,3.67l6.65,6.64H34.16a1.08,1.08,0,0,1-1.08-1.07ZM19.34,52.85H14.61V45.37h4.73Zm11.17,0H25.78V39.21h4.73Zm11.17,0H37V31.69h4.73Z"/><path class="cls-2" d="M47.81,32a1.06,1.06,0,1,0,.32.76A1.08,1.08,0,0,0,47.81,32Z"/><path class="cls-3" d="M15.64,5.88A1.07,1.07,0,0,0,14.56,7V8.89a9.88,9.88,0,1,0,10.9,10.89h1.93a1.07,1.07,0,0,0,1.08-1.07A12.84,12.84,0,0,0,15.64,5.88Zm0,20.56a7.73,7.73,0,0,1-1.08-15.39v7.66a1.07,1.07,0,0,0,1.08,1.07H23.3A7.75,7.75,0,0,1,15.64,26.44Zm1.07-8.81h0V8.08a10.69,10.69,0,0,1,9.55,9.55Z"/><path class="cls-4" d="M27.39,31.61H6.88a1.08,1.08,0,1,0,0,2.15H27.39a1.08,1.08,0,1,0,0-2.15Z"/><path class="cls-5" d="M13.75,36.79H6.88a1.08,1.08,0,1,0,0,2.15h6.87a1.08,1.08,0,0,0,0-2.15Z"/><path class="cls-6" d="M19.89,37.11a1.06,1.06,0,0,0-1.52,0,1.07,1.07,0,0,0-.31.76,1.07,1.07,0,1,0,2.14,0A1.07,1.07,0,0,0,19.89,37.11Z"/></g></g></svg>