<svg xmlns="http://www.w3.org/2000/svg" xmlns:xlink="http://www.w3.org/1999/xlink" viewBox="0 0 64 64"><defs><style>.cls-1{fill:url(#linear-gradient);}.cls-2{fill:url(#linear-gradient-2);}.cls-3{fill:url(#linear-gradient-3);}</style><linearGradient id="linear-gradient" x1="15.01" y1="58.09" x2="56.91" y2="17.59" gradientUnits="userSpaceOnUse"><stop offset="0" stop-color="#2d9ac0"/><stop offset="1" stop-color="#6ce8ab"/></linearGradient><linearGradient id="linear-gradient-2" x1="5.29" y1="48.04" x2="47.19" y2="7.54" xlink:href="#linear-gradient"/><linearGradient id="linear-gradient-3" x1="10.19" y1="53.11" x2="52.09" y2="12.6" xlink:href="#linear-gradient"/></defs><title>Asset 4</title><g id="Layer_2" data-name="Layer 2"><g id="Layer_1-2" data-name="Layer 1"><path class="cls-1" d="M0,44.64q0-3.37,0-6.76a1.71,1.71,0,0,1,.15-.71,1,1,0,0,1,1.42-.52c.46.2.9.42,1.35.64L6.81,39.2l4.24,2.07c1,.51,2.08,1,3.1,1.53a.9.9,0,0,1,.09,1.67c-.93.62-1.88,1.2-2.83,1.79-.59.38-1.18.75-1.78,1.11-.15.09-.17.16-.07.3.63.89,1.29,1.76,2,2.59a28.55,28.55,0,0,0,2.92,2.9,28.61,28.61,0,0,0,10.11,5.55,24.93,24.93,0,0,0,3.21.75c.92.15,1.84.25,2.76.35a25.17,25.17,0,0,0,3.58,0,24.09,24.09,0,0,0,3.49-.42,30.23,30.23,0,0,0,4-1,28.61,28.61,0,0,0,12.62-8.7,27.76,27.76,0,0,0,3.5-5.38,24.68,24.68,0,0,0,1.56-3.89,2.06,2.06,0,0,1,2-1.5,2,2,0,0,1,1.9,2.61,29.92,29.92,0,0,1-2.62,6.07,31.23,31.23,0,0,1-4.66,6.3,32.39,32.39,0,0,1-12.46,8.15,33.25,33.25,0,0,1-3.65,1.09c-1,.23-2.08.41-3.14.56a35.79,35.79,0,0,1-3.87.29,30.21,30.21,0,0,1-3.92-.23,31.54,31.54,0,0,1-3.62-.65,33.42,33.42,0,0,1-5.51-1.87A32.72,32.72,0,0,1,13,57.19a30,30,0,0,1-4.08-3.81A32.72,32.72,0,0,1,6.19,50c-.14-.21-.24-.3-.5-.13-1.36.87-2.73,1.71-4.1,2.56-.58.37-1.12.3-1.4-.19A1.48,1.48,0,0,1,0,51.41c0-2.26,0-4.51,0-6.77Z"/><path class="cls-2" d="M64,15v11a1.68,1.68,0,0,1-.07.59,1,1,0,0,1-1.49.61c-1.15-.52-2.28-1.1-3.41-1.65l-4.21-2.06-4.22-2.06c-.25-.12-.51-.24-.75-.38a.9.9,0,0,1-.09-1.65c.49-.36,1-.66,1.54-1l3-1.85c.14-.09.18-.17.07-.34-.53-.77-1.09-1.5-1.69-2.21a28.86,28.86,0,0,0-2.74-2.79,28,28,0,0,0-4.8-3.43,28.81,28.81,0,0,0-3.21-1.56A30,30,0,0,0,38.7,5.08c-.6-.17-1.21-.28-1.81-.42-.81-.2-1.65-.27-2.47-.41a6.38,6.38,0,0,0-.87-.07,26.58,26.58,0,0,0-2.82-.1c-1,.09-2,.11-3,.25s-2,.33-3,.57a27.09,27.09,0,0,0-3.61,1.16A28.54,28.54,0,0,0,17.3,7.92,29.35,29.35,0,0,0,13,11a28.29,28.29,0,0,0-5.63,6.7,27.6,27.6,0,0,0-2.6,5.72,2.25,2.25,0,0,1-1.06,1.39A2.06,2.06,0,0,1,.74,23.43,3.14,3.14,0,0,1,1,21.71a29.82,29.82,0,0,1,1.22-3.05,31.94,31.94,0,0,1,7-9.78,32.46,32.46,0,0,1,6.58-4.82,31.44,31.44,0,0,1,5.48-2.41A27.77,27.77,0,0,1,24.69.74c1-.21,2-.38,3-.5A30.34,30.34,0,0,1,32.06,0a26,26,0,0,1,2.65.17A30.6,30.6,0,0,1,38.5.82,33.25,33.25,0,0,1,44.84,3a32.7,32.7,0,0,1,8.44,5.71,31.32,31.32,0,0,1,2.93,3.16A21.85,21.85,0,0,1,57.79,14c.13.21.25.11.38,0,1.07-.67,2.14-1.35,3.22-2a6.61,6.61,0,0,1,1.39-.8A.86.86,0,0,1,64,12a3,3,0,0,1,0,.6V15Z"/><path class="cls-3" d="M34.06,16.31c0,.57,0,1,0,1.5,0,.27.08.37.34.42a6.73,6.73,0,0,1,3.9,2.17,7.18,7.18,0,0,1,1.6,3.33,10.5,10.5,0,0,1,.16,1.68,2,2,0,0,1-3.94.67,2.34,2.34,0,0,1-.14-.83,3.45,3.45,0,0,0-.58-1.94,2.63,2.63,0,0,0-1.76-1.08,5.49,5.49,0,0,0-1.28-.1,4.27,4.27,0,0,0-3.21,1.42,3,3,0,0,0-.7,2.69,4.09,4.09,0,0,0,.32,1.15A4.1,4.1,0,0,0,30.49,29a15.16,15.16,0,0,0,2.91,1.14A14,14,0,0,1,38,32.4a6.61,6.61,0,0,1,2.36,3.51,9,9,0,0,1,.21,3.5A7,7,0,0,1,36.51,45a9.08,9.08,0,0,1-2.06.69c-.46.11-.39,0-.39.5,0,.91,0,1.82,0,2.73a2,2,0,0,1-4.07.26c-.05-1,0-2.08,0-3.12,0-.26-.11-.34-.33-.39A7.51,7.51,0,0,1,24,41.15,7.33,7.33,0,0,1,23.41,39a3.23,3.23,0,0,1,0-1.35,2,2,0,0,1,3.95.07c.07.42.07.85.18,1.27a3.26,3.26,0,0,0,2,2.32,6.27,6.27,0,0,0,3,.46,5,5,0,0,0,3.08-1.11,2.72,2.72,0,0,0,.92-2c0-.26,0-.51,0-.77a2.9,2.9,0,0,0-1.52-2.68,10.92,10.92,0,0,0-2.69-1.17,16.29,16.29,0,0,1-5-2.27,7,7,0,0,1-2.83-4.23,8.69,8.69,0,0,1-.23-2.82A6.83,6.83,0,0,1,25.94,21a7.69,7.69,0,0,1,3.8-2.53.33.33,0,0,0,.25-.36c0-1,0-2.08,0-3.12a2.16,2.16,0,0,1,1.52-2A2.1,2.1,0,0,1,34,14.57C34.1,15.19,34,15.8,34.06,16.31Z"/></g></g></svg>