<svg xmlns="http://www.w3.org/2000/svg" xmlns:xlink="http://www.w3.org/1999/xlink" viewBox="0 0 76.38 70"><defs><style>.cls-1{opacity:0.8;isolation:isolate;}.cls-2{fill:url(#linear-gradient);}.cls-3{fill:url(#linear-gradient-2);}.cls-4{fill:url(#linear-gradient-3);}</style><linearGradient id="linear-gradient" x1="18.65" y1="66.73" x2="81.65" y2="15.73" gradientUnits="userSpaceOnUse"><stop offset="0" stop-color="#2d9ac0"/><stop offset="1" stop-color="#6ce8ab"/></linearGradient><linearGradient id="linear-gradient-2" x1="-1.34" y1="42.04" x2="61.66" y2="-8.96" xlink:href="#linear-gradient"/><linearGradient id="linear-gradient-3" x1="3.19" y1="47.63" x2="66.19" y2="-3.37" xlink:href="#linear-gradient"/></defs><title>Asset 5</title><g id="Layer_2" data-name="Layer 2"><g id="Layer_1-2" data-name="Layer 1"><g class="cls-1"><path class="cls-2" d="M32.67,42.62c5,0,10,0,15,0,1,0,1.39.33,1.47,1.27a91.62,91.62,0,0,1,.25,10.48,69.46,69.46,0,0,1-.9,9c-.12.78.05.88.77.67,5.12-1.52,10.24-3,15.36-4.49,2.15-.63,4.3-1.32,6.46-1.92.66-.18.49-.64.51-1,.1-2.91.11-5.82.06-8.74a110.14,110.14,0,0,0-2-18.1,86.25,86.25,0,0,0-5.35-18c-.79-1.86-.79-1.89-2.74-1.38L47.25,14.08c-1.72.45-3.43.92-5.16,1.35-.71.17-.81.45-.49,1.14a83.1,83.1,0,0,1,5.12,14.54c.53,2.12,1.05,4.23,1.38,6.39.11.69-.11.85-.7.84-1,0-2,0-3.06,0a.83.83,0,0,1-1-.79,84.24,84.24,0,0,0-6-18.94c-.49-1.09-1.06-2.14-1.62-3.19a2.45,2.45,0,0,1,1.61-3.67L54.55,7.23l9.27-2.41a2.49,2.49,0,0,1,3,1.44,45.7,45.7,0,0,1,2.74,5.79,84,84,0,0,1,3.76,12,118.63,118.63,0,0,1,2.34,13.52,129.87,129.87,0,0,1,.74,16.14c0,1.74-.11,3.49-.18,5.24a2.55,2.55,0,0,1-2.14,2.62c-4,1.16-8,2.38-12,3.55-5,1.46-10,2.89-15,4.33-.27.08-.54.2-.81.29a2.48,2.48,0,0,1-3.58-2.34c-.13-2-.63-4-.95-6-.14-.84-.54-1-1.34-1-5.43,0-10.85,0-16.28,0A3,3,0,0,1,22.06,60a2.25,2.25,0,0,1-.95-2.09,2.51,2.51,0,0,1,1.66-2,4.39,4.39,0,0,1,1.61-.18H39c1.14,0,1.26-.16.87-1.16-.78-2-1.63-4-2.34-6a1.57,1.57,0,0,0-1.79-1.16c-6,0-12,0-18,0a2.51,2.51,0,0,1-2.57-1.27,2.36,2.36,0,0,1,2-3.49,9.91,9.91,0,0,1,1.09,0H32.67ZM44.51,53.38l.14,0V48c0-.37-.17-.55-.52-.54a3.38,3.38,0,0,0-1.7.13c-.16.09,0,.27,0,.39Q43.47,50.66,44.51,53.38Z"/><path class="cls-3" d="M20.4,23.7,18.59,22c-1.6-1.48-1.54-2.93.13-4.28q4.56-3.69,9.11-7.39L39.51.8c1.27-1,2.14-1.07,3.44-.1a28.09,28.09,0,0,1,3.23,2.73,2.35,2.35,0,0,1,.21,3.4,2.44,2.44,0,0,1-3.45,0c-1.69-1.45-1.67-1.43-3.42,0-5.11,4.2-10.23,8.4-15.39,12.55-.64.52-.64.81-.08,1.33,1.61,1.5,3,3.19,4.5,4.84.18.21.49.41.31.74s-.46.17-.7.17H10.9c-.84,0-1.45-.38-1.47-1.26s.69-1.32,1.53-1.33c2.65,0,5.31,0,8,0A3.09,3.09,0,0,0,20.4,23.7Z"/><path class="cls-4" d="M17.25,30.77c4.77,0,9.54,0,14.31,0a1.8,1.8,0,0,1,1.71.87c1.29,2,2.57,3.93,3.87,5.89.4.61.23.83-.46.83q-2,0-3.93,0a1.18,1.18,0,0,1-1.17-.82c-.68-1.6-1.83-2.06-3.59-2-8.19.1-16.38,0-24.57,0A9.45,9.45,0,0,1,2,35.47a2.06,2.06,0,0,1-2-1.94A2.26,2.26,0,0,1,1.55,31a4.3,4.3,0,0,1,1.51-.19C7.79,30.78,12.52,30.77,17.25,30.77Z"/></g></g></g></svg>