<svg xmlns="http://www.w3.org/2000/svg" xmlns:xlink="http://www.w3.org/1999/xlink" viewBox="0 0 79.34 74.26"><defs><style>.cls-1{fill:url(#linear-gradient);}.cls-2{fill:url(#linear-gradient-2);}.cls-3{fill:url(#linear-gradient-3);}</style><linearGradient id="linear-gradient" x1="-7.41" y1="61.61" x2="76.59" y2="13.61" gradientUnits="userSpaceOnUse"><stop offset="0" stop-color="#2d9ac0"/><stop offset="1" stop-color="#6ce8ab"/></linearGradient><linearGradient id="linear-gradient-2" x1="-5.27" y1="65.34" x2="78.72" y2="17.34" xlink:href="#linear-gradient"/><linearGradient id="linear-gradient-3" x1="-6.29" y1="63.56" x2="77.7" y2="15.56" xlink:href="#linear-gradient"/></defs><title>Asset 6</title><g id="Layer_2" data-name="Layer 2"><g id="Layer_1-2" data-name="Layer 1"><path class="cls-1" d="M2.57,36.45c-.31-3.21.67-6.91,1.8-10.52.61-2,.15-3-1.37-4.14-1.12-.85-3.19-1.63-3-2.9C.28,17.3,2.52,17.51,3.94,17c6.67-2.31,13.36-4.57,20-6.9,2.84-1,3.2-.83,2.93,2.18-.74,8.25-1.59,16.49-2.35,24.74-.16,1.7-.63,1.63-1.87.71-1-.76-1.94-2.57-3.37-1.88s-1,2.61-1.14,4a19.09,19.09,0,0,0,6.29,16.77c1.4,1.28.88,2.09-.05,3.18-1.13,1.32-1.79.23-2.52-.42a23.75,23.75,0,0,1-5.15-28.4c.79-1.54,1.63-1.94,2.92-.59,1,1,1.57.9,1.72-.6.45-4.29.9-8.58,1.39-12.87.21-1.9-.49-2.23-2.22-1.63C16.73,16.68,12.84,17.82,9,19.12c-1.09.37-2.66.93-.64,2.24,1.56,1,.91,2.26.45,3.39A32.49,32.49,0,0,0,7.26,44.56C9.54,54.8,15.56,62.17,24.78,67a32.37,32.37,0,0,0,12.89,3.48c1.34.1,2.38.36,2.3,2.07s-1.37,1.75-2.59,1.65c-13.26-1.06-23.3-7.38-30-18.81A35.15,35.15,0,0,1,2.57,36.45Z"/><path class="cls-2" d="M58.36,43.25c-1.46,5-.92,9.94-1.65,14.8-.19,1.23.44,1.54,1.53,1.18l14.33-4.82c-2.23-1.61-2.72-2.88-1.79-5.38C76.55,33.63,71,17.56,57,8.72A29.41,29.41,0,0,0,42.4,4.08c-.91,0-2,.19-2.55-.84a2.54,2.54,0,0,1,0-2.49c.52-1,1.51-.74,2.32-.66,7.82.74,15,3.27,21,8.38C72.92,16.7,77.41,27.25,76.71,40a28.66,28.66,0,0,1-1.91,9.08c-.51,1.27-.49,2.09.72,2.8a7,7,0,0,1,1,.84c1.09.93,3.07,1.61,2.82,3-.19,1-2.26,1.25-3.55,1.69C68.84,59.74,61.87,62,55,64.4c-2,.7-2.74.26-2.55-1.87.76-8.33,1.48-16.67,2.22-25,0-.58,0-1.3.72-1.51s1.1.33,1.57.71c3.28,2.65,3.53,2.69,4.29-1.48,1.21-6.61-1.21-12.17-5.73-16.93-.93-1-2.28-1.79-.83-3.4.85-1,1.57-1.17,2.58-.22,4.37,4.1,7.29,9,7.71,15,.27,3.87.23,7.71-1.4,11.44C61.86,45,62,45.12,58.36,43.25Z"/><path class="cls-3" d="M44.57,43c.47-2-.66-3.08-2.8-3.46s-4.06-.77-6.06-1.25c-3.15-.76-4.49-2.45-4.6-5.68,0-1.12,0-2.25,0-3.37.1-3,1.36-4.85,4.36-5.6,1.58-.4,2.19-1.09,2.09-2.64s.29-2.47,2.14-2.45c2,0,1.94,1.32,1.87,2.63s.43,2.07,2,2.37c3.59.71,5.25,3.45,4.7,7.15-.18,1.24-.73,1.87-2,1.79a1.49,1.49,0,0,1-1.59-1.86c.35-2.88-1.34-3.37-3.65-3.21-.6,0-1.21,0-1.81,0-4.24,0-4.77.65-4.32,4.83a2.36,2.36,0,0,0,2,2.35c1.85.4,3.69.88,5.56,1.15,4,.57,5.62,2.22,5.88,6.23A20.65,20.65,0,0,1,48,46.65a3.91,3.91,0,0,1-2.72,3.47c-2.55.66-4.34,1.55-3.85,4.71.16,1.05-1,1.15-2,1.13-1.15,0-2-.71-1.81-1.75C38,51.69,37,50.87,34.6,50.4c-2.16-.44-3.37-2.28-3.46-4.62,0-1,0-2,1.3-2.12,1.07-.11,2.17-.12,2.36,1.32.21,1.72,1.32,2,2.78,1.94,1.12-.07,2.24,0,3.36,0C44.52,46.92,44.59,46.85,44.57,43Z"/></g></g></svg>