<svg id="Layer_1" data-name="Layer 1" xmlns="http://www.w3.org/2000/svg" viewBox="0 0 400 300"><defs><style>.cls-1{fill:#f8c300;}.cls-2{fill:#00a239;}.cls-3{fill:#025d9c;}.cls-4{fill:#005da2;}.cls-5{fill:#0c5a94;}</style></defs><title>Angel</title><path class="cls-1" d="M27,131.86l6.74-11.15H20.38Z"/><path class="cls-1" d="M34,143.39c2.19,3.9,4.33,7.45,6.69,11.2,2.29-3.83,4.39-7.36,6.6-11.07l-.08-.13Z"/><polygon points="33.78 120.71 33.79 120.71 33.78 120.7 33.78 120.71"/><path class="cls-2" d="M48.19,144.69l5.27,8.83a3.81,3.81,0,0,1,.6,1.33,3.86,3.86,0,0,1,1,1.33q2.69,4.45,5.35,8.92c.21.35.37.75.72.93H74.66L33.86,97.79,27,109.23c2.27,3.81,4.45,7.48,6.84,11.48h0L47.4,143.39h-.2l.08.13.06-.1C47.74,144,48,144.34,48.19,144.69Z"/><path class="cls-3" d="M247,148.67c.28.16.4.26.53.31a8.09,8.09,0,0,1,4.93,9.17c-.79,4.42-3.66,7.37-7.94,7.73-5.94.49-11.9.23-17.86.24a3.18,3.18,0,0,1-.53-.14v-32.4a1.32,1.32,0,0,1,1.05-.26h14.25a11.58,11.58,0,0,1,4.86.88A8,8,0,0,1,247.8,148Zm-14.37,3.21v8.57a77.63,77.63,0,0,0,10-.17,3.57,3.57,0,0,0,3.25-3.61c.11-2.29-.89-4-2.88-4.4-3.4-.7-6.83-.32-10.37-.39Zm0-5.62a79.47,79.47,0,0,0,9.26-.18,3.23,3.23,0,0,0,1.05-.38,3.52,3.52,0,0,0,1.75-3.74,3,3,0,0,0-2.49-2.84,47.89,47.89,0,0,0-9.35-.16c-.06,0-.11.09-.22.19Z"/><path class="cls-3" d="M165.25,145.05c.24-.84-.08-1.7.25-2.48a17.58,17.58,0,0,1,5.37-.1,1.3,1.3,0,0,1,.26,1.06c0,7.57.14,15.14-.12,22.71a17.47,17.47,0,0,1-.32,2.69,7.51,7.51,0,0,1-6.11,6.34,19.94,19.94,0,0,1-10.06-.27,6.63,6.63,0,0,1-5-5.59,3,3,0,0,1,.1-1.73c2.23.1,4.47.5,6.79.77a2.52,2.52,0,0,0,2.12,2.24,7.18,7.18,0,0,0,5-.7,2.74,2.74,0,0,0,1.13-1.65,21,21,0,0,0,.11-5.43c-.5.06-.71.51-1,.8a8.21,8.21,0,0,1-11.62,0,8.07,8.07,0,0,1-.73-.82c-2.82-3.55-3-7.67-2.54-11.92a10.83,10.83,0,0,1,2.79-6.3,8.57,8.57,0,0,1,12.1-.85,7.27,7.27,0,0,1,.79.78C164.78,144.8,164.89,145,165.25,145.05Zm-.18,8.86a10.64,10.64,0,0,0-.58-3.88,4.74,4.74,0,0,0-4.72-3.32,4.63,4.63,0,0,0-4.27,3.6,12.21,12.21,0,0,0,.08,7.23,4.38,4.38,0,0,0,3.94,3.37,4.66,4.66,0,0,0,4.63-2.63A8.5,8.5,0,0,0,165.07,153.91Z"/><path class="cls-3" d="M380.75,145c.26-.8-.09-1.7.23-2.48a17.71,17.71,0,0,1,5.39-.05c.28.32.2.71.2,1.08v21.59a20.71,20.71,0,0,1-.36,3.59,7.51,7.51,0,0,1-6.3,6.54,20.63,20.63,0,0,1-9.41-.16,6.84,6.84,0,0,1-5.46-6,1.66,1.66,0,0,1,.28-1.4c2.14.08,4.32.45,6.58.75.37,1,.75,2,2,2.2a7.75,7.75,0,0,0,5-.5,2.86,2.86,0,0,0,1.49-2.4,35.4,35.4,0,0,0,.07-4.83c-.41-.17-.49.17-.65.33-4.07,4.29-10.44,3.79-13.45-1.3a15.28,15.28,0,0,1-.34-15.47,8.62,8.62,0,0,1,11.59-3.81,8.49,8.49,0,0,1,2.6,2A.5.5,0,0,0,380.75,145ZM380.6,154a11,11,0,0,0-.81-4.4,4.62,4.62,0,0,0-4.59-2.85,4.34,4.34,0,0,0-4.08,3.21,11.47,11.47,0,0,0,.07,8,4.48,4.48,0,0,0,7.91,1.19A8.24,8.24,0,0,0,380.6,154Z"/><path class="cls-3" d="M100.45,133.34h6.86l12.54,32.51a27.34,27.34,0,0,1-7,.09l-2.73-7.21H97.61L95,166.05H88.18C92.29,155.08,96.36,144.26,100.45,133.34ZM108,153c-1.38-3.85-2.73-7.59-4.07-11.32h-.34c-1.3,3.71-2.59,7.42-3.94,11.28Z"/><path class="cls-3" d="M308.16,150.16l6.59-7.72h7.53l-7.7,8.6,8.29,15a59.47,59.47,0,0,1-6.54.09c-1.89-3.47-3.76-6.89-5.72-10.5-1.29,1.44-3,2.3-2.81,4.57.16,1.89,0,3.82,0,5.83a54.62,54.62,0,0,1-6,.12V133.42h6v16.63Z"/><path class="cls-3" d="M297.2,154.23c0,6.3-3.78,11.24-9.54,12.23s-13.12-1.51-14-10.55a13.34,13.34,0,0,1,2.51-9.83,12,12,0,0,1,12.86-3.8,11.7,11.7,0,0,1,8.16,10.48C297.23,153.25,297.2,153.74,297.2,154.23Zm-6.3,0a9.73,9.73,0,0,0-.54-3.55,5.2,5.2,0,0,0-10,.22,11.07,11.07,0,0,0-.05,6.57,5.22,5.22,0,0,0,10.15,0,9.85,9.85,0,0,0,.44-3.28Z"/><path class="cls-3" d="M196.52,156.1H181.77a5.08,5.08,0,0,0,2.92,5.44c2.41.93,3.88.17,5.66-2.9a30.36,30.36,0,0,1,5.75,1c.21.48-.07.88-.26,1.27a9.41,9.41,0,0,1-7.28,5.62c-5.07.87-9.44-1-11.69-4.93-2.38-4.17-2.29-12.61,1.5-16.63,4.21-4.48,12.2-4.16,15.84.8A16,16,0,0,1,196.52,156.1ZM181.7,152h8.88c-.13-2.05-.63-3.77-2.44-4.78a3.89,3.89,0,0,0-4.29.13A5,5,0,0,0,181.7,152Z"/><path class="cls-3" d="M144.07,166.06a51.89,51.89,0,0,1-5.85,0c-.44-.49-.3-1-.31-1.48-.07-4.63.16-9.26-.15-13.89-.17-2.5-1.26-3.84-3.18-4a4.59,4.59,0,0,0-4.91,3.47,14.05,14.05,0,0,0-.35,3.36v11a3.13,3.13,0,0,1-.22,1.54,44.22,44.22,0,0,1-5.87,0V142.44a44,44,0,0,1,5.39-.07c.53,1,0,2,.4,2.87.5-.16.71-.58,1-.88a8.81,8.81,0,0,1,8.45-2.32,6.47,6.47,0,0,1,5.38,6,31.77,31.77,0,0,1,.2,3.38v13.22Z"/><path class="cls-3" d="M359.35,166.1a45.34,45.34,0,0,1-5.71-.06,2.76,2.76,0,0,1-.21-1.55c-.06-4.37.11-8.74-.11-13.11l-.06-.78c-.19-2.3-1.29-3.68-3.08-3.87a4.55,4.55,0,0,0-4.88,3,18.44,18.44,0,0,0-.54,5.49c-.06,3.12,0,6.25,0,9.38a2.13,2.13,0,0,1-.25,1.42,50.49,50.49,0,0,1-5.77,0V142.43a32.1,32.1,0,0,1,5.37,0c.46,1,0,1.91.38,2.81.51-.1.71-.54,1-.83a8.82,8.82,0,0,1,9.72-2,6.08,6.08,0,0,1,4.13,5.59c.46,5.83.2,11.67.19,17.51A2.51,2.51,0,0,1,359.35,166.1Z"/><path class="cls-3" d="M207.53,166.05c-2,.18-3.87.07-5.9.08V133.58a18.26,18.26,0,0,1,5.9-.12Z"/><path class="cls-3" d="M257.68,142.4a43.57,43.57,0,0,1,5.36,0c.46.88.09,1.78.38,2.83,1.12-1.49,2.08-3,3.92-3.33a6.88,6.88,0,0,1,4.9,1,19,19,0,0,1-1.71,5.43c-.49.11-.84-.25-1.24-.42a3.37,3.37,0,0,0-4.55,1.43,3.29,3.29,0,0,0-.26.68,15.09,15.09,0,0,0-.7,5c-.07,3.19,0,6.39-.06,9.59a2.72,2.72,0,0,1-.23,1.46,51.19,51.19,0,0,1-5.81,0Z"/><path class="cls-3" d="M326.49,142.41a49.05,49.05,0,0,1,5.94,0V166a42.06,42.06,0,0,1-5.94,0Z"/><path class="cls-1" d="M27.06,154.63c2.3-3.87,4.43-7.45,6.66-11.18H20.36Z"/><path class="cls-1" d="M13.46,154.63c-2.26-3.8-4.37-7.29-6.46-10.85l.16-.41c4.23-.06,8.46,0,13.05,0Z"/><path class="cls-1" d="M26.91,132.16l-6.66,11.12-6.63-11.12Z"/><path class="cls-1" d="M33.62,142.91l.4.07,6.44-10.81H27.23Z"/><path class="cls-1" d="M27.36,155.18,33.86,166c2.32-3.86,4.42-7.37,6.67-11.13h-13Z"/><path class="cls-1" d="M0,154.83H13.34L6.7,165.9C4.28,162.2,2.27,158.63,0,154.83Z"/><path class="cls-1" d="M26.92,154.87l-6.6,11c-2.5-3.64-4.37-7.28-6.73-11Z"/><path class="cls-1" d="M54,154.84a5.9,5.9,0,0,0-.93-.11c-3.62,0-7.23,0-10.85.05-.38,0-.84-.11-1.2.44,2.09,3.46,4.08,7,6.51,10.72l6.5-11Z"/><path class="cls-4" d="M384.64,186.77v-6.21a1.68,1.68,0,0,1,1.74-.15v16.23a1.5,1.5,0,0,1-1.63.27l-.35-.92a13.68,13.68,0,0,1-1.35.89,4,4,0,0,1-5.14-1.47,7.06,7.06,0,0,1,.53-8.21,3.91,3.91,0,0,1,5.28-.9Zm-.13,4.63h0v-1.35a2.44,2.44,0,0,0-1.63-2.66,2.67,2.67,0,0,0-3.09,1.06,5.58,5.58,0,0,0-.51,5.68,2.46,2.46,0,0,0,3,1.47,2.82,2.82,0,0,0,2.24-2.61C384.52,192.46,384.51,191.93,384.51,191.4Z"/><path class="cls-4" d="M275.18,190.79v6a2.49,2.49,0,0,1-1.82.12,142.38,142.38,0,0,1,.31-15.32c2.25.13,4.58-.41,6.83.5a3.67,3.67,0,0,1,2.28,3.48,4.2,4.2,0,0,1-2,4.22,6.4,6.4,0,0,1-3.14.82A8.49,8.49,0,0,0,275.18,190.79Zm.2-1.81c1.88.05,3.73.36,5-1.36a2.92,2.92,0,0,0-.12-3.39c-1.34-1.53-3.1-1.09-4.89-1Z"/><path class="cls-4" d="M157.26,182.57a1.85,1.85,0,0,1-.81,1.19c-.46-.19-.93-.39-1.42-.57a3.81,3.81,0,0,0-2.66-.1,2.35,2.35,0,0,0-1.58,2.91,2.43,2.43,0,0,0,1,1.28,18.61,18.61,0,0,0,2.82,1.42,4.9,4.9,0,0,1,2.6,2.41,4.36,4.36,0,0,1-2.24,5.74l0,0a6.56,6.56,0,0,1-6.17-.71c-.15-.67.24-1,.47-1.41a4.39,4.39,0,0,1,1.62.57,3.84,3.84,0,0,0,3.18,0,2.56,2.56,0,0,0,1.16-3.42,2.51,2.51,0,0,0-.92-1,32.52,32.52,0,0,0-3.18-1.72,4.08,4.08,0,0,1,.93-7.65A6.4,6.4,0,0,1,157.26,182.57Z"/><path class="cls-4" d="M320.77,191.42c0,4.24-3,6.75-6.82,5.69a4.72,4.72,0,0,1-.53-.18c-2.61-1.07-3.82-4.84-2.58-8a5.12,5.12,0,0,1,6.57-3.07l.19.07C319.64,186.73,320.8,188.73,320.77,191.42Zm-1.89-.06a5.3,5.3,0,0,0-.53-2.51,2.89,2.89,0,0,0-2.67-1.78,3,3,0,0,0-2.78,1.8,6,6,0,0,0-.12,5,2.85,2.85,0,0,0,2.67,1.93,3,3,0,0,0,2.81-1.74,5.71,5.71,0,0,0,.62-2.72Z"/><path class="cls-4" d="M259.63,194.59c1-3.17,2.06-6,3.13-8.86a1.7,1.7,0,0,1,1.53.36c.18.35,0,.62-.09.9-1.65,4.16-3.27,8.33-4.94,12.49-.87,2.16-2.4,3.06-4.43,2.63a4.21,4.21,0,0,1-.12-.48,3.4,3.4,0,0,1,.08-.64c2.68,0,2.83-2.28,3.6-4,.16-.37-.07-.74-.2-1.09-1.05-2.82-2.1-5.63-3.15-8.46a2.77,2.77,0,0,1-.32-1.35,2.71,2.71,0,0,1,1.79-.47Z"/><path class="cls-4" d="M374.71,191.28h-7c0,1.55.13,3,1.37,3.87,1.74,1.27,3.19.14,4.56-.8a1.3,1.3,0,0,1,.94,1,5.8,5.8,0,0,1-4.42,2,4.29,4.29,0,0,1-3.77-2.65A7.18,7.18,0,0,1,367.5,187a4.53,4.53,0,0,1,5.4-.85C374.34,186.94,375.2,189.2,374.71,191.28Zm-6.65-1.49h4.73a2.2,2.2,0,0,0-1.52-2.73l-.15,0C369.73,186.77,368.37,188,368.06,189.79Z"/><path class="cls-4" d="M168.46,191.24h-6.73a3.66,3.66,0,0,0,1,3.82c1.77,1.34,3.25.31,4.64-.67a1.13,1.13,0,0,1,.92.83,4.66,4.66,0,0,1-8.09-.47,7.12,7.12,0,0,1,1.11-7.79,4.49,4.49,0,0,1,5.29-.88A4.83,4.83,0,0,1,168.46,191.24Zm-6.73-1.41a24.87,24.87,0,0,0,4.88-.11c0-1.65-.71-2.61-1.92-2.72s-2.51.94-3,2.83Z"/><path class="cls-4" d="M212.9,191.24h-6.73a3.7,3.7,0,0,0,.92,3.79c1.75,1.36,3.25.38,4.67-.63a1.2,1.2,0,0,1,.94.77c-2.1,2.85-5.94,2.81-7.67.32a7.34,7.34,0,0,1,.48-8.34,4.57,4.57,0,0,1,5.35-1.15A4.71,4.71,0,0,1,212.9,191.24Zm-1.85-1.54a2.26,2.26,0,0,0-1.73-2.68l-.14,0a2.83,2.83,0,0,0-2.9,2.75,17.72,17.72,0,0,0,4.77-.05Z"/><path class="cls-4" d="M341.13,189.83a2.19,2.19,0,0,0-.49-2.26,2,2,0,0,0-2.34-.13c-.62.26-1.19.62-1.75.91a1.1,1.1,0,0,1-.76-.83,5.3,5.3,0,0,1,5.67-1.65,2.6,2.6,0,0,1,1.43,2.62c0,1.81-.05,3.62-.05,5.42,0,.56-.09,1.15.25,1.51s.84.06,1.22.19c.6.56.21.88-.31,1.17-1.19.66-2.11.35-2.87-1-.47,0-.68.4-1,.63a3.22,3.22,0,1,1-4.34-4.76,3.11,3.11,0,0,1,.86-.56,8.52,8.52,0,0,1,3.34-1A2,2,0,0,0,341.13,189.83Zm-.13,1.51a5.77,5.77,0,0,0-3.5.94A2.06,2.06,0,0,0,337,195a1.72,1.72,0,0,0,2.38.49,1.33,1.33,0,0,0,.19-.14,4.31,4.31,0,0,0,1.4-1.18A12.67,12.67,0,0,0,341,191.34Z"/><path class="cls-4" d="M292.28,191.27h-7c-.13,1.55.07,2.91,1.22,3.81,1.73,1.35,3.25.28,4.64-.74a1.43,1.43,0,0,1,.94,1,5.62,5.62,0,0,1-4.77,1.94,4.33,4.33,0,0,1-3.66-3.28,7.18,7.18,0,0,1,.7-6.2,4.57,4.57,0,0,1,5.62-1.91C291.71,186.62,292.73,188.86,292.28,191.27Zm-6.75-1.51h4.91c0-1.65-.71-2.62-1.87-2.76C287.21,186.85,286,187.9,285.53,189.76Z"/><path class="cls-4" d="M247.21,196.76a1.7,1.7,0,0,1-1.59.14c-.31-.32-.14-.75-.31-1.09-.46-.11-.68.27-1,.47a5.14,5.14,0,0,1-2.61,1,2.69,2.69,0,0,1-3.16-2.11,2.15,2.15,0,0,1,0-.34c-.36-2.17.08-4.36,0-6.54a6.25,6.25,0,0,1,.14-2.24,1.67,1.67,0,0,1,1.62,0,51,51,0,0,1,0,5.8,10.45,10.45,0,0,0,.08,2.37,1.55,1.55,0,0,0,1.68,1.39h.08a3.27,3.27,0,0,0,3.21-3.19v-6.18a2.16,2.16,0,0,1,1.86-.3Z"/><path class="cls-4" d="M325,196.86a2.35,2.35,0,0,1-1.61,0V186.24A1.37,1.37,0,0,1,325,186c.32.34.14.77.32,1.11.49,0,.72-.36,1-.58a5,5,0,0,1,2.73-.95,2.72,2.72,0,0,1,3,2.33,12.1,12.1,0,0,1,.11,2.82v5.95a2.47,2.47,0,0,1-1.7.3c-.4-.42-.27-.85-.27-1.25,0-2,.13-4.06.12-6.1,0-1.67-.56-2.36-1.76-2.39-1.41,0-3.24,1.34-3.28,2.55-.06,1.84-.05,3.69-.08,5.53A3.2,3.2,0,0,1,325,196.86Z"/><path class="cls-4" d="M227.12,196.83a2.28,2.28,0,0,1-1.81.06V183.5c-1.47-.38-3,.08-4.43-.28a1.62,1.62,0,0,1,0-1.54H232a1.55,1.55,0,0,1,0,1.56c-1.45.31-3-.07-4.58.25C227.22,188,227.4,192.42,227.12,196.83Z"/><path class="cls-3" d="M397.36,142.18a1.53,1.53,0,0,1-1.44,0c-.55-1.51-.6-3.22-1.34-4.8V142a1,1,0,0,1-1.38.08v-8.61a3.81,3.81,0,0,1,2.14-.13c.39,1.77.78,3.51,1.17,5.26h.2c.39-1.71.78-3.42,1.15-5.12a3.09,3.09,0,0,1,2.14-.08v8.7a1.1,1.1,0,0,1-1.23,0v-5.42h-.26C398.13,138.55,397.74,140.34,397.36,142.18Z"/><path class="cls-4" d="M361,187.5h-4.79a1.31,1.31,0,0,1-.08-1.54h7.39c.68.69.29,1.22-.09,1.76l-4.58,6.43-.72,1.09c1.88.35,3.68-.06,5.37.25a1.58,1.58,0,0,1,0,1.52c-2.49.1-5,.06-7.43,0a1.29,1.29,0,0,1-.58-1.17l5.61-8Z"/><path class="cls-4" d="M182.53,194.74c1.18-3.15,2.26-6,3.31-8.84a2.58,2.58,0,0,1,1.85.42l-4.21,10.51a2.9,2.9,0,0,1-1.93,0c-1.3-3.46-2.62-7-3.94-10.52a3.34,3.34,0,0,1,1.88-.58Z"/><path class="cls-4" d="M308.4,186.62a1.43,1.43,0,0,1-.67,1,5.91,5.91,0,0,0-2.38-.5,1.72,1.72,0,0,0-1.66,1.14c-.25.81.24,1.31.83,1.68s1.38.76,2.08,1.13a3,3,0,0,1,1.87,3.38,3.14,3.14,0,0,1-2.85,2.77,5.61,5.61,0,0,1-3.95-.86c-.08-.61.27-.89.55-1.22a15.39,15.39,0,0,0,2.11.6,1.88,1.88,0,0,0,2.25-1.09c.4-1-.37-1.6-1.12-2.07s-1.59-.86-2.34-1.37a2.93,2.93,0,0,1,.17-5A4.68,4.68,0,0,1,308.4,186.62Z"/><path class="cls-4" d="M201.58,194.43a1.54,1.54,0,0,1,.91.89,4.41,4.41,0,0,1-6.11,1.25c-.12-.08-.24-.16-.35-.25-2.81-2.4-2.59-7.72.42-9.88a4.25,4.25,0,0,1,6,.77l.12.17c-.09.51-.47.7-1,.84l-.52-.4a2.68,2.68,0,0,0-3.79.14l-.21.26a5.65,5.65,0,0,0-.34,6.16,2.73,2.73,0,0,0,3.76.92,1.9,1.9,0,0,0,.37-.26Z"/><path class="cls-3" d="M332.51,139.13a50,50,0,0,1-6,0,40.6,40.6,0,0,1-.08-5.73,44.5,44.5,0,0,1,6-.07A56.08,56.08,0,0,1,332.51,139.13Z"/><path class="cls-4" d="M250.79,180.52a2.14,2.14,0,0,1,1.85,0c0,5.43-.1,10.89-.27,16.32a1.9,1.9,0,0,1-1.58.06Z"/><path class="cls-4" d="M346.64,180.54a1.87,1.87,0,0,1,1.69-.16c.24.91.07,14.94-.18,16.4a1.56,1.56,0,0,1-1.51.1Z"/><path class="cls-4" d="M232.7,196.84a2,2,0,0,1-1.72,0c-.15-3.57.15-7.18.13-10.73a1.61,1.61,0,0,1,1.6-.11c.37.42.07.94.41,1.41.56-.44.89-1.12,1.54-1.42a2.09,2.09,0,0,1,2-.14,2.14,2.14,0,0,1-.38,1.45c-.6.24-1.33.11-1.89.58a3.44,3.44,0,0,0-1.48,2.77c0,1.66,0,3.32-.06,5A2.68,2.68,0,0,1,232.7,196.84Z"/><path class="cls-4" d="M297.11,187.43c1.82-1.8,2.3-2,3.58-1.51a2,2,0,0,1-.4,1.44,3.34,3.34,0,0,0-2.52,1.15,3.23,3.23,0,0,0-.82,2.16c0,1.65,0,3.31-.06,5a2.11,2.11,0,0,1-.23,1.23,1.72,1.72,0,0,1-1.56,0V186.16a1.7,1.7,0,0,1,1.56-.19C297.13,186.34,296.79,186.93,297.11,187.43Z"/><path class="cls-4" d="M173.17,196.71a2.44,2.44,0,0,1-1.87.22V186.12a2,2,0,0,1,1.63-.07c.3.44.06,1,.26,1.62,1-1.17,1.94-2.4,3.69-1.85a2.44,2.44,0,0,1-.3,1.47c-.66.27-1.4.12-2,.59a3.41,3.41,0,0,0-1.47,2.67C173.18,192.65,173.17,194.74,173.17,196.71Z"/><path class="cls-4" d="M191.48,186v10.81a2.63,2.63,0,0,1-1.77.11V186.14A2,2,0,0,1,191.48,186Z"/><path class="cls-4" d="M353.24,196.79a2.08,2.08,0,0,1-1.69.12V186.14a2.12,2.12,0,0,1,1.9-.1C353.61,189.63,353.26,193.23,353.24,196.79Z"/><path class="cls-3" d="M388.64,135.05l-1.9-.21a1.28,1.28,0,0,1,0-1.43,33.87,33.87,0,0,1,5.33,0,1.21,1.21,0,0,1,.15,1.28c-.52.49-1.25.08-2,.49v6.89a1.34,1.34,0,0,1-1.56.09Z"/><path class="cls-5" d="M191.65,183.34a3.07,3.07,0,0,1-1.75.07,3.49,3.49,0,0,1-.11-1.84,3.59,3.59,0,0,1,1.66-.13C192,182.06,191.66,182.7,191.65,183.34Z"/><path class="cls-5" d="M351.74,183.5a3.68,3.68,0,0,1-.07-1.92,2.19,2.19,0,0,1,1.61-.08,2.73,2.73,0,0,1,.18,1.76C352.9,183.68,352.34,183.47,351.74,183.5Z"/></svg>