<svg id="Layer_1" data-name="Layer 1" xmlns="http://www.w3.org/2000/svg" viewBox="0 0 400 300"><defs><style>.cls-1{fill:#59b347;}.cls-2{fill:#2757a7;}.cls-3{fill:#3c71b8;}.cls-4{fill:#2454a4;}.cls-5{fill:#f9d705;}</style></defs><title>Aviva</title><path class="cls-1" d="M282.76,11.05c.18,1.72.5,3.43.51,5.15q0,63.35,0,126.69c0,1.47-.19,3-.41,6.12H250.54c-3.29-34.71-6.37-69.43-10-104.1-1-9.61-.84-19.4-3.46-28.82l-.42-2.32a2.12,2.12,0,0,0,.1-1.22c.12-.5.23-1,.34-1.5Z"/><path class="cls-2" d="M2.39,287.47q13.45-30.57,26.88-61.16c1.11-2.52,2.86-4.89,2.62-7.82-.5-3.28-4.57-2.84-6.25-6H59.39l28.91,75c-6,.7-12.22-1.43-18.08,1.33H67.61c-1-7.54-5-14-7.22-20.78h-34L16.9,287.55Zm54-29.6-12-30.38L30.74,257.87Z"/><path class="cls-2" d="M119.77,288.79c-3.15-12.62-9.23-24.14-13.64-36.29-2.89-7.93-6.27-15.67-9.4-23.51-2.52-6.31-3.63-13.64-11.73-16.41h28.05c7.13,17.84,14.4,36.07,22.38,56.06,8.33-19.79,16-38.12,23.76-56.44H174c-10.85,25.47-21.45,50.38-32,75.28-6.49.75-13.2-1.57-19.55,1.31Z"/><path class="cls-2" d="M192.79,288.79v-69c-1.36-3.93-5.27-4.15-8.17-7.24h27.21c.17.2.64.52.65.85.44,25.13.75,50.25-.13,75.38Z"/><path class="cls-3" d="M237.12,11.05c-.11.5-.22,1-.34,1.5l-120.6-.13-.32-1.37Z"/><path class="cls-3" d="M282.58,287.45l.18,1.34H260.59c.09-.45.17-.9.25-1.35Z"/><path class="cls-3" d="M122.38,288.79c6.35-2.88,13.06-.56,19.55-1.31v1.31Z"/><path class="cls-3" d="M379.25,288.79v-1.31l19.64,0c0,.43-.05.86-.08,1.29Z"/><path class="cls-3" d="M70.22,288.79c5.86-2.76,12.07-.63,18.08-1.33l.18,1.33Z"/><path class="cls-3" d="M328,287.43l.37,1.36H312.75c-.11-1.15-.13-2.27,1-3C318.19,289.2,323.29,286.74,328,287.43Z"/><path class="cls-3" d="M16.9,287.55a3.48,3.48,0,0,1-.14,1.24c-5.19-.75-10.63,1.52-15.65-1.31H2.39Z"/><path class="cls-4" d="M116.18,12.42l120.6.13a2.12,2.12,0,0,1-.1,1.22,3.18,3.18,0,0,0-.46,3.33c0,.86.06,1.73,0,2.59Q230,85.44,223.74,151.17c-23.8,3.56-47.58,7.13-70.81,13.71-12.11,3.44-23.82,8-35.7,12l-1.1-1.57V146.65c2.35-11.78.55-23.67.93-35.5.13-4.22,1.15-8.63-.94-12.73V94.49c2.37-10.9.61-21.93.92-32.9.13-4.64,1.26-9.49-.93-14Z"/><path class="cls-2" d="M328,287.43c-4.74-.69-9.84,1.77-14.26-1.64l29.07-66.14c-1-4.56-4.92-3.86-5.95-7.14H370c3.58,9.14,7.44,18.72,11.1,28.38,5.91,15.54,12.77,30.72,17.76,46.61l-19.64,0-8.42-19.63H337.21C334.2,274.27,331.12,280.85,328,287.43Zm39.14-29.61-11.92-30.33-13.68,30.33Z"/><path class="cls-2" d="M282.58,287.45H260.84q-11.88-29.51-23.73-59c-2.46-6.17-4.06-12.89-11.53-15.83h28c7.2,18,14.53,36.39,22.4,56.07,8.24-19.64,16-38.1,23.72-56.5h14.76Z"/><path class="cls-5" d="M223.74,151.17Q230,85.43,236.2,19.69c.08-.86,0-1.73,0-2.59.29-.34.58-.68.88-1,2.62,9.42,2.46,19.21,3.46,28.82,3.61,34.67,6.69,69.39,10,104.1Z"/><path class="cls-3" d="M116.12,98.42c2.09,4.1,1.07,8.51.94,12.73-.38,11.83,1.42,23.72-.93,35.5Z"/><path class="cls-3" d="M116.11,47.56c2.19,4.54,1.06,9.39.93,14-.31,11,1.45,22-.92,32.9Q116.1,71,116.11,47.56Z"/><path class="cls-3" d="M116.13,175.33l1.1,1.57-1,.24Z"/><path class="cls-3" d="M237.1,16.09c-.3.33-.59.67-.88,1a3.18,3.18,0,0,1,.46-3.33Z"/></svg>