<svg id="Layer_1" data-name="Layer 1" xmlns="http://www.w3.org/2000/svg" viewBox="0 0 400 300"><defs><style>.cls-1{fill:#e11c23;}.cls-2{fill:#f05223;}.cls-3{fill:#b01d21;}.cls-4{fill:#f89b1c;}.cls-5{fill:#f6881f;}.cls-6{fill:#fcb315;}.cls-7{fill:#feba12;}.cls-8{fill:#ffd800;}.cls-9{fill:#58585a;}</style></defs><title>fincare</title><path class="cls-1" d="M63.47,91.4A9.37,9.37,0,0,1,61,94a42.63,42.63,0,0,0-13.76,28,41.47,41.47,0,0,0,1.89,16.89,5.2,5.2,0,0,1-.19,4c-1.31,2.69-3.25,5-4.37,7.91a20.87,20.87,0,0,1-6.14-3.27c-10.78-7.77-16.75-18.2-17.85-31.55-.52-6.26,2.36-10.42,6.93-13.86,6.65-5,14.31-7.67,22.34-9.46,2.43-.55,4.92-.72,7.36-1.16Z"/><path class="cls-2" d="M.5,143.13a68,68,0,0,1,5.91-17.64,54.58,54.58,0,0,1,10.09-15,9.75,9.75,0,0,1,1-.93.75.75,0,0,1,.41-.09c.47.32.32.76.29,1.15-.87,11.78,2.92,22.05,10.11,31.2a33,33,0,0,0,11.8,9.45A6.19,6.19,0,0,1,44,156.63a21.23,21.23,0,0,0,2.26,7.59,24.66,24.66,0,0,1-5.81,1.88,40.94,40.94,0,0,1-27.81-3.66A38.1,38.1,0,0,1,4,156.35a13.37,13.37,0,0,1-3.5-6.66Z"/><path class="cls-3" d="M399.5,133.78c-1.52,6.25-6.49,7.64-11.89,8.49-4.9.78-9.84.59-14.77.61h-2.27a8.29,8.29,0,0,0,2.44,5.23,12,12,0,0,0,7.58,3.63c5.72.61,11.19-.08,16-3.64a1,1,0,0,1,.86-.25c1.61,2.78,0,8.67-2.94,10.91A13.86,13.86,0,0,1,389,161.2c-8.43,1.8-16.31,1-23.12-4.92A21.9,21.9,0,0,1,358.43,143a27.52,27.52,0,0,1,3.71-19.61c3.93-6.23,9.75-9.43,17.09-9.89A19.07,19.07,0,0,1,395,119.38a18.19,18.19,0,0,1,4.5,9.42Zm-28.95.39a2.49,2.49,0,0,0,.71.14c2.75,0,5.5.06,8.24-.09a22.76,22.76,0,0,0,6.14-.81,3.37,3.37,0,0,0,2.47-1.94,5.82,5.82,0,0,0-2.69-6.84,10.82,10.82,0,0,0-8-1C373,124.87,369.63,130,370.55,134.17Z"/><path class="cls-4" d="M47.26,208.6a69.44,69.44,0,0,1-11.48-2.72A44.73,44.73,0,0,1,26.06,201a2.63,2.63,0,0,1-1.3-1.27,5.12,5.12,0,0,1,2.41-.77A40.5,40.5,0,0,0,46,190.16a39.43,39.43,0,0,0,11-13.58,5.46,5.46,0,0,1,3.78-3.44c2.93-.58,6-.77,8.43-2.26a1.46,1.46,0,0,1,.86,1c3,9.34,3.22,18.69-.45,27.89a12.72,12.72,0,0,1-11.44,8.53,3.27,3.27,0,0,0-1.51.3Z"/><path class="cls-3" d="M99.19,107.58a3.27,3.27,0,0,1-.75.37c-6.54.94-11.7,4.59-16.75,8.46-6.42,4.94-11.4,11.17-15.77,17.89-1.77,2.72-3.94,4.44-7.28,4.61-2.09.11-4,1.09-5.9,1.89a4.25,4.25,0,0,1-1.2-2.36A41,41,0,0,1,52,111.58a40.41,40.41,0,0,1,9.68-15.07A12.89,12.89,0,0,1,73.58,93a44,44,0,0,1,24.19,12.23A3.86,3.86,0,0,1,99.19,107.58Z"/><path class="cls-3" d="M306.63,131.91c.5-4.51-1.54-7.37-5.88-8-5.82-.85-11.39-.15-16.39,3.25-.68.46-1.29,1-1.95,1.53-.06.05-.19,0-.53,0-.46-3.35-.28-6.55,1.89-9.38a14.59,14.59,0,0,1,8.82-5.15,26.72,26.72,0,0,1,11.12-.21c8.21,1.64,12.85,6.27,14.29,14.79a71,71,0,0,1,.29,18.48c-.7,7.41-5.15,12.11-12.36,13.88a25.87,25.87,0,0,1-18.62-2,13.62,13.62,0,0,1-6.09-18.26c.06-.13.13-.27.2-.39,2.3-4.14,6.27-5.91,10.6-7a50.11,50.11,0,0,1,12.51-1.26A3.31,3.31,0,0,0,306.63,131.91Zm.12,9.11c-3.94,0-7.71-.39-11.39.81A4.43,4.43,0,0,0,292,146a4.78,4.78,0,0,0,2.87,5.06,10.92,10.92,0,0,0,7.14.75,5.37,5.37,0,0,0,4.71-5.05c.17-1.76,0-3.59,0-5.76Z"/><path class="cls-3" d="M227,160.88a15.82,15.82,0,0,1-6.24-.42,7.44,7.44,0,0,1-5.21-7.18V134.12a14.6,14.6,0,0,0-.72-4.6c-1.2-3.67-4.31-5.71-8.42-5.59a7.72,7.72,0,0,0-7.57,6,17.79,17.79,0,0,0-.62,4.77v24a4.25,4.25,0,0,1-.21,2c-5.08,1-8.62-.31-10.53-3.37a8.46,8.46,0,0,1-1.14-4.63c0-6.95-.28-13.91.17-20.86.61-9.29,6.44-16.15,15.58-17.92,6.32-1.23,12.44-.58,17.8,3.43,5.07,3.79,7.37,9.12,7.53,15.24.23,8.92.07,17.86.07,26.79A2,2,0,0,1,227,160.88Z"/><path class="cls-5" d="M56,172a15.47,15.47,0,0,1-2.25,5c-6.42,10.73-15.85,17.2-28.06,19.59-3.55.69-6.49-1.08-8.75-3.53-8.43-9.14-14.64-19.47-15.88-32.2-.09-1-.19-2-.26-2.94A3,3,0,0,1,1,157.2a11.88,11.88,0,0,1,2.82,2.21c6.69,5.92,14.58,9,23.38,10a41.32,41.32,0,0,0,17.49-1.86,4.82,4.82,0,0,1,5.06.94A19.93,19.93,0,0,0,56,172Z"/><path class="cls-3" d="M273.66,129.89c-3.51-4.19-8-5-12.63-5-8.13-.1-13.8,6.89-12.38,14.92.87,4.9,3.08,8.87,8,10.32,5.65,1.65,11.09.92,15.84-2.92.2-.16.41-.31.62-.46h.37c.65.85.29,1.87.35,2.81.5,7.64-3.74,10.84-10.12,12a23.59,23.59,0,0,1-26.19-14.71c-4.9-12.84,2-30,18.9-32.46a24.33,24.33,0,0,1,8.34,0c5.73,1.16,9.14,5.2,9.12,11A17,17,0,0,1,273.66,129.89Z"/><path class="cls-3" d="M153.46,109.6c-1.6-.3-3-.58-4.32-.8a15.13,15.13,0,0,0-5.41,0c-3.06.62-4.67,2.17-5.22,5.18a25.1,25.1,0,0,0-.07,6H151.1c1.53,5.38-1.76,9.85-7.13,10.05-1.76.08-3.52,0-5.59,0V160.6c-5.59,1-9.7.27-11.51-4a7.49,7.49,0,0,1-.52-2.88c0-12.89-.19-25.77.06-38.64.24-12.08,10.74-18.76,21.43-16.49a6.8,6.8,0,0,1,5.6,6A19.1,19.1,0,0,1,153.46,109.6Z"/><path class="cls-3" d="M354.12,125.94c-2-.21-3.69-1-5.5-1.2-7.66-.89-9.41,3.8-9.48,8.67-.13,8.35,0,16.7-.05,25.07a4.72,4.72,0,0,1-.2,2.14c-6.72,1.46-11.88-1.23-11.79-7.79.09-6.85-.06-13.71,0-20.56.08-5.33,1.28-10.36,5.46-14.09,4.87-4.34,10.61-5.2,16.71-3.33a6.84,6.84,0,0,1,4.8,5.82A17.24,17.24,0,0,1,354.12,125.94Z"/><path class="cls-6" d="M70.14,204.5c.49-1.13,1-2.24,1.47-3.37A41.85,41.85,0,0,0,73,173.38c-.75-2.6-.66-4.83,1.07-7a24.34,24.34,0,0,0,3.25-5.75A16.13,16.13,0,0,1,82.44,163a36.06,36.06,0,0,1,9.75,8.15c3.11,3.7,3.46,7.92,1.37,12.23a41.65,41.65,0,0,1-10.1,13.12,43.78,43.78,0,0,1-10.61,7.28c-.79.37-1.61.68-2.41,1Z"/><path class="cls-3" d="M159.64,115.69c5.77-2,11.06,1.48,11.46,7.47.48,7,.09,14,.21,21v2.5c.08,3,1.5,4.5,4.56,4.83,1.42.14,2.89-.22,4.35.35a11.7,11.7,0,0,1-.52,6.31c-1.06,2.62-3.44,3.28-5.88,3.31-8.23.1-14.17-3.8-14.39-13.13-.25-10.39-.06-20.77,0-31.16A2.37,2.37,0,0,1,159.64,115.69Z"/><path class="cls-7" d="M76.33,148.36a34.47,34.47,0,0,1,9.13-2.45,37.07,37.07,0,0,1,6.05-.32c3.19,0,4.88,1.22,5.93,4.25a33.54,33.54,0,0,1,1.18,6.1A44.22,44.22,0,0,1,97.8,172a1.53,1.53,0,0,1-.52,1,5.59,5.59,0,0,1-1.61-1.74A42.35,42.35,0,0,0,80.56,159,4,4,0,0,1,78,156,24.73,24.73,0,0,0,76.33,148.36Z"/><path class="cls-8" d="M94.91,142.92a2.91,2.91,0,0,1-1.88.21,43.2,43.2,0,0,0-14.17,1.61,6,6,0,0,1-6-1.22,22.5,22.5,0,0,0-6.77-4.08,25.72,25.72,0,0,1,3.8-6.83A30.25,30.25,0,0,1,76.05,126a4.66,4.66,0,0,1,5.8-.11,41.84,41.84,0,0,1,13,16.45A1.94,1.94,0,0,1,94.91,142.92Z"/><path class="cls-9" d="M330.08,203v-20.8c.17-.14.25-.25.33-.25a57.45,57.45,0,0,1,11.8.11,5,5,0,0,1,4.31,3.8,4.92,4.92,0,0,1-1.67,5.32,3.87,3.87,0,0,0-.43.47,16.31,16.31,0,0,1,2.2,1.78c2.49,3.18.73,8.42-3.26,9.19C339.06,203.44,334.68,203,330.08,203Zm4.45-3.94a27.4,27.4,0,0,0,6.71-.22A2.13,2.13,0,0,0,343,196.6a2.16,2.16,0,0,0-1.75-2.43,23.5,23.5,0,0,0-6.7-.06,22.32,22.32,0,0,0,0,5Zm.07-9a21.42,21.42,0,0,0,6.24-.28,1.75,1.75,0,0,0,1.31-1.88c0-1-.23-1.83-1.27-2a19.45,19.45,0,0,0-6.37-.08,16.87,16.87,0,0,0,.09,4.26Z"/><path class="cls-9" d="M167.6,202.77a7.35,7.35,0,0,1-4,0c-.58-3.86.36-7.78-.56-11.47-2.12-1.21-4-.31-4.14,1.94-.14,2.43-.07,4.87-.1,7.31a4.13,4.13,0,0,1-.34,2.2,7,7,0,0,1-3.68.1,2.4,2.4,0,0,1-.4-1.86v-7.78c0-1.22-.23-2.47-1.85-2.61a2.62,2.62,0,0,0-2.69,2.29c-.49,2.21-.18,4.45-.27,6.67a10.87,10.87,0,0,1-.23,3.22,8.45,8.45,0,0,1-4,0v-15a5,5,0,0,1,3.56-.23c.53.25.22.89.68,1.28a7.1,7.1,0,0,1,4.34-1.73,5.42,5.42,0,0,1,4.25,2.2c1.73-1.7,3.67-2.62,6.08-2,1.81.47,3.25,1.58,3.34,3.46C167.73,194.77,167.6,198.71,167.6,202.77Z"/><path class="cls-9" d="M125.45,196a13.18,13.18,0,0,1,3.7-.41A3.07,3.07,0,0,1,130,197c1.08,2.58,5.22,3.36,7.14,1.34a1.93,1.93,0,0,0-.68-3.36,25.15,25.15,0,0,0-3.27-1,15.43,15.43,0,0,1-4.63-1.78,5.5,5.5,0,0,1,.26-9.61,10.08,10.08,0,0,1,10,0,5.44,5.44,0,0,1,2.9,5.22,19.6,19.6,0,0,1-4.18.39c-.86-2.69-2.78-3.42-5.36-2.81-.89.22-1.76.54-1.83,1.62s.75,1.45,1.55,1.7c1.68.53,3.39.94,5.08,1.45,4.69,1.43,6.7,5.35,4.79,9.33a3.33,3.33,0,0,1-.46.8c-2.84,3.4-6.59,3.32-10.43,2.63a7,7,0,0,1-5.55-5.83A1.39,1.39,0,0,1,125.45,196Z"/><path class="cls-9" d="M389.06,182c.4,3.31,0,6.61.28,10.17,1.07-1.16,2-2.08,2.8-3a5.25,5.25,0,0,1,6.38-1.28l-4.9,5.45c1.78,3.08,3.55,6.14,5.39,9.34-1.61.62-3,.33-4.47.3l-3.66-6.33a2.53,2.53,0,0,0-1.68,2.74,7.81,7.81,0,0,1-.26,3.43,9.63,9.63,0,0,1-4,.12v-20.8A6.6,6.6,0,0,1,389.06,182Z"/><path class="cls-9" d="M212,181.88h14.14c.63,1.17.34,2.28.25,3.56-3.21.41-6.37,0-9.61.25a11.75,11.75,0,0,0-.14,4.3c2.79.45,5.55-.05,8.23.31a5.65,5.65,0,0,1,.19,3.54c-2.77.44-5.52,0-8.5.32v8.56a11.67,11.67,0,0,1-4.56.21Z"/><path class="cls-9" d="M184.77,202.74a8.59,8.59,0,0,1-3.67.2c-.58-.25-.65-.78-1-1.17a4.62,4.62,0,0,0-.67.33,6.65,6.65,0,0,1-5.34,1,4.41,4.41,0,0,1-3.71-4.22,4.5,4.5,0,0,1,3.46-4.61c1.44-.42,2.93-.69,4.39-1a2.51,2.51,0,0,0,1.3-.57A1.28,1.28,0,0,0,179,191a1.36,1.36,0,0,0-.28-.11c-1.46-.66-2.62-.27-4.18,1.41a7.22,7.22,0,0,1-3.43-.61,4.36,4.36,0,0,1,3.24-4,10.79,10.79,0,0,1,6.74,0,4,4,0,0,1,2.85,3.37,27.28,27.28,0,0,1,.2,3.72C184.15,197.39,183.77,200.05,184.77,202.74Zm-5.33-6.82c-1.58.49-3.29.37-4.5,1.6-.27,1.08-.1,1.89.85,2.33a2.53,2.53,0,0,0,2.89-.41C179.77,198.53,179.89,197.38,179.44,195.92Z"/><path class="cls-9" d="M263.7,192.64a1.44,1.44,0,0,0-1-1.81l-.19-.05a3.08,3.08,0,0,0-3.93,1.6,8.68,8.68,0,0,1-3.58-.75,4.43,4.43,0,0,1,2.84-3.78,10.1,10.1,0,0,1,7.6,0,3.94,3.94,0,0,1,2.56,4c.07,2.89-.27,5.81.26,8.7.13.69.29,1.39.44,2.16-1.27.56-2.5.19-3.4.25-.89-.23-.75-1-1.35-1.23a6.89,6.89,0,0,1-6.11,1.3,4.35,4.35,0,0,1-3.39-4.13,4.16,4.16,0,0,1,3.1-4.49c1.43-.47,2.92-.75,4.37-1.11A3.44,3.44,0,0,0,263.7,192.64Zm-.15,3.26c-1.2.3-2.3.55-3.39.86a1.49,1.49,0,0,0-1.22,1.72.85.85,0,0,0,0,.17,1.69,1.69,0,0,0,1.76,1.45c2.17.12,3.43-1.61,2.81-4.19Z"/><path class="cls-9" d="M359.09,192.66a1.34,1.34,0,0,0-.74-1.75l-.2-.07c-1.48-.62-2.62-.23-4.1,1.48a7.44,7.44,0,0,1-3.6-.67,4.26,4.26,0,0,1,2.18-3.42,9.53,9.53,0,0,1,8.68-.21,3.6,3.6,0,0,1,2.13,3.5c.09,2.95-.31,5.91.24,8.85.14.75.33,1.49.51,2.32-1.22.62-2.45.28-3.7.28l-.9-1c-.38-.14-.63.08-.89.24a6.38,6.38,0,0,1-5.2.89,4.38,4.38,0,0,1-3.61-4.28,4.5,4.5,0,0,1,3.4-4.48c1.39-.42,2.82-.69,4.23-1A2.86,2.86,0,0,0,359.09,192.66Zm0,3.39a13,13,0,0,0-3.22.62c-1.05.23-1.68.87-1.43,2a1.79,1.79,0,0,0,2.1,1.41c1.91-.09,2.89-1.56,2.51-4Z"/><path class="cls-9" d="M285.68,202.74a9,9,0,0,1-3.87.18,2.42,2.42,0,0,1-.47-1.91v-7.63c0-1.4-.45-2.49-2-2.74a2.8,2.8,0,0,0-3.11,2.43,48.62,48.62,0,0,0-.18,6.38c-.05,1.11.27,2.28-.33,3.39a9.07,9.07,0,0,1-3.88,0V187.71a6.28,6.28,0,0,1,3.41-.17c.63.34.41.94.73,1.32a2.32,2.32,0,0,0,.44-.16,6.91,6.91,0,0,1,3.54-1.49c2.79-.37,5.47,1.33,5.65,4.08C285.87,195.05,285.68,198.85,285.68,202.74Z"/><path class="cls-9" d="M309,196.63c.13,1.53.6,2.67,1.95,3.09a2.69,2.69,0,0,0,3.5-1.5,1.18,1.18,0,0,0,.07-.2,10.67,10.67,0,0,1,4,.61,4.24,4.24,0,0,1-1.41,2.78c-2.57,2.74-9.22,2.77-11.53-1.42-2.21-4-1.06-9.72,2.57-11.89a7.38,7.38,0,0,1,7.92.49,7.61,7.61,0,0,1,2.46,7.79C315.45,196.74,312.29,196.32,309,196.63Zm.19-2.91h5.25c-.1-2-1.09-3.12-2.63-3.09S309.26,191.8,309.19,193.72Z"/><path class="cls-9" d="M371.5,202.77a8.43,8.43,0,0,1-4.29,0V187.83a5.25,5.25,0,0,1,3.58-.22c.52.24.25.86.65,1.27a3.23,3.23,0,0,0,.49-.25,6.39,6.39,0,0,1,5.41-1.28c2,.45,3.38,1.55,3.62,3.57.48,3.91.18,7.84.16,11.84a8.21,8.21,0,0,1-4,.12,2.67,2.67,0,0,1-.4-1.92V193a2.07,2.07,0,0,0-1.75-2.34h-.05a2.68,2.68,0,0,0-3,1.5,5.68,5.68,0,0,0-.45,2.58C371.5,197.41,371.5,200,371.5,202.77Z"/><path class="cls-9" d="M242.11,202.75a8.86,8.86,0,0,1-4.28.06v-15a5.42,5.42,0,0,1,3.28-.24c.75.3.56,1,1,1.42,1.82-1.31,3.71-2.19,6-1.58,2,.53,3.41,1.72,3.61,3.8a111.45,111.45,0,0,1,.11,11.56,8.52,8.52,0,0,1-3.92.2,2.52,2.52,0,0,1-.46-1.92v-7.78a2.29,2.29,0,0,0-1.94-2.57h-.06a2.92,2.92,0,0,0-3,2,7.86,7.86,0,0,0-.24,2.77C242.1,197.8,242.11,200.22,242.11,202.75Z"/><path class="cls-3" d="M165.24,111.44a6.91,6.91,0,0,1-7-6.82h0a7.15,7.15,0,0,1,6.8-7,7,7,0,0,1,7,6.84,6.73,6.73,0,0,1-6.47,7Z"/><path class="cls-9" d="M302.72,192.16a10.21,10.21,0,0,1-3.7.78c-.69-.67-.86-1.72-1.9-2a2.88,2.88,0,0,0-3.7,1.7c0,.1-.07.2-.1.3a7.64,7.64,0,0,0,0,4.29,3,3,0,0,0,2.63,2.5c1.39.18,2.21-.66,2.75-1.84.11-.23.23-.46.37-.72,1.38-.34,2.63.2,4.1.4a6.18,6.18,0,0,1-3.46,5c-5.78,2.74-11.64-1.37-11.15-7.75.43-5.56,4.11-8.42,9.54-7.42A5.48,5.48,0,0,1,302.72,192.16Z"/><path class="cls-9" d="M195.79,182.08a6.53,6.53,0,0,1,4.1,0v20.68a8.14,8.14,0,0,1-4.1.06Z"/><path class="cls-9" d="M191.79,202.77a8.83,8.83,0,0,1-3.86.14c-.54-1.47-.54-19.39-.05-20.83a6,6,0,0,1,3.91,0Z"/><path class="cls-9" d="M229.73,187.74a6.76,6.76,0,0,1,4.15-.05v15.08a7.7,7.7,0,0,1-4.15,0Z"/><path class="cls-9" d="M229.71,185.6a8.64,8.64,0,0,1,.09-3.58,8.09,8.09,0,0,1,3.88-.11c.6,1.25.31,2.44.2,3.74A8.08,8.08,0,0,1,229.71,185.6Z"/></svg>