<svg id="Layer_1" data-name="Layer 1" xmlns="http://www.w3.org/2000/svg" viewBox="0 0 400 300"><defs><style>.cls-1{fill:#232b66;}.cls-2{fill:#912623;}.cls-3{fill:#d9261c;}.cls-4{fill:#f09c11;}</style></defs><title>GMR Airport</title><g id="g11"><g id="g2664"><g id="g2614"><path id="path61" class="cls-1" d="M60.08,209.56c0-1.44-1.1-2.1-3.08-2.1a15.82,15.82,0,0,0-1.84.07v4.52h1.67c2.48,0,3.25-.64,3.25-2.24Zm4.24,12.19h-3.6c-.26,0-.35-.23-.47-.47l-3.16-6H55.16v6a.47.47,0,0,1-.47.47H51.63a.47.47,0,0,1-.47-.47h0v-15.8c0-.8.33-1,1.06-1.13a38.22,38.22,0,0,1,4.78-.3c4,0,7.09,1.34,7.09,5.51v.3a4.74,4.74,0,0,1-3,4.71l3.55,6.64a.59.59,0,0,1,.07.26c0,.16-.09.28-.35.28"/><path id="path63" class="cls-1" d="M73.6,207.74c0-.23-.1-.35-.31-.35s-.28.12-.33.35l-1.44,6.5H75Zm6.71,14H77a.5.5,0,0,1-.47-.42l-.85-3.86H70.87L70,221.33a.52.52,0,0,1-.47.42h-3.3a.38.38,0,0,1-.4-.34v-.15l3.51-14.6c.54-2.26,2.29-2.61,3.91-2.61s3.34.35,3.89,2.61l3.5,14.6v.12a.37.37,0,0,1-.37.37h0"/><path id="path65" class="cls-1" d="M82.5,226a12.76,12.76,0,0,1-1.51-.1.39.39,0,0,1-.35-.4v-2.4c0-.17.09-.33.26-.33h1.17c.54,0,.61-.26.61-.85V204.71a.46.46,0,0,1,.47-.45h3.09a.45.45,0,0,1,.47.43v17.2c0,3.21-1.84,4.08-4.21,4.08"/><path id="path67" class="cls-1" d="M93.47,221.75H90.31a.43.43,0,0,1-.42-.44v-16.6a.41.41,0,0,1,.37-.45h3.21a.44.44,0,0,1,.45.43v16.59a.45.45,0,0,1-.43.47h0"/><path id="path69" class="cls-1" d="M110.91,204.75l-3.5,14.6c-.55,2.26-2.27,2.61-3.89,2.61s-3.37-.35-3.91-2.61l-3.51-14.6v-.11a.4.4,0,0,1,.42-.38H99.8a.51.51,0,0,1,.47.42l2.94,13.59c0,.26.12.35.33.35s.28-.09.33-.35l2.94-13.59a.48.48,0,0,1,.45-.42h3.3a.37.37,0,0,1,.4.34v.15"/><path id="path71" class="cls-1" d="M129.52,207.74h-.07c-1.13,0-2.9-.19-4.9-.19s-3.08.92-3.08,4v2.94c0,3.25,1.48,4,2.64,4a14.89,14.89,0,0,0,1.81-.07V213a.45.45,0,0,1,.43-.47h3a.47.47,0,0,1,.47.47h0v7.91c0,.33-.12.47-.47.54a25.85,25.85,0,0,1-5.27.49c-2.69,0-6.71-1.53-6.71-7.48v-2.92c0-6,3.74-7.51,7.15-7.51a22,22,0,0,1,4.92.54.36.36,0,0,1,.4.35v2.5c0,.26-.14.3-.35.3"/><path id="path73" class="cls-1" d="M139.48,207.74c0-.23-.1-.35-.31-.35s-.28.12-.33.35l-1.43,6.5h3.5Zm6.71,14h-3.3a.52.52,0,0,1-.47-.42l-.85-3.86h-4.82l-.85,3.86a.52.52,0,0,1-.47.42h-3.29a.38.38,0,0,1-.41-.33v-.16l3.51-14.6c.54-2.26,2.28-2.61,3.9-2.61s3.35.35,3.89,2.61l3.51,14.6v.12a.37.37,0,0,1-.37.37h0"/><path id="path75" class="cls-1" d="M161.52,221.75h-2.31A1.23,1.23,0,0,1,158,221l-5.36-9.27c-.1-.15-.14-.19-.22-.19s-.11,0-.11.19v9.53a.48.48,0,0,1-.47.47H149a.47.47,0,0,1-.47-.47h0V205.15a.89.89,0,0,1,.89-.89h2.38c.47,0,.71.23,1,.73l5.58,9.7c.09.14.12.19.19.19s.11,0,.11-.22v-9.95a.45.45,0,0,1,.45-.45H162a.45.45,0,0,1,.47.43v16.17a.92.92,0,0,1-.91.89"/><path id="path77" class="cls-1" d="M174.79,211.49c0-3.18-1.36-4-3.48-4h-1.67v11c.33,0,1.08,0,1.67,0,2.12,0,3.48-.85,3.48-4ZM171.31,222a36.43,36.43,0,0,1-5-.35.72.72,0,0,1-.7-.72.31.31,0,0,1,0-.1V205.22a.7.7,0,0,1,.59-.81h.1a36.43,36.43,0,0,1,5-.35c4.69,0,7.51,2.47,7.51,7.44v3c0,5-2.82,7.44-7.51,7.44"/><path id="path79" class="cls-1" d="M195,221.75h-3.09a.47.47,0,0,1-.47-.47h0v-6.8h-5.81v6.8a.47.47,0,0,1-.47.47H182a.47.47,0,0,1-.47-.47h0V204.71a.45.45,0,0,1,.45-.45h3.11a.45.45,0,0,1,.47.43V211h5.81v-6.26a.45.45,0,0,1,.45-.45H195a.45.45,0,0,1,.47.43v16.59a.47.47,0,0,1-.47.47h0"/><path id="path81" class="cls-1" d="M202.18,221.75H199a.43.43,0,0,1-.42-.44v-16.6a.41.41,0,0,1,.37-.45h3.21a.43.43,0,0,1,.44.42v16.6a.45.45,0,0,1-.43.47h0"/><path id="path83" class="cls-1" d="M54.74,248.94H51.58a.44.44,0,0,1-.42-.46h0V231.9a.41.41,0,0,1,.37-.45h3.21a.44.44,0,0,1,.45.43v16.59a.45.45,0,0,1-.43.47h0"/><path id="path85" class="cls-1" d="M71.31,248.94H69a1.23,1.23,0,0,1-1.23-.73l-5.37-9.27c-.09-.14-.14-.19-.21-.19s-.12.05-.12.19v9.53a.47.47,0,0,1-.47.47H58.83a.48.48,0,0,1-.47-.47V232.35a.9.9,0,0,1,.9-.9h2.38c.47,0,.7.24,1,.73l5.58,9.7c.09.14.11.19.18.19s.12,0,.12-.21v-10a.45.45,0,0,1,.45-.45h2.8a.45.45,0,0,1,.47.43V248a.91.91,0,0,1-.92.89"/><path id="path87" class="cls-1" d="M86.26,234.77H82.45v13.7a.47.47,0,0,1-.47.47H78.89a.48.48,0,0,1-.47-.47v-13.7H74.59a.47.47,0,0,1-.48-.44h0V231.9a.46.46,0,0,1,.47-.45H86.26a.49.49,0,0,1,.5.45v2.42a.49.49,0,0,1-.5.45"/><path id="path89" class="cls-1" d="M98.39,248.85a27.93,27.93,0,0,1-4.57.31c-3,0-5.72-.78-5.72-5.07v-7.81c0-4.29,2.71-5,5.74-5a26.71,26.71,0,0,1,4.55.31.41.41,0,0,1,.47.47v2.18a.48.48,0,0,1-.47.48H93.61c-1.11,0-1.51.37-1.51,1.6v2.14h6.1a.47.47,0,0,1,.47.47h0v2.24a.47.47,0,0,1-.47.47H92.1v2.49c0,1.23.4,1.61,1.51,1.61h4.78a.47.47,0,0,1,.47.47h0v2.19c0,.3-.14.44-.47.49"/><path id="path91" class="cls-1" d="M110.86,236.75c0-1.44-1.1-2.1-3.08-2.1a15.82,15.82,0,0,0-1.84.07v4.52h1.68c2.47,0,3.24-.63,3.24-2.23Zm4.24,12.19h-3.6c-.26,0-.35-.23-.47-.47l-3.16-5.95h-1.93v6a.47.47,0,0,1-.47.47h-3.06a.47.47,0,0,1-.47-.47h0V232.68c0-.8.33-1,1.06-1.13a36.31,36.31,0,0,1,4.78-.31c4,0,7.09,1.34,7.09,5.51v.31a4.75,4.75,0,0,1-3,4.7l3.56,6.64a.77.77,0,0,1,.07.26c0,.17-.1.28-.36.28"/><path id="path93" class="cls-1" d="M130.55,248.94h-2.31a1.2,1.2,0,0,1-1.22-.73l-5.37-9.27c-.1-.14-.14-.19-.21-.19s-.12.05-.12.19v9.53a.47.47,0,0,1-.47.47h-2.78a.47.47,0,0,1-.47-.47h0V232.35a.89.89,0,0,1,.88-.9h2.39c.47,0,.71.24,1,.73l5.58,9.7c.09.14.12.19.19.19s.12,0,.12-.21v-10a.45.45,0,0,1,.45-.45H131a.46.46,0,0,1,.48.44h0V248a.92.92,0,0,1-.92.89"/><path id="path95" class="cls-1" d="M140.72,234.94c-.05-.24-.1-.36-.31-.36s-.28.12-.33.36l-1.43,6.49h3.5Zm6.71,14h-3.3a.5.5,0,0,1-.47-.42l-.85-3.86H138l-.85,3.86a.5.5,0,0,1-.47.42h-3.3a.38.38,0,0,1-.4-.34v-.15l3.5-14.6c.55-2.26,2.29-2.61,3.91-2.61s3.35.35,3.89,2.61l3.5,14.6v.12a.37.37,0,0,1-.37.37h0"/><path id="path97" class="cls-1" d="M159.25,234.77h-3.82v13.7a.47.47,0,0,1-.47.47h-3.08a.47.47,0,0,1-.47-.47h0v-13.7h-3.84a.45.45,0,0,1-.47-.43V231.9a.45.45,0,0,1,.45-.45h11.7a.47.47,0,0,1,.49.45h0v2.42a.47.47,0,0,1-.49.45h0"/><path id="path99" class="cls-1" d="M165.2,248.94h-3.15a.44.44,0,0,1-.43-.45V231.9a.42.42,0,0,1,.39-.45h3.19a.44.44,0,0,1,.45.43v16.59a.45.45,0,0,1-.43.47h0"/><path id="path101" class="cls-1" d="M178.43,238.8c0-2.83-.94-4-2.92-4s-2.89,1.2-2.89,4v2.8c0,2.82.92,4,2.89,4s2.92-1.2,2.92-4Zm-2.92,10.36c-3.88,0-7-2.1-7-7.56v-2.8c0-5.47,3.08-7.56,7-7.56s7,2.09,7,7.56v2.8c0,5.46-3.08,7.56-7,7.56"/><path id="path103" class="cls-1" d="M198.45,248.94h-2.31a1.23,1.23,0,0,1-1.23-.73l-5.36-9.27c-.1-.14-.15-.19-.22-.19s-.11.05-.11.19v9.53a.48.48,0,0,1-.48.47H186a.47.47,0,0,1-.47-.47h0V232.35a.89.89,0,0,1,.88-.9h2.39c.47,0,.71.24,1,.73l5.58,9.7c.09.14.12.19.19.19s.12,0,.12-.21v-10a.45.45,0,0,1,.45-.45h2.79a.45.45,0,0,1,.47.43V248a.92.92,0,0,1-.91.89"/><path id="path105" class="cls-1" d="M208.62,234.94c-.05-.24-.1-.36-.31-.36s-.28.12-.33.36l-1.44,6.49h3.51Zm6.71,14H212a.49.49,0,0,1-.47-.42l-.85-3.86h-4.82l-.85,3.86a.5.5,0,0,1-.47.42h-3.3a.36.36,0,0,1-.4-.32v-.17l3.51-14.6c.54-2.26,2.29-2.61,3.91-2.61s3.34.35,3.89,2.61l3.5,14.6v.12a.36.36,0,0,1-.35.37h0"/><path id="path107" class="cls-1" d="M226.81,248.85a25.91,25.91,0,0,1-3.83.31c-3,0-5.75-.78-5.75-5.07V231.92a.48.48,0,0,1,.47-.47h3.09a.47.47,0,0,1,.47.47h0v12.17c0,1.23.4,1.61,1.51,1.61h4a.48.48,0,0,1,.48.47v2.19c0,.3-.14.42-.48.49"/><path id="path109" class="cls-1" d="M241.06,234.94c-.05-.24-.1-.36-.31-.36s-.28.12-.33.36L239,241.43h3.51Zm6.71,14h-3.3a.49.49,0,0,1-.47-.42l-.85-3.86h-4.83l-.84,3.86a.5.5,0,0,1-.47.42h-3.3a.38.38,0,0,1-.4-.34v-.15l3.5-14.6c.54-2.26,2.29-2.61,3.91-2.61s3.35.35,3.89,2.61l3.51,14.6v.12a.37.37,0,0,1-.37.37h0"/><path id="path111" class="cls-1" d="M253.72,248.94h-3.15a.44.44,0,0,1-.43-.45V231.9a.42.42,0,0,1,.39-.45h3.19a.44.44,0,0,1,.45.43v16.59a.45.45,0,0,1-.43.47h0"/><path id="path113" class="cls-1" d="M266.27,236.75c0-1.44-1.1-2.1-3.08-2.1a15.82,15.82,0,0,0-1.84.07v4.52H263c2.48,0,3.25-.63,3.25-2.23Zm4.24,12.19h-3.6c-.26,0-.35-.23-.47-.47l-3.16-5.95h-1.93v6a.47.47,0,0,1-.47.47h-3.06a.47.47,0,0,1-.47-.47h0V232.68c0-.8.33-1,1.06-1.13a36.31,36.31,0,0,1,4.78-.31c4,0,7.09,1.34,7.09,5.51v.31a4.75,4.75,0,0,1-3,4.7l3.55,6.64a.59.59,0,0,1,.07.26c0,.17-.09.28-.35.28"/><path id="path115" class="cls-1" d="M281.67,236.91c0-1.67-1-2.33-3-2.33a17,17,0,0,0-1.91.07v4.81h1.91c2.09,0,3-.77,3-2.37Zm-3,5.91a17.6,17.6,0,0,1-1.91-.07v5.72a.47.47,0,0,1-.47.47h-3a.45.45,0,0,1-.47-.41V232.68c0-.8.33-1,1.06-1.13a33.18,33.18,0,0,1,4.78-.31c3.55,0,7.06,1.25,7.06,5.67v.22c0,4.4-3.51,5.69-7,5.69"/><path id="path117" class="cls-1" d="M297.47,238.8c0-2.83-1-4-2.92-4s-2.9,1.2-2.9,4v2.8c0,2.82.92,4,2.9,4s2.92-1.2,2.92-4Zm-2.92,10.36c-3.89,0-7-2.1-7-7.56v-2.8c0-5.47,3.08-7.56,7-7.56s7,2.09,7,7.56v2.8c0,5.46-3.09,7.56-7,7.56"/><path id="path119" class="cls-1" d="M312.75,236.75c0-1.44-1.11-2.1-3.09-2.1a15.56,15.56,0,0,0-1.83.07v4.52h1.67c2.47,0,3.25-.63,3.25-2.23ZM317,248.94h-3.6c-.26,0-.35-.23-.47-.47l-3.15-5.95h-1.93v6a.48.48,0,0,1-.48.47h-3.06a.48.48,0,0,1-.47-.47V232.68c0-.8.33-1,1.06-1.13a36.31,36.31,0,0,1,4.78-.31c4,0,7.09,1.34,7.09,5.51v.31a4.75,4.75,0,0,1-3,4.7l3.56,6.64a.77.77,0,0,1,.07.26c0,.17-.1.28-.36.28"/><path id="path121" class="cls-1" d="M329.86,234.77h-3.81v13.7a.48.48,0,0,1-.47.47H322.5a.48.48,0,0,1-.48-.46h0v-13.7h-3.84a.47.47,0,0,1-.47-.45h0V231.9a.46.46,0,0,1,.47-.45h11.68a.49.49,0,0,1,.5.45v2.42a.49.49,0,0,1-.5.45"/></g><g id="g2647"><path id="path49" class="cls-2" d="M84.82,95.61,51.1,118V95.61L68,84.42Z"/><path id="path51" class="cls-3" d="M84.83,73.23l16.86,11.19L84.82,95.61,68,84.42Z"/><path id="path53" class="cls-4" d="M84.82,73.22h0L68,84.42,51.1,73.22V50.84Z"/><path id="path55" class="cls-2" d="M17.37,95.6,51.1,73.22V95.59l-16.88,11.2Z"/><path id="path57" class="cls-3" d="M17.36,118,.5,106.79,17.37,95.6l16.85,11.19Z"/><path id="path59" class="cls-4" d="M17.37,118h0l16.86-11.19L51.1,118v22.38Z"/><path id="path123" class="cls-4" d="M85.32,192.17H77.43A1.23,1.23,0,0,1,76.22,191V173.6H61.35V191a1.23,1.23,0,0,1-1.21,1.21H52.25a1.22,1.22,0,0,1-1.2-1.21V148.6a1.14,1.14,0,0,1,1.16-1.14h7.93a1.16,1.16,0,0,1,1.21,1.11v16H76.22v-16a1.16,1.16,0,0,1,1.18-1.14h7.92a1.15,1.15,0,0,1,1.2,1.1V191a1.22,1.22,0,0,1-1.2,1.21"/><path id="path125" class="cls-4" d="M126.87,148.74l-9.09,20.84c-1.21,2.77-2.47,4-3.92,4.64V191a1.22,1.22,0,0,1-1.2,1.21h-7.89a1.23,1.23,0,0,1-1.21-1.21V174.22c-1.44-.6-2.77-1.87-4-4.64l-9.1-20.84a1,1,0,0,1-.06-.42.92.92,0,0,1,.92-.91h8.75a1.33,1.33,0,0,1,1.2,1l6.51,17c.3.78.48.9.9.9s.61-.12.91-.9l6.5-17a1.34,1.34,0,0,1,1.21-1H126a.89.89,0,0,1,1,.79.41.41,0,0,1,0,.11,1,1,0,0,1-.06.42"/><path id="path127" class="cls-4" d="M154.39,165.91c0-8.13-3.49-10.3-8.91-10.3-1.51,0-3.43.06-4.28.12v28.12c.85.06,2.77.12,4.28.12,5.42,0,8.91-2.16,8.91-10.29Zm-8.91,26.8a88.88,88.88,0,0,1-12.83-.91,1.82,1.82,0,0,1-1.77-1.87,1.79,1.79,0,0,1,0-.23V149.89a1.82,1.82,0,0,1,1.51-2.09l.24,0a88.87,88.87,0,0,1,12.83-.9c12,0,19.21,6.32,19.21,19v7.77c0,12.7-7.23,19-19.21,19"/><path id="path129" class="cls-4" d="M197.81,191.93a71.35,71.35,0,0,1-11.68.78c-7.77,0-14.63-2-14.63-13v-20c0-11,6.92-12.88,14.69-12.88a70.63,70.63,0,0,1,11.62.78c.85.12,1.21.42,1.21,1.2v5.61a1.22,1.22,0,0,1-1.21,1.2H185.59c-2.83,0-3.86,1-3.86,4.09v5.49h15.6a1.21,1.21,0,0,1,1.21,1.2v5.72a1.23,1.23,0,0,1-1.21,1.21h-15.6v6.38c0,3.13,1,4.09,3.86,4.09h12.22A1.21,1.21,0,0,1,199,185h0v5.6c0,.78-.36,1.14-1.21,1.27"/><path id="path131" class="cls-4" d="M229.13,161c0-3.68-2.83-5.36-7.89-5.36-.84,0-4,.12-4.7.18v11.56c.67.06,3.62.12,4.28.12,6.32,0,8.31-1.62,8.31-5.72ZM240,192.17h-9.21c-.67,0-.91-.61-1.21-1.21l-8.07-15.24-.66.06c-1.27,0-3.13-.12-4.28-.12V191a1.22,1.22,0,0,1-1.2,1.21h-7.83a1.23,1.23,0,0,1-1.24-1.2h0V150.55c0-2.05.85-2.59,2.71-2.89a96.21,96.21,0,0,1,12.23-.78c10.24,0,18.13,3.43,18.13,14.09v.78c0,6.39-3.37,10.3-7.77,12.05l9.09,17a1.51,1.51,0,0,1,.18.66c0,.42-.24.73-.9.73"/><path id="path133" class="cls-4" d="M263.7,156.33c-.12-.6-.24-.9-.78-.9s-.73.3-.85.9L258.4,173h9Zm17.16,35.84h-8.43a1.29,1.29,0,0,1-1.2-1.09l-2.17-9.88H256.71l-2.17,9.88a1.29,1.29,0,0,1-1.2,1.09h-8.43a1,1,0,0,1-1-1,1.59,1.59,0,0,0,.06-.3l9-37.34c1.38-5.78,5.84-6.68,10-6.68s8.55.9,9.93,6.68l9,37.34a1.59,1.59,0,0,0,.06.3,1,1,0,0,1-1,1"/><path id="path135" class="cls-4" d="M310.25,178.31c0-2.89-1.57-5.36-6.38-5.36h-6.75v11.27c1,0,4.09.06,4.94.06,6.2,0,8.19-1.93,8.19-5.3ZM310,160.13c0-3.32-2.11-4.82-8.31-4.82-1,0-3.74,0-4.58.06v10.42h6.75c4.75,0,6.14-2.17,6.14-4.76Zm-8.73,32.58a74.92,74.92,0,0,1-11-.73c-2.41-.42-3.32-1.2-3.32-3.91V151.45c0-2.71.85-3.55,3.2-3.91a92.56,92.56,0,0,1,10.78-.66c11.38,0,19,3,19,12.58v1.09a9.52,9.52,0,0,1-5.06,8.85,9.61,9.61,0,0,1,5.36,8.91v.91c0,10.6-8.56,13.49-19,13.49"/><path id="path137" class="cls-4" d="M342.47,156.33c-.12-.6-.24-.9-.78-.9s-.73.3-.85.9L337.17,173h9Zm17.16,35.84H351.2a1.29,1.29,0,0,1-1.2-1.09l-2.17-9.88H335.48l-2.17,9.88a1.28,1.28,0,0,1-1.2,1.09h-8.43a1,1,0,0,1-1-1c0-.1.05-.2.07-.3l9-37.34c1.38-5.78,5.84-6.68,10-6.68s8.55.9,9.93,6.68l9,37.34a1.59,1.59,0,0,0,.06.3,1,1,0,0,1-1,1"/><path id="path139" class="cls-4" d="M389.2,165.91c0-8.13-3.49-10.3-8.91-10.3-1.51,0-3.43.06-4.28.12v28.12c.85.06,2.77.12,4.28.12,5.42,0,8.91-2.16,8.91-10.29Zm-8.91,26.8a88.88,88.88,0,0,1-12.83-.91,1.82,1.82,0,0,1-1.77-1.87,1.79,1.79,0,0,1,0-.23V149.89a1.82,1.82,0,0,1,1.51-2.09l.24,0a88.87,88.87,0,0,1,12.83-.9c12,0,19.21,6.32,19.21,19v7.77c0,12.7-7.23,19-19.21,19"/></g></g></g></svg>