<svg id="Layer_1" data-name="Layer 1" xmlns="http://www.w3.org/2000/svg" viewBox="0 0 400 300"><defs><style>.cls-1{fill:#ec3237;}.cls-2{fill:#373435;}.cls-3{fill:#fef8bb;}.cls-4{fill:#fab22e;}.cls-5{fill:#fefad5;}.cls-6{fill:#fef7b1;}.cls-7{fill:#383536;}.cls-8{fill:#fef9c6;}.cls-9{fill:#fde019;}.cls-10{fill:#fab62c;}.cls-11{fill:#fddc1b;}.cls-12{fill:#fbc525;}.cls-13{fill:#feea15;}.cls-14{fill:#fde119;}.cls-15{fill:#feef12;}.cls-16{fill:#fef7a9;}.cls-17{fill:#fefad0;}.cls-18{fill:#fbc127;}.cls-19{fill:#fef118;}.cls-20{fill:#fef122;}.cls-21{fill:#fef11d;}.cls-22{fill:#fef227;}.cls-23{fill:#fef231;}.cls-24{fill:#fef22c;}.cls-25{fill:#fab32d;}.cls-26{fill:#fefaca;}.cls-27{fill:#fef236;}.cls-28{fill:#fef23b;}.cls-29{fill:#fde616;}.cls-30{fill:#fef240;}.cls-31{fill:#fef245;}.cls-32{fill:#fef592;}.cls-33{fill:#fcd81d;}.cls-34{fill:#fef354;}.cls-35{fill:#fbbb2a;}.cls-36{fill:#fef24a;}.cls-37{fill:#fcca23;}.cls-38{fill:#fef34f;}.cls-39{fill:#fcd31f;}.cls-40{fill:#fccf21;}.cls-41{fill:#fab92b;}.cls-42{fill:#fcd020;}.cls-43{fill:#fef58f;}.cls-44{fill:#fef69a;}.cls-45{fill:#fef6a0;}.cls-46{fill:#fef012;}.cls-47{fill:#fef69d;}.cls-48{fill:#fef7a6;}.cls-49{fill:#fef597;}.cls-50{fill:#fef6a3;}.cls-51{fill:#fcd51e;}.cls-52{fill:#fde417;}.cls-53{fill:#fef47e;}.cls-54{fill:#fef113;}.cls-55{fill:#fef478;}.cls-56{fill:#fef36f;}.cls-57{fill:#fef474;}.cls-58{fill:#fce616;}.cls-59{fill:#fccd22;}.cls-60{fill:#393637;}.cls-61{fill:#fef8b6;}.cls-62{fill:#fef7b0;}.cls-63{fill:#fef364;}.cls-64{fill:#fbbd29;}.cls-65{fill:#fef595;}.cls-66{fill:#fef596;}.cls-67{fill:#fef482;}.cls-68{fill:#feee13;}.cls-69{fill:#fef7aa;}.cls-70{fill:#fef359;}.cls-71{fill:#fef360;}.cls-72{fill:#fbc128;}.cls-73{fill:#fef488;}.cls-74{fill:#fef485;}.cls-75{fill:#feed15;}.cls-76{fill:#fef35c;}.cls-77{fill:#fbc326;}.cls-78{fill:#fbbc2a;}.cls-79{fill:#fab72b;}.cls-80{fill:#fef114;}.cls-81{fill:#fefacd;}.cls-82{fill:#fde617;}.cls-83{fill:#fef9ca;}.cls-84{fill:#fef9c4;}.cls-85{fill:#fef9c1;}.cls-86{fill:#fde816;}.cls-87{fill:#fef9c7;}.cls-88{fill:#fbc625;}.cls-89{fill:#fef9bf;}.cls-90{fill:#fcd021;}.cls-91{fill:#fef22d;}.cls-92{fill:#ecc123;}.cls-93{fill:#fbd51d;}.cls-94{fill:#fcd41e;}.cls-95{fill:#fef123;}.cls-96{fill:#fdf01e;}.cls-97{fill:#fbbe28;}.cls-98{fill:#fefefe;}.cls-99{fill:#fcd420;}.cls-100{fill:#fbc226;}.cls-101{fill:#fbbe29;}.cls-102{fill:#fef479;}.cls-103{fill:#fef473;}.cls-104{fill:#fef36a;}.cls-105{fill:#fef365;}.cls-106{fill:#fdf245;}.cls-107{fill:#fdf258;}.cls-108{fill:#faf05e;}.cls-109{fill:#f8ee6b;}.cls-110{fill:#fefbdc;}.cls-111{fill:#fccb23;}.cls-112{fill:#fbc725;}.cls-113{fill:#fef58c;}.cls-114{fill:#fdf259;}.cls-115{fill:#fdf01d;}.cls-116{fill:#fef489;}.cls-117{fill:#fef486;}.cls-118{fill:#fefce7;}.cls-119{fill:#fefcea;}.cls-120{fill:#fefced;}.cls-121{fill:#fdf122;}.cls-122{fill:#fdf47d;}.cls-123{fill:#fdf23b;}.cls-124{fill:#fef235;}.cls-125{fill:#fdf22c;}.cls-126{fill:#fdf145;}.cls-127{fill:#fdf24f;}.cls-128{fill:#fdf354;}.cls-129{fill:#fdf25e;}.cls-130{fill:#fdf48f;}.cls-131{fill:#fdf26a;}.cls-132{fill:#fdf26f;}.cls-133{fill:#fdf264;}.cls-134{fill:#fdf265;}.cls-135{fill:#fef47d;}.cls-136{fill:#fdf260;}.cls-137{fill:#fdf35c;}.cls-138{fill:#fdf6a7;}.cls-139{fill:#fdf59c;}.cls-140{fill:#fdf6ad;}.cls-141{fill:#fcf158;}.cls-142{fill:#fbef49;}.cls-143{fill:#fbf4a0;}.cls-144{fill:#fdf7b9;}.cls-145{fill:#fdf8bf;}.cls-146{fill:#fcf154;}.cls-147{fill:#fcf14f;}.cls-148{fill:#eee9bb;}.cls-149{fill:#f7f1af;}.cls-150{fill:#fbf15c;}.cls-151{fill:#f5ea67;}.cls-152{fill:#f7ed67;}.cls-153{fill:#fefcf0;}.cls-154{fill:#fefdf3;}.cls-155{fill:#fefdf8;}.cls-156{fill:#fefdfa;}</style></defs><title>Motilal</title><path class="cls-1" d="M340.89,195.89l-1.36-.06c-.49-.22-1,0-1.54-.18l-1.37-.06c-.49-.23-1,0-1.53-.18l-1.38-.06c-.57-.25-1.19,0-1.76-.19H330.8c-.56-.26-1.19,0-1.75-.19l-1.36-.06c-.49-.22-1,0-1.54-.18l-1.37-.06c-.49-.22-1,0-1.53-.18l-1.39-.06c-.48-.23-1,0-1.51-.18l-1.4-.06c-.56-.25-1.18,0-1.75-.18l-1.35-.07c-.5-.22-1,0-1.55-.17l-1.36-.07c-.5-.22-1,0-1.54-.17l-1.37-.07c-.49-.22-1,0-1.53-.17l-1.39-.07c-.56-.25-1.19,0-1.75-.18L304.2,193c-.56-.25-1.18,0-1.75-.18l-1.35-.07c-.5-.21-1,0-1.55-.17l-1.37-.07c-.49-.22-1,0-1.53-.17l-1.38-.07c-.57-.24-1.19,0-1.76-.18l-1.15-.06c-.56-.25-1.18,0-1.75-.18l-1.35-.06c-.5-.22-1.05,0-1.55-.18l-1.37-.06c-.49-.22-1,0-1.53-.18l-1.38-.06c-.49-.23-1,0-1.52-.18l-1.4-.06c-.56-.26-1.18,0-1.75-.19l-1.35-.06c-.5-.22-1,0-1.55-.18l-1.36-.06c-.49-.22-1,0-1.54-.18l-1.37-.06c-.49-.23-1,0-1.53-.18l-1.38-.06c-.57-.25-1.19,0-1.76-.19h-1.16c-.56-.26-1.18,0-1.74-.19l-1.36-.06c-.5-.22-1,0-1.55-.17l-1.36-.07c-.5-.22-1,0-1.54-.17l-1.38-.07c-.48-.23-1,0-1.52-.17l-1.36-.17c-.56-.25-1.18,0-1.75-.18l-1.35-.07c-.5-.21-1,0-1.55-.17l-1.36-.07c-.5-.22-1,0-1.54-.17l-1.38-.07c-.49-.22-1,0-1.52-.17l-1.39-.07c-.57-.25-1.19,0-1.76-.18l-1.35-.06c-.5-.22-1.05,0-1.55-.18l-1.36-.06c-.49-.23-1,0-1.54-.18l-1.37-.06c-.49-.23-1,0-1.53-.18l-1.38-.06c-.57-.25-1.19,0-1.76-.19l-1.15,0c-.57-.26-1.19,0-1.75-.19l-1.36-.06c-.49-.22-1,0-1.54-.18l-1.37-.06c-.49-.23-1,0-1.54-.18l-1.37-.06c-.49-.23-1,0-1.53-.18l-1.39-.06c-.56-.25-1.18,0-1.75-.19l-1.35-.06c-.5-.22-1,0-1.55-.18l-1.36-.06c-.5-.22-1,0-1.54-.18l-.92-.08a.24.24,0,0,1,.16-.3h191c.44,0,1.07-.38,1.35.36l-8.45,13.31a6.44,6.44,0,0,1-1.19,1.64c-.49-.23-1,0-1.53-.18l-1.38-.06c-.49-.23-1,0-1.52-.18l-1.39-.06c-.57-.25-1.19,0-1.76-.19l-1.35-.06c-.5-.22-1.05,0-1.55-.18H378c-.49-.22-1,0-1.54-.18l-1.37-.06c-.49-.23-1,0-1.53-.17l-1.38-.07c-.57-.25-1.19,0-1.76-.18l-1.15-.06c-.57-.25-1.19,0-1.75-.18l-1.36-.07c-.5-.22-1,0-1.54-.17l-1.38-.07c-.49-.22-1,0-1.52-.17l-1.39-.07c-.57-.25-1.19,0-1.76-.18l-1.15-.06c-.56-.25-1.18,0-1.75-.18l-1.35-.06c-.5-.22-1,0-1.55-.18l-1.36-.07c-.5-.22-1,0-1.54-.17l-1.38-.07c-.49-.22-1,0-1.52-.17l-1.39-.07c-.57-.25-1.19,0-1.76-.18l-1.34-.06C342,195.85,341.4,196.08,340.89,195.89Z"/><path class="cls-2" d="M66.44,172.62c.44,0,.89,0,1.33,0H398.88A5.53,5.53,0,0,1,399,175H63.14a19,19,0,0,1-4.19.22H25.52a1.65,1.65,0,0,1-1-.2,2,2,0,0,1,0-2.4,2,2,0,0,1,1.08-.24H37.31c.86,0,1.72.06,2.58,0h3.24c.8,0,1.61.06,2.42,0,1.21,0,2.41.09,3.62,0,2.57,0,5.13.1,7.69,0H65A2,2,0,0,1,66.44,172.62Z"/><path class="cls-2" d="M335.08,141.25c0,.66-.67.58-1,.61-1,.09-1.25.71-1.27,1.54a4.37,4.37,0,0,0,.29,1.64q2.68,7.68,5.36,15.35a2.63,2.63,0,0,0,.38.56l5.91-16.47a2.49,2.49,0,0,0,0-1.43c-.39-1.19-1.56-1-2.42-1.36-.26-.44,0-.58.38-.58h6.44c.38,0,.65.14.39.58-2.16.39-3.18,1.91-3.87,3.8Q342,155.75,338.19,166a1.53,1.53,0,0,1-.19.3c-.68.13-.77-.38-.92-.81q-2.83-8.07-5.68-16.13c-.14-.39-.51-.68-.39-1.14-.64,0-.65.42-.76.72q-3,8.25-6.05,16.52c-.14.38-.12.91-.89.92-.53-1.34-1.12-2.75-1.63-4.19q-2.54-7.08-5-14.16a28.41,28.41,0,0,0-1.71-4.16,4,4,0,0,0-2.23-2c-.26-.13-.68,0-.68-.51s.44-.3.71-.3h7.31c.33,0,1-.27.76.59-.74.13-1.58,0-1.92,1a2.54,2.54,0,0,0,0,1.72,49.23,49.23,0,0,0,2.07,6.29c1,3.16,2.17,6.29,3.27,9.42a5.62,5.62,0,0,0,.43.89c.87-2.36,1.69-4.57,2.5-6.79s1.67-4.61,2.49-6.91a4.4,4.4,0,0,0-2-5,2.29,2.29,0,0,0-1.41-.39l-.06-.67A58.37,58.37,0,0,1,335.08,141.25Z"/><path class="cls-2" d="M129.84,139.56v5.85c-.39,0-.47-.11-.51-.33-.36-2-1.75-2.75-3.53-2.87s-3.37,0-5.08,0c-.28.34-.15.76-.15,1.14v17a13.1,13.1,0,0,0,.12,2.17,2.74,2.74,0,0,0,2.5,2.66,3.43,3.43,0,0,1,.52.23v.46c-3.22-.1-6.42-.12-9.6,0-.13-.66.23-.65.55-.69a2.59,2.59,0,0,0,2.32-2.27,6.72,6.72,0,0,0,.2-1.19V142.1c-2.06.07-4.09-.2-6.1.27a3.07,3.07,0,0,0-2.56,2.56c0,.25-.07.48-.55.49v-5.86c.1,0,.3-.06.32,0,.78,1.46,2.16,1.5,3.54,1.5h13.53c1.58,0,3.27.17,4.19-1.71Z"/><path class="cls-2" d="M306.59,160.55a7.55,7.55,0,0,1-6.32,5.85,6.59,6.59,0,0,1-2.17,0,12,12,0,0,1-3.35-.78,1.54,1.54,0,0,0-1.26,0c-.53,0-.43.9-1.08.79v-6.76c.75,0,.54.51.61.86a5.76,5.76,0,0,0,6.47,5,5.38,5.38,0,0,0,1.31-.34,4.45,4.45,0,0,0,3-5.54,4.53,4.53,0,0,0-1.79-2.46c-2-1.58-4.24-2.69-6.22-4.22-1.58-1.21-3-2.6-3.32-4.72a9.8,9.8,0,0,1,0-2.65c.61-3.93,4.37-5.53,7.8-5,.78.13,1.52.44,2.3.58s1.36.43,1.81-.4c.13-.28.3-.47.82-.24v5.42c-.47.31-.67.13-.82-.22-.65-2.34-2-3.94-4.54-4.31a2.35,2.35,0,0,0-1.39,0,3.53,3.53,0,0,0-3.56,2.27,4.57,4.57,0,0,0,1.1,5c1.24,1.38,3,2.11,4.5,3.08,2.11,1.33,4.43,2.44,5.44,5,.25.62.44,1.27.65,1.91A5,5,0,0,1,306.59,160.55Z"/><path class="cls-2" d="M382.25,144.54c-.15-1.85-1.42-2.52-3-2.86-.09-.77.49-.57.88-.57h7.93a3,3,0,0,0,1.3-.1l.13.57c-2.56.42-3.26,1-3.42,2.74-.22.39,0,.86-.18,1.26v16.89a2,2,0,0,0,1.75,2.23,2.67,2.67,0,0,0,.4,0c1.72.07,3.46.1,5.18,0a5.16,5.16,0,0,0,4.92-3.41c.09-.21,0-.73.72-.66,0,1.78-.77,3.42-1.11,5.22-6.24-.11-12.42-.09-18.71-.17,1.61-.66,3-1.43,3.23-3.35a2.81,2.81,0,0,0,.1-1.19V145.72A2.64,2.64,0,0,0,382.25,144.54Z"/><path class="cls-2" d="M215.15,162.81a1.71,1.71,0,0,0,1.76,1.85,24.34,24.34,0,0,0,6.15,0,4.73,4.73,0,0,0,4.23-3.59c.08-.31.28-.35.66-.41,0,1.8-.79,3.39-1,5.24-6.25-.12-12.49-.1-18.71,0-.06-.8.43-.65.73-.68a2.57,2.57,0,0,0,2.38-2.2,7.72,7.72,0,0,0,.23-1.66V145.55c-.09-2.52-.73-3.34-3.19-4l.15-.56a91.18,91.18,0,0,0,9.92,0c0,.27.32.57-.13.75s-.85-.07-1.22.19c-1.37.4-1.88,1.12-1.94,2.78a2.14,2.14,0,0,0-.1,1V162A1.62,1.62,0,0,0,215.15,162.81Z"/><path class="cls-2" d="M154.06,141.27h10.22c-.09.51-.38.4-.59.43a2.88,2.88,0,0,0-2.94,2.79,24.33,24.33,0,0,0-.15,4v12.33a16.67,16.67,0,0,0,.15,2,1.91,1.91,0,0,0,1.9,1.83,28.57,28.57,0,0,0,6.27,0,4.77,4.77,0,0,0,4.06-3.18c.12-.3,0-.79.81-.82-.41,1.77-.82,3.47-1.24,5.24-6.2-.11-12.34-.09-18.44,0-.15-.53.09-.6.4-.68,1.81-.42,2.52-1.18,2.63-3.06s.07-3.62.07-5.43V146.2a8.24,8.24,0,0,0-.36-2.74c-.48-1.3-1.63-1.63-2.86-1.85Z"/><path class="cls-2" d="M146.22,165.8h-9.73c-.13-.56.23-.58.55-.61a2.53,2.53,0,0,0,2.43-2.44,143.68,143.68,0,0,0,0-18.56,2.64,2.64,0,0,0-2.32-2.45c-.25-.05-.58.08-.76-.46h9.88c0,.19,0,.33-.09.33-2.44.65-3.06,1.29-3.09,3.83-.08,5.36-.07,10.71,0,16.06,0,2.47.51,3,2.89,3.73C146.2,165.3,146.27,165.45,146.22,165.8Z"/><path class="cls-3" d="M58.52,104a11.43,11.43,0,0,1,3.43,1.9c-.47.45-1.06.31-1.6.31a16.53,16.53,0,0,0-5.23,32.08,1.92,1.92,0,0,1,.31.18c.32.87-.24,1.45-.71,2.06a1.39,1.39,0,0,1-1-.14c-6.14-2.6-10.13-7.12-11.5-13.64a18.21,18.21,0,0,1,3.5-15.63A19.06,19.06,0,0,1,57,104,10.29,10.29,0,0,1,58.52,104Z"/><path class="cls-4" d="M31,172.62H27.81a29.86,29.86,0,0,1-6.16-4.44,57.36,57.36,0,0,1-11-12.47,59.4,59.4,0,0,1-8.88-22.16c-.09-.51-.05-1-.18-1.55A19.18,19.18,0,0,1,3,127.64a3,3,0,0,1,.49,1.83,57.7,57.7,0,0,0,12.13,29.18A58.31,58.31,0,0,0,30,171.58C30.31,171.85,31,172,31,172.62Z"/><path class="cls-5" d="M70.12,112.21a7.59,7.59,0,0,1,2.17,2.41,17.76,17.76,0,0,1,2.32,5.71,14.11,14.11,0,0,1-11.14,16.22,1.32,1.32,0,0,1-1.16-.13,1,1,0,0,1,.09-1.27,16,16,0,0,0,6.29-2.89,12.45,12.45,0,0,0,3.68-13.77c-1.89-4.67-5.34-7.58-10.39-8.07a11.88,11.88,0,0,0-11.79,5.82,12.4,12.4,0,0,0,4,17.07,13,13,0,0,0,1.33.71c.5.24,1.08.35,1.38.9a.74.74,0,0,1-.33.84,1.84,1.84,0,0,1-1.71-.26c-8.31-3.9-10.78-13.76-5.36-21.35.74-.81,1.58-1.52,2.27-2.37a8.09,8.09,0,0,1,2.25-1.49,3.47,3.47,0,0,0,1-.5,3,3,0,0,1,1.27-.53,8.35,8.35,0,0,0,1.91-.41,2.34,2.34,0,0,1,.38-.09,21.13,21.13,0,0,1,5.44.26c.54.15,1.06.34,1.58.53.81.38,1.62.79,2.42,1.19a1.67,1.67,0,0,1,.28.18C69.09,111.15,69.25,112.16,70.12,112.21Z"/><path class="cls-6" d="M58.52,104c-1.58.54-3.25.72-4.8,1.39a18.82,18.82,0,0,0-8,28.71,19.09,19.09,0,0,0,8.84,6.41,1.17,1.17,0,0,1-.65,1.52l-.08,0a8.13,8.13,0,0,1-3.32-1.35C43.3,136.4,39.72,130,40.08,121.62a20.24,20.24,0,0,1,14.09-18.4,9.21,9.21,0,0,0,1.63-.39A16,16,0,0,1,58.52,104Z"/><path class="cls-7" d="M78.05,185.45c1.65-1.74,3.38-1.58,5.54.54a3.53,3.53,0,0,1,3.81-1.61c1.62.32,2.3,1.18,2.46,3.47.14,2,0,4,0,6a2.52,2.52,0,0,1-1.79.16v-4.83a13.81,13.81,0,0,0-.13-1.43c-.17-1.13-.72-1.87-2-1.84a2.24,2.24,0,0,0-2.1,2.23c-.09,1.69-.06,3.38-.09,5.08q0,.33-.06.66c-.54.35-1.08.14-1.74.22v-5.42a2.74,2.74,0,0,0-.86-2.44c-1.36-1-3.15.06-3.27,1.95s0,3.77,0,5.56c-.64.54-1.21.23-1.81.37v-9.5a4.48,4.48,0,0,1,1.55-.12c.25.21.11.49.16.74S77.76,185.65,78.05,185.45Z"/><path class="cls-8" d="M55.37,138.56a9.44,9.44,0,0,1-4.63-2.16A16.89,16.89,0,0,1,62,105.92c.84.19,1.38.92,2.16,1.22-.2.76-.8.51-1.27.46a15,15,0,0,0-13.22,4.7,15.28,15.28,0,0,0,.7,21.6,15,15,0,0,0,3.3,2.35A7,7,0,0,1,56,137.53C56,138,56,138.46,55.37,138.56Z"/><path class="cls-9" d="M66.44,172.62H56.82a39.85,39.85,0,0,1-8.42-1.12A56,56,0,0,1,37,167a2.24,2.24,0,0,1-1.26-1c0-.19.1-.39,0-.59s-.66-.2-1-.26a4.14,4.14,0,0,1-3.35-3.2.77.77,0,0,1,.18-1c2,1.12,3.79,2.55,5.8,3.66A49.32,49.32,0,0,0,55,170.4a45.12,45.12,0,0,0,12.5-.11c.43-.06.88-.2,1.24.2Z"/><path class="cls-10" d="M31,172.62A58,58,0,0,1,4.22,136,47.39,47.39,0,0,1,3,127.64a7.48,7.48,0,0,1,.94-2.48c.42.32.32.79.34,1.22a55.34,55.34,0,0,0,4.61,19.24,52.87,52.87,0,0,0,9.23,14.5,55.16,55.16,0,0,0,13.59,11.32c.49.28,1.16.43,1.22,1.18Z"/><path class="cls-11" d="M11.12,113.61a6.83,6.83,0,0,1,1.43-1.51c.5.5.19,1.07.08,1.59a40.86,40.86,0,0,0-.89,8.75c.17,12.08,3.91,22.89,11.84,32.14a47.19,47.19,0,0,0,5.18,5.21,2.09,2.09,0,0,1,.62.73A1,1,0,0,1,29,161.6c-1,.14-1.53-.62-2.13-1.16a50.37,50.37,0,0,1-15.59-26.66,47.17,47.17,0,0,1-.8-17.36A8.28,8.28,0,0,1,11.12,113.61Z"/><path class="cls-12" d="M5.55,121.56a6.56,6.56,0,0,1,1.22-2.13c.54.62.34,1.38.32,2.08A52,52,0,0,0,10,140.22,53,53,0,0,0,20.68,158.5a66,66,0,0,0,5,4.9c.32.29.73.53.8,1a.61.61,0,0,1-.53.5,2,2,0,0,1-1.75-.62,50.49,50.49,0,0,1-10.24-12,55.41,55.41,0,0,1-8.11-22.16c-.32-2.35-.23-4.73-.56-7.08A4,4,0,0,1,5.55,121.56Z"/><path class="cls-13" d="M15,109.79l1.45-1.16c.41.51.1,1,0,1.49a42.1,42.1,0,0,0-1.77,12,46.28,46.28,0,0,0,10.38,29.73c1.5,1.86,3.37,3.35,4.83,5.22a1,1,0,0,1,0,.59c-.22.53-.58.59-1.07.34a5,5,0,0,1-1.21-1,47.75,47.75,0,0,1-10.24-14.49,39.89,39.89,0,0,1-3.28-10,57.79,57.79,0,0,1-1-6.28C13,125,13,123.75,13,122.51a35.66,35.66,0,0,1,.74-8.11C14.11,112.85,14.09,111.19,15,109.79Z"/><path class="cls-14" d="M29.24,160.56a48.37,48.37,0,0,1-16.81-28,41.57,41.57,0,0,1-1-10.84,45.72,45.72,0,0,1,1-8.79c0-.27.07-.55.09-.83a4.69,4.69,0,0,1,1.22-1.17c.4.53.12,1.1,0,1.61a47.67,47.67,0,0,0-1.1,12.08,49.06,49.06,0,0,0,4.07,17.48,52.43,52.43,0,0,0,6.76,11.07c.46.61,1.1,1.07,1.5,1.72a1.91,1.91,0,0,0,.7.93,21.68,21.68,0,0,1,1.95,2,1.45,1.45,0,0,0,.82.68,3.58,3.58,0,0,1,1.19,1C29.78,159.92,29.78,160.34,29.24,160.56Z"/><path class="cls-15" d="M29.72,157.17a44.23,44.23,0,0,1-9.63-12,45.82,45.82,0,0,1-5.26-15.51,43.87,43.87,0,0,1-.15-12.43c.39-2.91,1.1-5.72,1.77-8.55a3.77,3.77,0,0,1,1.18-.87c.48.48.18,1,0,1.47a42.27,42.27,0,0,0-2,15.79,44.64,44.64,0,0,0,9.77,25.81c1.4,1.77,3,3.35,4.49,5a1.33,1.33,0,0,1,.16.58A.85.85,0,0,1,29.72,157.17Z"/><path class="cls-16" d="M55.85,102.79c-.91.73-2.07.81-3.09,1.27-7,3.16-11.08,8.51-12.13,16.1-.94,6.75,1.28,12.47,6,17.24A20.17,20.17,0,0,0,54,141.94a.55.55,0,0,1,0,.78l-.11.08a1.46,1.46,0,0,1-1.27-.14c-7.33-3.25-11.8-8.82-13.09-16.71a21.47,21.47,0,0,1,13-23.11,8.11,8.11,0,0,1,2-.54C55,102.28,55.27,102.92,55.85,102.79Z"/><path class="cls-2" d="M129.67,192.49a1.92,1.92,0,0,0,1.84-1.49c.23-1.1-.73-1.64-1.45-2.21-1.23-1-2.85-1.42-3.75-2.86a3.28,3.28,0,0,1-.38-1,4.19,4.19,0,0,1,0-1.93c.42-1.46,1.61-1.91,2.92-2.21a10.76,10.76,0,0,1,2.89,0l1.15.39a3.41,3.41,0,0,1,0,1.35.73.73,0,0,1-.82.13,5.2,5.2,0,0,0-1.06-.39c-1.47-.34-2.85.14-3.25,1.12s.2,1.68,1.74,2.59,3.32,1.64,4,3.55a4.32,4.32,0,0,1,0,1.68c-1.09,2.45-2.74,3.54-7.56,2.53l-.2-.76c.29-.37-.16-.95.35-1.25a3,3,0,0,0,2.22.72A1.93,1.93,0,0,0,129.67,192.49Z"/><path class="cls-17" d="M56.34,109.55l-1.21.48a3.55,3.55,0,0,0-1,.48,14.39,14.39,0,0,0-4.36,3.63A17.39,17.39,0,0,0,47.06,121a13.23,13.23,0,0,0,3,10.41,12.43,12.43,0,0,0,5.11,3.93,2.91,2.91,0,0,0,1.39.33c.32.62-.1,1-.51,1.29a1.73,1.73,0,0,1-1-.18,15.17,15.17,0,0,1,5-29.17A9.88,9.88,0,0,1,66.5,109a17.85,17.85,0,0,1,2.17,1.7c0,.41-.21.4-.48.24a14,14,0,0,0-2.42-1.21,2.23,2.23,0,0,1-1.45-.49,16.65,16.65,0,0,0-6-.24A15.71,15.71,0,0,0,56.34,109.55Z"/><path class="cls-18" d="M5.55,121.56c.21,6.14.79,12.23,2.77,18.09A55.7,55.7,0,0,0,23.22,163c.76.7,1.42,1.7,2.68,1.62-.32.83-1.1.49-1.68.65a1.62,1.62,0,0,1-.93-.53,60,60,0,0,1-10.48-12.54,56.79,56.79,0,0,1-8-22.8c-.26-2.14-.62-4.31,0-6.47A3.29,3.29,0,0,1,5.55,121.56Z"/><path class="cls-7" d="M39.07,194.14H37.59c-.43-.29-.2-.73-.21-1.09-.09-1.84.11-3.69-.11-5.53A2.09,2.09,0,0,0,35,185.86,2.32,2.32,0,0,0,33,188.08c-.1,1.92,0,3.84,0,5.65-.66.54-1.22.25-1.82.36v-9.47a3.1,3.1,0,0,1,1.42-.09c.36.3,0,.78.34,1.15a3.33,3.33,0,0,1,3-1.39c1.81.09,2.74.47,3.4,2.86.18,2.25.05,4.49.07,6.73C39.28,194,39.15,194,39.07,194.14Z"/><path class="cls-19" d="M18.17,107.38a2.61,2.61,0,0,1,1.14-.76c.78.4.25,1,.11,1.38a45.31,45.31,0,0,0-2,7.84A43.58,43.58,0,0,0,27,150.74c1,1.23,2.24,2.2,3.15,3.49a1.07,1.07,0,0,1-.05,1,.52.52,0,0,1-.36.16,6.87,6.87,0,0,1-2.49-2.21,45.52,45.52,0,0,1-9.4-16.1,48.94,48.94,0,0,1-2.15-10.66A45.67,45.67,0,0,1,18.17,107.38Z"/><path class="cls-7" d="M110.63,194.14h-1.48c-.43-.28-.2-.72-.21-1.08-.1-1.89.13-3.79-.13-5.68a2,2,0,0,0-2.24-1.51,2.3,2.3,0,0,0-2.11,2.24c-.11,1.48-.07,3-.1,4.45v1.28c-.6.42-1.15.16-1.74.26v-9.53h1.47c.25.29,0,.68.15,1h.21c2.45-2.27,5.14-1.61,6.32,1.57.18,2.25,0,4.49.07,6.73C110.84,194,110.71,194,110.63,194.14Z"/><path class="cls-20" d="M20.54,105.85a2.58,2.58,0,0,1,1.22-.7c.41.63,0,1.17-.22,1.7a39.24,39.24,0,0,0-3,13.1,41.93,41.93,0,0,0,3.92,20.72,43.83,43.83,0,0,0,7.48,11,2.51,2.51,0,0,1,.49.68c.11.54.28,1.09-.34,1.45a23.22,23.22,0,0,1-3.72-4.08,42.92,42.92,0,0,1-9-22,43.37,43.37,0,0,1,2.31-19.94A8.13,8.13,0,0,1,20.54,105.85Z"/><path class="cls-21" d="M20.54,105.85A46.1,46.1,0,0,1,19,111a44.06,44.06,0,0,0-1.33,16.4,42,42,0,0,0,4.13,14.46,39.41,39.41,0,0,0,6.41,9.54A7.35,7.35,0,0,1,30,153.88a.32.32,0,0,1,0,.41,34.72,34.72,0,0,1-7.34-9.15,43.18,43.18,0,0,1-5.32-14.24,52.45,52.45,0,0,1-.68-6,42.74,42.74,0,0,1,1.51-14c.27-1.08.69-2.13,1-3.21.1-.35.44-.7.13-1.11A3.16,3.16,0,0,1,20.54,105.85Z"/><path class="cls-22" d="M30.2,152.34a35.21,35.21,0,0,1-6.64-8.79,40.81,40.81,0,0,1-4.85-13.66,52.9,52.9,0,0,1-.49-7,42.18,42.18,0,0,1,2.32-14.34,26.83,26.83,0,0,0,1.22-3.39,1.65,1.65,0,0,1,.91-.48c.76.25.29.77.16,1.09-.57,1.42-1.09,2.85-1.58,4.3a38.5,38.5,0,0,0-2,14,41.13,41.13,0,0,0,10.59,26.31,2.53,2.53,0,0,1,.64,1A.93.93,0,0,1,30.2,152.34Z"/><path class="cls-23" d="M23.63,104.18a4,4,0,0,1,1.51-.69c.68.35.17.8,0,1.13-.57,1.29-1.23,2.53-1.71,3.86a39.73,39.73,0,0,0,1.48,32,35.67,35.67,0,0,0,4.75,7.39,7.14,7.14,0,0,1,1,1.38,1.27,1.27,0,0,1-.1,1.17c-.62.22-.84-.32-1.13-.65a39.8,39.8,0,0,1-7.66-13.17,41.79,41.79,0,0,1,1.71-31.92A1.39,1.39,0,0,0,23.63,104.18Z"/><path class="cls-24" d="M23.63,104.18c.5.31.12.64,0,.93a45.75,45.75,0,0,0-3.12,9.59,54,54,0,0,0-.7,6.07,36.63,36.63,0,0,0,1.26,12.46,39.28,39.28,0,0,0,8.52,16.16c.29.33.55.67.83,1s.41.76-.15,1a47.08,47.08,0,0,1-5.63-7.61,41,41,0,0,1-5-13.67,38.36,38.36,0,0,1-.71-8.35,42.7,42.7,0,0,1,3.35-15.39c.23-.54.71-1,.44-1.74A1.91,1.91,0,0,1,23.63,104.18Z"/><path class="cls-25" d="M24.42,174.87l10.21.07a12,12,0,0,1,1.47.06,29.58,29.58,0,0,1,4.37,1.67A60.89,60.89,0,0,0,50,179.33a2.68,2.68,0,0,1,1.55.57A22.55,22.55,0,0,1,45.2,181,47.84,47.84,0,0,1,35,177.39a22.87,22.87,0,0,1-2.47-1.25,5.68,5.68,0,0,0-3.46-.8H25.48a1.9,1.9,0,0,1-1-.18A.24.24,0,0,1,24.42,174.87Z"/><path class="cls-26" d="M66.5,109a15.32,15.32,0,0,0-5.12-1.16,14.43,14.43,0,0,0-9.85,3.23,14.8,14.8,0,0,0-2.43,20.79,15.2,15.2,0,0,0,7,4.94c.25.38.1.6-.28.73a16,16,0,0,1-8.63-7.12,14.67,14.67,0,0,1-2-6.48A15.56,15.56,0,0,1,58,107.33a12.75,12.75,0,0,1,5,0,.91.91,0,0,0,1-.2C65,107.75,66,108.12,66.5,109Z"/><path class="cls-27" d="M30.48,149.19a34.76,34.76,0,0,1-4.76-6.59,38.36,38.36,0,0,1-4.85-14.24A39.86,39.86,0,0,1,23,108.74c.59-1.55,1.3-3,2-4.5.11-.22.41-.45.12-.75a2.25,2.25,0,0,1,1.22-.5c.38.61,0,1.09-.29,1.56A37.73,37.73,0,0,0,22,117.24,38.61,38.61,0,0,0,30.81,148C31,148.45,31,148.9,30.48,149.19Z"/><path class="cls-28" d="M30.65,148c-1-.43-1.38-1.42-1.95-2.2a38.19,38.19,0,0,1-6.87-16.27,39,39,0,0,1,3.78-24.76,4.91,4.91,0,0,0,.75-1.76,2.32,2.32,0,0,1,1.21-.47c.37.62-.07,1.08-.33,1.55a38.43,38.43,0,0,0-4.69,15.59,38,38,0,0,0,7.57,26.18A7.72,7.72,0,0,1,31,147C31,147.41,31,147.75,30.65,148Z"/><path class="cls-11" d="M32,180.29c-.95,0-1.7-.82-2.69-.68a1.42,1.42,0,0,0-1.14-.8,27.38,27.38,0,0,1-5.73-3.73c-.29-.2-.28-.78-.83-.65A13.18,13.18,0,0,1,18,171.7,64.19,64.19,0,0,1,4.87,156a47.72,47.72,0,0,1-2.57-4.78c-.12-.25-.2-.52-.48-.66a18,18,0,0,1-.75-3.85c.07-.23,0-.49.29-.83,1,1.18,1.25,2.65,1.94,3.9s1.32,2.57,1.94,3.87a40.82,40.82,0,0,0,5.08,7.91,62.82,62.82,0,0,0,13.8,13.24l.22.26c2.7,1.64,5.44,3.21,8.17,4.64C32.36,180.29,32.13,180.24,32,180.29Z"/><path class="cls-13" d="M70.84,168.29c-.12.48-.52.72-.87,1a5.74,5.74,0,0,1-2.15.71,47,47,0,0,1-26.09-3.48,49.75,49.75,0,0,1-9.5-5.45c-.64-.47-1.34-1-.86-2,.78-.37,1.21.3,1.68.65a46.93,46.93,0,0,0,13.21,6.9,46.44,46.44,0,0,0,17.24,2.26,43.38,43.38,0,0,0,6-.77A1.36,1.36,0,0,1,70.84,168.29Z"/><path class="cls-29" d="M31.45,159.1a1.36,1.36,0,0,0,.53,1.39A56.32,56.32,0,0,0,37.3,164a46.94,46.94,0,0,0,5.83,2.75A45.55,45.55,0,0,0,57.31,170,49.18,49.18,0,0,0,70,169.29a5.09,5.09,0,0,1-1.25,1.2,52.53,52.53,0,0,1-8.58.68,52.58,52.58,0,0,1-17-3.39A52.8,52.8,0,0,1,32.52,162a3.4,3.4,0,0,1-1-1,3.86,3.86,0,0,1-.24-4.12.28.28,0,0,1,.36.15,2.76,2.76,0,0,1,.16,1.27A1.31,1.31,0,0,1,31.45,159.1Z"/><path class="cls-30" d="M30.7,147a33.9,33.9,0,0,1-5.26-8.45,37.82,37.82,0,0,1-3.12-11.19,36.89,36.89,0,0,1-.14-7.43A43.84,43.84,0,0,1,25.36,107c.63-1.58,1.72-2.91,2.21-4.54a.85.85,0,0,1,.7-.24.36.36,0,0,1,.49,0l0,0c.11.51-.22.89-.45,1.31a37.89,37.89,0,0,0-4.85,14.18,37.14,37.14,0,0,0,2.78,19.8,29.23,29.23,0,0,0,4.77,7.93A1.2,1.2,0,0,1,30.7,147Z"/><path class="cls-31" d="M30.88,145.57c-.56.3-.59-.3-.74-.52a37.39,37.39,0,0,1-7-17.45A37,37,0,0,1,26.3,107a39.35,39.35,0,0,1,2.13-4c.14-.24.47-.59-.16-.68A3.78,3.78,0,0,1,30,101.8c.27.59-.15,1-.41,1.42a36.45,36.45,0,0,0-5.47,16.33,35.9,35.9,0,0,0,3.12,18.36,44.44,44.44,0,0,0,3.91,6.79C31.21,145,31.25,145.33,30.88,145.57Z"/><path class="cls-32" d="M47.87,100.63a1.54,1.54,0,0,1,1,.21c0,.62-.5.77-.89,1a24.5,24.5,0,0,0-8.09,33.69,22.73,22.73,0,0,0,1.79,2.54,24.81,24.81,0,0,0,9.51,7.21c.4.18.86.28,1.11.69a.59.59,0,0,1,0,.37c-.47.6-1,.33-1.54.11a25.83,25.83,0,0,1-5.36-44.37A9.72,9.72,0,0,1,47.87,100.63Z"/><path class="cls-33" d="M11.12,113.61a46.08,46.08,0,0,1-.55,5.24,38.92,38.92,0,0,0-.11,6.74,50.15,50.15,0,0,0,17.88,35.6,2.46,2.46,0,0,0,.62.33c.22.5,0,.74-.48.86a4.32,4.32,0,0,1-1.77-1.21,51.16,51.16,0,0,1-15-23.38A57.07,57.07,0,0,1,9.55,126.2,55,55,0,0,1,9.86,116a6,6,0,0,1,.56-1.57A1.79,1.79,0,0,1,11.12,113.61Z"/><path class="cls-34" d="M32.41,101.1a1.93,1.93,0,0,1,1.2-.25c.19.56-.18.92-.46,1.3a34.36,34.36,0,0,0-6.6,16.51,32.78,32.78,0,0,0,.48,11c.08.37.06.84.54,1a2.8,2.8,0,0,0,.71.06h6.08a3.42,3.42,0,0,1,.78.06.66.66,0,0,1,.47.32.35.35,0,0,1-.17.33,23.61,23.61,0,0,1-4.75.18H28.06c-.22,0-.61-.15-.57.34a40.51,40.51,0,0,0,3.67,8.37,2.33,2.33,0,0,1,.34,1.14,1.31,1.31,0,0,1-.26.92c-.59.08-.73-.42-.94-.77A35.53,35.53,0,0,1,28,108.12,21.23,21.23,0,0,1,32.41,101.1Z"/><path class="cls-35" d="M32.88,172.62c-2.49-1.67-5.09-3.18-7.43-5.09a61.45,61.45,0,0,1-10.68-11A56.81,56.81,0,0,1,4.68,133.27a38,38,0,0,1-.84-8.11,2,2,0,0,1,.5-1.16c.35.26.25.65.26,1a54.17,54.17,0,0,0,4.1,19,57.34,57.34,0,0,0,14.68,20.81,2.55,2.55,0,0,0,.79.55c.33.12.66.21,1,.34a56.19,56.19,0,0,0,5.46,4,2,2,0,0,0,1,.76l.27.17a5,5,0,0,0,.94.56,1.91,1.91,0,0,1,.27.16c.39.46,1.27.41,1.27,1.25Z"/><path class="cls-36" d="M31,144.6a11.66,11.66,0,0,1-2.5-3.63A36.65,36.65,0,0,1,24,126.9a37.21,37.21,0,0,1,5.58-24.21,10.35,10.35,0,0,0,.5-1,.86.86,0,0,1,.69-.19c.19-.11.37-.13.67.25a37.06,37.06,0,0,0-6.59,20.47,36.33,36.33,0,0,0,6.1,20.59.27.27,0,0,1,.44-.15A1.54,1.54,0,0,1,31,144.6Z"/><path class="cls-37" d="M26.39,164.52a56.89,56.89,0,0,1-11.28-12.89,54.43,54.43,0,0,1-7.65-20.09,74.3,74.3,0,0,1-.69-12.11c0-.53.46-.8.74-1.16.37.35.3.81.31,1.24v3.86a48.19,48.19,0,0,0,3.75,19.15,52.08,52.08,0,0,0,9.51,15.41,54.7,54.7,0,0,0,6.27,6C27.32,164.53,27,164.61,26.39,164.52Z"/><path class="cls-38" d="M31.16,142.67l-.35.57a32.28,32.28,0,0,1-3.8-7,34.81,34.81,0,0,1-2.53-16.11,35.88,35.88,0,0,1,6-17.52c.16-.24.95-.56.17-1a4,4,0,0,1,1.74-.45c-.77,1.54-1.88,2.86-2.72,4.37a36.33,36.33,0,0,0-4.32,14.25,35.11,35.11,0,0,0,3.89,19.51c.55,1.11,1.27,2.13,1.91,3.19a.22.22,0,0,1,.05.17S31.18,142.67,31.16,142.67Z"/><path class="cls-39" d="M9,116.27a2.07,2.07,0,0,1,.73-1,1.16,1.16,0,0,1,.23,1.13,38.83,38.83,0,0,0-.45,7.91,53.09,53.09,0,0,0,4.27,18.82A51.1,51.1,0,0,0,20.87,155a46.1,46.1,0,0,0,6.56,6.69,4,4,0,0,1,1,1,.52.52,0,0,1-.32.64c-.5.12-.83-.19-1.17-.48A52.53,52.53,0,0,1,8.43,127.51a49.5,49.5,0,0,1,0-9.27A7.54,7.54,0,0,1,9,116.27Z"/><path class="cls-40" d="M9,116.27c-.16,2.31-.5,4.63-.43,6.94A53.76,53.76,0,0,0,13,143.85a52.94,52.94,0,0,0,12.39,17.3A8.85,8.85,0,0,0,28,163.21c.12.46-.17.57-.53.61a7.71,7.71,0,0,1-3-2.23A52.64,52.64,0,0,1,14,147.79,54.71,54.71,0,0,1,8.27,131a71.22,71.22,0,0,1-.51-12.39,3.49,3.49,0,0,1,.46-1.36A2.07,2.07,0,0,1,9,116.27Z"/><path class="cls-7" d="M154.67,194c-1.09-3.14-2.17-6.28-3.28-9.48h2c.77,2.42,1.55,4.89,2.41,7.57,1.1-2.55,1.72-5,2.51-7.42.56-.39,1.15-.17,1.9-.2l-3.34,9.41A6.27,6.27,0,0,1,154.67,194Z"/><path class="cls-7" d="M46.17,194H44.1c-1.12-3.07-2.3-6.2-3.23-9.51h1.86L45,191.74h.29l2.44-7.14a4.37,4.37,0,0,1,1.8-.1Q47.83,189.39,46.17,194Z"/><path class="cls-41" d="M1.63,132c.71,1.28.67,2.75,1,4.13A64.07,64.07,0,0,0,6.26,147,57.36,57.36,0,0,0,14,159.78a60.71,60.71,0,0,0,9.44,9.52,47.16,47.16,0,0,1,4.37,3.34h-1a5.81,5.81,0,0,1-2.09-1.16,60.11,60.11,0,0,1-18.4-22,92.77,92.77,0,0,1-4.13-10.56,20.72,20.72,0,0,1-.93-5.19Z"/><path class="cls-7" d="M189.54,184.46l.91.35v1.27c-3.06-.46-3.46-.79-4.06.76a2.4,2.4,0,0,0,1.43,1.31,9.18,9.18,0,0,1,2.34,1.43,2.45,2.45,0,0,1,.17,3.46,2.56,2.56,0,0,1-.88.62,6.56,6.56,0,0,1-4.89.07v-1.39c2.89.79,2.89.79,4.23-.34l.07-1.1a14,14,0,0,0-2.6-1.56c-2-1-2.15-3.17-.77-4.29a5.36,5.36,0,0,1,1.65-.6A7.73,7.73,0,0,1,189.54,184.46Z"/><path class="cls-42" d="M.76,144.53.7,143.14A11.54,11.54,0,0,1,.62,141c0-.39.27-.37.47-.14a3.76,3.76,0,0,1,.56,1.32,61.35,61.35,0,0,0,11.92,21.2,60,60,0,0,0,9.57,9c.4.31.9.55,1.13,1a3.32,3.32,0,0,1,0,.89c-.5.36-.82-.1-1.15-.31-1.1-.67-2-1.58-3.07-2.33-.61-.45-1-1.14-1.75-1.45a1.72,1.72,0,0,1-.64-.53A40.75,40.75,0,0,0,14,165.88a1.62,1.62,0,0,1-.53-.63,6.53,6.53,0,0,0-1.27-1.55,1.18,1.18,0,0,1-.19-.25,3,3,0,0,0-.92-1,1.35,1.35,0,0,1-.28-.35,3,3,0,0,0-.58-.86A1.58,1.58,0,0,1,10,161a2.78,2.78,0,0,0-.72-.77,2.69,2.69,0,0,1-.51-.82A39.36,39.36,0,0,0,6.54,156c-.07-.09-.12-.18-.18-.27a2.64,2.64,0,0,0-.79-1.13.94.94,0,0,1-.24-.6c-1.28-2.71-2.73-5.34-3.8-8.15a3.24,3.24,0,0,1-.38-1.25H1a.41.41,0,0,0-.11.07.13.13,0,0,1-.16-.11A0,0,0,0,1,.76,144.53Z"/><path class="cls-7" d="M66,186.22a13.63,13.63,0,0,0-1.65-.5c-.9-.14-1.8-.16-2.17,1,.12.68.68,1,1.29,1.35a9.45,9.45,0,0,1,2.26,1.31,2.49,2.49,0,0,1,.49,3.49,2.43,2.43,0,0,1-1.32.9,7,7,0,0,1-4.19.1c-.63-.47-.4-1.06-.25-1.65,1.13.38,2.21,1.07,3.49.29a1.83,1.83,0,0,0,.85-1c-.35-1.3-1.51-1.56-2.46-2.06a2.84,2.84,0,0,1-1.87-2.87c.11-1.5,1.19-1.91,2.39-2.2a7.49,7.49,0,0,1,2.41,0l1,.27C66.3,185.25,66.71,185.82,66,186.22Z"/><path class="cls-43" d="M47.87,100.63c-1.43,1.27-3.1,2.23-4.5,3.57A25.84,25.84,0,0,0,37.25,113a24.26,24.26,0,0,0-1.92,11.28A25.45,25.45,0,0,0,50.42,146c.55.26,1.11.71,1.79.31.27.35.08.6-.19.83a2.18,2.18,0,0,1-1.84-.32c-8.35-3.89-13.6-10.34-15.26-19.39-1.52-8.22.64-15.6,6.11-22a29.08,29.08,0,0,1,4.54-4.11c.22-.17.49-.3.52-.62a.39.39,0,0,1,.09-.29A6.41,6.41,0,0,1,47.87,100.63Z"/><path class="cls-7" d="M171.89,184.45c.51.17,1.1.17,1.44.69-.34.28.34,1.24-.7,1.06-1.46-.41-2.85-.56-4,.7-1.56,1.64-.78,5.45,1.37,5.57a4.36,4.36,0,0,0,2.21,0c.31.14.48-.26.78-.21.48.35.3.85.39,1.41-1.91.69-3.81.9-5.51-.18-2-1.29-2.25-3.55-1.87-5.63s2-3.1,4-3.41A4.87,4.87,0,0,1,171.89,184.45Z"/><path class="cls-44" d="M50.29,101.11a1.54,1.54,0,0,1,1,.23c0,.63-.57.72-1,.93-7.24,3.79-11.48,9.8-12.4,17.85A22,22,0,0,0,44.1,138.6a22.72,22.72,0,0,0,8.12,5.52,2.29,2.29,0,0,1,.73.41c.17.49-.14.7-.5.89a17,17,0,0,1-6.09-3.29A24.15,24.15,0,0,1,38,130.92a25.76,25.76,0,0,1-.3-15.18,21.92,21.92,0,0,1,4.94-8.87,27.85,27.85,0,0,1,5.15-4.54A12.46,12.46,0,0,1,50.29,101.11Z"/><path class="cls-7" d="M70,182.08l1.65-.52v2.93h2.18a1.48,1.48,0,0,1-.07,1.43h-2.1c0,1.92,0,3.79,0,5.66,0,1.1.7,1.41,2.22,1.18.2.54.29,1-.31,1.43a4.44,4.44,0,0,1-1.92,0c-1.19-.12-1.62-.91-1.74-2-.17-1.64,0-3.28-.08-4.93a2.37,2.37,0,0,0-.12-1.29,3.55,3.55,0,0,0-1.62-.08,1.41,1.41,0,0,1-.06-1.43l1.68-.05C70,183.69,69.51,182.83,70,182.08Z"/><path class="cls-7" d="M112.68,184.49l1.68-.05c.36-.76-.12-1.61.28-2.36l1.65-.52v2.93h2.17a1.46,1.46,0,0,1-.06,1.43h-2.1v5.66c0,1.1.7,1.41,2.22,1.18.2.54.29,1-.31,1.43a4.44,4.44,0,0,1-1.92,0,1.92,1.92,0,0,1-1.74-2c-.17-1.68,0-3.36-.08-5a2,2,0,0,0-.12-1.18,3.55,3.55,0,0,0-1.62-.08A1.4,1.4,0,0,1,112.68,184.49Z"/><path class="cls-45" d="M52,101.57a.87.87,0,0,1,.73.22c.07.57-.41.62-.75.78A21.25,21.25,0,0,0,40.21,115c-3,8.47-1.43,16.12,4.58,22.81a20.69,20.69,0,0,0,6.57,4.82c.7.33,1.43.5,2.14.77a.66.66,0,0,1-.28.83,2.38,2.38,0,0,1-2-.49c-7.35-3.67-12-9.41-13.2-17.66s1.55-15.26,7.73-20.84A15.5,15.5,0,0,1,52,101.57Z"/><path class="cls-46" d="M31.45,158.38v-1.2c.62-.19,1,.27,1.36.59a42.81,42.81,0,0,0,11.74,6.72,2.7,2.7,0,0,0,1.61,1,45.68,45.68,0,0,0,24.45,1.33c.45-.09,1.09-.61,1.41.25l-.45.51a20.49,20.49,0,0,1-5.74,1.16,38.82,38.82,0,0,1-5.9.3,46.26,46.26,0,0,1-20.88-5.43,43.4,43.4,0,0,1-7-4.61A1.87,1.87,0,0,1,31.45,158.38Z"/><path class="cls-47" d="M52,101.57a31.46,31.46,0,0,0-5.42,3.29,22.4,22.4,0,0,0-8.35,14.31,22,22,0,0,0,4.65,17.73,19.71,19.71,0,0,0,10.26,7.22c.21.28,0,.39-.21.48a14.89,14.89,0,0,1-6-3.12,22.3,22.3,0,0,1-9.33-16.2,22.78,22.78,0,0,1,8.63-20.76,55.41,55.41,0,0,1,5.08-3.18Z"/><path class="cls-48" d="M54.4,102.3c-1.56.9-3.29,1.41-4.83,2.38A21.15,21.15,0,0,0,40,118.62a20.28,20.28,0,0,0,1.59,13.12,21.09,21.09,0,0,0,11.72,10.89,1.93,1.93,0,0,0,.48,0c.18.29.08.47-.21.59a9.46,9.46,0,0,1-4.89-2.17A21.42,21.42,0,0,1,39,125.43c-.94-7.69,1.71-14,7.27-19.23a19.13,19.13,0,0,1,6.44-3.93c.35-.13.73,0,1-.21Z"/><path class="cls-49" d="M50.29,101.11c-.71.86-1.86,1-2.73,1.66a27.54,27.54,0,0,0-7.42,7.94A23.38,23.38,0,0,0,37,121.35a25.87,25.87,0,0,0,.88,8.4,21.11,21.11,0,0,0,4.93,8.66A28.44,28.44,0,0,0,49.65,144c1,.4,1.89.85,2.8,1.34a.21.21,0,0,1,0,.3l0,0a1,1,0,0,1-.93-.11c-8.71-3.87-14.09-10.5-15.12-20-1.15-10.57,3.25-18.73,12.36-24.3a4.89,4.89,0,0,0,.6-.41Z"/><path class="cls-50" d="M53.68,102a27.7,27.7,0,0,0-6.55,3.72,21.44,21.44,0,0,0-7.71,12.55,21.72,21.72,0,0,0,14.07,24.84.16.16,0,0,1-.07.22h0c-.43.36-.87.1-1.24-.06a22.18,22.18,0,0,1-9.07-34.11,21.42,21.42,0,0,1,9-6.94,2.9,2.9,0,0,0,.58-.41Z"/><path class="cls-51" d="M28.34,162.75a50.82,50.82,0,0,1-17.5-27.22,49,49,0,0,1-1.44-8.6,56.34,56.34,0,0,1-.18-6.37c0-1.75.29-3.49.45-5.24l.75-.91a49.8,49.8,0,0,0-.72,9.44,51.42,51.42,0,0,0,17,36.86c.61.57,1.31,1,2,1.56C28.69,162.53,28.66,162.72,28.34,162.75Z"/><path class="cls-52" d="M27.57,157.9A8.66,8.66,0,0,1,25.64,156a2.1,2.1,0,0,1-.73-.72,46.19,46.19,0,0,1-7.51-11,45.14,45.14,0,0,1-4.59-15.35c-.15-1.47-.39-2.94-.45-4.41a53.47,53.47,0,0,1,1.41-13.57l.73-.7a5.68,5.68,0,0,1-.34,2.68,46.25,46.25,0,0,0-.92,13.73,47.54,47.54,0,0,0,5.91,19.26,48.13,48.13,0,0,0,5,7.33,25.74,25.74,0,0,0,4.7,4.8,2.18,2.18,0,0,1,.74.77.51.51,0,0,1-.13.55c-.54,0-.73-.56-1.17-.73A2,2,0,0,1,27.57,157.9Z"/><path class="cls-53" d="M33.85,131h-1a11.15,11.15,0,0,1-1.26-4.73A28.63,28.63,0,0,1,33.47,112a29.25,29.25,0,0,1,7.91-11.27,4.44,4.44,0,0,1,1.17-.59h1c.27.86-.52,1.11-1,1.46A27.53,27.53,0,0,0,33,121.88a28.27,28.27,0,0,0,.92,8.34A1.1,1.1,0,0,1,33.85,131Z"/><path class="cls-54" d="M18.17,107.38c.29.79-.21,1.46-.41,2.14a52.4,52.4,0,0,0-1.84,10,44.67,44.67,0,0,0,10.82,32.62,24.42,24.42,0,0,0,3,3.1.49.49,0,0,1,0,.68l0,0a41.69,41.69,0,0,1-8.31-10.38,42.91,42.91,0,0,1-5.29-14,44.4,44.4,0,0,1-.7-12.55,47.63,47.63,0,0,1,2.15-10.55,4.28,4.28,0,0,0,.06-.72Z"/><path class="cls-14" d="M22.49,174.82a39.65,39.65,0,0,0,5.81,3.87c.24.16.79.1.48.66A13.81,13.81,0,0,1,25,177.88a32,32,0,0,0-3.3-2.37,66,66,0,0,1-17.9-20.14c-.19-.35-.32-.76-.77-.88a22.89,22.89,0,0,1-1.16-3.89l.3-.34a67.84,67.84,0,0,0,4.75,8.38,79.56,79.56,0,0,0,6.41,8.11,76.77,76.77,0,0,0,7.66,7.1,4.31,4.31,0,0,0,.83.49Q22.15,174.57,22.49,174.82Z"/><path class="cls-55" d="M42.55,100.13a29.41,29.41,0,0,0-10.44,18.11A31.67,31.67,0,0,0,32.89,131h-.73c-1.08-1.2-1-2.77-1.23-4.2a29.52,29.52,0,0,1,3.52-18.7A32.55,32.55,0,0,1,40,100.87a4.37,4.37,0,0,1,1.35-.75Z"/><path class="cls-56" d="M31.2,131h-.73a2.52,2.52,0,0,1-.65-1.52c-1.89-9.92,0-18.92,6.45-26.85.25-.31.51-.62.75-.93a3.91,3.91,0,0,0,.68-.83c0-.27-.22-.31-.36-.43l-.12-.15a8.68,8.68,0,0,1,2.92-.2c.11.63-.38,1-.74,1.3a30.08,30.08,0,0,0-8.16,28C31.37,130,31.64,130.52,31.2,131Z"/><path class="cls-57" d="M31.2,131c-.16-1.6-.61-3.14-.78-4.73a30.32,30.32,0,0,1,.39-9.69,29.1,29.1,0,0,1,8.62-15.68c.26-.25.47-.54.71-.82h1.21a29.89,29.89,0,0,0-9.94,17.65A29.05,29.05,0,0,0,32.16,131Z"/><path class="cls-58" d="M29.53,158.87a41.07,41.07,0,0,1-10-11.87,45.73,45.73,0,0,1-6.08-17.13A40.75,40.75,0,0,1,13,119.7a80.08,80.08,0,0,1,1.51-9.47.74.74,0,0,1,.5-.44c-.33,2.28-1,4.5-1.3,6.8a56.51,56.51,0,0,0-.37,7,28.7,28.7,0,0,0,.47,6A56.58,56.58,0,0,0,17,140.88a52.38,52.38,0,0,0,7.43,12.29,43.41,43.41,0,0,0,4.15,4.32c.23.23.66.86,1.14.16C30.06,158.12,30.24,158.56,29.53,158.87Z"/><path class="cls-59" d="M8.22,117.24a58.5,58.5,0,0,0,.2,12.48,51.49,51.49,0,0,0,5.47,17.45,49.83,49.83,0,0,0,7,10.21A59.39,59.39,0,0,0,26.58,163a5.53,5.53,0,0,0,1,.65c0,.21,0,.31-.26.24-1.38-.33-2.19-1.47-3.13-2.35a49.79,49.79,0,0,1-8.14-9.76A54.25,54.25,0,0,1,8,130.4c-.61-4-.36-8.09-.44-12.13A2.28,2.28,0,0,1,8.22,117.24Z"/><path class="cls-60" d="M27.8,180.9v13a4.9,4.9,0,0,1-1.9.16V180.94A2.29,2.29,0,0,1,27.8,180.9Z"/><path class="cls-61" d="M79.05,125.75a4.3,4.3,0,0,1,.5,1.68,10,10,0,0,1-1.66,4.7A19.22,19.22,0,0,1,64,142a2.21,2.21,0,0,1-.72.07.71.71,0,0,1-.42-.17,1,1,0,0,1-.06-1.24c1.34-.53,2.8-.62,4.15-1.16a17.93,17.93,0,0,0,11.28-12.87C78.33,126.28,78.12,125.47,79.05,125.75Z"/><path class="cls-62" d="M62.87,140.73a2.08,2.08,0,0,0,.17,1.13A16.93,16.93,0,0,0,69.36,140a19.37,19.37,0,0,0,9.69-11.12c.17-.48.13-1,.5-1.44a6.37,6.37,0,0,1,.71,1.94c-2.77,7.51-8.11,12-15.91,13.67a1.65,1.65,0,0,1-1.61-.14,2.17,2.17,0,0,1-.23-2.09A.28.28,0,0,1,62.87,140.73Z"/><path class="cls-19" d="M73.54,165.21c-.33.4-.5.93-1,1.21a44.06,44.06,0,0,1-11,1.56,40.32,40.32,0,0,1-14.65-2.28,1.55,1.55,0,0,1-.71-.44.62.62,0,0,1,.15-.87.1.1,0,0,1,.05,0,48.11,48.11,0,0,1,5,1.13,34.19,34.19,0,0,0,5.71.84,34.75,34.75,0,0,0,7.21,0,29.74,29.74,0,0,0,4.39-.62l.38-.11c1.14-.17,2.24-.54,3.37-.75C72.82,164.78,73.4,164.41,73.54,165.21Z"/><path class="cls-63" d="M29.74,131h-1a7.3,7.3,0,0,1-.93-3.45,32.36,32.36,0,0,1,2.53-18.33,31.59,31.59,0,0,1,4.8-7.76,11.44,11.44,0,0,0,1.09-1.11l1-.06h0a.56.56,0,0,1-.15.62A6.92,6.92,0,0,0,36,102.29a33,33,0,0,0-6.38,27.15A2.8,2.8,0,0,1,29.74,131Z"/><path class="cls-64" d="M24.21,165.63a4.08,4.08,0,0,1-.92-.55A59.52,59.52,0,0,1,11.1,149.66a57.54,57.54,0,0,1-5.94-16.83A42.69,42.69,0,0,1,4.34,124a1.77,1.77,0,0,1,.48-1,51.24,51.24,0,0,0,2.94,17.82,54.54,54.54,0,0,0,10.29,18.08,68.67,68.67,0,0,0,6.18,6.24A.39.39,0,0,1,24.21,165.63Z"/><path class="cls-65" d="M81.46,134.94a7,7,0,0,1,.24,1.93,24.26,24.26,0,0,1-14,10.21,10.89,10.89,0,0,1-4.22.73A1,1,0,0,1,63,147a.7.7,0,0,1,.11-.54c1.62-.58,3.36-.66,5-1.21A23.69,23.69,0,0,0,80.31,136C80.61,135.6,80.76,135,81.46,134.94Z"/><path class="cls-43" d="M63.16,147l.33.58a24.82,24.82,0,0,0,13.34-5.68A30.38,30.38,0,0,0,81,137.56c.22-.26.32-.69.78-.69v1.61a13,13,0,0,1-3,3.59,26.83,26.83,0,0,1-14.17,6.79c-.48.07-1,.21-1.38-.18C62.84,148.13,62.62,147.58,63.16,147Z"/><path class="cls-66" d="M49.33,100.87c-.63,1.07-1.84,1.35-2.76,2a24.32,24.32,0,0,0-5.71,33.93,23.39,23.39,0,0,0,1.65,2.07,25,25,0,0,0,8.92,6.4,1.93,1.93,0,0,0,1,.28c.17.23.15.41-.15.51a24.87,24.87,0,0,1-12-37.42,23.09,23.09,0,0,1,7.54-7.11,9.59,9.59,0,0,0,1-.71Z"/><path class="cls-67" d="M33.85,131a21.71,21.71,0,0,1-1.21-6.68,28,28,0,0,1,3.13-14.74,28.39,28.39,0,0,1,7.35-8.92c.19-.16.39-.28.4-.55h.26c.22.21.66-.08.78.34-.25.9-1.11,1.25-1.73,1.77A26.11,26.11,0,0,0,35.34,113a27.58,27.58,0,0,0-1.85,8.92,25.46,25.46,0,0,0,.82,7.27c.15.59.53,1.22,0,1.84Z"/><path class="cls-68" d="M31.45,158.38c1.79,1.06,3.34,2.47,5.13,3.54a46.16,46.16,0,0,0,18,6.39,43,43,0,0,0,7.17.46,51.53,51.53,0,0,0,8.91-1.09,9.26,9.26,0,0,1,1-.11c-.09.41-.53.46-.75.72-2.08.09-4.1.62-6.17.81a43.07,43.07,0,0,1-7,.1,46.12,46.12,0,0,1-8.26-1.3,47.52,47.52,0,0,1-17.27-8.42,1.3,1.3,0,0,0-.73-.38Z"/><path class="cls-7" d="M149.54,186.15a2.39,2.39,0,0,0-1.81,2.46v5.26c-.54.38-1.1.07-1.58.27-.31-.12-.22-.39-.22-.62V185a.71.71,0,0,1,.13-.46h1.42c.29.31,0,.73.21,1.07.14.06.17-.09.27-.12a2.83,2.83,0,0,1,2.8-1.09c.48.42.15.88.35,1.23C150.81,186.43,150,185.85,149.54,186.15Z"/><path class="cls-69" d="M62.88,142.91A19.26,19.26,0,0,0,73,139a19.54,19.54,0,0,0,6.82-9.08c.11-.27.17-.54.53-.55l.48,1.69c-1,1.61-1.82,3.39-3,4.91a21.5,21.5,0,0,1-14.18,8.13,1.29,1.29,0,0,1-.48,0,.64.64,0,0,1-.3-.24A.73.73,0,0,1,62.88,142.91Z"/><path class="cls-70" d="M27.57,131c-.61,0-.65-.42-.76-.87a34.77,34.77,0,0,1-.72-5.58,32.87,32.87,0,0,1,1.77-13.08A34.39,34.39,0,0,1,33,101.76c.22-.29.38-.61.57-.92a.37.37,0,0,1,.21,0,.61.61,0,0,1,.78.08,2.39,2.39,0,0,1-.76,1.44,34,34,0,0,0-6.62,16.07,31.48,31.48,0,0,0,.35,10.65C27.69,129.7,28.09,130.38,27.57,131Z"/><path class="cls-71" d="M36.27,100.39c-1.19,1.7-2.47,3.34-3.54,5.11a32.71,32.71,0,0,0-4,24.94q0,.3,0,.6h-.49c-.62-.3-.58-1-.68-1.46a33.75,33.75,0,0,1,4.65-25.11,16.43,16.43,0,0,1,3-3.85Z"/><path class="cls-72" d="M29,175.08a5.87,5.87,0,0,1,3.46.72,51.68,51.68,0,0,0,12.16,4.83.88.88,0,0,1,.55.43v.08c-.58.22-1.2-.07-1.77.19H39l-.15-.1L39,181a1.05,1.05,0,0,1,.69-.19,1.89,1.89,0,0,1,.47.06,55.59,55.59,0,0,1-9.7-4.45C30.07,175.88,29.06,176,29,175.08Z"/><path class="cls-17" d="M62.42,136.38c5.55-.44,10.78-5.31,11.82-10.89a14.54,14.54,0,0,0-1.8-10.07c-.13-.25-.56-.44-.15-.8a13.28,13.28,0,0,1,2.17,2.67c.25,1.2.71,2.34.87,3.58A14.48,14.48,0,0,1,72,132.18a13.9,13.9,0,0,1-8,4.91c-.53.11-1.08.37-1.63,0A.54.54,0,0,1,62.42,136.38Z"/><path class="cls-3" d="M62.87,140.73h-.2a.4.4,0,0,1-.12-.49,1.64,1.64,0,0,1,1.15-.57,16.08,16.08,0,0,0,8.08-3.78,16.71,16.71,0,0,0,5.25-7.8,14,14,0,0,0,.78-3.38c0-.28,0-.69.52-.65l.72,1.69c-.45,0-.41.37-.48.69a18.35,18.35,0,0,1-14.5,14.25A6.88,6.88,0,0,1,62.87,140.73Z"/><path class="cls-73" d="M46.18,100.39v.21c-.72,1.16-2,1.76-2.94,2.61a25.77,25.77,0,0,0-5.4,6.72,26.06,26.06,0,0,0-3.24,15.31,21.84,21.84,0,0,0,.92,4.82c.1.31.35.68,0,1h-.46A6.07,6.07,0,0,1,34,127.72a26.81,26.81,0,0,1,2.41-17.14,25.65,25.65,0,0,1,8-9.6,7.88,7.88,0,0,1,1.14-.63Z"/><path class="cls-74" d="M45.46,100.35a13.78,13.78,0,0,1-2.29,1.89,26.6,26.6,0,0,0-9.09,16.3,26.2,26.2,0,0,0,1,12.49h-.71a27.18,27.18,0,0,0-.78-4,26.45,26.45,0,0,1,1.74-14.78,25.48,25.48,0,0,1,8.73-11.36,2.74,2.74,0,0,0,.46-.55.7.7,0,0,1,.76,0A.55.55,0,0,1,45.46,100.35Z"/><path class="cls-75" d="M19.34,174.85a14.67,14.67,0,0,1-3.89-2.68A39.77,39.77,0,0,1,5.13,159.34c.67-.65.89.08,1.13.43q1.91,2.73,4,5.29a61.46,61.46,0,0,0,8.18,8.19C19,173.65,19.72,173.94,19.34,174.85Z"/><path class="cls-12" d="M24.15,174.33v-1a10.87,10.87,0,0,0-2.84-2.57A60.37,60.37,0,0,1,7.2,154.26a59.49,59.49,0,0,1-6.12-14.13,9.15,9.15,0,0,1-.36-1.65v-.17l.1-.28c.09-.16,0-.41.54-.56a61.35,61.35,0,0,0,14.49,26.71,66.51,66.51,0,0,0,8.1,7.46c.32.24.82.4.73,1-.62.69-.25,1.49-.25,2.25a.54.54,0,0,0,0,.18q-.12.17-.24,0h0A.52.52,0,0,1,24.15,174.33Z"/><path class="cls-76" d="M35.31,100.62a16.77,16.77,0,0,1-2,2.8,33.68,33.68,0,0,0-5.24,27.06,2.72,2.72,0,0,0,.22.56h-.72a44.14,44.14,0,0,1-1-8.81,34.26,34.26,0,0,1,6.86-19.9c.33-.44.65-.89,1-1.42l-.7-.07A2.28,2.28,0,0,1,35.31,100.62Z"/><path class="cls-77" d="M15.72,164.42a35.08,35.08,0,0,1-4.86-5.74,61.4,61.4,0,0,1-9.72-20.91L.79,138A13.68,13.68,0,0,1,1,135.39c.64.13.51.74.63,1.14.31,1,.5,2.15.84,3.2a2.3,2.3,0,0,1,.15.32,35,35,0,0,0,1.79,5.19c.05.1.09.21.13.31a6.89,6.89,0,0,0,.63,1.51c0,.1.1.2.14.3a35.79,35.79,0,0,0,2.45,4.92l.17.28a6,6,0,0,0,.91,1.54,7.31,7.31,0,0,1,.52.84,12.69,12.69,0,0,0,1.85,2.74,6.09,6.09,0,0,1,.52.8,3.54,3.54,0,0,0,.62.87,1.88,1.88,0,0,1,.18.24,4.34,4.34,0,0,0,.77.94c.07.08.13.17.19.25a4.33,4.33,0,0,0,.89,1.06,3.47,3.47,0,0,1,.3.37c.31.63,1.06,1,1.21,1.72A.5.5,0,0,1,15.72,164.42Z"/><path class="cls-60" d="M163.33,194.14l-1.49-.12v-9.4c.49-.27,1.06,0,1.6-.13.26,2.89,0,5.78.1,8.67C163.55,193.48,163.75,193.89,163.33,194.14Z"/><path class="cls-37" d="M62.63,175.09a8.8,8.8,0,0,1-2.91,1.66c-1.2.6-2.45.19-3.67.12a42.42,42.42,0,0,1-7.1-1.08c-.78-.18-.78-.2-.9-.83H61.88A.9.9,0,0,1,62.63,175.09Z"/><path class="cls-78" d="M56.1,178.45l-2,.71a5.39,5.39,0,0,1-2.7.15A55.28,55.28,0,0,1,39.55,176c-.44-.18-1.2-.16-1-1,.83-.08,1.66,0,2.49,0,2.49.49,4.83,1.51,7.32,2,2.22.45,4.44.8,6.67,1.12A1.38,1.38,0,0,1,56.1,178.45Z"/><path class="cls-79" d="M38.45,175.08a30,30,0,0,0,6.63,2.44,32,32,0,0,0,9.06,1.64,7.4,7.4,0,0,1-2.63.74,50.7,50.7,0,0,1-10.3-2.62,35.67,35.67,0,0,1-5.17-2.2A4.48,4.48,0,0,1,38.45,175.08Z"/><path class="cls-18" d="M56.1,178.45a48.33,48.33,0,0,1-15-3.36,14.52,14.52,0,0,1,3.23-.14,79.54,79.54,0,0,0,9.56,2,17.41,17.41,0,0,0,2.4.23,1.61,1.61,0,0,1,1.51.58C57.33,178.19,56.67,178.2,56.1,178.45Z"/><path class="cls-44" d="M81.46,134.94A53,53,0,0,1,78,139.46a21.07,21.07,0,0,1-5.07,4,22.11,22.11,0,0,1-9.73,3.1.42.42,0,0,1-.12-.5,1.22,1.22,0,0,1,1-.52A23.45,23.45,0,0,0,76.7,139.4a24.29,24.29,0,0,0,3.65-4.61c.22-.33.3-.88.9-.81C81.56,134.23,81.46,134.6,81.46,134.94Z"/><path class="cls-80" d="M46.2,165.15a33.39,33.39,0,0,0,9.85,2.32,42.45,42.45,0,0,0,9.56,0,41.75,41.75,0,0,0,6.46-1.2.39.39,0,0,1,.5.19c-.17.22-.35.43-.53.64-.27-.34-.56-.12-.87,0a42.49,42.49,0,0,1-11.39,1.25,43.54,43.54,0,0,1-13-2.24c-.29-.1-.65-.1-.82-.45a.34.34,0,0,1,.14-.47Z"/><path class="cls-81" d="M62.42,137.11a15.86,15.86,0,0,0,6.64-2.6A14.56,14.56,0,0,0,75,124.64a15.19,15.19,0,0,0-.6-6.49c-.08-.31-.29-.6.06-.86.33.48.65,1,1,1.45a14.82,14.82,0,0,1-3.65,14.51,14.11,14.11,0,0,1-9.08,4.57.78.78,0,0,1-.35-.18A.39.39,0,0,1,62.42,137.11Z"/><path class="cls-82" d="M3,154.49l.35-.5a61.94,61.94,0,0,0,5.85,9,69.63,69.63,0,0,0,8.71,9.13,54.75,54.75,0,0,0,6.78,5.15c.27.17.47.32.26.65a6.11,6.11,0,0,1-2.44-1.12c-.41-.8-1.27-1.06-1.91-1.59A70,70,0,0,1,6,159.47a13.05,13.05,0,0,0-2-2.79A9.23,9.23,0,0,1,3,154.49Z"/><path class="cls-83" d="M62.63,137.59A15,15,0,0,0,75.3,126a14.17,14.17,0,0,0,0-6.54c-.07-.28-.18-.54.11-.75l.73,1.2a13.43,13.43,0,0,1-.17,6.81,15.6,15.6,0,0,1-12.35,11.5,1.14,1.14,0,0,1-1-.12A.4.4,0,0,1,62.63,137.59Z"/><path class="cls-84" d="M62.63,137.59v.48c1.12.56,2.13-.09,3.08-.43a15.43,15.43,0,0,0,10.49-12.1,31.22,31.22,0,0,0,.21-3.35c0-.38-.23-.94.46-1l.49,1c.8,7.72-5.09,15.42-13.19,17.09a2.33,2.33,0,0,1-1.76-.09,1,1,0,0,1-.12-1.41.68.68,0,0,1,.12-.12Z"/><path class="cls-85" d="M62.59,139a15.49,15.49,0,0,0,10.54-5.39,16.79,16.79,0,0,0,3.93-8.24c.21-1.1-.26-2.25.31-3.3l.72,1.45c-.46,1.32-.39,2.73-.83,4.09a17.1,17.1,0,0,1-5.2,8.08c-2.72,2.27-5.78,4-9.5,4A.56.56,0,0,1,62.59,139Z"/><path class="cls-86" d="M4,156.68c.4-.24.54,0,.73.32a62.37,62.37,0,0,0,8.39,11,68.32,68.32,0,0,0,9.08,8c.31.23.64.36.37.82a20.65,20.65,0,0,1-3.15-1.91c-.49-1.49-1.94-2.08-3-3a64.42,64.42,0,0,1-6.17-6.41,51.15,51.15,0,0,1-4.38-5.87c-.19-.29-.37-.39-.68-.21A10.79,10.79,0,0,1,4,156.68Z"/><path class="cls-87" d="M76.88,121.16c-.45.53-.23,1.16-.22,1.74a15.12,15.12,0,0,1-4.86,11.39,16,16,0,0,1-8.25,4.23c-.37.07-.84.18-.91-.45A15.13,15.13,0,0,0,75,128.89a14,14,0,0,0,1-8.54c0-.12.12-.27.19-.41Z"/><path class="cls-88" d="M57.81,177.73c-2.37-.33-4.75-.57-7.1-1-2.11-.38-4.28-.59-6.21-1.64a8,8,0,0,1,3.38,0,20,20,0,0,0,5.2,1.12,43.3,43.3,0,0,0,6.64.54A5.42,5.42,0,0,1,57.81,177.73Z"/><path class="cls-45" d="M81,132.28l.22,1A22.37,22.37,0,0,1,65,145.37a4,4,0,0,1-1.78.17.49.49,0,0,1-.28-.23.52.52,0,0,1,.1-.52c1.67-.59,3.46-.71,5.12-1.36a22.36,22.36,0,0,0,11.89-10.27C80.31,132.78,80.39,132.25,81,132.28Z"/><path class="cls-48" d="M63.11,143.88a21.19,21.19,0,0,0,15.65-10c.5-.77.87-1.62,1.31-2.43.14-.26.2-.67.67-.41v.48a15.49,15.49,0,0,1-3.25,5.41A22.19,22.19,0,0,1,71,142.27a23.8,23.8,0,0,1-7.16,2.3.73.73,0,0,1-.68-.18A.41.41,0,0,1,63.11,143.88Z"/><path class="cls-50" d="M63.13,144.36a21.53,21.53,0,0,0,13.24-6.55,31.81,31.81,0,0,0,4.39-6.27l.23.74a40.28,40.28,0,0,1-3.76,5.39A22.69,22.69,0,0,1,69,143.42a19.34,19.34,0,0,1-5.79,1.42.32.32,0,0,1-.06-.45Z"/><path class="cls-47" d="M63.08,145.35a21.88,21.88,0,0,0,12.32-5.16,23.11,23.11,0,0,0,5.14-6.12c.18-.3.29-.67.67-.82v.7c-1,1.26-1.72,2.67-2.77,3.89a22.82,22.82,0,0,1-14.81,8,3.32,3.32,0,0,0-.55.22C63,145.9,63.1,145.6,63.08,145.35Z"/><path class="cls-89" d="M62.64,139.77c1.17-.39,2.41-.48,3.58-.92,6.72-2.5,10.49-7.3,11.39-14.39a.87.87,0,0,1,.48-.89l.24.49c-.44,1.67-.74,3.36-1.34,5a16.44,16.44,0,0,1-4.93,7,15.55,15.55,0,0,1-8.25,3.85,7.23,7.23,0,0,0-1.15.32.29.29,0,0,1,0-.43Z"/><path class="cls-27" d="M77.06,158.64l.33.79-.5.63a48.9,48.9,0,0,1-10.47,2.85,2.67,2.67,0,0,1-1.43,0,.59.59,0,0,1-.34-.65c.25-.65.88-.67,1.4-.75a42.1,42.1,0,0,0,9.84-2.69A1.7,1.7,0,0,1,77.06,158.64Z"/><path class="cls-23" d="M65,162.75a41.75,41.75,0,0,0,11.2-2.81c.22-.08.57-.52.7.12l-.43.76a28,28,0,0,1-10.91,2.87C65.14,163.51,64.8,163.29,65,162.75Z"/><path class="cls-90" d="M25.4,175.09h1.45a86.68,86.68,0,0,0,10.58,5.35c.29.12.61.27.58.68a.49.49,0,0,1-.52,0l-1.7-.08a2.1,2.1,0,0,0-1.11-.46,1.8,1.8,0,0,1-.74-.31,20.28,20.28,0,0,0-2.85-1.39,37.73,37.73,0,0,1-4.86-2.79C25.86,175.89,25.32,175.71,25.4,175.09Z"/><path class="cls-91" d="M65.43,163.49a39.63,39.63,0,0,0,9.88-2.4,2.3,2.3,0,0,1,1.15-.27,2.88,2.88,0,0,1-.75,1.24A54.21,54.21,0,0,1,67,164.42a1.75,1.75,0,0,1-.72,0C65.8,164.26,65.33,164.13,65.43,163.49Z"/><path class="cls-22" d="M66.22,164.19c2.21-.51,4.46-.86,6.66-1.51.88-.26,1.75-1.15,2.83-.62a1.07,1.07,0,0,1-.44.7,19.08,19.08,0,0,1-5.87,1.87c-.54.13-1.09.22-1.62.4C67.14,165,66.44,165,66.22,164.19Z"/><path class="cls-92" d="M47.88,175.09H36c-.47-.08-1,.1-1.41-.14,1.24,0,2.49-.07,3.73-.07h23.4a8.35,8.35,0,0,1,1.32.07.2.2,0,0,1,0,.11h-.49Z"/><path class="cls-93" d="M34.1,180.14l.72.24c.13.46-.26.31-.45.38L32,180.29l.5-.36A52.44,52.44,0,0,1,26.89,177a12.85,12.85,0,0,1-2.7-1.92h1.24a31.54,31.54,0,0,0,5.8,3.6A17.12,17.12,0,0,0,34.1,180.14Z"/><path class="cls-94" d="M1,144.66l.08-.81c.87,2.24,1.74,4.15,2.54,6.09.59,1.41,1.65,2.58,2,4.09-.28.15-.35-.11-.48-.24a60.83,60.83,0,0,1-3.73-7.55c-.11.18-.2.34-.29.51a7.74,7.74,0,0,0-.13-.95A1.66,1.66,0,0,1,1,144.66Z"/><path class="cls-95" d="M67.7,164.82c1.56-.74,3.34-.69,4.93-1.33a25.69,25.69,0,0,1,2.64-.73c-.49.39-.48,1.12-1,1.48-1.26.27-2.48.67-3.73,1a3.4,3.4,0,0,1-1.79.07C68.35,165.21,68,165.25,67.7,164.82Z"/><path class="cls-96" d="M68.84,164.94c1.52.34,2.83-.5,4.25-.74.38-.06.8-.52,1.17,0-.29.29-.33.76-.72,1-.84-.48-1.56.19-2.33.28a9.21,9.21,0,0,1-2.32.37A.7.7,0,0,1,68.84,164.94Z"/><path class="cls-97" d="M2.43,140c-.82-1.42-.74-3.12-1.41-4.58-.15-.6.26-1.12.24-1.7A52.91,52.91,0,0,1,2.43,139,1,1,0,0,1,2.43,140Z"/><path class="cls-60" d="M161.75,181.8v-1.62c.52-.32,1.07-.11,1.63-.12a3.79,3.79,0,0,1,.13,1.8A2.94,2.94,0,0,1,161.75,181.8Z"/><path class="cls-98" d="M.74,140.73v2.41a11.76,11.76,0,0,1,0-4.8H.83C.83,139.12,1.31,139.93.74,140.73Z"/><path class="cls-43" d="M82,142.46l-.25.18a1.19,1.19,0,0,1-.32-.93v-2a3.91,3.91,0,0,1,.32-1.38h0C82.19,139.66,81.84,141.08,82,142.46Z"/><path class="cls-17" d="M68.19,111a.51.51,0,0,0,.48-.24c.7.26.76,1.17,1.45,1.45C69.11,112.39,68.84,111.39,68.19,111Z"/><path class="cls-11" d="M28.78,179.35c0-.35-.36-.41-.48-.66.77-.16,1,.29,1,.92Z"/><path class="cls-99" d="M34.37,180.76l.45-.38c.3.27.9.1,1,.69Z"/><path class="cls-73" d="M45.25,100.35h-.76a.87.87,0,0,1-.71-.21C44.28,100.16,44.8,100,45.25,100.35Z"/><path class="cls-98" d="M1,144.66v1.14c-.35-.38-.16-.84-.18-1.27Z"/><path class="cls-33" d="M35.79,165.9a32.13,32.13,0,0,0,7.56,3.64,42.36,42.36,0,0,0,13,2.88,1.62,1.62,0,0,1,.42.2H49.08a41,41,0,0,1-14.67-5.71c-.38-.23-1.15-.44-.62-1.22A2,2,0,0,1,35.79,165.9Z"/><path class="cls-64" d="M2.43,140v-1c1.15,2.17,1.66,4.58,2.62,6.83a61.65,61.65,0,0,0,8.41,14.26,56.67,56.67,0,0,0,4.94,5.57,61.53,61.53,0,0,0,8.44,6.92H25.63a13.52,13.52,0,0,1-3.51-2.43A42.32,42.32,0,0,1,16,164.29c-.13-1-1.11-1.3-1.51-2.06l-.25-.24c-.26-.45-.69-.77-1-1.21h0c-.26-.45-.7-.77-1-1.21h0c-.21-.35-.5-.63-.72-1l-.49-.72c-.69-.94-1.31-1.92-1.93-2.9l-.49-.73c-.39-.52-.55-1.18-1-1.69h0c-1-1.74-1.84-3.52-2.66-5.32H5c-.23-.57-.48-1.13-.73-1.69h0C3.65,143.74,3,141.9,2.43,140Z"/><path class="cls-94" d="M33.61,165.86a23.5,23.5,0,0,0,5.89,3.39,67.17,67.17,0,0,0,9.58,3.37H45.46c-4.86-1-9.09-3.48-13.28-6-.28-.16-.68-.35-.47-.83a1.42,1.42,0,0,1,.75-.24A1.58,1.58,0,0,1,33.61,165.86Z"/><path class="cls-12" d="M40,172.62H37.24c-3.86-1.32-7.09-3.69-10.3-6.1-.22-.17-.59-.38-.25-.77a2.18,2.18,0,0,1,1.47-.1,45.62,45.62,0,0,1,4.43,2.84c2.11,1.24,4.31,2.28,6.47,3.41C39.39,172.07,39.89,172.07,40,172.62Z"/><path class="cls-18" d="M26.6,165.87A48.54,48.54,0,0,0,36.1,172c.39.2.76.45,1.14.67H35.3a11.22,11.22,0,0,1-2.41-1.18c-.36-.31-.84-.44-1.21-.73s-.83-.44-1.21-.73c-1.24-1.1-2.81-1.73-4-2.84a7.45,7.45,0,0,1-1.27-1.24,1,1,0,0,1,1.41-.06Z"/><path class="cls-40" d="M31.68,165.92a53.7,53.7,0,0,0,12.57,6.21c.41.14.8.33,1.21.49H43c-4.36-1.16-8.18-3.42-11.93-5.82-.34-.22-.93-.43-.51-1.07A.85.85,0,0,1,31.68,165.92Z"/><path class="cls-37" d="M40,172.62c-4.05-2-8.12-3.9-11.63-6.78l.14-.12a1.6,1.6,0,0,1,1.1,0,58.38,58.38,0,0,0,8.82,5.15c.83.4,1.71.7,2.53,1.11.3.14.76.14.73.66Z"/><path class="cls-59" d="M41.59,172.62c-1.69-.8-3.39-1.57-5.07-2.4a37.53,37.53,0,0,1-7-4.31.59.59,0,0,1,.83-.16.65.65,0,0,1,.17.16,44.78,44.78,0,0,0,9.28,5.27c1.09.51,2.19,1,3.29,1.44Z"/><path class="cls-100" d="M16.21,164.18a51,51,0,0,0,8.31,7.56c.38.27.88.42,1.11.88h-1a71.59,71.59,0,0,1-8.17-7.3l-.78-.9v-.48C16,163.78,16.07,164,16.21,164.18Z"/><path class="cls-101" d="M32.89,171.44a7.83,7.83,0,0,1,2.41,1.18h-1C34.05,172,33.16,172.09,32.89,171.44Z"/><path class="cls-2" d="M283.81,148.83a.4.4,0,0,1,0-.49c-.25-.67,0-1.38-.18-2a8.17,8.17,0,0,1-.27-1,17.7,17.7,0,0,0-7.56-11.79,19.46,19.46,0,0,0-7.2-2.93,2.52,2.52,0,0,1-1.3-.18h-1.56a17.51,17.51,0,0,0-13.21,5.85A17.26,17.26,0,0,0,248,146.84a14.61,14.61,0,0,0,0,3.37,14.24,14.24,0,0,0,1.88,6.89c3,5.41,7.47,9,13.88,9.6h4.1A18.12,18.12,0,0,0,280.49,159a19.29,19.29,0,0,0,3.14-8C283.85,150.21,283.56,149.5,283.81,148.83Zm-7.37,9.68a11,11,0,0,1-10.66,6.79c-4.94,0-8.47-2.47-10.66-6.84a21.4,21.4,0,0,1-2-10,21.05,21.05,0,0,1,2-9.84c2.18-4.36,5.67-6.83,10.63-6.86a11,11,0,0,1,10.76,6.84,23.22,23.22,0,0,1-.07,19.91Z"/><path class="cls-2" d="M93.77,141.52a12.82,12.82,0,0,0-11.8.94.91.91,0,0,0-.49.08,13,13,0,0,0-3.29,3.21,16.24,16.24,0,0,0-1,1.71c-.19.4-.39.8-.55,1.21s-.3.87-.44,1.3a1.93,1.93,0,0,0-.11.53,8.65,8.65,0,0,0-.25,1.51v2.39a8.7,8.7,0,0,0,0,1.14,1.35,1.35,0,0,0,.07.36c.15.49.27,1,.39,1.48a1.93,1.93,0,0,0,.13.47c.12.29.27.56.37.86a1,1,0,0,0,.55.72c.13.2.28.39.4.59a12.59,12.59,0,0,0,13.91,6.11,13,13,0,0,0,2.07-24.61Zm4,13.89A13.29,13.29,0,0,1,96.19,161a8.38,8.38,0,0,1-11.37,3.39A8.26,8.26,0,0,1,81.43,161a13.6,13.6,0,0,1-1.65-7.68,43.11,43.11,0,0,1,1-4.75c.2-.9.47-1.78.72-2.66a8.27,8.27,0,0,1,11.16-3.54,8.38,8.38,0,0,1,2.9,2.49C97.79,148,98.12,151.69,97.82,155.41Z"/><path class="cls-53" d="M81.72,141.7v.94a21.2,21.2,0,0,0-3.29,3.2c-4.11,3.59-9,5.29-14.33,6a.87.87,0,0,1-.59-.12,1.36,1.36,0,0,1-.3-1.67c.14-.21.31-.17.48,0,.38.54.94.37,1.43.28a27.79,27.79,0,0,0,15-7.49C80.56,142.34,80.89,141.63,81.72,141.7Z"/><path class="cls-102" d="M63.57,151.61a29.64,29.64,0,0,0,14-5.31c.26-.18.56-.31.83-.46l-1,1.67a8.8,8.8,0,0,1-3.29,2.19,29.78,29.78,0,0,1-9.2,2.83c-.48.06-1,.19-1.38-.17A.62.62,0,0,1,63.57,151.61Z"/><path class="cls-103" d="M63.61,152.34a29.53,29.53,0,0,0,8.9-2.27c1.72-.71,3.25-1.72,4.89-2.56l-.53,1.2a3.06,3.06,0,0,1-1.27,1.07,30.64,30.64,0,0,1-10.79,3.56,2.11,2.11,0,0,1-1,0,.65.65,0,0,1-.33-.21A.56.56,0,0,1,63.61,152.34Z"/><path class="cls-56" d="M63.83,153a28.38,28.38,0,0,0,11.68-3.59l1.36-.76-.41,1.22a3.67,3.67,0,0,1-1.11.89A32.12,32.12,0,0,1,65.58,154a2.94,2.94,0,0,1-1.32,0C63.75,153.89,63.5,153.6,63.83,153Z"/><path class="cls-104" d="M63.83,153c0,1.15.92.77,1.42.69a28.84,28.84,0,0,0,6.94-1.86c1.44-.61,2.85-1.3,4.27-2l-.1.48a1.77,1.77,0,0,1-1,1.24,30.39,30.39,0,0,1-10.71,3.29,1.21,1.21,0,0,1-.93-.14A1.19,1.19,0,0,1,63.6,153l.06-.06Z"/><path class="cls-105" d="M63.82,154.75a32.68,32.68,0,0,0,11.37-3.37,2.9,2.9,0,0,0,1.17-1l-.24,1.45a1.23,1.23,0,0,1-.32.48,33.33,33.33,0,0,1-11,3.39,1.19,1.19,0,0,1-1-.22A.6.6,0,0,1,63.82,154.75Z"/><path class="cls-106" d="M76.2,155.9l.4,1.5a33.4,33.4,0,0,1-10.91,3.22,2.89,2.89,0,0,1-1.43,0,1.14,1.14,0,0,1-.26-1.47A25.24,25.24,0,0,0,76.2,155.9Z"/><path class="cls-28" d="M77.06,158.64a38.24,38.24,0,0,1-10.6,3.12,3.63,3.63,0,0,0-1.67.51c-.61-.15-.46-.58-.35-1a1.5,1.5,0,0,1,1-.52,36.8,36.8,0,0,0,10.39-2.81,2.08,2.08,0,0,1,.82-.14Z"/><path class="cls-38" d="M76.07,154.51l.1,1.21a2.66,2.66,0,0,1-1.19.79,40.45,40.45,0,0,1-9.52,2.59,2.36,2.36,0,0,1-1.41-.18.67.67,0,0,1-.08-.75,2.42,2.42,0,0,1,1.65-.6,32.13,32.13,0,0,0,10.08-3A.48.48,0,0,1,76.07,154.51Z"/><path class="cls-30" d="M76.7,157.81a26.69,26.69,0,0,1-7.89,2.73c-1.44.33-2.91.52-4.36.78-.38-.21-.36-.47-.11-.76,1.53-.44,3.12-.47,4.67-.85a37.12,37.12,0,0,0,6.8-2.25c.27-.12.51-.24.79-.06Z"/><path class="cls-36" d="M64.11,158.86a36,36,0,0,0,11.38-2.92c.22-.09.45-.15.68-.22a.15.15,0,0,1,0,.18c0,.66-.56.84-1,1a42.19,42.19,0,0,1-9.68,2.64,1.19,1.19,0,0,1-1.37-.47c-.06-.06-.09-.11-.07-.16S64.09,158.86,64.11,158.86Z"/><path class="cls-107" d="M76.07,154.51H76c-1.66.37-3.13,1.24-4.76,1.71a57.2,57.2,0,0,1-7.2,1.51c-.58-.38-.47-.89-.29-1.42a.39.39,0,0,1,.31-.2,9.47,9.47,0,0,0,3.88-.39,29.19,29.19,0,0,0,6.25-2c.53-.23,1.15-.39,1.44-1a1.46,1.46,0,0,1,.35-.63l.2-.23Z"/><path class="cls-108" d="M81,148.74c-.47,1.53-.43,3.19-1.23,4.63a11.38,11.38,0,0,1,.77-5.35C81.38,147.82,81.1,148.34,81,148.74Z"/><path class="cls-109" d="M81,148.74c0-.33,0-.71-.46-.75a4.69,4.69,0,0,1,.92-2A7.57,7.57,0,0,1,81,148.74Z"/><path class="cls-2" d="M365.16,165.77H374a1.82,1.82,0,0,0,0-.33.23.23,0,0,0-.16-.17c-2.07-.16-2.71-1.73-3.26-3.36q-2.26-6.75-4.5-13.52a78.13,78.13,0,0,1-2.43-7.65c-.83-.56-1.78-.08-2.65-.29-.38,1-.8,2-1.14,3-1.79,5.31-3.52,10.64-5.36,15.93-.84,2.4-1.39,5.09-4.29,6.07v.41c2.23-.13,4.45-.08,6.65,0,0-.5-.12-.59-.34-.65-1.73-.47-2.24-1.22-1.73-2.94a63.33,63.33,0,0,1,2.29-6.81,56.21,56.21,0,0,1,8,0l2.44,7.23a1.87,1.87,0,0,1,0,1.32C367.14,165,365.87,164.93,365.16,165.77ZM357.47,154c1.2-3.57,2.37-7.05,3.66-10.87,1.24,3.79,2.39,7.28,3.58,10.87Z"/><path class="cls-2" d="M203,165.28c-2-.17-2.67-1.72-3.22-3.31-1.08-3.15-2.1-6.32-3.15-9.48q-2-6-4-12h-2.51c-1.39,4.11-2.77,8.18-4.16,12.24-1.09,3.19-2.16,6.39-3.3,9.56-.52,1.44-1.32,2.69-3.06,2.91-.23,0-.29.25-.19.63,2.2-.11,4.44-.08,6.66,0,.06-.54-.17-.6-.42-.66-1.68-.48-2.17-1.16-1.71-2.79.68-2.39,1.48-4.74,2.23-7.09h8.18c.8,2.45,1.61,4.85,2.35,7.27.44,1.47,0,2.16-1.49,2.56-.27.08-.58.07-.53.6h8.44C203.15,165.48,203.07,165.29,203,165.28Zm-16.31-11.34,3.65-10.85c1.26,3.82,2.4,7.29,3.58,10.85Z"/><path class="cls-2" d="M63.88,156.2a3.1,3.1,0,0,0,.17,1.51.27.27,0,0,1,0,.38l0,0v1a3,3,0,0,0,.22,1.45,1,1,0,0,0,.11.76c.11.32,0,.7.34,1a.45.45,0,0,0,.2.48,1.08,1.08,0,0,0,.44.74c.07.46.44.56.79.7a2.47,2.47,0,0,0,1.48.63l1.14.12v.92h0a9.62,9.62,0,0,1-3.66.31c-2.71-.37-5.38.17-8.06.08a4.28,4.28,0,0,1-1.67-.18c-.46-.34-.37-.73-.1-1.13.44-.41,1.07-.29,1.57-.52a3.39,3.39,0,0,0,1.33-.81,2.66,2.66,0,0,0,.46-.76,5.59,5.59,0,0,0,.26-.72,2.82,2.82,0,0,0,.15-.92v-3.52a3.56,3.56,0,0,0-.12-1.21,1.37,1.37,0,0,1-.08-.35,3.43,3.43,0,0,1-.05-.56,11.76,11.76,0,0,0-.13-2.44,2.73,2.73,0,0,1-.1-.76v-.77a5,5,0,0,0-.14-1.68,4.28,4.28,0,0,1-.09-1.13,12.2,12.2,0,0,0-.07-2,1.9,1.9,0,0,1-.09-.36,5.65,5.65,0,0,1-.07-1.09,7.11,7.11,0,0,0-.11-1.78,1.9,1.9,0,0,1-.09-.36,9.49,9.49,0,0,1-.06-1.51A5.3,5.3,0,0,0,57.7,140a5.84,5.84,0,0,1-.09-1.45v-1h-.08c-.28.74-.56,1.48-.87,2.2a6.75,6.75,0,0,0-.51,1.21c-.27.54-.44,1.13-.69,1.68s-.3.81-.49,1.21-.27.69-.42,1a8.8,8.8,0,0,0-.34.88,4.94,4.94,0,0,1-.26.57,7.23,7.23,0,0,0-.47,1.16,10.58,10.58,0,0,0-.47,1.17,10.43,10.43,0,0,0-.47,1.16c-.07.19-.16.37-.25.56a4.54,4.54,0,0,0-.26.7c-.07.18-.16.36-.24.54s-.17.47-.26.7-.3.63-.44.95-.18.46-.27.7a5.05,5.05,0,0,1-.24.53c-.1.23-.16.46-.25.69s-.15.35-.23.53-.17.46-.25.69l-.24.54c-.1.23-.16.47-.25.7a8.31,8.31,0,0,0-.45,1.13c-.08.19-.17.37-.26.55s-.17.37-.25.55c-.16.37-.28.76-.45,1.13a6.59,6.59,0,0,0-.27.7,6.52,6.52,0,0,0-.35.82,1.44,1.44,0,0,1-.14.43c0,.14-.17.36-.25.55a1.55,1.55,0,0,1-.59.88l-.27.72-.28.42-.91-.05-.51-.85a1.41,1.41,0,0,1-.48-.67,13.22,13.22,0,0,0-.66-1.49c-.14-.4-.29-.8-.47-1.19s-.17-.5-.28-.74c-.18-.39-.31-.8-.48-1.19s-.38-.78-.53-1.19-.33-.79-.48-1.2-.27-.67-.43-1-.36-.91-.54-1.37a9.5,9.5,0,0,0-.68-1.49c-.2-.4-.33-.83-.49-1.24-.2-.64-.49-1.25-.72-1.87-.18-.41-.32-.84-.5-1.24-.36-.71-.59-1.47-1-2.17a22.1,22.1,0,0,0-1-2.35c-.91-2-1.72-4-2.55-6-.2.27,0,.56-.06.83a6.09,6.09,0,0,1-.1,1.28c-.27.84,0,1.73-.22,2.57a11,11,0,0,0-.18,2.56,3.91,3.91,0,0,1-.07.39,6,6,0,0,0-.16,1.89,3.08,3.08,0,0,1-.09.75,4.25,4.25,0,0,0-.14,1.46v.93a10.66,10.66,0,0,1-.2,1.09,5.64,5.64,0,0,0,0,.92,5.1,5.1,0,0,1-.09,1.11,3.91,3.91,0,0,0-.15,1.27V156a.9.9,0,0,1-.35.86,9.12,9.12,0,0,0,.08,4.19c.44,2.74,1.37,3.54,4.7,4,.2.43.2.76-.39.82H32.48a17.44,17.44,0,0,0-4.21,0H25.15c-.31-.1-.7.08-.94-.27v-.47c.49-.4,1.19-.06,1.67-.48l.49-.16a1.54,1.54,0,0,0,.93-.58l.26-.24a.71.71,0,0,0,.45-.49l.31-.46.28-.48.34-.75a1.84,1.84,0,0,0,.28-1,2,2,0,0,0,.23-1.21l.06-.48a2,2,0,0,0,.17-1.22v-.48l.05-.67c.22-.4,0-.86.17-1.26l.05-1v-.41a3,3,0,0,0,.18-1.52l.06-.91a1.64,1.64,0,0,0,.15-1l.07-1.21a2.33,2.33,0,0,0,.24-1.13l.05-1,.18-1.45.06-1a6.58,6.58,0,0,0,.22-1.93v-.25l.05-.89c.31-.6-.2-1.15-.1-1.74s.18-1.27.23-1.92a5.29,5.29,0,0,1,.09-1.12,3.23,3.23,0,0,0,.14-1.35,5.61,5.61,0,0,0-2.14-2.46,5.22,5.22,0,0,0-1.2-.49,2.29,2.29,0,0,1-.91-.38c-.42,0-.85-.1-.5-.88h8.7c.36,0,.44.29.54.55.56,1.46,1.27,2.85,1.85,4.29.3.83.64,1.65,1,2.46s.55,1.39.83,2.08c.19.53.42,1,.62,1.57a16.61,16.61,0,0,0,.7,1.71,10.47,10.47,0,0,0,.72,1.69c.15.47.36.93.55,1.39s.33.82.48,1.23.34.81.49,1.22.45,1.1.66,1.66c.1.25.21.49.3.75a6.77,6.77,0,0,0,.41,1c.1.25.17.5.29.74s.3.8.48,1.19.38.78.53,1.19c.3.72.54,1.47.91,2.22a5.07,5.07,0,0,0,.81-1.39,6.79,6.79,0,0,0,.39-.87,6.22,6.22,0,0,1,.29-.71c.11-.22.22-.44.32-.66a5.2,5.2,0,0,0,.21-.55c.07-.18.15-.36.23-.54a5.13,5.13,0,0,0,.25-.69,5.44,5.44,0,0,0,.2-.72,1.82,1.82,0,0,1,.3-.7,3.14,3.14,0,0,0,.45-.94c.07-.19.15-.37.23-.55a4.1,4.1,0,0,0,.23-.7,1.54,1.54,0,0,1,.29-.67c.1-.16.2-.32.29-.49s.14-.35.21-.52.26-.28.38-.42l.27-.73.1-.21a.47.47,0,0,0,.15-.51v-.24c.09-.29.54-.34.47-.73l.21-.48.28-.73.08-.22a.56.56,0,0,0,.2-.5.74.74,0,0,0,.24-.73,3.4,3.4,0,0,0,.68-1.45,9.45,9.45,0,0,0,.76-1.93l.43-1,.28-.73.49-1.2a1,1,0,0,0,.28-.72c-.14-.65.32-1.16.42-1.76a4.51,4.51,0,0,1,.51-1.09,3.5,3.5,0,0,1,.46-.82,1.07,1.07,0,0,1,.36-.21c2.24-.2,4.49-.06,6.74-.08.44,0,.9.06,1.07.59a.86.86,0,0,1,0,.39c-.07.09-.14.21-.26.24A4.55,4.55,0,0,0,62.66,135a1.81,1.81,0,0,0-.17,1.27v1.21a2.79,2.79,0,0,0,.16,1.46v1.68a8,8,0,0,0,.21,2.18v1c.19.48-.08,1,.17,1.48h0V147a4.38,4.38,0,0,0,.18,1.69.94.94,0,0,1,.24.89.61.61,0,0,1-.19.32,3.73,3.73,0,0,0,.18,1.69V153a3.73,3.73,0,0,0,.18,1.69v.73a.57.57,0,0,1,.26.75Z"/><path class="cls-110" d="M57.52,133.24a4,4,0,0,1-.67,1.7,12.71,12.71,0,0,1-7.67-6.9c-3.24-7.47.48-15.66,8.63-17.68a12.71,12.71,0,0,1,5.67,24.78h0c-.27.06-.61.31-.89,0,.32-2,1.34-2.87,3.67-3.06,4.66-3.18,6.43-7.94,4.61-13a10.26,10.26,0,0,0-7.57-6.81,10.77,10.77,0,0,0-13,7.87A10.39,10.39,0,0,0,50,123a10.49,10.49,0,0,0,6.53,9.65A3.2,3.2,0,0,1,57.52,133.24Z"/><path class="cls-17" d="M58.27,109a10.93,10.93,0,0,1,6,.24A40.77,40.77,0,0,0,58.27,109Z"/><path class="cls-17" d="M49.81,114.14A4,4,0,0,1,52,112,11.94,11.94,0,0,1,49.81,114.14Z"/><path class="cls-17" d="M65.77,109.79A3.79,3.79,0,0,1,68.19,111,6.77,6.77,0,0,1,65.77,109.79Z"/><path class="cls-17" d="M56.34,109.55a2.74,2.74,0,0,1,1.93-.49A3.65,3.65,0,0,1,56.34,109.55Z"/><path class="cls-17" d="M54.16,110.51a.86.86,0,0,1,1-.48A1.32,1.32,0,0,1,54.16,110.51Z"/><path class="cls-52" d="M27.57,157.9a1.55,1.55,0,0,1,.73.72.66.66,0,0,1-.73-.6A.24.24,0,0,1,27.57,157.9Z"/><path class="cls-52" d="M25,155.24a1.55,1.55,0,0,1,.73.72.67.67,0,0,1-.73-.62A.34.34,0,0,1,25,155.24Z"/><path class="cls-13" d="M30,155.24a2.35,2.35,0,0,1-.17,1.26,2,2,0,0,0-.05-.54v-.72Z"/><path class="cls-7" d="M144,188.12c-.1-.38-.18-.77-.31-1.15a4,4,0,0,0-4.38-2.68,4.18,4.18,0,0,0-3.75,3.94c.05.67,0,1.36,0,2a4.11,4.11,0,0,0,2,3.45,5.62,5.62,0,0,0,2.87.66c.41-.2.88,0,1.3-.17l1.33-.32a1.45,1.45,0,0,0,.07-1.64c-.57,0-.94.6-1.53.49a4.31,4.31,0,0,1-2.08,0c-1.72-.18-2-1.51-2.39-2.94h6.67C144.18,189.27,144,188.68,144,188.12Zm-6.58.36a2.62,2.62,0,0,1,2.3-2.9l.29,0c1.39.08,2.23,1.17,2.2,2.92Z"/><path class="cls-7" d="M100.46,189.64c.26-2.69-.75-4.59-2.68-5.14-2.55-.72-5.27.27-5.7,3.86a4,4,0,0,0,0,1.68,5.37,5.37,0,0,0,1,2.81,4.72,4.72,0,0,0,4,1.53c.42-.2.9,0,1.32-.18l1.27-.47a1.83,1.83,0,0,0,0-1.38l-1.48.38a4.52,4.52,0,0,1-2.07,0,2.59,2.59,0,0,1-2.23-2.92.57.57,0,0,1,0-.18Zm-6.57-1.17c.3-2,1.25-3,2.65-2.91s2.15,1,2.27,2.91Z"/><path class="cls-7" d="M59,189.69c.26-3-.88-4.88-3.3-5.36a4.35,4.35,0,0,0-3,.47c-1.71,1-2,2.73-2.23,4.28.21,2.69,1.08,4.72,3.87,5.28.39.07.82-.2,1.25,0,.42-.2.89,0,1.32-.18a2.52,2.52,0,0,0,1.43-.66,2.5,2.5,0,0,0-.12-1.28c-.57.1-.93.57-1.47.47a4.31,4.31,0,0,1-2.08,0,2.58,2.58,0,0,1-2.22-2.93.2.2,0,0,1,0-.07Zm-4-4.13c1.44,0,2.34,1.09,2.35,2.93H52.45a2.56,2.56,0,0,1,2.18-2.9,1.9,1.9,0,0,1,.25,0Z"/><path class="cls-7" d="M181,192.73a4.57,4.57,0,0,1-2.08,0,2.58,2.58,0,0,1-2.21-2.92.57.57,0,0,1,0-.18h6.58c0-1.75-.18-3.26-1.44-4.39a4.17,4.17,0,0,0-4.49-.65c-1.69.61-2.33,2.07-2.53,3.76a4,4,0,0,0,0,1.68,5.17,5.17,0,0,0,1.09,2.9,4.75,4.75,0,0,0,3.92,1.44c.42-.2.9,0,1.32-.18l1.27-.47a2.17,2.17,0,0,0,0-1.38Zm-1.81-7.18c1.42,0,2.25,1,2.4,3h-4.86a2.65,2.65,0,0,1,2.28-3l.13,0Z"/><path class="cls-111" d="M38.88,181.13H38c-2.48-1.2-5-2.34-7.42-3.61a12.2,12.2,0,0,1-3.69-2.39h1a17.42,17.42,0,0,1,1.91,1l.3.16a54.32,54.32,0,0,0,8.65,4.19c.37.14.91.08,1,.68Z"/><path class="cls-12" d="M29,175.08c.29.63,1.25.44,1.44,1.19a.57.57,0,0,1-.72,0c-.46-.42-1.22-.48-1.44-1.19Z"/><path class="cls-112" d="M28.31,175.08c.4.49,1.11.61,1.44,1.19a3.55,3.55,0,0,1-1.93-1.18Z"/><path class="cls-93" d="M5.09,153.79l.48.24a.49.49,0,0,0,.24.48c.29.38.42.85.73,1.21h0C7.3,157,8.09,158.18,9,159.35l.48.72c.21.35.5.63.72,1h0c.22.34.5.63.73,1l.24.24c.26.45.7.76,1,1.21h0c.39.64,1,1,1.45,1.69a.76.76,0,0,0,.48.48A33.33,33.33,0,0,0,18,169.5a.76.76,0,0,0,.48.48c.64.4,1.05,1.07,1.7,1.46,1.51.74,2.6,2.09,4.07,2.89v.73a25.25,25.25,0,0,1-4.82-3.52A63.56,63.56,0,0,1,6.26,156.25C5.79,155.48,5.07,154.8,5.09,153.79Z"/><path class="cls-11" d="M22.49,174.82a.7.7,0,0,1-.72-.48C22.28,174.1,22.28,174.62,22.49,174.82Z"/><path class="cls-19" d="M44.22,163.93a1.25,1.25,0,0,1,.28.74A26,26,0,0,1,38.6,162a66.27,66.27,0,0,1-7.13-4.85,1.94,1.94,0,0,0-.07-.33l.06-.88c.61-.13,1,.31,1.36.63a43.31,43.31,0,0,0,9.93,6.15A2.58,2.58,0,0,1,44.22,163.93Z"/><path class="cls-113" d="M52,147l-.22.48c-.82.46-1.5-.14-2.12-.43a25.7,25.7,0,0,1-11-9.38c-.32-.5-.34-1.17-.9-1.53l-2.13-5a.28.28,0,0,0,0-.13,31.56,31.56,0,0,1-1.19-9.22,26.33,26.33,0,0,1,11.87-21.24l.73.08c-1.23,1-2.37,1.77-3.42,2.69a24.76,24.76,0,0,0-8.35,14.93,25.43,25.43,0,0,0,5.9,21.33,27.44,27.44,0,0,0,9.39,7A3.43,3.43,0,0,0,52,147Z"/><path class="cls-104" d="M29.74,131a33.57,33.57,0,0,1-1-5.89A27.6,27.6,0,0,1,29.55,115a33.86,33.86,0,0,1,5.86-12.43A3.69,3.69,0,0,1,36,102c.28-.44.7-.76,1-1.21l.24-.46h1.4l-2.12,2.51a29.66,29.66,0,0,0-6.77,15.41A33,33,0,0,0,30.47,131Z"/><path class="cls-114" d="M31.42,139.76a3.93,3.93,0,0,1-.2,1.77A7.23,7.23,0,0,0,30,139a29.32,29.32,0,0,1-2.68-6.89,1.27,1.27,0,0,1,1,.19C29.14,134.85,30.54,137.2,31.42,139.76Z"/><path class="cls-101" d="M30.47,170a1.51,1.51,0,0,1,1.21.73A1.48,1.48,0,0,1,30.47,170Z"/><path class="cls-101" d="M31.68,170.71a1.51,1.51,0,0,1,1.21.73A1.48,1.48,0,0,1,31.68,170.71Z"/><path class="cls-37" d="M.74,140.73v-2.42c.89,2.52,1.56,5.11,2.6,7.59a64,64,0,0,0,9.76,16.34,60.31,60.31,0,0,0,10.41,9.91c.38.29.74.64.6,1.21a26.28,26.28,0,0,1-4.29-3.27A62.32,62.32,0,0,1,5.67,152.33a63,63,0,0,1-4.42-10.39A3,3,0,0,0,.74,140.73Z"/><path class="cls-94" d="M18,169.5a12.12,12.12,0,0,1-3.87-3.87A37.21,37.21,0,0,1,18,169.5Z"/><path class="cls-94" d="M9,159.35a10.24,10.24,0,0,1-2.42-3.63A14.93,14.93,0,0,1,9,159.35Z"/><path class="cls-94" d="M20.08,171.44c-.83-.18-1.22-.87-1.7-1.46C19.21,170.16,19.6,170.85,20.08,171.44Z"/><path class="cls-94" d="M13.55,165.15c-.59-.48-1.27-.87-1.45-1.69C12.68,163.93,13.37,164.32,13.55,165.15Z"/><path class="cls-94" d="M12.1,163.46a1.82,1.82,0,0,1-1-1.21C11.58,162.55,12,162.84,12.1,163.46Z"/><path class="cls-94" d="M6.54,155.72a1.48,1.48,0,0,1-.73-1.21A1.51,1.51,0,0,1,6.54,155.72Z"/><path class="cls-94" d="M10.16,161a1.12,1.12,0,0,1-.72-1A1.16,1.16,0,0,1,10.16,161Z"/><path class="cls-94" d="M10.89,162a1.14,1.14,0,0,1-.73-1A1.18,1.18,0,0,1,10.89,162Z"/><path class="cls-115" d="M46.47,164.43a1.91,1.91,0,0,1,.43-1,32.5,32.5,0,0,0,7.2,1.82,2.66,2.66,0,0,1,1.39.59c4.47-.12,8.94-.16,13.41,0-.47.76-1.39.51-2,.55a52.35,52.35,0,0,1-8.76.31,41.06,41.06,0,0,0-5.06-.49,7.17,7.17,0,0,1-2.42-.6C49.31,165.16,47.76,165.25,46.47,164.43Z"/><path class="cls-105" d="M37,100.84c-.06.62-.52.91-1,1.21A1.82,1.82,0,0,1,37,100.84Z"/><path class="cls-116" d="M63.39,149.68v-1A26.75,26.75,0,0,0,77.22,143a35.82,35.82,0,0,0,4.49-4.64v1.44c-.51,1.54-1.82,2.43-2.94,3.43a26.7,26.7,0,0,1-13.51,6.47A2.92,2.92,0,0,1,63.39,149.68Z"/><path class="cls-45" d="M63.09,145.35a2.77,2.77,0,0,1-.17-1.48h.19v1A4.61,4.61,0,0,1,63.09,145.35Z"/><path class="cls-112" d="M29.75,176.27h.72a103.84,103.84,0,0,0,10.38,4.81h-1.2a83.74,83.74,0,0,1-8.3-3.77A5.88,5.88,0,0,1,29.75,176.27Z"/><path class="cls-97" d="M5.09,147.26a33.87,33.87,0,0,1,2.66,5.32A16.61,16.61,0,0,1,5.09,147.26Z"/><path class="cls-97" d="M2.43,140a37.7,37.7,0,0,1,1.93,5.56A16.15,16.15,0,0,1,2.43,140Z"/><path class="cls-97" d="M9.2,155a9.43,9.43,0,0,1,1.93,2.9A6.35,6.35,0,0,1,9.2,155Z"/><path class="cls-97" d="M16.21,164.18l-.48-.24c-.28-.65-1.15-.89-1.21-1.69C15.17,162.81,16,163.27,16.21,164.18Z"/><path class="cls-97" d="M7.75,152.58a2.61,2.61,0,0,1,1,1.69A2.51,2.51,0,0,1,7.75,152.58Z"/><path class="cls-97" d="M4.36,145.57a2.51,2.51,0,0,1,.73,1.69A2.39,2.39,0,0,1,4.36,145.57Z"/><path class="cls-97" d="M12.34,159.59c.45.3.91.59,1,1.21C12.86,160.5,12.4,160.2,12.34,159.59Z"/><path class="cls-97" d="M13.31,160.8c.45.3.91.59,1,1.21C13.82,161.71,13.37,161.41,13.31,160.8Z"/><path class="cls-97" d="M11.62,158.62a1.17,1.17,0,0,1,.72,1A1.12,1.12,0,0,1,11.62,158.62Z"/><path class="cls-99" d="M34.1,180.14a5.19,5.19,0,0,1-2.9-1.45A10.65,10.65,0,0,1,34.1,180.14Z"/><path class="cls-67" d="M81.72,141.7a48.37,48.37,0,0,1-5.64,4.67,28.12,28.12,0,0,1-12.26,4.38c-.28-.18-.2-.4-.22-.59.6-.71,1.5-.49,2.25-.64a27,27,0,0,0,14.54-7.92c.36-.37.62-1,1.33-.87Z"/><path class="cls-117" d="M81.72,140.73a50.29,50.29,0,0,1-5.83,5A27.22,27.22,0,0,1,64.77,150c-.4.05-.78.15-1.17.23l-.21-.24v-.24A38.59,38.59,0,0,0,70.23,148a27.78,27.78,0,0,0,11.49-8.24Z"/><path class="cls-12" d="M28.27,165.86a12.4,12.4,0,0,1,4.21,0l-.8.07H29.51Z"/><path class="cls-71" d="M63.88,156.2v-.72a32.19,32.19,0,0,0,9.83-2.5c.73-.33,1.48-.59,2.23-.89v.73a26,26,0,0,1-11.81,3.39Z"/><path class="cls-34" d="M64.08,158.14v-.43a.9.9,0,0,1,.85-.54,31.09,31.09,0,0,0,10-2.72c.29-.13.75-.67,1,.06,0,.44-.4.56-.73.7a33.79,33.79,0,0,1-10,2.7A10.59,10.59,0,0,0,64.08,158.14Z"/><path class="cls-76" d="M64.08,156.21c1.66-.41,3.37-.54,5-1,2.34-.61,4.51-1.66,6.78-2.42-.28.86-1.13,1-1.78,1.24a35.09,35.09,0,0,1-9.47,2.57C64.28,156.68,64.12,156.55,64.08,156.21Z"/><path class="cls-118" d="M57.52,133.24a9,9,0,0,1-6.2-4.55,11,11,0,0,1,1.87-14.15,10.84,10.84,0,0,1,6.35-2.85,11,11,0,0,1,12.14,9A10.84,10.84,0,0,1,66.87,132c-.21.14-.4.29-.61,0h0c.21-.35,0-.72,0-1.07a2.74,2.74,0,0,1,1-1.21,9.64,9.64,0,1,0-15.68-10.23A9.74,9.74,0,0,0,56.3,131.3c.57.29,1.26.36,1.65.95C58,132.67,57.44,132.81,57.52,133.24Z"/><path class="cls-119" d="M58,132.27a9.87,9.87,0,0,1-4-16.83,9.33,9.33,0,0,1,10-2.06,9.88,9.88,0,0,1,3.27,16.78,7.57,7.57,0,0,0-.8.9c-.36.24-.74.08-1.12.1-.28-.62.32-.69.6-.93a9.69,9.69,0,0,0,3.66-5.52c1.42-6.67-4.25-11-8.64-11.06a9.12,9.12,0,0,0-2.74,17.9Z"/><path class="cls-120" d="M58.25,131.55c-1.53.25-2.6-.75-3.56-1.6-2.92-2.56-4.14-5.84-3.07-9.64a8.91,8.91,0,0,1,7.13-6.76,9.39,9.39,0,0,1,11.17,7.17,9.2,9.2,0,0,1,.22,1.73A9.55,9.55,0,0,1,65.28,131c-.26.28-.59.12-.89.14-.26-.78.49-.8.84-1.06a8.62,8.62,0,0,0-2.17-15.65,8.91,8.91,0,0,0-9.18,3.06,8.56,8.56,0,0,0,1.54,12,8.83,8.83,0,0,0,1.64,1,5.42,5.42,0,0,1,1.06.57.66.66,0,0,1,.21.31A.18.18,0,0,1,58.25,131.55Z"/><path class="cls-21" d="M44.22,163.93c-1.84-1.21-4-1.91-5.83-3.06-2.43-1.48-4.65-3.23-6.93-4.9v-.74c.21-.46.54-.32.78-.1a54.25,54.25,0,0,0,11.13,7.21l.21.12Z"/><path class="cls-121" d="M43.61,162.46a25.72,25.72,0,0,1-5.66-2.8,34.71,34.71,0,0,1-5.74-4.26c-.23-.21-.42-.38-.72-.17a2,2,0,0,1,.16-1.21c.81-.11,1.2.57,1.68,1a43.51,43.51,0,0,0,9.75,6.22A2.9,2.9,0,0,1,43.61,162.46Z"/><path class="cls-22" d="M43.08,161.21c-1.3,0-2.23-.82-3.27-1.37A47.82,47.82,0,0,1,31.65,154l.07-1.18c.48-.11.74.25,1,.52a40.1,40.1,0,0,0,8.85,6.27,3.4,3.4,0,0,1,1.23.93A.82.82,0,0,1,43.08,161.21Z"/><path class="cls-24" d="M42.81,160.55a41.44,41.44,0,0,1-11.09-7.72l.07-1c1,.16,1.54,1.09,2.27,1.68a44.7,44.7,0,0,0,7.35,5,2.34,2.34,0,0,1,.91.77A2.51,2.51,0,0,1,42.81,160.55Z"/><path class="cls-23" d="M42.32,159.35a40.39,40.39,0,0,1-10.53-7.47l.13-1c.49-.16.75.21,1,.48a38.6,38.6,0,0,0,8.14,6.18,4.83,4.83,0,0,1,.76.59A2.62,2.62,0,0,1,42.32,159.35Z"/><path class="cls-122" d="M40.83,143.89l-.74-1.7c.49-.21.74.17,1,.43a28.17,28.17,0,0,0,9.06,5.93c.34.13.68.26.82.64s-.1.51-.25.73c-.35.28-.69.06-1-.07a28.15,28.15,0,0,1-7.93-4.75A8,8,0,0,1,40.83,143.89Z"/><path class="cls-116" d="M37.66,136.16c.61.14.65.73.93,1.15a25.67,25.67,0,0,0,8.62,8.12,20.24,20.24,0,0,0,4.51,2.07.5.5,0,0,1-.21.49c-.42.37-.84.13-1.24,0a26.67,26.67,0,0,1-10.85-8.16c-.3-.38-.39-.89-.75-1.23A11.84,11.84,0,0,1,37.66,136.16Z"/><path class="cls-123" d="M32,149.92a3,3,0,0,1,.18-1.51,42.1,42.1,0,0,0,8.06,6.76c.32.2.44.57.73.77a2,2,0,0,1,.41,1c-.47.34-.86,0-1.22-.2a43.32,43.32,0,0,1-7.58-5.9A2.76,2.76,0,0,1,32,149.92Z"/><path class="cls-27" d="M32,149.92a52.37,52.37,0,0,0,7.76,6.24,4.57,4.57,0,0,0,1.62.77,3,3,0,0,1,.49,1.21,29.54,29.54,0,0,1-6.35-4c-1.31-.94-2.28-2.24-3.56-3.21Z"/><path class="cls-67" d="M51,149.19a28.4,28.4,0,0,1-10.32-6.59c-.19-.15-.38-.28-.58-.41l-.63-1.46c.45-.63.65,0,.88.2a31.12,31.12,0,0,0,7.42,5.84c1.15.65,2.46,1,3.55,1.71Z"/><path class="cls-124" d="M47.88,161a2.33,2.33,0,0,1,.48-1.2,35.14,35.14,0,0,0,9.31,1.86,2.21,2.21,0,0,1,1.55.55A.85.85,0,0,1,59,163c-1,.66-2,.14-3,.06a31.65,31.65,0,0,1-7.46-1.62A1,1,0,0,1,47.88,161Z"/><path class="cls-28" d="M59.22,162.25a45.28,45.28,0,0,1-9.74-1.7c-.41-.13-1-.06-1.12-.71a.58.58,0,0,1,.22-.53,4,4,0,0,1,1.66.28,32.45,32.45,0,0,0,8.07,1.35,1.57,1.57,0,0,1,1.12.34A1.48,1.48,0,0,1,59.22,162.25Z"/><path class="cls-30" d="M41,155.94a37.26,37.26,0,0,1-8.28-6.62,1.32,1.32,0,0,1-.51-.91v-.66A.66.66,0,0,1,33,148,37.8,37.8,0,0,0,40,154.17l.33.35A4.1,4.1,0,0,1,41,155.94Z"/><path class="cls-23" d="M47.88,161c1.93.44,3.85.9,5.78,1.32A40.7,40.7,0,0,0,59,163a1,1,0,0,1-.46.73,1.75,1.75,0,0,1-1.15.29,41,41,0,0,1-9.19-1.83.94.94,0,0,1-.58-.41A.91.91,0,0,1,47.88,161Z"/><path class="cls-31" d="M59.47,159.83v.73a1.88,1.88,0,0,1-1.6.33,39.09,39.09,0,0,1-8.51-1.67,1,1,0,0,1-.59-.38,3.12,3.12,0,0,1,.53-1.26A24.7,24.7,0,0,0,55.17,159a28.8,28.8,0,0,1,3.19.45C58.74,159.56,59.16,159.52,59.47,159.83Z"/><path class="cls-102" d="M40.83,143.89a30.92,30.92,0,0,0,7.7,5.14c.73.32,1.48.59,2.21.89l-.21.48c-.37.58-.87.32-1.29.13a31.22,31.22,0,0,1-7-4.06c-.32-.25-.43-.68-.8-.87A5.47,5.47,0,0,1,40.83,143.89Z"/><path class="cls-125" d="M47.59,161.75c1.86.44,3.7,1,5.58,1.31a29.85,29.85,0,0,0,5.34.64,2,2,0,0,1-1.22.88,25.88,25.88,0,0,1-10-2.09Z"/><path class="cls-30" d="M48.76,158.84c2.09.28,4.07,1.07,6.19,1.32a28.42,28.42,0,0,0,4.51.4v.72a32.16,32.16,0,0,1-10.12-1.59c-.26-.07-.57-.09-.73-.38Z"/><path class="cls-126" d="M40.35,154.51a18.31,18.31,0,0,1-4.47-3.19c-1.28-1.14-2.47-2.38-3.7-3.57a5,5,0,0,1,.19-2c1.22,2.48,3.4,4.08,5.44,5.8a13.89,13.89,0,0,0,1.9,1.43A4.57,4.57,0,0,1,40.35,154.51Z"/><path class="cls-74" d="M51.31,148.48A19.81,19.81,0,0,1,44.55,145a23.52,23.52,0,0,1-4.6-4.2.34.34,0,0,0-.47-.11l0,0-.79-2.17c1.16,1.27,2.23,2.62,3.48,3.78A26.42,26.42,0,0,0,51,147.91a2.33,2.33,0,0,0,.59.08A.48.48,0,0,1,51.31,148.48Z"/><path class="cls-38" d="M49.56,156.91a.56.56,0,0,1,.22-.53c1.14-.09,2.15.51,3.24.69a34.25,34.25,0,0,0,5.43.74,1.35,1.35,0,0,1,1,.33v1c-.93.51-1.89.1-2.82,0a25,25,0,0,1-6.34-1.29C50,157.7,49.29,157.64,49.56,156.91Z"/><path class="cls-114" d="M32.63,142.85a8.32,8.32,0,0,1,.23-2.67.73.73,0,0,1,.22.27A4.06,4.06,0,0,0,34.19,143c1,1.16,1.91,2.34,2.88,3.49a9.15,9.15,0,0,1,.89,2.2c0,.48-.34.29-.43.17-1.59-1.9-3.84-3.21-5-5.52A.72.72,0,0,1,32.63,142.85Z"/><path class="cls-57" d="M41.49,145.6A41.79,41.79,0,0,0,48.84,150c.54.23,1,.64,1.69.36a2,2,0,0,1-.4,1c-.83.23-1.46-.3-2.14-.59A28.38,28.38,0,0,1,43,148a3,3,0,0,1-.89-1Z"/><path class="cls-36" d="M39.71,153c-1.08,0-1.63-.91-2.38-1.44a28.11,28.11,0,0,1-3.88-3.6,2.83,2.83,0,0,1-1.08-2.19.12.12,0,0,1,0-.17h0a.4.4,0,0,1,.52.13,69.34,69.34,0,0,0,6.34,6.14Z"/><path class="cls-36" d="M49.56,156.91c.61,1.06,1.8.89,2.72,1.15a41.42,41.42,0,0,0,7.19,1.05v.72c-3.19-.31-6.41-.44-9.42-1.72a1.24,1.24,0,0,1-.76-.53A.83.83,0,0,1,49.56,156.91Z"/><path class="cls-73" d="M53,148.65a2.42,2.42,0,0,1,.48-1.2c1.74.56,3.62.52,5.32,1.26l.06,1.12a.32.32,0,0,1,0,.39,12.53,12.53,0,0,1-5.29-.78C53.13,149.34,52.81,149.12,53,148.65Z"/><path class="cls-127" d="M39.25,151.83a7.46,7.46,0,0,1-2.58-1.9c-1.47-1.41-2.86-2.91-4.28-4.37a8.26,8.26,0,0,1,.24-2.71v.55a12.67,12.67,0,0,0,3.92,5,7.35,7.35,0,0,0,1.85,1.48A6.92,6.92,0,0,1,39.25,151.83Z"/><path class="cls-22" d="M47.24,162.49c1.87.43,3.73.88,5.6,1.28,1.47.31,3,.54,4.45.81a2.9,2.9,0,0,1-1.63.34,2.06,2.06,0,0,1-1.39.27A31.89,31.89,0,0,1,48,163.71c-.36-.13-.93-.15-.84-.8Z"/><path class="cls-34" d="M59.44,158.14a24.92,24.92,0,0,1-9.66-1.76.8.8,0,0,1,.27-.66,1.33,1.33,0,0,1,1,0A35.32,35.32,0,0,0,58.27,157c.43.05.9.05,1.1.57Z"/><path class="cls-128" d="M38.45,149.91c0,.33-.14.43-.43.19a31.57,31.57,0,0,1-4.77-4.83,2.06,2.06,0,0,1-.57-1.87c1.36,2,3.44,3.25,4.82,5.18.09.14.23.37.46.13A2.44,2.44,0,0,1,38.45,149.91Z"/><path class="cls-105" d="M50.74,154a.86.86,0,0,1,.29-.7,1.77,1.77,0,0,1,1.28.1,28.64,28.64,0,0,0,4.85.93c.5.05,1.13.38,1.48-.33a3.08,3.08,0,0,1,.15-.72A.65.65,0,0,1,59,153a8.54,8.54,0,0,1,.2,2.71c-2.78.35-5.39-.43-8-1.2A.72.72,0,0,1,50.74,154Z"/><path class="cls-129" d="M31.42,139.76a29.91,29.91,0,0,1-3.13-7c-.06-.18-.19-.37,0-.54a1.7,1.7,0,0,1,1.22.48,37,37,0,0,0,2.09,5.09Z"/><path class="cls-56" d="M42.09,147a34.38,34.38,0,0,0,8,4.38,1,1,0,0,0-.34.69,2.61,2.61,0,0,1-2-.52c-1.85-.91-3.89-1.56-5.18-3.34A2.52,2.52,0,0,1,42.09,147Z"/><path class="cls-20" d="M47.12,162.91A18.52,18.52,0,0,0,53,164.64a8,8,0,0,0,2.62.28,1.07,1.07,0,0,0-.17.93A53.92,53.92,0,0,1,48,164.2c-.45-.14-1-.15-1.06-.76A.57.57,0,0,1,47.12,162.91Z"/><path class="cls-130" d="M58.73,148.71A25.7,25.7,0,0,1,54,148a.81.81,0,0,1-.62-.52,2.33,2.33,0,0,1,.5-1.2,12.36,12.36,0,0,0,3.55.85c.67,0,.78-.43,1.08-.6A6.11,6.11,0,0,1,58.73,148.71Z"/><path class="cls-107" d="M59.42,157.65c-1.56-.24-3.11-.5-4.67-.71a18.49,18.49,0,0,1-4.7-1.22.5.5,0,0,1,.2-.5c.5-.32,1-.09,1.5,0a27.79,27.79,0,0,0,7.53,1.13A2.32,2.32,0,0,1,59.42,157.65Z"/><path class="cls-131" d="M59,154c.09.74-.41.76-.92.72a25.73,25.73,0,0,1-7-1.44,1.61,1.61,0,0,1,.43-1.07A23.9,23.9,0,0,0,57,153.48,3.93,3.93,0,0,1,59,154Z"/><path class="cls-105" d="M33,140.5l-.06-.32c0-.46,0-.93.07-1.39.23-.44-.08-1,.2-1.4,1,1.31,1.26,2.92,2,4.35.37.75.66,1.55,1,2.33-.37.67-.65.12-.84-.11A11.4,11.4,0,0,1,33,140.5Z"/><path class="cls-131" d="M42.58,148.23a26.39,26.39,0,0,0,7.21,3.86.79.79,0,0,1-.24.73c-.06.06-.14.13-.2.11-2.33-.74-4.66-1.48-6.29-3.49A2.62,2.62,0,0,1,42.58,148.23Z"/><path class="cls-132" d="M59,154a31.39,31.39,0,0,1-7-1.21.61.61,0,0,1-.5-.58.8.8,0,0,1,.27-.66,27.12,27.12,0,0,0,6.06,1.2,1.59,1.59,0,0,1,1.17.52Z"/><path class="cls-133" d="M31.63,137.83c-1.09-.72-1.17-2-1.62-3.05-.27-.63-.91-1.23-.47-2a4.9,4.9,0,0,1,2.35,2.44c-.23.48,0,1-.19,1.49Z"/><path class="cls-57" d="M59,153.3a39.56,39.56,0,0,1-5.82-1c-.51-.16-1.13-.14-1.41-.75l.19-.48c1.61-.08,3.09.59,4.65.79.81.1,1.7-.14,2.42.45V153Z"/><path class="cls-71" d="M50.74,154A23.36,23.36,0,0,0,58,155.47a2.56,2.56,0,0,1,1.27.25v.48c-1.21.64-2.43.06-3.63,0a28.73,28.73,0,0,1-4.41-1c-.34-.09-.72-.2-.68-.69A.52.52,0,0,1,50.74,154Z"/><path class="cls-55" d="M59,152.34a19.42,19.42,0,0,1-7-1.24c0-.26.06-.53.3-.7a1.43,1.43,0,0,1,1,0,35.93,35.93,0,0,0,4.93.91,1.27,1.27,0,0,1,.76.32Z"/><path class="cls-134" d="M43.06,149.44a22.08,22.08,0,0,0,6.49,3.38l-.28.72a.87.87,0,0,1-1,0,25.83,25.83,0,0,1-4.54-2.38Z"/><path class="cls-67" d="M53,148.65c.16.44.56.46.94.59a41.88,41.88,0,0,0,4.85.92c.24.24.17.5-.07.94-2.08-.13-4.25-.11-6.24-1.2A2.66,2.66,0,0,1,53,148.65Z"/><path class="cls-135" d="M52.41,149.9c2,.45,4,.71,6,1,.4-.13.34-.43.32-.7a.57.57,0,0,1,.07-.33,4.3,4.3,0,0,1,.17,1.78,22.71,22.71,0,0,1-6.74-1.21A.49.49,0,0,1,52.41,149.9Z"/><path class="cls-136" d="M33,140.5c.82,1.08,1.62,2.17,2.45,3.23.16.21.25.67.69.34a12,12,0,0,1,1,2.44A16.79,16.79,0,0,1,33,141.78C32.79,141.48,33,140.93,33,140.5Z"/><path class="cls-136" d="M43.72,151.15A15.39,15.39,0,0,1,47,152.61a10.74,10.74,0,0,0,2.31.93l-.21.49c-.25.49-.65.31-1,.22l-.3-.11a4.14,4.14,0,0,0-1.63-.58,2.42,2.42,0,0,1-1.44-.76c-.19-.33-.43-.62-.62-.94Z"/><path class="cls-66" d="M58.54,146.5l-.16,1a14.22,14.22,0,0,1-4.19-.76c-.21-.07-.25-.28-.28-.48l.17-.47a6.49,6.49,0,0,1,4.46.74Z"/><path class="cls-137" d="M50.54,154.51A8,8,0,0,0,54,155.6a19.93,19.93,0,0,0,5.22.6.14.14,0,0,1,0,.19h0c-.75.6-1.62.33-2.41.24a44.06,44.06,0,0,1-6.62-1.41A.89.89,0,0,1,50.54,154.51Z"/><path class="cls-138" d="M54.88,143.86a1.94,1.94,0,0,1,.49-1.2,3.66,3.66,0,0,1,2.94.72h0a5.38,5.38,0,0,1,.1,1.44,4.62,4.62,0,0,1-3-.25C55.11,144.45,54.81,144.27,54.88,143.86Z"/><path class="cls-139" d="M58.54,146.52l-4.46-.74.37-.94c1.42-.47,2.72.12,4,.49Z"/><path class="cls-140" d="M58.31,143.38c-1-.36-2-.23-2.94-.72a3.77,3.77,0,0,1,.7-1.75,4.36,4.36,0,0,0,1.89.59,1.35,1.35,0,0,1,.27.2Z"/><path class="cls-141" d="M44.74,152.58a2.57,2.57,0,0,0,1.45.72c.56.25,1.12.51,1.69.73h0c.3.2.7.2,1,.48l-.28.73c-1.69.37-2.71-.77-3.84-1.69a.81.81,0,0,1-.26-.67C44.34,152.58,44.5,152.55,44.74,152.58Z"/><path class="cls-142" d="M48,156.71,47,159a10.88,10.88,0,0,1-1.27-3A2.78,2.78,0,0,1,48,156.71Z"/><path class="cls-143" d="M58.49,145.33c-1.39.17-2.67-.53-4-.49a1.91,1.91,0,0,1,.43-1c1,.84,2.14.67,3.26.81.25-.44.07-.89.16-1.31A4.63,4.63,0,0,1,58.49,145.33Z"/><path class="cls-144" d="M58,141.7c-.73-.08-1.63.28-2-.79a1.66,1.66,0,0,1,.49-1.18,1.8,1.8,0,0,1,1.57.61A3.12,3.12,0,0,1,58,141.7Z"/><path class="cls-145" d="M58,140.24a2,2,0,0,1-1.42-.51,10.74,10.74,0,0,1,1-2.61c.66.22.12.85.41,1.19l.07,1.63C58.16,140.07,58.13,140.17,58,140.24Z"/><path class="cls-146" d="M44.73,153.55c1.32.48,2.34,1.61,3.84,1.69l-.28.72c-1.28.25-2.15-.53-3.07-1.21A2.4,2.4,0,0,1,44.73,153.55Z"/><path class="cls-147" d="M45.22,154.75c1.08.26,2,1,3.07,1.21l-.33.75a8.06,8.06,0,0,1-2.25-.75A2.43,2.43,0,0,1,45.22,154.75Z"/><path class="cls-110" d="M64.33,131h2.21c0,.33.11.7-.2,1a.81.81,0,0,0,0-.68h-8l-.07-.07c0-.52.48-.48.83-.56h3.29C63,130.79,63.74,130.55,64.33,131Z"/><path class="cls-148" d="M58,138.31c-.39-.31,0-.88-.41-1.19,0-.17,0-.31.41-.29Z"/><path class="cls-149" d="M58,140.24l.08-.3a3.9,3.9,0,0,1,.17,1.76H58Z"/><path class="cls-150" d="M48.85,154.51a1.29,1.29,0,0,1-1-.48c.39-.09.78.27,1.18,0Z"/><path class="cls-150" d="M44.74,152.58l-.27.3a1.84,1.84,0,0,1-.43-1A1.75,1.75,0,0,1,44.74,152.58Z"/><path class="cls-151" d="M33.13,137.39c0,.47.17,1-.2,1.4A2.2,2.2,0,0,1,33.13,137.39Z"/><path class="cls-152" d="M31.7,136.67c0-.5-.19-1,.19-1.49A3,3,0,0,1,31.7,136.67Z"/><path class="cls-153" d="M59,131a.75.75,0,0,0-.72.27c-4.33-1.49-6.2-4.25-6.45-8.1a8.84,8.84,0,0,1,8.33-9.32h.18a9,9,0,0,1,9.32,8.67c0,.28,0,.56,0,.84a9.15,9.15,0,0,1-4.6,7.21l-.7.45H62.4c0-.58.54-.52.88-.63a8.21,8.21,0,0,0,5-10.48l0-.07a8.1,8.1,0,0,0-10.46-4.63l-.3.12a7.78,7.78,0,0,0-4.91,7.39,7.88,7.88,0,0,0,5.11,7.5C58.18,130.42,58.83,130.36,59,131Z"/><path class="cls-150" d="M47.88,154a2.39,2.39,0,0,1-1.69-.73A2.51,2.51,0,0,1,47.88,154Z"/><path class="cls-154" d="M59,131a9.52,9.52,0,0,1-5.16-3.49,8,8,0,0,1-1.13-7A8.36,8.36,0,1,1,68.41,126a8.47,8.47,0,0,1-6,5Z"/><path class="cls-155" d="M68.43,122.75a7.63,7.63,0,0,1-7.49,7.77h-.29a7.7,7.7,0,0,1-7.7-7.69A7.86,7.86,0,0,1,60.86,115h.35C64.82,115.2,68.71,118.86,68.43,122.75Z"/><path class="cls-156" d="M57.79,122.68a3,3,0,0,1,3-3h0a3.24,3.24,0,0,1,3.06,3.11,3.08,3.08,0,0,1-3.2,2.93A2.8,2.8,0,0,1,57.78,123C57.78,122.88,57.78,122.78,57.79,122.68Z"/></svg>