<svg id="Layer_1" data-name="Layer 1" xmlns="http://www.w3.org/2000/svg" viewBox="0 0 400 300"><defs><style>.cls-1{fill:#bed74f;}.cls-2{fill:#d2d2d4;}.cls-3{fill:#29ace3;}.cls-4{fill:#383536;}.cls-5{fill:#2cade3;}.cls-6{fill:#0ca85a;}.cls-7{fill:#05a85a;}.cls-8{fill:#17a95b;}.cls-9{fill:#12a95b;}.cls-10{fill:#16a95c;}.cls-11{fill:#d4d3e1;}.cls-12{fill:#8b8788;}.cls-13{fill:#918d8d;}.cls-14{fill:#b6b3b3;}.cls-15{fill:#383535;}.cls-16{fill:#fff;}.cls-17{fill:#373435;}.cls-18{fill:#fafbfb;}.cls-19{fill:#f6f6f5;}.cls-20{fill:#363334;}.cls-21{fill:#373537;}.cls-22{fill:#d5d3e5;}.cls-23{fill:#04a85a;}.cls-24{fill:#3c393a;}.cls-25{fill:#3b3839;}.cls-26{fill:#373535;}.cls-27{fill:#fcfcfb;}</style></defs><title>Shriram</title><path class="cls-1" d="M38.85,229.72l-12.24-6.58-3-1.67V137l-21.92-.45L.49,132l37.68-22C38,99,37.78,88.16,37.59,77.25c3.45-1.48,6.78-2.94,10.13-4.35,2.12-.89,4.17-1.91,6.36-2.62.41.36.35.86.35,1.33v32.56a2.45,2.45,0,0,1-1.31,2.32c-8,4.87-16,9.69-24,14.55-4.63,2.84-9.29,5.63-13.9,8.47a6.84,6.84,0,0,0-1,.69,5.44,5.44,0,0,0,.1,4.3,3.38,3.38,0,0,0,.83.08c3.93-.13,7.85.2,11.76.31,3.44.11,6.9,0,10.32.42a2.3,2.3,0,0,1,1.37.41,3.39,3.39,0,0,1,.34,2.17c0,7.83-.13,15.69,0,23.53.46,22,.06,44,.2,66A2.6,2.6,0,0,1,38.85,229.72Z"/><path class="cls-2" d="M14.11,130c3.5-2.16,7-4.34,10.51-6.49L53.36,106a7.11,7.11,0,0,0,.72-.5V70.32h.27a1.58,1.58,0,0,1,.11.93V104.8a1.51,1.51,0,0,1,0,.52,7.22,7.22,0,0,0,0-1.47V71.61a2.67,2.67,0,0,1,.11-1.28l8.21.86c1.8.19,3.59.38,5.39.55l4.18.36c.44.38.3.84.3,1.26V79a3.12,3.12,0,0,0,.21,1.39c-.14.11-.07.33-.22.43.08,1.56.2,3.12.22,4.69V94a1.89,1.89,0,0,0,.21,1.26l19-11.69,57.58,50.72v4.57c-4.69-.11-9.35-.41-14.14-.2v76.19a10.78,10.78,0,0,1-4.58.42,4.25,4.25,0,0,0,.36-2.19c0-14.12-.19-28.24.06-42.35.22-11.86.06-23.7.18-35.56a3,3,0,0,1,.26-1.52,2,2,0,0,1,1.56-.36h6.42a1.49,1.49,0,0,0,1.4-.45Q116.63,111.71,92,90.72a3,3,0,0,0-1.27.54c-3.57,2.06-7.08,4.23-10.66,6.24-.67.37-1.24,1-2.13.81-1.24,0-2.11.92-3.11,1.47a61.17,61.17,0,0,0-6,3.43c-.13.09-.38,0-.72,0V76.57l-9-1.07v33.79c-2.1,1.22-4.22,2.44-6.32,3.68L31.16,125.73c-1,.6-2.06,1.17-3.1,1.73a1.28,1.28,0,0,0-.71,1.64v0l16.9.73v99.09l-5.41.78V164.78c0-9.32-.09-18.63-.13-27.94v-1.08c-1.35-.09-2.64-.2-3.92-.24l-20-.57c-.3,0-.65.11-.89-.19C14,133.18,13.65,131.56,14.11,130Z"/><path class="cls-3" d="M77.9,98.31,92,90.16l49.5,42.45c.15.14.14.17.11,1h-9.7c.11,27.21-.39,54.34-.19,81.3-.22.46-.5.36-.72.41-2.77-.78-5.5-1.74-8.34-2.27l5.21-.86c-.8-6-1.58-11.85-2.39-17.77a9.2,9.2,0,0,0-3,.19c-.49.22-1,0-1.52.18h-.62c-.64.27-1.34-.06-2,.2h-.42c-.46,0-1.16.56-1.22-.47a5.19,5.19,0,0,0,.25-3.43c1.09-1.83.92-3.87,1.17-5.8.65-5,1-10.08,1.34-15.13A4.94,4.94,0,0,0,116,164.8a38.19,38.19,0,0,1-4.85-2.17V134.91l9.26-.65-43-35.52Z"/><path class="cls-4" d="M364.54,141.79l12.32,32.34,12.24-32.37h8.58v40.16h-6V152.36l-.29-.08c-3.74,9.86-7.46,19.72-11.21,29.65h-6.65l-11.2-29.66h-.19v29.65H356V141.79Z"/><path class="cls-4" d="M177.49,154.4h-6c-.08-1.48-.11-2.9-.24-4.31-.15-1.65-.57-2.23-2.2-2.48a46.35,46.35,0,0,0-13.15-.08,3.06,3.06,0,0,0-2.82,2.89,15.77,15.77,0,0,0-.06,4.5c.28,2.05,1,2.77,3,3,3.47.35,6.95.61,10.42.91a35.85,35.85,0,0,1,5.07.64,7.61,7.61,0,0,1,6.28,6.61,26,26,0,0,1-.11,9.34,7.76,7.76,0,0,1-6.54,6.53c-4.27.84-8.61.67-12.93.55a32,32,0,0,1-3.67-.3c-4.78-.64-7.53-3.35-8.29-8.1a38.72,38.72,0,0,1-.26-6.37h6.14c.08,1.53.11,3.1.26,4.66.29,3,1.13,3.86,4.07,4a71.21,71.21,0,0,0,10.93.06,10.57,10.57,0,0,0,1.76-.28c1.79-.45,2.36-1.1,2.56-2.94a25.18,25.18,0,0,0,0-5.35c-.22-2.24-.68-2.74-2.92-2.94-3.95-.35-7.9-.63-11.86-.95a19.25,19.25,0,0,1-4.77-.9,7.45,7.45,0,0,1-5.21-6,21.76,21.76,0,0,1-.06-8.51c.8-4.32,3.21-6.69,7.56-7.13a65.89,65.89,0,0,1,15.31.14c5,.69,7.49,3.37,7.83,8.44A20.58,20.58,0,0,1,177.49,154.4Z"/><path class="cls-4" d="M184.88,141.75H191v16.48h20V141.8h6.11V182h-6V164.32H191v17.62h-6.16Z"/><path class="cls-4" d="M264.1,141.78h6.07v40.16H264.1Z"/><path class="cls-3" d="M246.46,206.2V191.76a7.12,7.12,0,0,1,2.35-.06v18.12a8.47,8.47,0,0,1-2.75.09L235.32,195l-.3.06c0,4.9.27,9.81.13,14.78a6.8,6.8,0,0,1-2.38,0V191.78a9.16,9.16,0,0,1,2.86-.08l10.56,14.61Z"/><path class="cls-3" d="M307.24,209.85a6,6,0,0,1-2.38,0v-18.1a11.25,11.25,0,0,1,2.84-.06l10.77,14.89V191.85a5.19,5.19,0,0,1,2.38-.14v18.1a9.33,9.33,0,0,1-2.69.14c-3.57-4.95-7.16-9.94-11-15.21C307,200,307.39,204.88,307.24,209.85Z"/><path class="cls-3" d="M346.7,195c-.44,5,0,9.88-.16,14.79a5.94,5.94,0,0,1-2.3.07V191.76a9.89,9.89,0,0,1,2.77-.06l10.76,14.87V191.83a5.76,5.76,0,0,1,2.41-.13v18.12a8.35,8.35,0,0,1-2.73.09Z"/><path class="cls-3" d="M267.76,203c-1.08-.3-2.16,0-3.21-.21a1.85,1.85,0,0,1-.13-1.56h5.72v8.54a2.16,2.16,0,0,1-1.6.07c-.39-.74-.09-1.56-.3-2.36a.44.44,0,0,0-.33.14c-2.33,3-5.45,3.34-8.79,2.47a8.46,8.46,0,0,1-6.21-6.59c-1.35-5.25,1.07-10.26,5.74-11.86,4.17-1.42,9.12-.34,11,3.9a3,3,0,0,1,.39,1.34c-.34.35-.76.18-1.14.21s-.78,0-1.23,0a5.79,5.79,0,0,0-3.15-3.56A6.49,6.49,0,0,0,256,197q-.12.3-.21.6c-.88,3-.83,6.08,1.37,8.65a6.14,6.14,0,0,0,6.45,2,5.09,5.09,0,0,0,4-4,3.94,3.94,0,0,0,.14-.7A5.78,5.78,0,0,0,267.76,203Z"/><path class="cls-3" d="M221.41,196.38a8.17,8.17,0,0,1-2.42.06,5.5,5.5,0,0,0-7.15-3.05,6.09,6.09,0,0,0-1,.55,2.58,2.58,0,0,0-1.31,2.48,2.43,2.43,0,0,0,1.75,2.17c2,.8,4.25.92,6.32,1.63a6.81,6.81,0,0,1,3,1.78,4.7,4.7,0,0,1-.78,6.59l-.09.07c-2.92,2.41-8.61,2.42-11.56,0a5.21,5.21,0,0,1-1.86-4.32h2.31c.71,4.27,5,4.67,7.94,3.55a3.11,3.11,0,0,0,2.2-3,3,3,0,0,0-2.4-2.76c-1.81-.54-3.68-.93-5.5-1.45a8.92,8.92,0,0,1-2.18-.92,4.11,4.11,0,0,1-1.59-5.59,4.37,4.37,0,0,1,.78-1,6.54,6.54,0,0,1,3.41-1.82,11.68,11.68,0,0,1,6.77.44A5.41,5.41,0,0,1,221.41,196.38Z"/><path class="cls-3" d="M381.76,197a7,7,0,0,1-2.66.06,5.35,5.35,0,0,0-4.14-3.67,6.63,6.63,0,0,0-7.82,4.58,8.3,8.3,0,0,0,2.13,8.93c2.36,2,6.54,2,8.63-.11a6.81,6.81,0,0,0,1.36-2.63,7.34,7.34,0,0,1,2.56,0,6.5,6.5,0,0,1-2.83,4.76,9.66,9.66,0,0,1-13.42-2.52,9.33,9.33,0,0,1-1.12-2.23c-1.58-4.89.31-10.08,4.48-12.06a10.52,10.52,0,0,1,8.65-.13A7.14,7.14,0,0,1,381.76,197Z"/><path class="cls-3" d="M148.55,201.32v8.5a5.58,5.58,0,0,1-2.44,0V191.75a7.37,7.37,0,0,1,2.39,0v7.42h9.74v-7.36a5.56,5.56,0,0,1,2.4-.08v18.11a9.81,9.81,0,0,1-2.3.12v-8.64Z"/><path class="cls-3" d="M200.38,191.7a7.44,7.44,0,0,1,2,0c.32.31.21.69.21,1v10.47c0,4.5-2.24,6.86-6.76,7.22a13.42,13.42,0,0,1-3.9-.22c-3.32-.7-5.07-2.79-5.2-6.68s0-7.6,0-11.41a1.36,1.36,0,0,1,.12-.39,7.31,7.31,0,0,1,2.19,0c.32.42.19.87.19,1.29,0,3.25.07,6.5,0,9.75-.08,4,1.51,5.67,5.84,5.59,3.46-.06,5.06-1.67,5.12-5.15s0-6.74,0-10.11A2.45,2.45,0,0,1,200.38,191.7Z"/><path class="cls-3" d="M396.29,199.06v2.09h-8.21v6.67h9.43a3.7,3.7,0,0,1,.17,2H385.57V191.7h11.79a3.13,3.13,0,0,1,.1,1.89h-9.4v5.47Z"/><path class="cls-3" d="M293.76,191.75a2.49,2.49,0,0,1,0,1.86h-9.42v5.47h8.46v2.09h-8.57v8.68a7,7,0,0,1-2.32,0v-18.1Z"/><path class="cls-3" d="M225.53,191.72a7.2,7.2,0,0,1,2.27,0v18.09a6,6,0,0,1-2.27.11Z"/><path class="cls-5" d="M299.89,209.89h-2.24V191.8a4.72,4.72,0,0,1,2.24-.09Z"/><path class="cls-6" d="M197.08,223.57h4.46a2.83,2.83,0,0,0,.11-1.58c-.72-.27-1.49,0-2.25-.18-.27-.39-.11-.78-.08-1.24h3.78V224a1,1,0,0,1-.87,1,29.8,29.8,0,0,1-6.12,0c-.7-1.2-.8-5.93-.25-7.35a1.85,1.85,0,0,1,1.41-.46h4.16c1.39,0,1.75.45,1.61,2l-1,.27c-.47-.15-.18-.65-.47-.77h-4.46Z"/><path class="cls-7" d="M341.17,225a28.36,28.36,0,0,1-6.89,0,24.54,24.54,0,0,1-.1-7.21,3.19,3.19,0,0,1,2.26-.54h3.44c1.42,0,1.77.45,1.64,2l-1,.28c-.42-.14-.23-.52-.48-.77h-4.46v4.85h4.49a2.83,2.83,0,0,0,.1-1.5c-.74-.36-1.57,0-2.29-.25a1.58,1.58,0,0,1,0-1.17h3.8C341.49,222,342,223.5,341.17,225Z"/><path class="cls-7" d="M210,217.22h1.54c.5,1.64,1,3.25,1.63,5.22.63-1.94,1.16-3.53,1.68-5.11a1,1,0,0,1,1.12,0l1.71,5.09,1.52-5.13a2.27,2.27,0,0,1,1.34-.08c-.8,2.6-1.59,5.12-2.35,7.59-.32.41-.67.28-1.12.24-.55-1.68-1.11-3.36-1.77-5.37-.64,1.93-1.2,3.59-1.74,5.23a1,1,0,0,1-1.13,0C211.65,222.48,210.85,219.92,210,217.22Z"/><path class="cls-6" d="M398.93,217.37a2.05,2.05,0,0,1,.45,1.59c-.27.34-.7.33-1,.43-.37-.12-.2-.51-.43-.74h-4a3.18,3.18,0,0,0,0,1.62h3.62c1.56,0,1.85.31,1.9,1.9,0,1.78,0,1.78-.52,2.78a19.18,19.18,0,0,1-5.76,0c-1-.13-.87-1.07-.9-1.79a1.47,1.47,0,0,1,1.1-.39c.35.14.16.53.45.76H398c.3-.52.09-1,.18-1.61a18.67,18.67,0,0,0-3.34-.12c-2,0-2.3-.29-2.3-2.35a3.68,3.68,0,0,1,.43-2A16,16,0,0,1,398.93,217.37Z"/><path class="cls-6" d="M246.08,225a25.09,25.09,0,0,1-6,0,2,2,0,0,1-.64-1.8,1.5,1.5,0,0,1,1-.38c.4.1.13.61.55.78h4.08c.36-.53.12-1.08.22-1.75h-3.76c-1.47,0-1.83-.35-1.85-1.81a3.91,3.91,0,0,1,.45-2.61,15.71,15.71,0,0,1,5.88,0,2.13,2.13,0,0,1,.48,1.53c-.29.38-.73.39-1.2.47l-.25-.78h-3.91c-.33.51-.12,1-.2,1.65h3.76c1.53,0,1.88.35,1.87,1.91A3.35,3.35,0,0,1,246.08,225Z"/><path class="cls-7" d="M378.54,225V219.8l-2.86,4.59-2.89-4.67v5.17a1.07,1.07,0,0,1-1.16.16V217.3a1.8,1.8,0,0,1,1.17,0c.94,1.48,1.91,3,3,4.69,1-1.62,2-3.14,2.89-4.61.38-.27.74-.11,1.18-.16V225A1.55,1.55,0,0,1,378.54,225Z"/><path class="cls-6" d="M184.88,217.28c.66-.28,1.05,0,1.49.45,1.58,1.48,3.17,2.93,4.67,4.33v-4.72a1.55,1.55,0,0,1,1.28-.05V225c-.72.4-1.14,0-1.63-.51-1.5-1.42-3-2.83-4.51-4.21V225a1.34,1.34,0,0,1-1.3.11Z"/><path class="cls-6" d="M166.13,225c-.73.28-1.12-.07-1.56-.48-1.53-1.44-3.1-2.83-4.55-4.16v4.5a1.65,1.65,0,0,1-1.35.2v-7.76c.65-.36,1.07,0,1.51.44,1.55,1.47,3.11,2.92,4.59,4.29v-4.59c.47-.44.89-.21,1.35-.25Z"/><path class="cls-6" d="M324.61,220.35v4.58a1.27,1.27,0,0,1-1.25.09v-7.74c.74-.32,1.13.12,1.57.54,1.53,1.44,3.08,2.85,4.55,4.2v-4.65a1.6,1.6,0,0,1,1.32-.09V225c-.78.46-1.2-.13-1.7-.58C327.58,223,326.07,221.65,324.61,220.35Z"/><path class="cls-8" d="M384.7,221.64a5.18,5.18,0,0,0,0,2h4.85a2.56,2.56,0,0,1,.15,1.47h-6.5v-7.82h6.35a2,2,0,0,1,.08,1.29h-4.84a3.13,3.13,0,0,0-.11,1.74h2.74a1.81,1.81,0,0,1,0,1.37Z"/><path class="cls-6" d="M304.63,217.24V225c-.61.38-1,.11-1.52-.35-1.58-1.48-3.21-2.92-4.63-4.2v4.47a1.3,1.3,0,0,1-1.3.17v-7.75c.62-.3,1,0,1.45.43,1.54,1.47,3.13,2.91,4.61,4.3v-4.6A1.78,1.78,0,0,1,304.63,217.24Z"/><path class="cls-7" d="M355.7,221.75h-4.54v3.17a1.7,1.7,0,0,1-1.43.11v-7.74a2,2,0,0,1,1.37,0v2.87h4.59c.32-.92,0-1.92.2-2.88a2.08,2.08,0,0,1,1.35,0V225c-.36.28-.79.16-1.29.11C355.61,224,356,222.9,355.7,221.75Z"/><path class="cls-7" d="M286.6,217.24a2.47,2.47,0,0,1,1.4.08v6.2h4.26v-6.07c.48-.44.93-.19,1.53-.33-.09,2.62.24,5.16-.25,7.79a22.54,22.54,0,0,1-6.14.09.94.94,0,0,1-.79-1.05C286.6,221.74,286.6,219.53,286.6,217.24Z"/><path class="cls-8" d="M284.57,217.23a1.8,1.8,0,0,1,0,1.33h-4.81a6.11,6.11,0,0,0,0,2.09h2.42a1.77,1.77,0,0,1,.06,1.46h-2.51v2.75a1.56,1.56,0,0,1-1.49.17v-7.8Z"/><path class="cls-6" d="M147.13,220.69h2.38a1.43,1.43,0,0,1,0,1.39h-2.44c-.33,1,0,2-.22,2.88-.42.29-.86.13-1.34.13v-7.82h6.3a2.29,2.29,0,0,1,0,1.27H147A3.18,3.18,0,0,0,147.13,220.69Z"/><path class="cls-6" d="M260.43,217.25a1.43,1.43,0,0,1,0,1.36h-2.75v6.26c-.48.39-.92.21-1.5.26v-6.49H253.4a1.46,1.46,0,0,1-.11-1.39Z"/><path class="cls-6" d="M236.18,217.22h1.72l-3.35,4.39V225a1.85,1.85,0,0,1-1.56,0c1.14-3.32-1.49-5.25-3.17-7.71h2l2.19,2.94Z"/><path class="cls-9" d="M153.91,217.29a2.77,2.77,0,0,1,1.31-.07V225c-.39.25-.81.09-1.31.09Z"/><path class="cls-10" d="M181.4,225.08h-1.3v-7.86l1.3-.05Z"/><path class="cls-9" d="M319.89,225a2.1,2.1,0,0,1-1.31,0v-7.69c.35-.3.8-.12,1.31-.12Z"/><path class="cls-11" d="M54.59,70.31v34.92h-.24V70.3Z"/><path class="cls-12" d="M59.82,119.33h-.28a1.34,1.34,0,0,1-1.37-.22l-.27-.28a1.34,1.34,0,0,1,1.85.38A.75.75,0,0,1,59.82,119.33Z"/><path class="cls-13" d="M55.11,124.35l-.3-.28a.42.42,0,0,1,.48-.23C55.5,124.1,55.29,124.22,55.11,124.35Z"/><path class="cls-14" d="M72.67,80.75c0-.17,0-.35.22-.43C72.91,80.51,72.88,80.68,72.67,80.75Z"/><path class="cls-15" d="M128.17,212.07c-.78-6-1.44-12-2.47-17.84a5,5,0,0,0-3.15,0,3.78,3.78,0,0,1-1.53.2,4.82,4.82,0,0,0-.75.1,6.29,6.29,0,0,1-1.79.16,3,3,0,0,0-.51.09c-.33.05-.66.28-1,0a1.19,1.19,0,0,1,.09-.47c.61-1.68.54-3.48.82-5.23a177.72,177.72,0,0,0,1.86-19.27,4.47,4.47,0,0,0-1.6-4.06,20.44,20.44,0,0,0-7-3.12l-12.65-5.54a4.53,4.53,0,0,1,2.13-4.55,2.62,2.62,0,0,0,1.09-1.48,4.7,4.7,0,0,0-1.21-4.82,3.56,3.56,0,0,1,1.28-3.15c1.63-1.62,2.15-3.8,1.32-5.27a4.74,4.74,0,0,0-5.6-2.5,1.59,1.59,0,0,1-2-.82,8.31,8.31,0,0,0-5.44-4.1c-6.21-1.78-12.1-2-17.27,3-3.15,3-4.11,6.14-2.45,10.36.86,2.19.79,3.47-2.25,4.14-.14-.22-.29-.45-.43-.69-1.46-2.55-2.35-5.36-3.65-8a6.33,6.33,0,0,1-.44-4.68,5.74,5.74,0,0,0,.14-3.05c-.78-3.07-1.53-6.14-2.51-9.16a8.71,8.71,0,0,0-1.38-3,.19.19,0,0,0-.28,0h0c-.24.63.11,1.16.28,1.71a10.49,10.49,0,0,1,.65,3.36,1.39,1.39,0,0,1-1.67-1s0-.06,0-.09a12.18,12.18,0,0,1-.47-4.21c-.07-.18-.17-.31-.39-.24-1.43.58-2,2.24-1.7,4.55.15.29.66.09.73.71,0,1.54-.25,3.29.51,5,.19.4-.06.76-.48.93-1.73-.67-2.63-3.41-1.85-5.61,0-.23,0-.35-.3-.28a4.22,4.22,0,0,0-1.64,1.35,12.42,12.42,0,0,0,1.23,4.27c-1.21,1-2.14.82-2.71-.54a6.09,6.09,0,0,1-.19-3.56c-.9.06-1.28.78-1.85,1.1-1.44,0-2.63.62-2.87,1.7a4.48,4.48,0,0,0,2,5.09c-.56,2.52,1,4.19,2.21,6.18l-1.53,1.17c.09.45.13.68.19.91,2.67,9.17,5.12,18.39,6.29,27.9.33,2.6.89,5.18.49,7.8-.42,2.86-1,5.7-1.47,8.55-.69,4-1.37,8-2.08,12.07,4.28,2.26,9,2.83,13.63,4.06.15,1.14.29,2.23.44,3.42l-13.68,3.22a1.61,1.61,0,0,0-.28,2c.36.63,1,.54,1.58.48l18.59-1.77c2-.18,3.93-.39,5.93-.59.36-1.32.71-2.56,1-3.72a1.75,1.75,0,0,1,2.31,0c1,2.75,1.93,5.5,2.89,8.23,6.48,1.63,12.85,3.26,19.23,4.84,2.6.64,3.43-.3,2.69-3.08L122.66,213C124.48,212.92,126.35,213.17,128.17,212.07ZM96.89,149a52.4,52.4,0,0,0-.2,7.72,2.41,2.41,0,0,1-1.48,2.59.49.49,0,0,1-.26.23,3.3,3.3,0,0,0-1.2.25,14.49,14.49,0,0,0-2.61.42c-.32.14-.67,0-1,.16a1.34,1.34,0,0,1-.3.12c-.3.07-.62,0-.9.17a.75.75,0,0,1-.29.09,2.61,2.61,0,0,0-.87.15l-.28.08a3,3,0,0,0-.89.13,1,1,0,0,1-.29.1,2.51,2.51,0,0,0-.92.24,1,1,0,0,1-.34,0,10.55,10.55,0,0,1-1.59,0,.5.5,0,0,1-.28-.22c-2.08-.63-4.19-1.17-6.23-1.9-3.12-1.12-4.25-2.94-3.54-6.15.75-3.41.32-6.78,0-10.18a7.3,7.3,0,0,1,.12-2.94,2.73,2.73,0,0,1,3-2.06,4.7,4.7,0,0,1,.38.53,2.34,2.34,0,0,1,.22.55A9.37,9.37,0,0,0,75.72,142c.38.69.93.78,1.29.28A2.46,2.46,0,0,1,79.89,141a3.89,3.89,0,0,1,2.38,2.48,1.56,1.56,0,0,0,.13.19.6.6,0,0,1,.23.34c.11.94,0,1.9.1,2.84a3.77,3.77,0,0,1,0,1.34,2.15,2.15,0,0,0,0,1.5c.37.65,1.13,1.22.52,2.11-.44.65-1.46.79-2.62.41a15,15,0,0,1-3.33-2c.11.6,3.82,4.85,4.87,5.69.13.08.26.17.39.24l.28.13a2.29,2.29,0,0,0,.6.18l.32.08a16.34,16.34,0,0,0,3.28,0l.33-.09a1.93,1.93,0,0,0,.62-.23,5.63,5.63,0,0,0,2-1.94c1-1.56,1.94-3.17,3.7-4.14-.59-.78-1-.55-1.36,0-.94,1.53-2.51,2-4.07,2.43-1.1.31-1.64-.09-2-1.2a1.61,1.61,0,0,1,.46-.81c.19-.24.49-.42.46-.89-1.46.22-3.18,1.21-4-1.06a3.93,3.93,0,0,1-.06-.69,3,3,0,0,1,.09-.73,2.65,2.65,0,0,0,.2-1.36v-1a1.89,1.89,0,0,0,0-.75,5.42,5.42,0,0,1,0-.57,1.09,1.09,0,0,0-.1-.53l-.1-.25a2.67,2.67,0,0,1,0-.4v-.13c-.61-1.57-2-2.39-3.2-3.33-.27-1.41.2-1.92,1.57-1.68,1.59.28,3.15.51,4.66-.49,1.29.84,2.65.45,4,.2a4.51,4.51,0,0,1,3.65.57c.93.68.94,1.12,0,1.95-3.73-.31-5.16.38-6,2.91a2,2,0,0,0,2-.75,3.27,3.27,0,0,1,3.48-.83,10.59,10.59,0,0,0,1.76.29,2.1,2.1,0,0,1,2.12,2.05,1.66,1.66,0,0,1,0,.32A37.35,37.35,0,0,1,96.89,149Z"/><path class="cls-16" d="M121.59,195.5a.6.6,0,0,0,.58,0,2.68,2.68,0,0,1,1.89.06c.54,4.35,1.08,8.69,1.64,13.14l-17.89,2.43c-.69-4.82-1.37-9.54-2.06-14.32l9.76-.83c.89-.31,1.84.06,2.74-.22h.83C119.9,195.43,120.77,195.77,121.59,195.5Z"/><path class="cls-16" d="M55.39,130.57a9.69,9.69,0,0,0,3.5,4.73.72.72,0,0,0,.47-.91c-2.58-2.22-1.94-3.62.46-4.63a7.58,7.58,0,0,1-1.28-2.09,1.17,1.17,0,0,1,.25-1.31,1,1,0,0,1,1.41.07c2.39,2,4.09,6.45.77,9.31a4.08,4.08,0,0,1-4.71.49c-1.13,1-2.36,1.38-3.75.48A4.07,4.07,0,0,1,51,132.6a1.3,1.3,0,0,1,1.23-1.09A7.63,7.63,0,0,0,55.39,130.57Z"/><path class="cls-16" d="M106.64,189.48c-.79.16-.83.7-1,1.19-.24.72-.63,1.36-1.51,1.22s-1-.92-.93-1.67a5.27,5.27,0,0,1,2.08-4,2.28,2.28,0,0,1,1.89-.52,28.59,28.59,0,0,1,5.2,1.73c.67.3,1.34.58,2,.84a2,2,0,0,1,1.4,2.46.14.14,0,0,1,0,.06,4.14,4.14,0,0,1-3.43,2.91c-.44-.06-.53-.49-.9-.71-.43.29-.89.57-1.32.89a1.45,1.45,0,0,1-1.59.27c-.84-.66-.44-1.64-.53-2.51A2.31,2.31,0,0,0,106.64,189.48Z"/><path class="cls-16" d="M103.91,196.89l1.85,14.18a5.42,5.42,0,0,1-4.39-.2c-.61-4.56-1.22-9.1-1.83-13.71A32,32,0,0,1,103.91,196.89Z"/><path class="cls-17" d="M83.36,142.64c.07.05.09.11,0,.17s.06.39.2.55a.66.66,0,0,1,0,.58.89.89,0,0,1,0,.75,1.74,1.74,0,0,1,0,1.06c-.25.49,0,1-.2,1.53v.61a.65.65,0,0,0,0,.71c1,1.44,1,1.45,4,.51.75,1.24-.8,1.45-1,2.28a1.3,1.3,0,0,0,1.54.92c1.63-.35,3.24-.8,4.17-2.39a4.73,4.73,0,0,1,.43-.57l.33-.21a1.45,1.45,0,0,1,1.3.91c-.09.13-.14.33-.27.37-1.8.7-2.54,2.39-3.54,3.84a4.71,4.71,0,0,1-2.38,2.19c-.13.14-.34.09-.48.21l-.1.06h-.11a14.82,14.82,0,0,1-3.88,0h-.11l-.09-.05c-.15-.14-.36-.1-.52-.2h-.11l-.09-.07-.29-.17a2.57,2.57,0,0,1-1.39-1,22,22,0,0,0-4.07-4.38c-.14-.61.07-.85.43-1,1.93,1,3.46,3.32,6,1.89.48-1.09-.61-1.21-.64-1.84a2.86,2.86,0,0,1,0-1.64,2.36,2.36,0,0,1,0-1.29,9.42,9.42,0,0,0,0-3.09.11.11,0,0,1,0-.16l0,0,.16-.46c.66,1.1.12,2.24.5,3.24a12.34,12.34,0,0,0-.08-3.64.51.51,0,0,1,.16-.63h0C83.28,142.3,83.23,142.51,83.36,142.64Z"/><path class="cls-16" d="M95.73,160.27a1.09,1.09,0,0,1,.31,1.38,17.43,17.43,0,0,1-3.17,5.26,1.52,1.52,0,0,1-2.14.34,10.6,10.6,0,0,1-3.63-3.69,1.19,1.19,0,0,1,.15-1.38c2.81-.32,5.58-1.42,8.5-1.9Z"/><path class="cls-16" d="M82.35,162.4c.35,1.69-1.38,4.07-3.38,5-2.82-1.71-4.83-5.22-3.91-7.12C77.66,160.33,79.75,162.26,82.35,162.4Z"/><path class="cls-18" d="M58.17,119.1a1.92,1.92,0,0,1,1.37.22A18.09,18.09,0,0,1,60.87,125l-2.11-.52a21.85,21.85,0,0,1-.86-4.33A1.31,1.31,0,0,1,58.17,119.1Z"/><path class="cls-19" d="M49.66,127a14.29,14.29,0,0,0,1.19,3.79.79.79,0,0,1-1.1.29.68.68,0,0,1-.21-.17,3.92,3.92,0,0,1-.9-3.4C48.79,127,49.05,126.73,49.66,127Z"/><path class="cls-20" d="M95.05,159.3a.11.11,0,0,1,.14,0l0,0c.53,0,.17,1,.88.62,0,.37-.22.35-.36.38h0c-1.5-.9-3-.13-4.44.09-2.44.38-4.8,1.28-7.31,1.32a3.55,3.55,0,0,1-1.77-.41l1-.1a.12.12,0,0,1,.16,0l0,0a3,3,0,0,0,1.92,0,.08.08,0,0,1,.12,0l0,0c.31-.2.72,0,1-.23h0c.35-.29.85.09,1.19-.27h0c.3-.2.7,0,1-.21a.1.1,0,0,1,.13,0l0,0c.31-.2.72,0,1-.21l.06-.06H90c.33-.18.74,0,1-.21a10.34,10.34,0,0,1,2.77-.5C94.17,159.3,94.66,159.59,95.05,159.3Z"/><path class="cls-21" d="M118.25,195.74a8.41,8.41,0,0,1-2.74.22C116.39,195.47,117.34,195.81,118.25,195.74Z"/><path class="cls-21" d="M121.59,195.5a7.82,7.82,0,0,1-2.51.22C119.88,195.22,120.75,195.58,121.59,195.5Z"/><path class="cls-21" d="M116.67,194.54c.1.93.84.24,1.22.47-.4.38-.83.24-1.26.15a.38.38,0,0,1,0-.55Z"/><path class="cls-21" d="M118.3,195a5.21,5.21,0,0,1,2-.2C119.65,195.23,119,194.92,118.3,195Z"/><path class="cls-21" d="M124.06,195.53l-1.89-.05A1.66,1.66,0,0,1,124.06,195.53Z"/><path class="cls-21" d="M120.89,194.74a3,3,0,0,1,1.52-.18C122,194.94,121.4,194.71,120.89,194.74Z"/><path class="cls-22" d="M14.11,130c-.09,1.6.28,3.23-.21,4.82a22.68,22.68,0,0,1-.19-4.44A.38.38,0,0,1,14.11,130Z"/><path class="cls-4" d="M305.2,164.16a6.29,6.29,0,0,0,3-4.76,49.05,49.05,0,0,0,0-10.56c-.43-3.64-2.6-5.84-6.21-6.58a14.63,14.63,0,0,0-2-.32c-7.29-.51-14.57-.07-22-.26v40.26h6.15V167.07c4.9.06,9.69-.19,14.47.14,2.11.15,2.75.94,3.18,3.07a26.47,26.47,0,0,1,.2,4.87v6.77h6.36c0-3.89,0-7.69,0-11.49C308.23,167.94,307.57,165.66,305.2,164.16Zm-3.3-6.67c-.07,2.18-.77,3-2.9,3.4a10.15,10.15,0,0,1-2.12.25H284.19v-13.5c4.72.14,9.36-.2,14,.22,2.91.25,3.67,1,3.74,3.94.06,1.89.06,3.8,0,5.69Z"/><path class="cls-4" d="M252.21,164.21c2-1.89,2.71-2.79,2.91-4.92a45.66,45.66,0,0,0,0-10.32c-.58-4.14-2.56-6-6.66-6.8a27.11,27.11,0,0,0-5.08-.45H226a1.82,1.82,0,0,0-1.1.15v40h6.18V167.2a5,5,0,0,1,1.81-.12c4,0,8,0,12,.08,2.57.06,3.55,1,3.86,3.57a30.19,30.19,0,0,1,.14,3.56v7.65h6.32c0-3.92.05-7.76,0-11.61C255.15,167.87,254.46,165.63,252.21,164.21Zm-3.33-7.33c0,2.89-.92,3.8-3.75,4.14a45.37,45.37,0,0,1-5.34.17h-8.72V147.85c.26-.28.56-.18.83-.18,4.35.08,8.72-.2,13.06.16,3.09.26,3.87,1.11,3.92,4.18C248.9,153.63,248.9,155.26,248.88,156.88Z"/><path class="cls-4" d="M335.79,141.76h-8.37c-4.91,13.39-9.79,26.74-14.72,40.18h6.43c1.2-3.29,2.37-6.51,3.53-9.71h17.88l3.64,9.74h6.43Zm-11,24.69,6.81-18.7,6.87,18.7Z"/><path class="cls-3" d="M183.08,200.15a9.08,9.08,0,0,0-9.17-9h-.31c-5.55.15-9.39,4.26-9.25,9.89a9.24,9.24,0,0,0,9.05,9.44,7.67,7.67,0,0,0,.83,0C179.47,210.31,183.25,205.92,183.08,200.15ZM179,205.61a6.24,6.24,0,0,1-7.1,2.54,6.77,6.77,0,0,1-4.76-5.93,9,9,0,0,1,1.61-6.75,6.36,6.36,0,0,1,6.75-2.09,6.8,6.8,0,0,1,4.72,6,11.37,11.37,0,0,1,0,1.43A7.24,7.24,0,0,1,179,205.61Z"/><path class="cls-3" d="M334,191.72a12.7,12.7,0,0,0-2.89,0l-7.71,18.12a6.69,6.69,0,0,0,2.6,0c.59-1.33,1.17-2.67,1.74-4h9.64c.6,1.38,1.15,2.69,1.7,4a6.9,6.9,0,0,0,2.64,0Zm-5.42,12.06c1.29-3.21,2.56-6.33,3.82-9.45h.31l3.83,9.48Z"/><path class="cls-6" d="M368,217.34a27.33,27.33,0,0,0-7,0c-.66,1.65-.6,6.28.06,7.51a10.61,10.61,0,0,0,3.68.22c3.76,0,3.88.42,3.79-3.8C368.39,220.07,368.7,218.79,368,217.34Zm-1.13,6.23H362.1v-4.89h4.76Z"/><path class="cls-7" d="M269.79,217.52a1.76,1.76,0,0,0-.39-.19,28.83,28.83,0,0,0-6.16,0c-.64,0-.92.57-.92,1.19v5.35c0,.9.56,1.27,1.38,1.29h3.45a4.73,4.73,0,0,0,2.65-.33C270.36,223.61,270.36,218.74,269.79,217.52Zm-1.15,6h-4.81v-4.89h4.81Z"/><path class="cls-7" d="M174.66,217.33a33.23,33.23,0,0,0-5.09-.16V225c1.62,0,3.17.08,4.69,0,1.86-.13,2.87-1.44,3-3.62S176.47,217.7,174.66,217.33Zm.72,5.29c-1.14,1.53-2.81.83-4.34,1v-5.06c1.42.22,3-.56,4.21.76A3.16,3.16,0,0,1,175.38,222.62Z"/><path class="cls-7" d="M312.51,217.22c-1.45-.1-2.92,0-4.49,0v7.89c1.52,0,3,.07,4.43,0,2.19-.14,3.31-1.53,3.31-4S314.65,217.37,312.51,217.22Zm1.34,5.4c-1.13,1.53-2.79.84-4.38,1v-5.05c1.47.23,3-.55,4.25.77A3,3,0,0,1,313.85,222.62Z"/><path class="cls-23" d="M226.22,217.21a3.32,3.32,0,0,0-1.5.1c-1.16,2.52-2.34,5.08-3.57,7.77a2.75,2.75,0,0,0,1.48-.08c.38-.52.4-1.17.85-1.57h3.88c.48.5.48,1.23,1,1.69.41-.06.88.15,1.42-.18C228.61,222.34,227.41,219.75,226.22,217.21Zm-2.15,4.65c.43-1,.86-2,1.37-3.15l1.33,3.15Z"/><path class="cls-24" d="M78.82,144.31c.84.11,1.44.51,1.42,1.34A1.27,1.27,0,0,1,79,147a1.33,1.33,0,0,1-.28,0,1.23,1.23,0,0,1-1.31-1.13v-.23C77.47,144.73,78.07,144.38,78.82,144.31Z"/><path class="cls-25" d="M91,144a1.31,1.31,0,0,1-.1,2.62,1.23,1.23,0,0,1-1.31-1.16,1.48,1.48,0,0,1,0-.21A1.26,1.26,0,0,1,90.92,144Z"/><path class="cls-26" d="M83.34,156.7h3.88A6.13,6.13,0,0,1,83.34,156.7Z"/><path class="cls-15" d="M82.44,143.84a4.44,4.44,0,0,1,0,3.09Z"/><path class="cls-15" d="M85.29,161.2a1.74,1.74,0,0,1-1.91,0Z"/><path class="cls-26" d="M82.42,148.22v1.64A2.12,2.12,0,0,1,82.42,148.22Z"/><path class="cls-26" d="M83.41,147.27c0-.51-.22-1.06.19-1.53A2.76,2.76,0,0,1,83.41,147.27Z"/><path class="cls-15" d="M95.05,159.3c-.37.41-.84.19-1.28.22A2.2,2.2,0,0,1,95.05,159.3Z"/><path class="cls-15" d="M87.66,160.7c-.32.45-.79.22-1.19.27A2.07,2.07,0,0,1,87.66,160.7Z"/><path class="cls-15" d="M86.47,161c-.26.37-.66.22-1,.23A1.68,1.68,0,0,1,86.47,161Z"/><path class="cls-15" d="M91,160c-.29.36-.69.2-1,.21A1.68,1.68,0,0,1,91,160Z"/><path class="cls-15" d="M89.81,160.26c-.28.35-.67.21-1,.21A1.54,1.54,0,0,1,89.81,160.26Z"/><path class="cls-15" d="M88.62,160.5c-.27.36-.64.22-1,.22A1.43,1.43,0,0,1,88.62,160.5Z"/><path class="cls-26" d="M83.35,148.59a.42.42,0,0,1,0-.71Z"/><path class="cls-26" d="M87.43,156.66a.56.56,0,0,1,.49-.21Z"/><path class="cls-26" d="M83.64,144.68V144A.65.65,0,0,1,83.64,144.68Z"/><path class="cls-26" d="M82.62,156.47a.51.51,0,0,1,.52.2A.56.56,0,0,1,82.62,156.47Z"/><path class="cls-26" d="M83.6,143.36a.54.54,0,0,1-.19-.55A.54.54,0,0,1,83.6,143.36Z"/><path class="cls-15" d="M83.36,142.64a.5.5,0,0,1-.22-.47Z"/><path class="cls-26" d="M82.13,156.23l.29.17Z"/><path class="cls-27" d="M83.86,156l-.08-.06h-.09c-.16-.09-.38-.07-.55-.21v-.06h-.07a.44.44,0,0,1-.36-.22c-.52-.57-1.28-1-1.4-1.82.72-.64,6.34-.81,7.54-.21-.06,1.1-.85,1.68-1.64,2.27a1.07,1.07,0,0,1-.6.22h0A6.15,6.15,0,0,1,83.86,156Z"/><path class="cls-26" d="M83.86,156h2.63A3.1,3.1,0,0,1,83.86,156Z"/><path class="cls-26" d="M86.58,155.94l.6-.22C87.05,156,86.82,156,86.58,155.94Z"/><path class="cls-26" d="M83.14,155.74l.55.21A.51.51,0,0,1,83.14,155.74Z"/><path class="cls-26" d="M82.68,155.48l.36.22Z"/></svg>