<svg xmlns="http://www.w3.org/2000/svg" xmlns:xlink="http://www.w3.org/1999/xlink" viewBox="0 0 69.43 55"><defs><style>.cls-1{fill:url(#linear-gradient);}.cls-2{fill:url(#linear-gradient-2);}</style><linearGradient id="linear-gradient" x1="-10.69" y1="-2.33" x2="65.89" y2="55.33" gradientUnits="userSpaceOnUse"><stop offset="0" stop-color="#2d9ac0"/><stop offset="1" stop-color="#6ce8ab"/></linearGradient><linearGradient id="linear-gradient-2" x1="-7.86" y1="-6.08" x2="68.72" y2="51.57" xlink:href="#linear-gradient"/></defs><title>Asset 2</title><g id="Layer_2" data-name="Layer 2"><g id="Layer_1-2" data-name="Layer 1"><path class="cls-1" d="M42.2,36.12A1.23,1.23,0,0,0,42,35.4q-2-2.41-3.26-4.16a17.79,17.79,0,0,0,1.16-2.75l5.6-.86a.86.86,0,0,0,.58-.38,1.2,1.2,0,0,0,.26-.71V19.85a1.06,1.06,0,0,0-.26-.7,1,1,0,0,0-.61-.38l-5.5-.83a23.21,23.21,0,0,0-1.23-3c.36-.53.91-1.25,1.63-2.17s1.23-1.57,1.52-2a1.2,1.2,0,0,0,.25-.69c0-.65-1.73-2.58-5.21-5.78a1.15,1.15,0,0,0-.76-.29,1.07,1.07,0,0,0-.72.25L31.13,7.56a15.18,15.18,0,0,0-2.71-1.12L27.59.9a.9.9,0,0,0-.36-.63A1.11,1.11,0,0,0,26.51,0H19.78A1.05,1.05,0,0,0,18.7.87a41.81,41.81,0,0,0-.84,5.57,17.48,17.48,0,0,0-2.78,1.15L10.92,4.34a1.28,1.28,0,0,0-.76-.25c-.46,0-1.41.71-2.86,2.13a31.32,31.32,0,0,0-3,3.22,1,1,0,0,0-.25.72,1.33,1.33,0,0,0,.25.72q2,2.43,3.25,4.16a18.08,18.08,0,0,0-1.15,2.75l-5.61.87A.82.82,0,0,0,.25,19a1.15,1.15,0,0,0-.25.7v6.69a1.08,1.08,0,0,0,.25.71.91.91,0,0,0,.62.34l5.49.87a19.21,19.21,0,0,0,1.27,3c-.39.54-1,1.27-1.7,2.21S4.69,35.1,4.45,35.44a1.21,1.21,0,0,0-.26.68c0,.66,1.74,2.58,5.21,5.79a1.23,1.23,0,0,0,.76.29,1,1,0,0,0,.72-.25l4.27-3.22a16.31,16.31,0,0,0,2.71,1.12l.84,5.53a.9.9,0,0,0,.36.63,1.09,1.09,0,0,0,.72.28h6.73a1.06,1.06,0,0,0,1.08-.87,42.23,42.23,0,0,0,.83-5.61,16.42,16.42,0,0,0,2.79-1.12L35.37,42a1.35,1.35,0,0,0,.75.25c.46,0,1.41-.72,2.84-2.15a39.43,39.43,0,0,0,3-3.24A.93.93,0,0,0,42.2,36.12ZM29.69,29.69a8.92,8.92,0,0,1-6.55,2.71,9.25,9.25,0,0,1-9.25-9.26,9.25,9.25,0,0,1,9.25-9.25,9.25,9.25,0,0,1,9.26,9.25A8.92,8.92,0,0,1,29.69,29.69Z"/><path class="cls-2" d="M64,38A10.37,10.37,0,0,0,63,36.12q1.84-4.08,1.84-5a.33.33,0,0,0-.14-.25c-2.9-1.69-4.39-2.53-4.49-2.53l-.21.07a33.41,33.41,0,0,0-3.33,4c-.48,0-.84-.07-1.09-.07s-.6,0-1.08.07c-.34-.5-1-1.32-1.88-2.44s-1.47-1.68-1.66-1.68a8.4,8.4,0,0,0-1.09.58c-.67.39-1.39.79-2.13,1.23l-1.27.72a.3.3,0,0,0-.14.26q0,.9,1.84,5A9.73,9.73,0,0,0,47.05,38c-3.6.36-5.39.73-5.39,1.12v5.06c0,.38,1.79.76,5.39,1.12a10.74,10.74,0,0,0,1.08,1.88c-1.23,2.72-1.84,4.39-1.84,5a.29.29,0,0,0,.14.25Q50.84,55,50.92,55c.19,0,.74-.57,1.66-1.7s1.54-1.95,1.88-2.46c.48,0,.84.07,1.08.07s.61,0,1.09-.07c.34.51,1,1.33,1.88,2.46S60,55,60.17,55s1.55-.86,4.49-2.57a.31.31,0,0,0,.14-.25c0-.6-.61-2.27-1.84-5A10.74,10.74,0,0,0,64,45.31c3.59-.36,5.39-.74,5.39-1.12V39.13C69.43,38.74,67.63,38.37,64,38Zm-5.22,6.93a4.64,4.64,0,0,1-7.91-3.27,4.63,4.63,0,1,1,7.91,3.27Z"/></g></g></svg>