<svg xmlns="http://www.w3.org/2000/svg" xmlns:xlink="http://www.w3.org/1999/xlink" viewBox="0 0 57 57"><defs><style>.cls-1{fill:url(#linear-gradient);}.cls-2{fill:url(#linear-gradient-2);}.cls-3{fill:url(#linear-gradient-3);}.cls-4{fill:url(#linear-gradient-4);}</style><linearGradient id="linear-gradient" x1="-8.41" y1="53.51" x2="48.59" y2="10.76" gradientUnits="userSpaceOnUse"><stop offset="0" stop-color="#2d9ac0"/><stop offset="1" stop-color="#6ce8ab"/></linearGradient><linearGradient id="linear-gradient-2" x1="-4.33" y1="58.95" x2="52.67" y2="16.2" xlink:href="#linear-gradient"/><linearGradient id="linear-gradient-3" x1="-9.66" y1="51.84" x2="47.34" y2="9.09" xlink:href="#linear-gradient"/><linearGradient id="linear-gradient-4" x1="-14.98" y1="44.74" x2="42.02" y2="1.99" xlink:href="#linear-gradient"/></defs><title>Asset 2</title><g id="Layer_2" data-name="Layer 2"><g id="Layer_1-2" data-name="Layer 1"><path class="cls-1" d="M52.21,26.05V19H45.76V12h-9V11l-11-11H0V57H36.74V51.66H57V26.05ZM26.72,5.7,31,10H26.72Zm6.68,48H3.34V3.34h20v10h10Zm3.34-38.3h5.68V19H36.74Zm0,7H48.87v3.67H36.74Zm0,11.87a4.9,4.9,0,0,1,0,9.21Zm16.92-1.63H47.43V36h6.23V48.32H36.74v-1.4a8.24,8.24,0,0,0,0-16.13v-1.4H53.66Z"/><path class="cls-2" d="M29.61,35.35a4.71,4.71,0,0,0-1.14-1.51,5.69,5.69,0,0,0-1.71-1,5.8,5.8,0,0,0-2.1-.38,5.87,5.87,0,0,0-2.12.38,5.57,5.57,0,0,0-1.71,1,4.54,4.54,0,0,0-1.13,1.51,4.48,4.48,0,0,0,1.13,5.25,5.57,5.57,0,0,0,1.71,1,5.87,5.87,0,0,0,2.12.38,5.8,5.8,0,0,0,2.1-.38,5.69,5.69,0,0,0,1.71-1,4.6,4.6,0,0,0,1.14-1.51,4.28,4.28,0,0,0,0-3.74Zm-3.92,3.32a1.18,1.18,0,0,1-2.05,0,2.71,2.71,0,0,1,0-2.9,1.18,1.18,0,0,1,2.05,0,2.71,2.71,0,0,1,0,2.9Z"/><polygon class="cls-3" points="25 19.93 8.88 39.73 11.39 41.99 27.5 22.19 25 19.93"/><path class="cls-4" d="M16.67,22.86a4.63,4.63,0,0,0-1.15-1.51,5.44,5.44,0,0,0-1.7-1,5.67,5.67,0,0,0-2.1-.38,5.68,5.68,0,0,0-2.13.38,5.61,5.61,0,0,0-1.71,1,4.44,4.44,0,0,0-1.13,1.51,4.36,4.36,0,0,0-.4,1.87,4.43,4.43,0,0,0,.4,1.87,4.64,4.64,0,0,0,1.13,1.51,5.81,5.81,0,0,0,1.71,1,5.88,5.88,0,0,0,2.13.37,5.88,5.88,0,0,0,2.1-.37,5.64,5.64,0,0,0,1.7-1,4.85,4.85,0,0,0,1.15-1.51,4.3,4.3,0,0,0,.42-1.87A4.23,4.23,0,0,0,16.67,22.86Zm-3.93,3.31a1.17,1.17,0,0,1-2.05,0,2.7,2.7,0,0,1,0-2.89,1.17,1.17,0,0,1,2.05,0,2.64,2.64,0,0,1,0,2.89Z"/></g></g></svg>