<svg xmlns="http://www.w3.org/2000/svg" xmlns:xlink="http://www.w3.org/1999/xlink" viewBox="0 0 58.41 76.55"><defs><style>.cls-1{fill:url(#linear-gradient);}.cls-2{fill:url(#linear-gradient-2);}.cls-3{fill:url(#linear-gradient-3);}</style><linearGradient id="linear-gradient" x1="-6.47" y1="60.36" x2="68.53" y2="9.36" gradientUnits="userSpaceOnUse"><stop offset="0" stop-color="#2d9ac0"/><stop offset="1" stop-color="#6ce8ab"/></linearGradient><linearGradient id="linear-gradient-2" x1="-2.45" y1="66.28" x2="72.55" y2="15.28" xlink:href="#linear-gradient"/><linearGradient id="linear-gradient-3" x1="-8.6" y1="57.24" x2="66.4" y2="6.24" xlink:href="#linear-gradient"/></defs><title>Asset 11</title><g id="Layer_2" data-name="Layer 2"><g id="Layer_1-2" data-name="Layer 1"><path class="cls-1" d="M19.66,9.78c-.07-.14-.29-.2-.15-.34s.32-.29.51,0c0-.28.41-.62.65-.58,0,0,.09.09.1,0,.06-.44.56-.36.75-.65s.37,0,.47-.28.33-.26.51-.38l.55-.41a20.9,20.9,0,0,0,4.47-4.68C28,1.74,28.5,1,29,.25c.22-.33.24-.33.45,0a37.54,37.54,0,0,0,2.5,3.62,21.83,21.83,0,0,0,4,3.7,25.56,25.56,0,0,0,4.44,2.58A33.56,33.56,0,0,0,45,11.83a40.3,40.3,0,0,0,4.61,1c1,.17,2.1.29,3.16.4a32.31,32.31,0,0,0,4.4.15c.29,0,.59,0,.88-.05s.35.09.35.34c0,.86,0,1.73,0,2.59q0,15.32,0,30.62A13,13,0,0,1,58,49.81a21.29,21.29,0,0,1-.87,2.78c-.3.8-.68,1.58-1,2.36a20.23,20.23,0,0,1-1.14,2.1,34.06,34.06,0,0,1-3.83,5.11,43.73,43.73,0,0,1-4,3.91,54.14,54.14,0,0,1-4.78,3.63A68.2,68.2,0,0,1,34,74.49q-2.26,1.1-4.59,2a.53.53,0,0,1-.41,0,59.79,59.79,0,0,1-7.68-3.62,61.25,61.25,0,0,1-8.23-5.38,44.78,44.78,0,0,1-6.52-6.17,31.72,31.72,0,0,1-3.77-5.43A26.21,26.21,0,0,1,1.09,52a24.45,24.45,0,0,1-.93-3.48A7.86,7.86,0,0,1,0,47.1q0-16.5,0-33c0-.12,0-.24,0-.36,0-.31.07-.44.4-.41a28.3,28.3,0,0,0,3.19.06c1.17-.05,2.33-.15,3.48-.29a39.33,39.33,0,0,0,4.42-.78,40.18,40.18,0,0,0,4.27-1.27c.7-.26,1.37-.58,2.09-.78.27-.08.47-.3.74-.39S19.24,9.37,19.66,9.78ZM3.33,32.22v4.32c0,3.31,0,6.61,0,9.92a10.34,10.34,0,0,0,.42,2.88,21.26,21.26,0,0,0,1.5,4,27.94,27.94,0,0,0,3.9,5.84,39.86,39.86,0,0,0,4.74,4.63,51.67,51.67,0,0,0,5.24,3.83c1.36.86,2.72,1.72,4.13,2.49,1.78,1,3.61,1.88,5.47,2.7a1.07,1.07,0,0,0,.94,0c2-.9,4-1.86,5.87-2.93a59.25,59.25,0,0,0,5.61-3.52,53.12,53.12,0,0,0,4.22-3.29c.94-.82,1.82-1.7,2.7-2.58A26.51,26.51,0,0,0,50.19,58a27,27,0,0,0,3.35-5.51,21.37,21.37,0,0,0,1.13-3.17,8,8,0,0,0,.38-1.93c0-1.89,0-3.78,0-5.67,0-2.33,0-4.65,0-7q0-7.76,0-15.52c0-.77,0-1.53,0-2.3,0-.16,0-.25-.22-.24-.94,0-1.86-.09-2.79-.16-1.2-.1-2.4-.27-3.58-.47a41.71,41.71,0,0,1-4.13-.92,35.93,35.93,0,0,1-3.92-1.29A31.33,31.33,0,0,1,34.81,11a24.87,24.87,0,0,1-5.3-4.62c-.37-.42-.37-.43-.72,0a24.88,24.88,0,0,1-5,4.42A31.09,31.09,0,0,1,17.57,14a41.14,41.14,0,0,1-6.32,1.84c-1.19.25-2.39.45-3.59.59a33.78,33.78,0,0,1-3.9.3c-.43,0-.43,0-.43.44V32.22Z"/><path class="cls-2" d="M29.23,36.73H39c.5,0,.5,0,.5.49q0,6,0,12c0,.51,0,1,0,1.53a3,3,0,0,1-1.33,2.74,10.93,10.93,0,0,1-3.5,1.82,17.16,17.16,0,0,1-4.08.81,13.79,13.79,0,0,1-2.13.06,16.39,16.39,0,0,1-6.62-1.7,6.41,6.41,0,0,1-2.4-1.95A2.34,2.34,0,0,1,19,51.17V37.3c0-.57,0-.57.56-.57Zm-.07,13.2h1.18c.22,0,.33,0,.27-.31s-.1-.67-.16-1c-.12-.79-.24-1.58-.37-2.37a.63.63,0,0,1,.29-.74,2,2,0,0,0,.74-2.43,2,2,0,0,0-2.45-1.22,2,2,0,0,0-.5,3.74.43.43,0,0,1,.24.54c-.08.36-.15.73-.22,1.09-.15.82-.29,1.64-.45,2.45,0,.21,0,.25.21.25Z"/><path class="cls-3" d="M25.46,33c0,.84,0,1.67,0,2.51,0,.26-.07.37-.35.36h-2.6c-.27,0-.39-.08-.36-.35.18-1.44.11-2.89.28-4.33.09-.74.17-1.48.31-2.21a6,6,0,0,1,3.39-4.37,6.37,6.37,0,0,1,3.42-.74,7.55,7.55,0,0,1,4.15,1.55,6.48,6.48,0,0,1,2.16,3.07,8.18,8.18,0,0,1,.39,2.65c0,1.43,0,2.85,0,4.28,0,.42,0,.45-.46.45H33.51c-.28,0-.36-.1-.36-.36,0-1.44,0-2.88,0-4.32A3.93,3.93,0,0,0,30,27.09a4,4,0,0,0-4.4,2.84,11.86,11.86,0,0,0-.1,2.45c0,.22,0,.44,0,.66Z"/></g></g></svg>