<svg xmlns="http://www.w3.org/2000/svg" xmlns:xlink="http://www.w3.org/1999/xlink" viewBox="0 0 74 74"><defs><style>.cls-1{fill:url(#linear-gradient);}.cls-2{fill:url(#linear-gradient-2);}.cls-3{fill:url(#linear-gradient-3);}.cls-4{fill:url(#linear-gradient-4);}.cls-5{fill:url(#linear-gradient-5);}.cls-6{fill:url(#linear-gradient-6);}</style><linearGradient id="linear-gradient" x1="-8.01" y1="64.82" x2="74.99" y2="3.82" gradientUnits="userSpaceOnUse"><stop offset="0" stop-color="#2d9ac0"/><stop offset="1" stop-color="#6ce8ab"/></linearGradient><linearGradient id="linear-gradient-2" x1="-12.8" y1="58.3" x2="70.2" y2="-2.7" xlink:href="#linear-gradient"/><linearGradient id="linear-gradient-3" x1="-3.9" y1="70.42" x2="79.1" y2="9.42" xlink:href="#linear-gradient"/><linearGradient id="linear-gradient-4" x1="-1.41" y1="73.8" x2="81.59" y2="12.8" xlink:href="#linear-gradient"/><linearGradient id="linear-gradient-5" x1="3.14" y1="80" x2="86.14" y2="19" xlink:href="#linear-gradient"/><linearGradient id="linear-gradient-6" x1="8.85" y1="87.77" x2="91.85" y2="26.77" xlink:href="#linear-gradient"/></defs><title>Asset 8</title><g id="Layer_2" data-name="Layer 2"><g id="Layer_1-2" data-name="Layer 1"><path class="cls-1" d="M58.48,0h-43a1.19,1.19,0,0,0-1.2,1.19v6h-6A1.19,1.19,0,0,0,7.16,8.35v6h-6A1.19,1.19,0,0,0,0,15.52V72.81A1.19,1.19,0,0,0,1.19,74h43a1.19,1.19,0,0,0,1.19-1.19v-6h6a1.19,1.19,0,0,0,1.2-1.19v-6h6a1.2,1.2,0,0,0,1.2-1.2V1.19A1.19,1.19,0,0,0,58.48,0ZM43,71.61H2.39V16.71H43Zm7.16-7.16H45.35V15.52a1.19,1.19,0,0,0-1.19-1.2H9.55V9.55H50.13Zm7.16-7.16H52.52V8.35a1.2,1.2,0,0,0-1.2-1.19H16.71V2.39H57.29Z"/><path class="cls-2" d="M22.68,45.35A13.14,13.14,0,0,0,35.81,32.23a1.2,1.2,0,0,0-1.2-1.2H23.87V20.29a1.19,1.19,0,0,0-1.19-1.19,13.13,13.13,0,1,0,0,26.25Zm-1.2-23.8V32.23a1.2,1.2,0,0,0,1.2,1.19H33.35A10.74,10.74,0,1,1,21.48,21.55Z"/><path class="cls-3" d="M10.74,50.13H33.42v2.39H10.74Z"/><path class="cls-4" d="M9.55,54.9H35.81v2.39H9.55Z"/><path class="cls-5" d="M8.35,69.23H37A1.19,1.19,0,0,0,38.19,68V63.26A1.19,1.19,0,0,0,37,62.06H8.35a1.19,1.19,0,0,0-1.19,1.2V68A1.19,1.19,0,0,0,8.35,69.23Zm1.2-4.78H35.81v2.39H9.55Z"/><path class="cls-6" d="M73.93,24.73h0L70.37,12.79a1.2,1.2,0,0,0-2.29,0L64.5,24.72h0a1.3,1.3,0,0,0-.07.33V69.23a4.78,4.78,0,0,0,9.55,0V25.06A1.3,1.3,0,0,0,73.93,24.73ZM71.61,40.58V52.52H69.23V54.9h2.38v4.78H66.84V47.74h2.39V45.35H66.84V33.42h2.39V31H66.84V26.26h4.77V38.19H69.23v2.39Zm-2.38-23.3,2,6.59h-4Zm0,54.33a2.39,2.39,0,0,1-2.39-2.38V62.06h4.77v7.17A2.39,2.39,0,0,1,69.23,71.61Z"/></g></g></svg>